<svg xmlns="http://www.w3.org/2000/svg" xmlns:xlink="http://www.w3.org/1999/xlink" width="40" height="40" viewBox="0 0 40 40">
  <defs>
    <clipPath id="clip-path">
      <rect id="Rectangle_1829" data-name="Rectangle 1829" width="40" height="40" transform="translate(350 225)" fill="#fff" stroke="#707070" stroke-width="1"/>
    </clipPath>
    <linearGradient id="linear-gradient" x1="1.483" y1="1.079" x2="-0.777" y2="-0.232" gradientUnits="objectBoundingBox">
      <stop offset="0" stop-color="#e6e6e6"/>
      <stop offset="1" stop-color="#c2c2c2"/>
    </linearGradient>
    <clipPath id="clip-path-2">
      <rect id="Rectangle_2677" data-name="Rectangle 2677" width="7.427" height="16.485" fill="none"/>
    </clipPath>
  </defs>
  <g id="button_40x40_-_white_fill" data-name="button 40x40 - white fill" transform="translate(-350 -225)" clip-path="url(#clip-path)">
    <path id="Path_7764" data-name="Path 7764" d="M18,0A18,18,0,1,1,0,18,18,18,0,0,1,18,0Z" transform="translate(352 226)" fill="url(#linear-gradient)"/>
    <g id="Group_5571" data-name="Group 5571" transform="translate(366.286 236.33)">
      <g id="Group_5570" data-name="Group 5570" clip-path="url(#clip-path-2)">
        <path id="Path_8332" data-name="Path 8332" d="M0,128.462a3.713,3.713,0,1,1,3.713,3.713A3.718,3.718,0,0,1,0,128.462m6.6,0a2.888,2.888,0,1,0-2.888,2.888A2.892,2.892,0,0,0,6.6,128.462" transform="translate(0 -115.69)"/>
        <path id="Path_8333" data-name="Path 8333" d="M36.566,160.083a1.238,1.238,0,1,1-1.237-1.237,1.239,1.239,0,0,1,1.237,1.237" transform="translate(-31.616 -147.312)"/>
        <path id="Path_8334" data-name="Path 8334" d="M18.313.711l-3.787,4.78,3.787-.068V6.613H12.736v-.7l3.787-4.789-3.787.069V0h5.577Z" transform="translate(-11.811 0)"/>
      </g>
    </g>
  </g>
</svg>
