<svg xmlns="http://www.w3.org/2000/svg" xmlns:xlink="http://www.w3.org/1999/xlink" width="40" height="40" viewBox="0 0 40 40">
  <defs>
    <clipPath id="clip-path">
      <rect id="Rectangle_1829" data-name="Rectangle 1829" width="40" height="40" transform="translate(350 225)" fill="#fff" stroke="#707070" stroke-width="1"/>
    </clipPath>
    <linearGradient id="linear-gradient" x1="0.117" y1="0.107" x2="0.862" y2="0.932" gradientUnits="objectBoundingBox">
      <stop offset="0" stop-color="#ffbc45"/>
      <stop offset="0.733" stop-color="#f87b62"/>
      <stop offset="1" stop-color="#f16178"/>
    </linearGradient>
    <clipPath id="clip-path-2">
      <rect id="Rectangle_2676" data-name="Rectangle 2676" width="14.268" height="13.913" fill="#fff"/>
    </clipPath>
  </defs>
  <g id="button_40x40_-_white_fill" data-name="button 40x40 - white fill" transform="translate(-350 -225)" clip-path="url(#clip-path)">
    <path id="Path_7764" data-name="Path 7764" d="M18,0A18,18,0,1,1,0,18,18,18,0,0,1,18,0Z" transform="translate(352 226)" fill="url(#linear-gradient)"/>
    <g id="Group_5568" data-name="Group 5568" transform="translate(362.713 237.043)">
      <path id="Path_8330" data-name="Path 8330" d="M4.287,48.208l-1.409,3.15-1.417-3.15H0L2.187,52.32v2.651H3.543v-2.6l2.214-4.165Z" transform="translate(0 -44.633)" fill="#fff"/>
      <g id="Group_5569" data-name="Group 5569" transform="translate(0)">
        <g id="Group_5568-2" data-name="Group 5568" clip-path="url(#clip-path-2)">
          <path id="Path_8331" data-name="Path 8331" d="M93.919,0h-.007a.817.817,0,0,0-.6.272l-1.669,1.87a.555.555,0,0,0,.828.74l.894-1v4.5a3.792,3.792,0,1,0,1.11,0V1.88l.894,1a.555.555,0,1,0,.828-.74L94.527.272a.817.817,0,0,0-.6-.272h-.007ZM96.6,10.128a2.682,2.682,0,1,1-3.237-2.617V9.293a.555.555,0,1,0,1.11,0V7.511A2.681,2.681,0,0,1,96.6,10.128" transform="translate(-83.443)" fill="#fff"/>
        </g>
      </g>
    </g>
  </g>
</svg>
