<svg xmlns="http://www.w3.org/2000/svg" xmlns:xlink="http://www.w3.org/1999/xlink" width="40" height="40" viewBox="0 0 40 40">
  <defs>
    <clipPath id="clip-path">
      <rect id="Rectangle_3135" data-name="Rectangle 3135" width="40" height="40" transform="translate(350 225)" fill="#fff" stroke="#707070" stroke-width="1"/>
    </clipPath>
    <linearGradient id="linear-gradient" x1="1.483" y1="1.079" x2="-0.777" y2="-0.232" gradientUnits="objectBoundingBox">
      <stop offset="0" stop-color="#e6e6e6"/>
      <stop offset="1" stop-color="#c2c2c2"/>
    </linearGradient>
  </defs>
  <g id="button_40x40_-_white_fill" data-name="button 40x40 - white fill" transform="translate(-350 -225)" clip-path="url(#clip-path)">
    <path id="Path_8724" data-name="Path 8724" d="M18,0A18,18,0,1,1,0,18,18,18,0,0,1,18,0Z" transform="translate(352 226)" fill="url(#linear-gradient)"/>
    <g id="Group_6156" data-name="Group 6156" transform="translate(360.704 234.699)">
      <path id="Path_7754" data-name="Path 7754" d="M-2249.788,2737.963a1.632,1.632,0,0,0-1.64,1.63,1.644,1.644,0,0,0,1.626,1.632,1.633,1.633,0,0,0,1.636-1.617A1.622,1.622,0,0,0-2249.788,2737.963Zm0,2.175a.557.557,0,0,1-.549-.541.547.547,0,0,1,.54-.546.54.54,0,0,1,.546.537A.548.548,0,0,1-2249.79,2740.137Zm-.006,1.985a1.643,1.643,0,0,0-1.632,1.644,1.634,1.634,0,0,0,1.634,1.619,1.625,1.625,0,0,0,1.628-1.621A1.635,1.635,0,0,0-2249.8,2742.122Zm.006,2.175a.547.547,0,0,1-.551-.535.556.556,0,0,1,.539-.551.547.547,0,0,1,.547.539A.539.539,0,0,1-2249.789,2744.3Zm2.946-9.283a1.632,1.632,0,0,0-1.634,1.618,1.625,1.625,0,0,0,1.623,1.644,1.634,1.634,0,0,0,1.639-1.633A1.641,1.641,0,0,0-2246.844,2735.014Zm0,2.173a.538.538,0,0,1-.548-.533.547.547,0,0,1,.533-.552.556.556,0,0,1,.552.538A.546.546,0,0,1-2246.842,2737.187Zm.011,7.886a1.624,1.624,0,0,0-1.647,1.619,1.634,1.634,0,0,0,1.629,1.643,1.642,1.642,0,0,0,1.633-1.625A1.632,1.632,0,0,0-2246.831,2745.073Zm-.026,2.174a.547.547,0,0,1-.533-.554.538.538,0,0,1,.549-.532.546.546,0,0,1,.537.549A.556.556,0,0,1-2246.857,2747.247Zm4.18-12.234a1.644,1.644,0,0,0-1.64,1.635,1.634,1.634,0,0,0,1.625,1.628,1.624,1.624,0,0,0,1.637-1.631A1.633,1.633,0,0,0-2242.677,2735.012Zm-.022,2.174a.546.546,0,0,1-.53-.556.556.556,0,0,1,.56-.529.545.545,0,0,1,.525.56A.536.536,0,0,1-2242.7,2737.186Zm2.979.777a1.624,1.624,0,0,0-1.648,1.618,1.636,1.636,0,0,0,1.628,1.644,1.643,1.643,0,0,0,1.634-1.625A1.63,1.63,0,0,0-2239.72,2737.963Zm-.018,2.174a.548.548,0,0,1-.542-.545.541.541,0,0,1,.54-.542.546.546,0,0,1,.546.541A.557.557,0,0,1-2239.739,2740.137Zm.018-2.174a1.624,1.624,0,0,0-1.648,1.618,1.636,1.636,0,0,0,1.628,1.644,1.643,1.643,0,0,0,1.634-1.625A1.63,1.63,0,0,0-2239.72,2737.963Zm-.018,2.174a.548.548,0,0,1-.542-.545.541.541,0,0,1,.54-.542.546.546,0,0,1,.546.541A.557.557,0,0,1-2239.739,2740.137Zm-2.939-5.125a1.644,1.644,0,0,0-1.64,1.635,1.634,1.634,0,0,0,1.625,1.628,1.624,1.624,0,0,0,1.637-1.631A1.633,1.633,0,0,0-2242.677,2735.012Zm-.022,2.174a.546.546,0,0,1-.53-.556.556.556,0,0,1,.56-.529.545.545,0,0,1,.525.56A.536.536,0,0,1-2242.7,2737.186Zm-4.132,7.887a1.624,1.624,0,0,0-1.647,1.619,1.634,1.634,0,0,0,1.629,1.643,1.642,1.642,0,0,0,1.633-1.625A1.632,1.632,0,0,0-2246.831,2745.073Zm-.026,2.174a.547.547,0,0,1-.533-.554.538.538,0,0,1,.549-.532.546.546,0,0,1,.537.549A.556.556,0,0,1-2246.857,2747.247Zm.014-12.233a1.632,1.632,0,0,0-1.634,1.618,1.625,1.625,0,0,0,1.623,1.644,1.634,1.634,0,0,0,1.639-1.633A1.641,1.641,0,0,0-2246.844,2735.014Zm0,2.173a.538.538,0,0,1-.548-.533.547.547,0,0,1,.533-.552.556.556,0,0,1,.552.538A.546.546,0,0,1-2246.842,2737.187Zm-2.953,4.936a1.643,1.643,0,0,0-1.632,1.644,1.634,1.634,0,0,0,1.634,1.619,1.625,1.625,0,0,0,1.628-1.621A1.635,1.635,0,0,0-2249.8,2742.122Zm.006,2.175a.547.547,0,0,1-.551-.535.556.556,0,0,1,.539-.551.547.547,0,0,1,.547.539A.539.539,0,0,1-2249.789,2744.3Zm0-6.334a1.632,1.632,0,0,0-1.64,1.63,1.644,1.644,0,0,0,1.626,1.632,1.633,1.633,0,0,0,1.636-1.617A1.622,1.622,0,0,0-2249.788,2737.963Zm0,2.175a.557.557,0,0,1-.549-.541.547.547,0,0,1,.54-.546.54.54,0,0,1,.546.537A.548.548,0,0,1-2249.79,2740.137Zm0-2.175a1.632,1.632,0,0,0-1.64,1.63,1.644,1.644,0,0,0,1.626,1.632,1.633,1.633,0,0,0,1.636-1.617A1.622,1.622,0,0,0-2249.788,2737.963Zm0,2.175a.557.557,0,0,1-.549-.541.547.547,0,0,1,.54-.546.54.54,0,0,1,.546.537A.548.548,0,0,1-2249.79,2740.137Zm-.006,1.985a1.643,1.643,0,0,0-1.632,1.644,1.634,1.634,0,0,0,1.634,1.619,1.625,1.625,0,0,0,1.628-1.621A1.635,1.635,0,0,0-2249.8,2742.122Zm.006,2.175a.547.547,0,0,1-.551-.535.556.556,0,0,1,.539-.551.547.547,0,0,1,.547.539A.539.539,0,0,1-2249.789,2744.3Zm2.946-9.283a1.632,1.632,0,0,0-1.634,1.618,1.625,1.625,0,0,0,1.623,1.644,1.634,1.634,0,0,0,1.639-1.633A1.641,1.641,0,0,0-2246.844,2735.014Zm0,2.173a.538.538,0,0,1-.548-.533.547.547,0,0,1,.533-.552.556.556,0,0,1,.552.538A.546.546,0,0,1-2246.842,2737.187Zm.011,7.886a1.624,1.624,0,0,0-1.647,1.619,1.634,1.634,0,0,0,1.629,1.643,1.642,1.642,0,0,0,1.633-1.625A1.632,1.632,0,0,0-2246.831,2745.073Zm-.026,2.174a.547.547,0,0,1-.533-.554.538.538,0,0,1,.549-.532.546.546,0,0,1,.537.549A.556.556,0,0,1-2246.857,2747.247Zm4.18-12.234a1.644,1.644,0,0,0-1.64,1.635,1.634,1.634,0,0,0,1.625,1.628,1.624,1.624,0,0,0,1.637-1.631A1.633,1.633,0,0,0-2242.677,2735.012Zm-.022,2.174a.546.546,0,0,1-.53-.556.556.556,0,0,1,.56-.529.545.545,0,0,1,.525.56A.536.536,0,0,1-2242.7,2737.186Zm2.979.777a1.624,1.624,0,0,0-1.648,1.618,1.636,1.636,0,0,0,1.628,1.644,1.643,1.643,0,0,0,1.634-1.625A1.63,1.63,0,0,0-2239.72,2737.963Zm-.018,2.174a.548.548,0,0,1-.542-.545.541.541,0,0,1,.54-.542.546.546,0,0,1,.546.541A.557.557,0,0,1-2239.739,2740.137Zm.018-2.174a1.624,1.624,0,0,0-1.648,1.618,1.636,1.636,0,0,0,1.628,1.644,1.643,1.643,0,0,0,1.634-1.625A1.63,1.63,0,0,0-2239.72,2737.963Zm-.018,2.174a.548.548,0,0,1-.542-.545.541.541,0,0,1,.54-.542.546.546,0,0,1,.546.541A.557.557,0,0,1-2239.739,2740.137Zm-2.939-5.125a1.644,1.644,0,0,0-1.64,1.635,1.634,1.634,0,0,0,1.625,1.628,1.624,1.624,0,0,0,1.637-1.631A1.633,1.633,0,0,0-2242.677,2735.012Zm-.022,2.174a.546.546,0,0,1-.53-.556.556.556,0,0,1,.56-.529.545.545,0,0,1,.525.56A.536.536,0,0,1-2242.7,2737.186Zm-4.132,7.887a1.624,1.624,0,0,0-1.647,1.619,1.634,1.634,0,0,0,1.629,1.643,1.642,1.642,0,0,0,1.633-1.625A1.632,1.632,0,0,0-2246.831,2745.073Zm-.026,2.174a.547.547,0,0,1-.533-.554.538.538,0,0,1,.549-.532.546.546,0,0,1,.537.549A.556.556,0,0,1-2246.857,2747.247Zm.014-12.233a1.632,1.632,0,0,0-1.634,1.618,1.625,1.625,0,0,0,1.623,1.644,1.634,1.634,0,0,0,1.639-1.633A1.641,1.641,0,0,0-2246.844,2735.014Zm0,2.173a.538.538,0,0,1-.548-.533.547.547,0,0,1,.533-.552.556.556,0,0,1,.552.538A.546.546,0,0,1-2246.842,2737.187Zm-2.953,4.936a1.643,1.643,0,0,0-1.632,1.644,1.634,1.634,0,0,0,1.634,1.619,1.625,1.625,0,0,0,1.628-1.621A1.635,1.635,0,0,0-2249.8,2742.122Zm.006,2.175a.547.547,0,0,1-.551-.535.556.556,0,0,1,.539-.551.547.547,0,0,1,.547.539A.539.539,0,0,1-2249.789,2744.3Zm-.013-3.072a1.633,1.633,0,0,0,1.636-1.617,1.622,1.622,0,0,0-1.622-1.645,1.632,1.632,0,0,0-1.64,1.63A1.644,1.644,0,0,0-2249.8,2741.225Zm0-2.175a.54.54,0,0,1,.546.537.548.548,0,0,1-.536.55.557.557,0,0,1-.549-.541A.547.547,0,0,1-2249.8,2739.051Zm13.741-.61a9.141,9.141,0,0,0-7.318-5.951,9.442,9.442,0,0,0-2.706-.056,8.91,8.91,0,0,0-2.843.878,9.318,9.318,0,0,0-2.99,2.363,9.269,9.269,0,0,0-1.891,3.653,8.3,8.3,0,0,0-.247,1.548s-.04,1.206,0,1.7a8.121,8.121,0,0,0,.436,1.936,9.25,9.25,0,0,0,8.879,6.45,2.672,2.672,0,0,0,2.595-3.051,3.3,3.3,0,0,1,.081-1.453,3.124,3.124,0,0,1,3.494-2.167,2.661,2.661,0,0,0,3.088-2.712A8.542,8.542,0,0,0-2236.059,2738.441Zm-2.4,4.768a4.188,4.188,0,0,0-4.773,3.5,4.188,4.188,0,0,0,0,1.282,1.594,1.594,0,0,1-1.619,1.882,8.19,8.19,0,0,1-7.935-6.465,8.284,8.284,0,0,1-.182-1.5,8.277,8.277,0,0,1,6.244-8.2,8.2,8.2,0,0,1,9.771,5.472,8.122,8.122,0,0,1,.382,2.387A1.592,1.592,0,0,1-2238.461,2743.209Zm-1.259-5.246a1.624,1.624,0,0,0-1.648,1.618,1.636,1.636,0,0,0,1.628,1.644,1.643,1.643,0,0,0,1.634-1.625A1.63,1.63,0,0,0-2239.72,2737.963Zm-.018,2.174a.548.548,0,0,1-.542-.545.541.541,0,0,1,.54-.542.546.546,0,0,1,.546.541A.557.557,0,0,1-2239.739,2740.137Zm-2.939-5.125a1.644,1.644,0,0,0-1.64,1.635,1.634,1.634,0,0,0,1.625,1.628,1.624,1.624,0,0,0,1.637-1.631A1.633,1.633,0,0,0-2242.677,2735.012Zm-.022,2.174a.546.546,0,0,1-.53-.556.556.556,0,0,1,.56-.529.545.545,0,0,1,.525.56A.536.536,0,0,1-2242.7,2737.186Zm-4.132,7.887a1.624,1.624,0,0,0-1.647,1.619,1.634,1.634,0,0,0,1.629,1.643,1.642,1.642,0,0,0,1.633-1.625A1.632,1.632,0,0,0-2246.831,2745.073Zm-.026,2.174a.547.547,0,0,1-.533-.554.538.538,0,0,1,.549-.532.546.546,0,0,1,.537.549A.556.556,0,0,1-2246.857,2747.247Zm.014-12.233a1.632,1.632,0,0,0-1.634,1.618,1.625,1.625,0,0,0,1.623,1.644,1.634,1.634,0,0,0,1.639-1.633A1.641,1.641,0,0,0-2246.844,2735.014Zm0,2.173a.538.538,0,0,1-.548-.533.547.547,0,0,1,.533-.552.556.556,0,0,1,.552.538A.546.546,0,0,1-2246.842,2737.187Zm-2.953,4.936a1.643,1.643,0,0,0-1.632,1.644,1.634,1.634,0,0,0,1.634,1.619,1.625,1.625,0,0,0,1.628-1.621A1.635,1.635,0,0,0-2249.8,2742.122Zm.006,2.175a.547.547,0,0,1-.551-.535.556.556,0,0,1,.539-.551.547.547,0,0,1,.547.539A.539.539,0,0,1-2249.789,2744.3Zm-.013-3.072a1.633,1.633,0,0,0,1.636-1.617,1.622,1.622,0,0,0-1.622-1.645,1.632,1.632,0,0,0-1.64,1.63A1.644,1.644,0,0,0-2249.8,2741.225Zm0-2.175a.54.54,0,0,1,.546.537.548.548,0,0,1-.536.55.557.557,0,0,1-.549-.541A.547.547,0,0,1-2249.8,2739.051Zm.012-1.088a1.632,1.632,0,0,0-1.64,1.63,1.644,1.644,0,0,0,1.626,1.632,1.633,1.633,0,0,0,1.636-1.617A1.622,1.622,0,0,0-2249.788,2737.963Zm0,2.175a.557.557,0,0,1-.549-.541.547.547,0,0,1,.54-.546.54.54,0,0,1,.546.537A.548.548,0,0,1-2249.79,2740.137Zm-.006,1.985a1.643,1.643,0,0,0-1.632,1.644,1.634,1.634,0,0,0,1.634,1.619,1.625,1.625,0,0,0,1.628-1.621A1.635,1.635,0,0,0-2249.8,2742.122Zm.006,2.175a.547.547,0,0,1-.551-.535.556.556,0,0,1,.539-.551.547.547,0,0,1,.547.539A.539.539,0,0,1-2249.789,2744.3Zm2.946-9.283a1.632,1.632,0,0,0-1.634,1.618,1.625,1.625,0,0,0,1.623,1.644,1.634,1.634,0,0,0,1.639-1.633A1.641,1.641,0,0,0-2246.844,2735.014Zm0,2.173a.538.538,0,0,1-.548-.533.547.547,0,0,1,.533-.552.556.556,0,0,1,.552.538A.546.546,0,0,1-2246.842,2737.187Zm.011,7.886a1.624,1.624,0,0,0-1.647,1.619,1.634,1.634,0,0,0,1.629,1.643,1.642,1.642,0,0,0,1.633-1.625A1.632,1.632,0,0,0-2246.831,2745.073Zm-.026,2.174a.547.547,0,0,1-.533-.554.538.538,0,0,1,.549-.532.546.546,0,0,1,.537.549A.556.556,0,0,1-2246.857,2747.247Zm4.18-12.234a1.644,1.644,0,0,0-1.64,1.635,1.634,1.634,0,0,0,1.625,1.628,1.624,1.624,0,0,0,1.637-1.631A1.633,1.633,0,0,0-2242.677,2735.012Zm-.022,2.174a.546.546,0,0,1-.53-.556.556.556,0,0,1,.56-.529.545.545,0,0,1,.525.56A.536.536,0,0,1-2242.7,2737.186Zm2.979.777a1.624,1.624,0,0,0-1.648,1.618,1.636,1.636,0,0,0,1.628,1.644,1.643,1.643,0,0,0,1.634-1.625A1.63,1.63,0,0,0-2239.72,2737.963Zm-.018,2.174a.548.548,0,0,1-.542-.545.541.541,0,0,1,.54-.542.546.546,0,0,1,.546.541A.557.557,0,0,1-2239.739,2740.137Zm.018-2.174a1.624,1.624,0,0,0-1.648,1.618,1.636,1.636,0,0,0,1.628,1.644,1.643,1.643,0,0,0,1.634-1.625A1.63,1.63,0,0,0-2239.72,2737.963Zm-.018,2.174a.548.548,0,0,1-.542-.545.541.541,0,0,1,.54-.542.546.546,0,0,1,.546.541A.557.557,0,0,1-2239.739,2740.137Zm-2.939-5.125a1.644,1.644,0,0,0-1.64,1.635,1.634,1.634,0,0,0,1.625,1.628,1.624,1.624,0,0,0,1.637-1.631A1.633,1.633,0,0,0-2242.677,2735.012Zm-.022,2.174a.546.546,0,0,1-.53-.556.556.556,0,0,1,.56-.529.545.545,0,0,1,.525.56A.536.536,0,0,1-2242.7,2737.186Zm-4.132,7.887a1.624,1.624,0,0,0-1.647,1.619,1.634,1.634,0,0,0,1.629,1.643,1.642,1.642,0,0,0,1.633-1.625A1.632,1.632,0,0,0-2246.831,2745.073Zm-.026,2.174a.547.547,0,0,1-.533-.554.538.538,0,0,1,.549-.532.546.546,0,0,1,.537.549A.556.556,0,0,1-2246.857,2747.247Zm.014-12.233a1.632,1.632,0,0,0-1.634,1.618,1.625,1.625,0,0,0,1.623,1.644,1.634,1.634,0,0,0,1.639-1.633A1.641,1.641,0,0,0-2246.844,2735.014Zm0,2.173a.538.538,0,0,1-.548-.533.547.547,0,0,1,.533-.552.556.556,0,0,1,.552.538A.546.546,0,0,1-2246.842,2737.187Zm-2.953,4.936a1.643,1.643,0,0,0-1.632,1.644,1.634,1.634,0,0,0,1.634,1.619,1.625,1.625,0,0,0,1.628-1.621A1.635,1.635,0,0,0-2249.8,2742.122Zm.006,2.175a.547.547,0,0,1-.551-.535.556.556,0,0,1,.539-.551.547.547,0,0,1,.547.539A.539.539,0,0,1-2249.789,2744.3Zm0-6.334a1.632,1.632,0,0,0-1.64,1.63,1.644,1.644,0,0,0,1.626,1.632,1.633,1.633,0,0,0,1.636-1.617A1.622,1.622,0,0,0-2249.788,2737.963Zm0,2.175a.557.557,0,0,1-.549-.541.547.547,0,0,1,.54-.546.54.54,0,0,1,.546.537A.548.548,0,0,1-2249.79,2740.137Z" transform="translate(2254.072 -2732.356)"/>
      <path id="Path_7755" data-name="Path 7755" d="M-2179.715,2808.368a1.633,1.633,0,0,0-1.64,1.631,1.643,1.643,0,0,0,1.626,1.631,1.633,1.633,0,0,0,1.636-1.618A1.622,1.622,0,0,0-2179.715,2808.368Zm0,2.174a.558.558,0,0,1-.549-.541.547.547,0,0,1,.54-.546.54.54,0,0,1,.546.537A.549.549,0,0,1-2179.717,2810.543Zm-.006,1.985a1.644,1.644,0,0,0-1.632,1.644,1.634,1.634,0,0,0,1.634,1.62,1.625,1.625,0,0,0,1.628-1.622A1.634,1.634,0,0,0-2179.723,2812.528Zm.007,2.175a.547.547,0,0,1-.551-.535.555.555,0,0,1,.539-.551.547.547,0,0,1,.547.539A.54.54,0,0,1-2179.716,2814.7Zm2.945-9.284a1.633,1.633,0,0,0-1.635,1.618,1.625,1.625,0,0,0,1.623,1.644,1.633,1.633,0,0,0,1.639-1.633A1.642,1.642,0,0,0-2176.771,2805.418Zm0,2.174a.539.539,0,0,1-.548-.533.546.546,0,0,1,.533-.552.555.555,0,0,1,.552.537A.546.546,0,0,1-2176.769,2807.592Zm.011,7.886a1.625,1.625,0,0,0-1.647,1.621,1.633,1.633,0,0,0,1.629,1.641,1.642,1.642,0,0,0,1.633-1.625A1.633,1.633,0,0,0-2176.758,2815.478Zm-.026,2.175a.547.547,0,0,1-.532-.553.538.538,0,0,1,.549-.533.545.545,0,0,1,.536.548A.556.556,0,0,1-2176.785,2817.652Zm4.18-12.234a1.643,1.643,0,0,0-1.64,1.635,1.634,1.634,0,0,0,1.626,1.628,1.623,1.623,0,0,0,1.636-1.631A1.632,1.632,0,0,0-2172.6,2805.418Zm-.022,2.173a.546.546,0,0,1-.53-.555.555.555,0,0,1,.559-.53.546.546,0,0,1,.526.559A.538.538,0,0,1-2172.627,2807.592Zm2.979.777a1.625,1.625,0,0,0-1.648,1.619,1.635,1.635,0,0,0,1.629,1.643,1.642,1.642,0,0,0,1.633-1.624A1.631,1.631,0,0,0-2169.648,2808.368Zm-.017,2.174a.547.547,0,0,1-.542-.544.539.539,0,0,1,.54-.542.547.547,0,0,1,.546.54A.558.558,0,0,1-2169.666,2810.543Z" transform="translate(2184.001 -2802.761)"/>
      <path id="Path_7756" data-name="Path 7756" d="M-2098.6,2805.428a1.631,1.631,0,0,0-1.634,1.618,1.625,1.625,0,0,0,1.623,1.644,1.633,1.633,0,0,0,1.638-1.633A1.641,1.641,0,0,0-2098.6,2805.428Zm0,2.173a.539.539,0,0,1-.548-.533.545.545,0,0,1,.533-.552.556.556,0,0,1,.552.537A.547.547,0,0,1-2098.6,2807.6Z" transform="translate(2105.83 -2802.771)"/>
      <path id="Path_7757" data-name="Path 7757" d="M-2098.6,3082.065a1.625,1.625,0,0,0-1.647,1.621,1.633,1.633,0,0,0,1.629,1.642,1.641,1.641,0,0,0,1.632-1.624A1.632,1.632,0,0,0-2098.6,3082.065Zm-.026,2.174a.546.546,0,0,1-.533-.553.537.537,0,0,1,.549-.532.546.546,0,0,1,.537.548A.557.557,0,0,1-2098.623,3084.24Z" transform="translate(2105.837 -3069.349)"/>
      <path id="Path_7758" data-name="Path 7758" d="M-2179.712,2886.529a1.633,1.633,0,0,0-1.64,1.632,1.641,1.641,0,0,0,1.625,1.631,1.631,1.631,0,0,0,1.636-1.617A1.623,1.623,0,0,0-2179.712,2886.529Zm0,2.175a.557.557,0,0,1-.548-.541.547.547,0,0,1,.54-.545.539.539,0,0,1,.546.536A.549.549,0,0,1-2179.715,2888.7Z" transform="translate(2183.996 -2880.922)"/>
      <path id="Path_7759" data-name="Path 7759" d="M-1903.076,2886.546a1.624,1.624,0,0,0-1.648,1.619,1.636,1.636,0,0,0,1.629,1.644,1.642,1.642,0,0,0,1.633-1.625A1.63,1.63,0,0,0-1903.076,2886.546Zm-.018,2.174a.548.548,0,0,1-.542-.545.54.54,0,0,1,.54-.543.547.547,0,0,1,.545.54A.558.558,0,0,1-1903.094,2888.72Z" transform="translate(1917.429 -2880.939)"/>
      <path id="Path_7760" data-name="Path 7760" d="M-2179.723,3000.93a1.643,1.643,0,0,0-1.632,1.643,1.635,1.635,0,0,0,1.634,1.62,1.625,1.625,0,0,0,1.628-1.622A1.634,1.634,0,0,0-2179.723,3000.93Zm.007,2.175a.548.548,0,0,1-.551-.535.556.556,0,0,1,.539-.551.547.547,0,0,1,.547.539A.54.54,0,0,1-2179.716,3003.1Z" transform="translate(2184.001 -2991.164)"/>
      <path id="Path_7761" data-name="Path 7761" d="M-1984.2,2805.418a1.645,1.645,0,0,0-1.641,1.635,1.636,1.636,0,0,0,1.627,1.628,1.623,1.623,0,0,0,1.636-1.631A1.632,1.632,0,0,0-1984.2,2805.418Zm-.022,2.173a.547.547,0,0,1-.53-.555.555.555,0,0,1,.56-.53.545.545,0,0,1,.525.559A.537.537,0,0,1-1984.223,2807.592Z" transform="translate(1995.597 -2802.761)"/>
    </g>
  </g>
</svg>
