<svg xmlns="http://www.w3.org/2000/svg" xmlns:xlink="http://www.w3.org/1999/xlink" width="40" height="40" viewBox="0 0 40 40">
  <defs>
    <clipPath id="clip-path">
      <rect id="Rectangle_3138" data-name="Rectangle 3138" width="40" height="40" transform="translate(350 225)" fill="#fff" stroke="#707070" stroke-width="1"/>
    </clipPath>
    <linearGradient id="linear-gradient" x1="1.483" y1="1.079" x2="-0.777" y2="-0.232" gradientUnits="objectBoundingBox">
      <stop offset="0" stop-color="#e6e6e6"/>
      <stop offset="1" stop-color="#c2c2c2"/>
    </linearGradient>
  </defs>
  <g id="button_40x40_-_white_fill" data-name="button 40x40 - white fill" transform="translate(-350 -225)" clip-path="url(#clip-path)">
    <path id="Path_8739" data-name="Path 8739" d="M18,0A18,18,0,1,1,0,18,18,18,0,0,1,18,0Z" transform="translate(352 226)" fill="url(#linear-gradient)"/>
    <g id="effect_7481395" transform="translate(360.035 234.035)">
      <path id="Path_8739-2" data-name="Path 8739" d="M2,3.707A1.707,1.707,0,0,1,3.707,2h2.56a.569.569,0,1,1,0,1.138H3.707a.569.569,0,0,0-.569.569v2.56A.569.569,0,1,1,2,6.267Z" transform="translate(0 0)"/>
      <path id="Path_8740" data-name="Path 8740" d="M21.5,2.569A.569.569,0,0,1,22.069,2h2.56a1.707,1.707,0,0,1,1.707,1.707v2.56a.569.569,0,1,1-1.138,0V3.707a.569.569,0,0,0-.569-.569h-2.56A.569.569,0,0,1,21.5,2.569Z" transform="translate(-8.406 0)"/>
      <path id="Path_8741" data-name="Path 8741" d="M2.569,21.5a.569.569,0,0,1,.569.569v2.56a.569.569,0,0,0,.569.569h2.56a.569.569,0,1,1,0,1.138H3.707A1.707,1.707,0,0,1,2,24.629v-2.56A.569.569,0,0,1,2.569,21.5Z" transform="translate(0 -8.406)"/>
      <path id="Path_8742" data-name="Path 8742" d="M25.767,21.5a.569.569,0,0,1,.569.569v2.56a1.707,1.707,0,0,1-1.707,1.707h-2.56a.569.569,0,1,1,0-1.138h2.56a.569.569,0,0,0,.569-.569v-2.56A.569.569,0,0,1,25.767,21.5Z" transform="translate(-8.406 -8.406)"/>
      <path id="Path_8743" data-name="Path 8743" d="M16.138,5.569a.569.569,0,1,0-1.138,0v.875a.569.569,0,1,0,1.138,0Z" transform="translate(-5.604 -1.293)"/>
      <path id="Path_8744" data-name="Path 8744" d="M8.9,8.1a.569.569,0,0,0-.8.8l.619.619a.569.569,0,1,0,.8-.8Z" transform="translate(-2.556 -2.556)"/>
      <path id="Path_8745" data-name="Path 8745" d="M22.573,8.9a.569.569,0,0,0-.8-.8l-.619.619a.569.569,0,0,0,.8.8Z" transform="translate(-8.183 -2.556)"/>
      <path id="Path_8746" data-name="Path 8746" d="M12.916,8.846a4.07,4.07,0,1,0,4.07,4.07A4.07,4.07,0,0,0,12.916,8.846Z" transform="translate(-2.951 -2.951)"/>
      <path id="Path_8747" data-name="Path 8747" d="M5.569,15a.569.569,0,1,0,0,1.138h.875a.569.569,0,1,0,0-1.138Z" transform="translate(-1.293 -5.604)"/>
      <path id="Path_8748" data-name="Path 8748" d="M24.03,15a.569.569,0,1,0,0,1.138h.875a.569.569,0,1,0,0-1.138Z" transform="translate(-9.252 -5.604)"/>
      <path id="Path_8749" data-name="Path 8749" d="M9.519,21.954a.569.569,0,0,0-.8-.8l-.619.619a.569.569,0,0,0,.8.8Z" transform="translate(-2.556 -8.183)"/>
      <path id="Path_8750" data-name="Path 8750" d="M21.954,21.15a.569.569,0,0,0-.8.8l.619.619a.569.569,0,0,0,.8-.8Z" transform="translate(-8.183 -8.183)"/>
      <path id="Path_8751" data-name="Path 8751" d="M16.138,24.03a.569.569,0,1,0-1.138,0v.875a.569.569,0,1,0,1.138,0Z" transform="translate(-5.604 -9.252)"/>
    </g>
  </g>
</svg>
