<svg xmlns="http://www.w3.org/2000/svg" xmlns:xlink="http://www.w3.org/1999/xlink" width="104" height="104" viewBox="0 0 104 104">
  <defs>
    <clipPath id="clip-path">
      <rect id="Rectangle_2267" data-name="Rectangle 2267" width="104" height="104" fill="#fff" stroke="#707070" stroke-width="1"/>
    </clipPath>
    <filter id="Ellipse_719" x="-4" y="-4" width="122" height="122" filterUnits="userSpaceOnUse">
      <feOffset dx="5" dy="5" input="SourceAlpha"/>
      <feGaussianBlur stdDeviation="5" result="blur"/>
      <feFlood flood-opacity="0.071"/>
      <feComposite operator="in" in2="blur"/>
      <feComposite in="SourceGraphic"/>
    </filter>
    <filter id="Ellipse_720" x="-8" y="-8" width="110" height="110" filterUnits="userSpaceOnUse">
      <feOffset dx="-5" dy="-5" input="SourceAlpha"/>
      <feGaussianBlur stdDeviation="5" result="blur-2"/>
      <feFlood flood-color="#fff" flood-opacity="0.071"/>
      <feComposite operator="in" in2="blur-2"/>
      <feComposite in="SourceGraphic"/>
    </filter>
    <linearGradient id="linear-gradient" x1="-0.254" y1="0.077" x2="0.946" y2="0.655" gradientUnits="objectBoundingBox">
      <stop offset="0" stop-color="#e7e7e7"/>
      <stop offset="1" stop-color="#fcfcfc"/>
    </linearGradient>
  </defs>
  <g id="Mask_Group_44" data-name="Mask Group 44" clip-path="url(#clip-path)">
    <g transform="matrix(1, 0, 0, 1, 0, 0)" filter="url(#Ellipse_719)">
      <circle id="Ellipse_719-2" data-name="Ellipse 719" cx="40" cy="40" r="40" transform="translate(12 12)" fill="#fff" opacity="0.59"/>
    </g>
    <g transform="matrix(1, 0, 0, 1, 0, 0)" filter="url(#Ellipse_720)">
      <circle id="Ellipse_720-2" data-name="Ellipse 720" cx="40" cy="40" r="40" transform="translate(12 12)" fill="#fff"/>
    </g>
    <g id="Ellipse_721" data-name="Ellipse 721" transform="translate(12 12)" stroke="#fff" stroke-width="1.5" opacity="0.8" fill="url(#linear-gradient)">
      <circle cx="40" cy="40" r="40" stroke="none"/>
      <circle cx="40" cy="40" r="39.25" fill="none"/>
    </g>
    <g id="Group_3202" data-name="Group 3202" transform="translate(-8.556 -12.562)">
      <path id="Path_7754" data-name="Path 7754" d="M-2247.431,2741.046a2.531,2.531,0,0,0-2.542,2.527,2.548,2.548,0,0,0,2.52,2.53,2.531,2.531,0,0,0,2.535-2.507A2.514,2.514,0,0,0-2247.431,2741.046Zm0,3.371a.864.864,0,0,1-.851-.839.847.847,0,0,1,.837-.846.836.836,0,0,1,.846.832A.85.85,0,0,1-2247.435,2744.417Zm-.009,3.076a2.548,2.548,0,0,0-2.53,2.549,2.533,2.533,0,0,0,2.533,2.51,2.518,2.518,0,0,0,2.523-2.513A2.533,2.533,0,0,0-2247.444,2747.493Zm.01,3.371a.848.848,0,0,1-.854-.829.862.862,0,0,1,.836-.854.847.847,0,0,1,.848.835A.835.835,0,0,1-2247.434,2750.864Zm4.566-14.389a2.529,2.529,0,0,0-2.533,2.508,2.518,2.518,0,0,0,2.515,2.548,2.531,2.531,0,0,0,2.54-2.531A2.543,2.543,0,0,0-2242.868,2736.475Zm0,3.368a.834.834,0,0,1-.849-.827.848.848,0,0,1,.827-.856.862.862,0,0,1,.855.834A.846.846,0,0,1-2242.866,2739.843Zm.017,12.223a2.517,2.517,0,0,0-2.552,2.51,2.532,2.532,0,0,0,2.525,2.546,2.545,2.545,0,0,0,2.531-2.518A2.53,2.53,0,0,0-2242.849,2752.066Zm-.04,3.369a.847.847,0,0,1-.826-.858.834.834,0,0,1,.85-.825.847.847,0,0,1,.832.851A.862.862,0,0,1-2242.889,2755.436Zm6.478-18.962a2.548,2.548,0,0,0-2.542,2.534,2.532,2.532,0,0,0,2.52,2.522A2.517,2.517,0,0,0-2233.9,2739,2.532,2.532,0,0,0-2236.411,2736.473Zm-.034,3.369a.847.847,0,0,1-.821-.862.861.861,0,0,1,.868-.82.845.845,0,0,1,.813.867A.832.832,0,0,1-2236.445,2739.843Zm4.618,1.2a2.518,2.518,0,0,0-2.555,2.509,2.536,2.536,0,0,0,2.524,2.549,2.547,2.547,0,0,0,2.532-2.518A2.527,2.527,0,0,0-2231.827,2741.047Zm-.028,3.37a.85.85,0,0,1-.84-.845.838.838,0,0,1,.837-.84.847.847,0,0,1,.846.838A.864.864,0,0,1-2231.856,2744.417Zm.028-3.37a2.518,2.518,0,0,0-2.555,2.509,2.536,2.536,0,0,0,2.524,2.549,2.547,2.547,0,0,0,2.532-2.518A2.527,2.527,0,0,0-2231.827,2741.047Zm-.028,3.37a.85.85,0,0,1-.84-.845.838.838,0,0,1,.837-.84.847.847,0,0,1,.846.838A.864.864,0,0,1-2231.856,2744.417Zm-4.555-7.943a2.548,2.548,0,0,0-2.542,2.534,2.532,2.532,0,0,0,2.52,2.522A2.517,2.517,0,0,0-2233.9,2739,2.532,2.532,0,0,0-2236.411,2736.473Zm-.034,3.369a.847.847,0,0,1-.821-.862.861.861,0,0,1,.868-.82.845.845,0,0,1,.813.867A.832.832,0,0,1-2236.445,2739.843Zm-6.4,12.224a2.517,2.517,0,0,0-2.552,2.51,2.532,2.532,0,0,0,2.525,2.546,2.545,2.545,0,0,0,2.531-2.518A2.53,2.53,0,0,0-2242.849,2752.066Zm-.04,3.369a.847.847,0,0,1-.826-.858.834.834,0,0,1,.85-.825.847.847,0,0,1,.832.851A.862.862,0,0,1-2242.889,2755.436Zm.021-18.961a2.529,2.529,0,0,0-2.533,2.508,2.518,2.518,0,0,0,2.515,2.548,2.531,2.531,0,0,0,2.54-2.531A2.543,2.543,0,0,0-2242.868,2736.475Zm0,3.368a.834.834,0,0,1-.849-.827.848.848,0,0,1,.827-.856.862.862,0,0,1,.855.834A.846.846,0,0,1-2242.866,2739.843Zm-4.578,7.65a2.548,2.548,0,0,0-2.53,2.549,2.533,2.533,0,0,0,2.533,2.51,2.518,2.518,0,0,0,2.523-2.513A2.533,2.533,0,0,0-2247.444,2747.493Zm.01,3.371a.848.848,0,0,1-.854-.829.862.862,0,0,1,.836-.854.847.847,0,0,1,.848.835A.835.835,0,0,1-2247.434,2750.864Zm0-9.818a2.531,2.531,0,0,0-2.542,2.527,2.548,2.548,0,0,0,2.52,2.53,2.531,2.531,0,0,0,2.535-2.507A2.514,2.514,0,0,0-2247.431,2741.046Zm0,3.371a.864.864,0,0,1-.851-.839.847.847,0,0,1,.837-.846.836.836,0,0,1,.846.832A.85.85,0,0,1-2247.435,2744.417Zm0-3.371a2.531,2.531,0,0,0-2.542,2.527,2.548,2.548,0,0,0,2.52,2.53,2.531,2.531,0,0,0,2.535-2.507A2.514,2.514,0,0,0-2247.431,2741.046Zm0,3.371a.864.864,0,0,1-.851-.839.847.847,0,0,1,.837-.846.836.836,0,0,1,.846.832A.85.85,0,0,1-2247.435,2744.417Zm-.009,3.076a2.548,2.548,0,0,0-2.53,2.549,2.533,2.533,0,0,0,2.533,2.51,2.518,2.518,0,0,0,2.523-2.513A2.533,2.533,0,0,0-2247.444,2747.493Zm.01,3.371a.848.848,0,0,1-.854-.829.862.862,0,0,1,.836-.854.847.847,0,0,1,.848.835A.835.835,0,0,1-2247.434,2750.864Zm4.566-14.389a2.529,2.529,0,0,0-2.533,2.508,2.518,2.518,0,0,0,2.515,2.548,2.531,2.531,0,0,0,2.54-2.531A2.543,2.543,0,0,0-2242.868,2736.475Zm0,3.368a.834.834,0,0,1-.849-.827.848.848,0,0,1,.827-.856.862.862,0,0,1,.855.834A.846.846,0,0,1-2242.866,2739.843Zm.017,12.223a2.517,2.517,0,0,0-2.552,2.51,2.532,2.532,0,0,0,2.525,2.546,2.545,2.545,0,0,0,2.531-2.518A2.53,2.53,0,0,0-2242.849,2752.066Zm-.04,3.369a.847.847,0,0,1-.826-.858.834.834,0,0,1,.85-.825.847.847,0,0,1,.832.851A.862.862,0,0,1-2242.889,2755.436Zm6.478-18.962a2.548,2.548,0,0,0-2.542,2.534,2.532,2.532,0,0,0,2.52,2.522A2.517,2.517,0,0,0-2233.9,2739,2.532,2.532,0,0,0-2236.411,2736.473Zm-.034,3.369a.847.847,0,0,1-.821-.862.861.861,0,0,1,.868-.82.845.845,0,0,1,.813.867A.832.832,0,0,1-2236.445,2739.843Zm4.618,1.2a2.518,2.518,0,0,0-2.555,2.509,2.536,2.536,0,0,0,2.524,2.549,2.547,2.547,0,0,0,2.532-2.518A2.527,2.527,0,0,0-2231.827,2741.047Zm-.028,3.37a.85.85,0,0,1-.84-.845.838.838,0,0,1,.837-.84.847.847,0,0,1,.846.838A.864.864,0,0,1-2231.856,2744.417Zm.028-3.37a2.518,2.518,0,0,0-2.555,2.509,2.536,2.536,0,0,0,2.524,2.549,2.547,2.547,0,0,0,2.532-2.518A2.527,2.527,0,0,0-2231.827,2741.047Zm-.028,3.37a.85.85,0,0,1-.84-.845.838.838,0,0,1,.837-.84.847.847,0,0,1,.846.838A.864.864,0,0,1-2231.856,2744.417Zm-4.555-7.943a2.548,2.548,0,0,0-2.542,2.534,2.532,2.532,0,0,0,2.52,2.522A2.517,2.517,0,0,0-2233.9,2739,2.532,2.532,0,0,0-2236.411,2736.473Zm-.034,3.369a.847.847,0,0,1-.821-.862.861.861,0,0,1,.868-.82.845.845,0,0,1,.813.867A.832.832,0,0,1-2236.445,2739.843Zm-6.4,12.224a2.517,2.517,0,0,0-2.552,2.51,2.532,2.532,0,0,0,2.525,2.546,2.545,2.545,0,0,0,2.531-2.518A2.53,2.53,0,0,0-2242.849,2752.066Zm-.04,3.369a.847.847,0,0,1-.826-.858.834.834,0,0,1,.85-.825.847.847,0,0,1,.832.851A.862.862,0,0,1-2242.889,2755.436Zm.021-18.961a2.529,2.529,0,0,0-2.533,2.508,2.518,2.518,0,0,0,2.515,2.548,2.531,2.531,0,0,0,2.54-2.531A2.543,2.543,0,0,0-2242.868,2736.475Zm0,3.368a.834.834,0,0,1-.849-.827.848.848,0,0,1,.827-.856.862.862,0,0,1,.855.834A.846.846,0,0,1-2242.866,2739.843Zm-4.578,7.65a2.548,2.548,0,0,0-2.53,2.549,2.533,2.533,0,0,0,2.533,2.51,2.518,2.518,0,0,0,2.523-2.513A2.533,2.533,0,0,0-2247.444,2747.493Zm.01,3.371a.848.848,0,0,1-.854-.829.862.862,0,0,1,.836-.854.847.847,0,0,1,.848.835A.835.835,0,0,1-2247.434,2750.864Zm-.02-4.761a2.531,2.531,0,0,0,2.535-2.507,2.514,2.514,0,0,0-2.513-2.55,2.531,2.531,0,0,0-2.542,2.527A2.548,2.548,0,0,0-2247.453,2746.1Zm0-3.371a.836.836,0,0,1,.846.832.85.85,0,0,1-.831.853.864.864,0,0,1-.851-.839A.847.847,0,0,1-2247.45,2742.732Zm21.3-.945a14.168,14.168,0,0,0-11.342-9.224,14.624,14.624,0,0,0-4.195-.087,13.8,13.8,0,0,0-4.406,1.361,14.435,14.435,0,0,0-4.635,3.663,14.359,14.359,0,0,0-2.931,5.662,12.886,12.886,0,0,0-.382,2.4s-.062,1.869,0,2.628a12.586,12.586,0,0,0,.676,3,14.338,14.338,0,0,0,13.762,10,4.142,4.142,0,0,0,4.022-4.728,5.12,5.12,0,0,1,.125-2.252,4.842,4.842,0,0,1,5.416-3.358,4.124,4.124,0,0,0,4.787-4.2A13.237,13.237,0,0,0-2226.152,2741.787Zm-3.723,7.391a6.491,6.491,0,0,0-7.4,5.425,6.479,6.479,0,0,0,.007,1.987,2.472,2.472,0,0,1-2.51,2.917,12.694,12.694,0,0,1-12.3-10.021,12.854,12.854,0,0,1-.282-2.318,12.83,12.83,0,0,1,9.677-12.717,12.7,12.7,0,0,1,15.144,8.482,12.569,12.569,0,0,1,.593,3.7A2.467,2.467,0,0,1-2229.876,2749.178Zm-1.952-8.131a2.518,2.518,0,0,0-2.555,2.509,2.536,2.536,0,0,0,2.524,2.549,2.547,2.547,0,0,0,2.532-2.518A2.527,2.527,0,0,0-2231.827,2741.047Zm-.028,3.37a.85.85,0,0,1-.84-.845.838.838,0,0,1,.837-.84.847.847,0,0,1,.846.838A.864.864,0,0,1-2231.856,2744.417Zm-4.555-7.943a2.548,2.548,0,0,0-2.542,2.534,2.532,2.532,0,0,0,2.52,2.522A2.517,2.517,0,0,0-2233.9,2739,2.532,2.532,0,0,0-2236.411,2736.473Zm-.034,3.369a.847.847,0,0,1-.821-.862.861.861,0,0,1,.868-.82.845.845,0,0,1,.813.867A.832.832,0,0,1-2236.445,2739.843Zm-6.4,12.224a2.517,2.517,0,0,0-2.552,2.51,2.532,2.532,0,0,0,2.525,2.546,2.545,2.545,0,0,0,2.531-2.518A2.53,2.53,0,0,0-2242.849,2752.066Zm-.04,3.369a.847.847,0,0,1-.826-.858.834.834,0,0,1,.85-.825.847.847,0,0,1,.832.851A.862.862,0,0,1-2242.889,2755.436Zm.021-18.961a2.529,2.529,0,0,0-2.533,2.508,2.518,2.518,0,0,0,2.515,2.548,2.531,2.531,0,0,0,2.54-2.531A2.543,2.543,0,0,0-2242.868,2736.475Zm0,3.368a.834.834,0,0,1-.849-.827.848.848,0,0,1,.827-.856.862.862,0,0,1,.855.834A.846.846,0,0,1-2242.866,2739.843Zm-4.578,7.65a2.548,2.548,0,0,0-2.53,2.549,2.533,2.533,0,0,0,2.533,2.51,2.518,2.518,0,0,0,2.523-2.513A2.533,2.533,0,0,0-2247.444,2747.493Zm.01,3.371a.848.848,0,0,1-.854-.829.862.862,0,0,1,.836-.854.847.847,0,0,1,.848.835A.835.835,0,0,1-2247.434,2750.864Zm-.02-4.761a2.531,2.531,0,0,0,2.535-2.507,2.514,2.514,0,0,0-2.513-2.55,2.531,2.531,0,0,0-2.542,2.527A2.548,2.548,0,0,0-2247.453,2746.1Zm0-3.371a.836.836,0,0,1,.846.832.85.85,0,0,1-.831.853.864.864,0,0,1-.851-.839A.847.847,0,0,1-2247.45,2742.732Zm.018-1.686a2.531,2.531,0,0,0-2.542,2.527,2.548,2.548,0,0,0,2.52,2.53,2.531,2.531,0,0,0,2.535-2.507A2.514,2.514,0,0,0-2247.431,2741.046Zm0,3.371a.864.864,0,0,1-.851-.839.847.847,0,0,1,.837-.846.836.836,0,0,1,.846.832A.85.85,0,0,1-2247.435,2744.417Zm-.009,3.076a2.548,2.548,0,0,0-2.53,2.549,2.533,2.533,0,0,0,2.533,2.51,2.518,2.518,0,0,0,2.523-2.513A2.533,2.533,0,0,0-2247.444,2747.493Zm.01,3.371a.848.848,0,0,1-.854-.829.862.862,0,0,1,.836-.854.847.847,0,0,1,.848.835A.835.835,0,0,1-2247.434,2750.864Zm4.566-14.389a2.529,2.529,0,0,0-2.533,2.508,2.518,2.518,0,0,0,2.515,2.548,2.531,2.531,0,0,0,2.54-2.531A2.543,2.543,0,0,0-2242.868,2736.475Zm0,3.368a.834.834,0,0,1-.849-.827.848.848,0,0,1,.827-.856.862.862,0,0,1,.855.834A.846.846,0,0,1-2242.866,2739.843Zm.017,12.223a2.517,2.517,0,0,0-2.552,2.51,2.532,2.532,0,0,0,2.525,2.546,2.545,2.545,0,0,0,2.531-2.518A2.53,2.53,0,0,0-2242.849,2752.066Zm-.04,3.369a.847.847,0,0,1-.826-.858.834.834,0,0,1,.85-.825.847.847,0,0,1,.832.851A.862.862,0,0,1-2242.889,2755.436Zm6.478-18.962a2.548,2.548,0,0,0-2.542,2.534,2.532,2.532,0,0,0,2.52,2.522A2.517,2.517,0,0,0-2233.9,2739,2.532,2.532,0,0,0-2236.411,2736.473Zm-.034,3.369a.847.847,0,0,1-.821-.862.861.861,0,0,1,.868-.82.845.845,0,0,1,.813.867A.832.832,0,0,1-2236.445,2739.843Zm4.618,1.2a2.518,2.518,0,0,0-2.555,2.509,2.536,2.536,0,0,0,2.524,2.549,2.547,2.547,0,0,0,2.532-2.518A2.527,2.527,0,0,0-2231.827,2741.047Zm-.028,3.37a.85.85,0,0,1-.84-.845.838.838,0,0,1,.837-.84.847.847,0,0,1,.846.838A.864.864,0,0,1-2231.856,2744.417Zm.028-3.37a2.518,2.518,0,0,0-2.555,2.509,2.536,2.536,0,0,0,2.524,2.549,2.547,2.547,0,0,0,2.532-2.518A2.527,2.527,0,0,0-2231.827,2741.047Zm-.028,3.37a.85.85,0,0,1-.84-.845.838.838,0,0,1,.837-.84.847.847,0,0,1,.846.838A.864.864,0,0,1-2231.856,2744.417Zm-4.555-7.943a2.548,2.548,0,0,0-2.542,2.534,2.532,2.532,0,0,0,2.52,2.522A2.517,2.517,0,0,0-2233.9,2739,2.532,2.532,0,0,0-2236.411,2736.473Zm-.034,3.369a.847.847,0,0,1-.821-.862.861.861,0,0,1,.868-.82.845.845,0,0,1,.813.867A.832.832,0,0,1-2236.445,2739.843Zm-6.4,12.224a2.517,2.517,0,0,0-2.552,2.51,2.532,2.532,0,0,0,2.525,2.546,2.545,2.545,0,0,0,2.531-2.518A2.53,2.53,0,0,0-2242.849,2752.066Zm-.04,3.369a.847.847,0,0,1-.826-.858.834.834,0,0,1,.85-.825.847.847,0,0,1,.832.851A.862.862,0,0,1-2242.889,2755.436Zm.021-18.961a2.529,2.529,0,0,0-2.533,2.508,2.518,2.518,0,0,0,2.515,2.548,2.531,2.531,0,0,0,2.54-2.531A2.543,2.543,0,0,0-2242.868,2736.475Zm0,3.368a.834.834,0,0,1-.849-.827.848.848,0,0,1,.827-.856.862.862,0,0,1,.855.834A.846.846,0,0,1-2242.866,2739.843Zm-4.578,7.65a2.548,2.548,0,0,0-2.53,2.549,2.533,2.533,0,0,0,2.533,2.51,2.518,2.518,0,0,0,2.523-2.513A2.533,2.533,0,0,0-2247.444,2747.493Zm.01,3.371a.848.848,0,0,1-.854-.829.862.862,0,0,1,.836-.854.847.847,0,0,1,.848.835A.835.835,0,0,1-2247.434,2750.864Zm0-9.818a2.531,2.531,0,0,0-2.542,2.527,2.548,2.548,0,0,0,2.52,2.53,2.531,2.531,0,0,0,2.535-2.507A2.514,2.514,0,0,0-2247.431,2741.046Zm0,3.371a.864.864,0,0,1-.851-.839.847.847,0,0,1,.837-.846.836.836,0,0,1,.846.832A.85.85,0,0,1-2247.435,2744.417Z" transform="translate(2300.226 -2682.21)" fill="#25245e"/>
      <path id="Path_7755" data-name="Path 7755" d="M-2178.812,2809.991a2.531,2.531,0,0,0-2.542,2.528,2.547,2.547,0,0,0,2.52,2.529,2.531,2.531,0,0,0,2.535-2.507A2.515,2.515,0,0,0-2178.812,2809.991Zm0,3.37a.864.864,0,0,1-.851-.838.848.848,0,0,1,.837-.846.837.837,0,0,1,.846.832A.85.85,0,0,1-2178.817,2813.361Zm-.009,3.077a2.547,2.547,0,0,0-2.529,2.547,2.532,2.532,0,0,0,2.532,2.511,2.519,2.519,0,0,0,2.524-2.513A2.533,2.533,0,0,0-2178.825,2816.438Zm.011,3.371a.849.849,0,0,1-.854-.83.861.861,0,0,1,.835-.854.847.847,0,0,1,.848.835A.836.836,0,0,1-2178.814,2819.809Zm4.565-14.39a2.531,2.531,0,0,0-2.533,2.508,2.518,2.518,0,0,0,2.516,2.549,2.531,2.531,0,0,0,2.539-2.531A2.544,2.544,0,0,0-2174.249,2805.419Zm0,3.369a.834.834,0,0,1-.849-.827.847.847,0,0,1,.827-.856.861.861,0,0,1,.855.833A.846.846,0,0,1-2174.247,2808.788Zm.017,12.223a2.519,2.519,0,0,0-2.553,2.512,2.53,2.53,0,0,0,2.525,2.544,2.544,2.544,0,0,0,2.531-2.518A2.53,2.53,0,0,0-2174.23,2821.01Zm-.041,3.37a.847.847,0,0,1-.825-.857.833.833,0,0,1,.851-.825.845.845,0,0,1,.831.85A.863.863,0,0,1-2174.271,2824.381Zm6.479-18.962a2.547,2.547,0,0,0-2.542,2.534,2.533,2.533,0,0,0,2.52,2.523,2.516,2.516,0,0,0,2.537-2.528A2.53,2.53,0,0,0-2167.792,2805.418Zm-.034,3.369a.846.846,0,0,1-.821-.861.86.86,0,0,1,.867-.821.846.846,0,0,1,.815.867A.833.833,0,0,1-2167.827,2808.787Zm4.617,1.2a2.519,2.519,0,0,0-2.554,2.51,2.534,2.534,0,0,0,2.525,2.547,2.545,2.545,0,0,0,2.531-2.517A2.528,2.528,0,0,0-2163.209,2809.991Zm-.027,3.37a.848.848,0,0,1-.84-.844.835.835,0,0,1,.837-.841.847.847,0,0,1,.845.837A.864.864,0,0,1-2163.237,2813.361Z" transform="translate(2231.61 -2751.153)" fill="#25245e"/>
      <path id="Path_7756" data-name="Path 7756" d="M-2097.7,2805.428a2.528,2.528,0,0,0-2.533,2.507,2.518,2.518,0,0,0,2.516,2.549,2.532,2.532,0,0,0,2.539-2.531A2.543,2.543,0,0,0-2097.7,2805.428Zm0,3.369a.836.836,0,0,1-.85-.827.846.846,0,0,1,.826-.856.861.861,0,0,1,.856.833A.848.848,0,0,1-2097.7,2808.8Z" transform="translate(2155.061 -2751.164)" fill="#25245e"/>
      <path id="Path_7757" data-name="Path 7757" d="M-2097.691,3082.065a2.519,2.519,0,0,0-2.552,2.512,2.531,2.531,0,0,0,2.525,2.545,2.544,2.544,0,0,0,2.53-2.518A2.53,2.53,0,0,0-2097.691,3082.065Zm-.04,3.37a.847.847,0,0,1-.826-.857.832.832,0,0,1,.85-.825.846.846,0,0,1,.833.85A.863.863,0,0,1-2097.731,3085.436Z" transform="translate(2155.069 -3012.208)" fill="#25245e"/>
      <path id="Path_7758" data-name="Path 7758" d="M-2178.811,2886.529a2.532,2.532,0,0,0-2.542,2.529,2.545,2.545,0,0,0,2.52,2.528,2.529,2.529,0,0,0,2.536-2.507A2.516,2.516,0,0,0-2178.811,2886.529Zm0,3.371a.863.863,0,0,1-.85-.839.847.847,0,0,1,.836-.845.835.835,0,0,1,.846.831A.85.85,0,0,1-2178.815,2889.9Z" transform="translate(2231.605 -2827.692)" fill="#25245e"/>
      <path id="Path_7759" data-name="Path 7759" d="M-1902.17,2886.546a2.517,2.517,0,0,0-2.554,2.509,2.536,2.536,0,0,0,2.524,2.547,2.546,2.546,0,0,0,2.532-2.518A2.527,2.527,0,0,0-1902.17,2886.546Zm-.028,3.37a.85.85,0,0,1-.84-.844.837.837,0,0,1,.837-.841.848.848,0,0,1,.846.837A.865.865,0,0,1-1902.2,2889.916Z" transform="translate(1970.57 -2827.709)" fill="#25245e"/>
      <path id="Path_7760" data-name="Path 7760" d="M-2178.825,3000.93a2.547,2.547,0,0,0-2.529,2.547,2.534,2.534,0,0,0,2.532,2.512,2.519,2.519,0,0,0,2.524-2.514A2.533,2.533,0,0,0-2178.825,3000.93Zm.011,3.371a.849.849,0,0,1-.854-.83.862.862,0,0,1,.835-.854.847.847,0,0,1,.848.836A.837.837,0,0,1-2178.814,3004.3Z" transform="translate(2231.61 -2935.646)" fill="#25245e"/>
      <path id="Path_7761" data-name="Path 7761" d="M-1983.3,2805.418a2.55,2.55,0,0,0-2.544,2.534,2.535,2.535,0,0,0,2.522,2.523,2.516,2.516,0,0,0,2.536-2.528A2.53,2.53,0,0,0-1983.3,2805.418Zm-.034,3.369a.846.846,0,0,1-.821-.861.86.86,0,0,1,.868-.821.845.845,0,0,1,.813.867A.832.832,0,0,1-1983.333,2808.787Z" transform="translate(2047.117 -2751.153)" fill="#25245e"/>
    </g>
  </g>
</svg>
