<svg xmlns="http://www.w3.org/2000/svg" width="16.717" height="21.181" viewBox="0 0 16.717 21.181">
  <path id="Union_48" data-name="Union 48" d="M21372.365,13007.174h-1.422a.364.364,0,0,1-.373-.357.369.369,0,0,1,.373-.363h1.176l.82-2.858a.372.372,0,0,1,.365-.266h.719v-1.613l-3.814-2.12a.2.2,0,0,1-.021-.015,2.552,2.552,0,0,1-.7-3.646l0-.006a2.79,2.79,0,0,1,1.771-1.09,2.837,2.837,0,0,1,2.053.426l7.137,4.32a.359.359,0,0,1,.109.1.339.339,0,0,1,.068.2v3.437h.717a.373.373,0,0,1,.365.266l.822,2.858h1.17a.373.373,0,0,1,.381.363.368.368,0,0,1-.381.357h-11.26a.236.236,0,0,1-.037,0A.289.289,0,0,1,21372.365,13007.174Zm9.383-.721-.691-2.4h-7.465l-.691,2.4Zm-1.879-3.124v-3.239l-6.967-4.222s-.01,0-.016-.011a2.06,2.06,0,0,0-1.49-.306,1.981,1.981,0,0,0-1.285.787v0a1.847,1.847,0,0,0,.494,2.64l3.924,2.178a.415.415,0,0,1,.074.058.354.354,0,0,1,.178.3v1.811Zm-9.543-5.835a1.459,1.459,0,1,1,1.459,1.392A1.429,1.429,0,0,1,21370.326,12997.494Zm.758,0a.7.7,0,1,0,.7-.67A.686.686,0,0,0,21371.084,12997.494Zm10.148-1.733-3.064-1.018-1.059.618a2.2,2.2,0,0,1-2.936-.685,1.932,1.932,0,0,1-.258-1.539,2.033,2.033,0,0,1,.967-1.258l1.063-.614.115-.752.281-1.9.061-.409a1.464,1.464,0,0,1,1.459-1.213h.008l3.311.011a1.5,1.5,0,0,1,1.063.43,1.37,1.37,0,0,1,.414,1.028,1.478,1.478,0,0,1-1.5,1.355h0l-2-.006-.326,2.168,2.166.716.932-1.723a1.436,1.436,0,0,1,.863-.694,1.558,1.558,0,0,1,1.125.085,1.382,1.382,0,0,1,.639,1.9l-1.514,2.812a1.438,1.438,0,0,1-.545.559,1.577,1.577,0,0,1-.768.2A1.608,1.608,0,0,1,21381.232,12995.761Zm-2.99-1.75,3.236,1.07a.746.746,0,0,0,.611-.062.7.7,0,0,0,.264-.276l1.514-2.808a.67.67,0,0,0-.309-.926.741.741,0,0,0-.975.292l-1.072,2a.384.384,0,0,1-.463.173l-2.773-.914a.36.36,0,0,1-.248-.394l.414-2.767a.376.376,0,0,1,.377-.312l2.33.011h0a.721.721,0,0,0,.744-.665.657.657,0,0,0-.2-.5.731.731,0,0,0-.521-.21l-3.318-.01a.716.716,0,0,0-.711.587l-.062.41-.283,1.9-.141.921a.364.364,0,0,1-.174.255l-1.213.7a1.322,1.322,0,0,0-.625.813,1.26,1.26,0,0,0,.166,1,1.419,1.419,0,0,0,1.895.439l1.215-.7a.362.362,0,0,1,.191-.052A.354.354,0,0,1,21378.242,12994.011Zm-2.289-.729a.358.358,0,1,1,0,.716A.358.358,0,1,1,21375.953,12993.281Z" transform="translate(-21368.494 -12986.495)" fill="#25245e" stroke="rgba(0,0,0,0)" stroke-width="1"/>
</svg>
