<svg xmlns="http://www.w3.org/2000/svg" xmlns:xlink="http://www.w3.org/1999/xlink" width="264.395" height="245.705" viewBox="0 0 264.395 245.705">
  <defs>
    <filter id="Rectangle_1648" x="0" y="0" width="264.395" height="245.705" filterUnits="userSpaceOnUse">
      <feOffset dx="12" dy="12" input="SourceAlpha"/>
      <feGaussianBlur stdDeviation="10" result="blur"/>
      <feFlood flood-color="#171d1a" flood-opacity="0.071"/>
      <feComposite operator="in" in2="blur"/>
      <feComposite in="SourceGraphic"/>
    </filter>
    <filter id="Rectangle_1663" x="1.119" y="1.119" width="228.158" height="209.468" filterUnits="userSpaceOnUse">
      <feOffset dx="-5" dy="-5" input="SourceAlpha"/>
      <feGaussianBlur stdDeviation="10" result="blur-2"/>
      <feFlood flood-color="#fff" flood-opacity="0.149"/>
      <feComposite operator="in" in2="blur-2"/>
      <feComposite in="SourceGraphic"/>
    </filter>
    <linearGradient id="linear-gradient" x1="-0.571" y1="0.301" x2="0.776" y2="0.456" gradientUnits="objectBoundingBox">
      <stop offset="0" stop-color="#e7e7e7"/>
      <stop offset="1" stop-color="#fcfcfc"/>
    </linearGradient>
    <linearGradient id="linear-gradient-2" x1="0.5" x2="1" y2="1" gradientUnits="objectBoundingBox">
      <stop offset="0" stop-color="#8acdea"/>
      <stop offset="1" stop-color="#30a8ce"/>
    </linearGradient>
  </defs>
  <g id="Group_5770" data-name="Group 5770" transform="translate(-258.723 -119.147)">
    <g id="sub_menu_card" data-name="sub menu card" transform="matrix(0.995, -0.105, 0.105, 0.995, 294.842, 171.468)">
      <g transform="matrix(0.99, 0.1, -0.1, 0.99, -30.45, -55.81)" filter="url(#Rectangle_1648)">
        <rect id="Rectangle_1648-2" data-name="Rectangle 1648" width="155" height="134" rx="25" transform="matrix(0.99, -0.1, 0.1, 0.99, 36.12, 52.32)" fill="#fcfcfc"/>
      </g>
      <g transform="matrix(0.99, 0.1, -0.1, 0.99, -30.45, -55.81)" filter="url(#Rectangle_1663)">
        <rect id="Rectangle_1663-2" data-name="Rectangle 1663" width="155" height="134" rx="25" transform="matrix(0.99, -0.1, 0.1, 0.99, 36.12, 52.32)" fill="#fcfcfc"/>
      </g>
      <g id="Rectangle_1664" data-name="Rectangle 1664" stroke="#fcfcfc" stroke-width="1.5" fill="url(#linear-gradient)">
        <rect width="155" height="134" rx="25" stroke="none"/>
        <rect x="0.75" y="0.75" width="153.5" height="132.5" rx="24.25" fill="none"/>
      </g>
    </g>
    <g id="Group_5771" data-name="Group 5771" transform="translate(-223 57.216)">
      <g id="Group_5771-2" data-name="Group 5771" transform="translate(-1 -1)" opacity="0.35">
        <path id="Path_8435" data-name="Path 8435" d="M.5,31.337a3.307,3.307,0,0,0,3.32,3.32h10.33a3.922,3.922,0,0,0,2.952-3.32V23.221a3.307,3.307,0,0,0-3.32-3.321H3.82A3.307,3.307,0,0,0,.5,23.221Z" transform="translate(552.5 139.125)" fill="url(#linear-gradient-2)"/>
        <path id="Path_8436" data-name="Path 8436" d="M20.551,42.626a3.307,3.307,0,0,0,3.32-3.321V20.12a3.307,3.307,0,0,0-3.32-3.32H10.22A3.307,3.307,0,0,0,6.9,20.12V39.675A3.307,3.307,0,0,0,10.22,43h10.33Z" transform="translate(569.713 130.788)" fill="url(#linear-gradient-2)"/>
        <path id="Path_8437" data-name="Path 8437" d="M16.72,50.425h10.33a3.307,3.307,0,0,0,3.32-3.321V17.22a3.307,3.307,0,0,0-3.32-3.32H16.72a3.307,3.307,0,0,0-3.32,3.32V47.474A3.922,3.922,0,0,0,16.72,50.425Z" transform="translate(587.193 122.988)" fill="url(#linear-gradient-2)"/>
        <path id="Path_8438" data-name="Path 8438" d="M36.871,12.32A3.307,3.307,0,0,0,33.551,9H23.22a3.307,3.307,0,0,0-3.32,3.32V60.283A3.307,3.307,0,0,0,23.22,63.6h10.33a3.307,3.307,0,0,0,3.32-3.321Z" transform="translate(604.675 109.811)" fill="url(#linear-gradient-2)"/>
      </g>
      <g id="growth-graph" transform="translate(549.5 85.809)">
        <path id="Path_8435-2" data-name="Path 8435" d="M.5,31.337a3.307,3.307,0,0,0,3.32,3.32h10.33a3.922,3.922,0,0,0,2.952-3.32V23.221a3.307,3.307,0,0,0-3.32-3.321H3.82A3.307,3.307,0,0,0,.5,23.221Z" transform="translate(0 50.317)" fill="url(#linear-gradient-2)"/>
        <path id="Path_8436-2" data-name="Path 8436" d="M20.551,42.626a3.307,3.307,0,0,0,3.32-3.321V20.12a3.307,3.307,0,0,0-3.32-3.32H10.22A3.307,3.307,0,0,0,6.9,20.12V39.675A3.307,3.307,0,0,0,10.22,43h10.33Z" transform="translate(17.212 41.98)" fill="url(#linear-gradient-2)"/>
        <path id="Path_8437-2" data-name="Path 8437" d="M16.72,50.425h10.33a3.307,3.307,0,0,0,3.32-3.321V17.22a3.307,3.307,0,0,0-3.32-3.32H16.72a3.307,3.307,0,0,0-3.32,3.32V47.474A3.922,3.922,0,0,0,16.72,50.425Z" transform="translate(34.694 34.18)" fill="url(#linear-gradient-2)"/>
        <path id="Path_8438-2" data-name="Path 8438" d="M36.871,12.32A3.307,3.307,0,0,0,33.551,9H23.22a3.307,3.307,0,0,0-3.32,3.32V60.283A3.307,3.307,0,0,0,23.22,63.6h10.33a3.307,3.307,0,0,0,3.32-3.321Z" transform="translate(52.175 21.002)" fill="url(#linear-gradient-2)"/>
      </g>
    </g>
  </g>
</svg>
