<svg xmlns="http://www.w3.org/2000/svg" xmlns:xlink="http://www.w3.org/1999/xlink" width="52" height="52" viewBox="0 0 52 52">
  <defs>
    <clipPath id="clip-path">
      <rect id="Rectangle_2747" data-name="Rectangle 2747" width="52" height="52" transform="translate(29 39)" fill="#fff" stroke="#707070" stroke-width="1"/>
    </clipPath>
  </defs>
  <g id="button_48x48_-_stroke" data-name="button 48x48 - stroke" transform="translate(-29 -39)" clip-path="url(#clip-path)">
    <g id="Group_6201" data-name="Group 6201" transform="translate(-822 -179)">
      <circle id="Ellipse_15" data-name="Ellipse 15" cx="19" cy="19" r="19" transform="translate(858 223)" fill="#25245e" opacity="0.3"/>
      <g id="Ellipse_14" data-name="Ellipse 14" transform="translate(857 219)" fill="#25245e" stroke="#25245e" stroke-width="1">
        <circle cx="20" cy="20" r="20" stroke="none"/>
        <circle cx="20" cy="20" r="19.5" fill="none"/>
      </g>
      <g id="disco_icon" data-name="disco icon" transform="translate(-882.671 -2098.307)">
        <g id="Group_2081" data-name="Group 2081" transform="translate(1759.193 2327.506)">
          <g id="Group_2080" data-name="Group 2080" transform="translate(0 0)">
            <g id="Path_5330" data-name="Path 5330">
              <path id="Path_6990" data-name="Path 6990" d="M1965.287,2365.529a1.184,1.184,0,0,0-.15.009v-2.491a.348.348,0,0,1,.1-.25.352.352,0,0,1,.25-.1h0a.354.354,0,0,1,.354.354v2.491a1.187,1.187,0,0,0-.151-.009Z" transform="translate(-1965.046 -2362.693)" fill="#fcfcfc"/>
              <path id="Path_6991" data-name="Path 6991" d="M1964.936,2427.2v.334a.4.4,0,0,1-.216.354h-.368a.4.4,0,0,1-.216-.354v-.334l.046-.006a1.023,1.023,0,0,1,.151-.01h.406a1.107,1.107,0,0,1,.151.01Z" transform="translate(-1964.091 -2424.258)" fill="#fcfcfc"/>
              <path id="Path_6992" data-name="Path 6992" d="M1963.981,2427.421a.279.279,0,0,0-.045-.007v.341a.354.354,0,1,1-.708,0v-.341a.346.346,0,0,0-.045.006.4.4,0,0,0-.045.009v.326a.445.445,0,0,0,.181.358.456.456,0,0,1,.057,0h.407a.481.481,0,0,1,.063,0,.443.443,0,0,0,.182-.358v-.326A.452.452,0,0,0,1963.981,2427.421Z" transform="translate(-1963.137 -2424.477)" fill="#fcfcfc"/>
            </g>
          </g>
        </g>
        <g id="Group_2083" data-name="Group 2083" transform="translate(1759.287 2325.834)">
          <g id="Group_2082" data-name="Group 2082" transform="translate(0 0)">
            <g id="Path_5331" data-name="Path 5331">
              <path id="Path_6993" data-name="Path 6993" d="M1965.924,2326.187a.352.352,0,0,1-.353.354.353.353,0,0,1-.354-.353.354.354,0,1,1,.707,0Z" transform="translate(-1965.217 -2325.834)" fill="#fcfcfc"/>
            </g>
          </g>
        </g>
        <g id="Group_2085" data-name="Group 2085" transform="translate(1753.164 2330.433)">
          <g id="Group_2084" data-name="Group 2084" transform="translate(0 0)">
            <g id="Path_5332" data-name="Path 5332">
              <path id="Path_6994" data-name="Path 6994" d="M1843.132,2434.507a6.475,6.475,0,0,0-4.916-5.27h0l-.092-.04v-.83a1.187,1.187,0,0,0-.941-1.158l-.046-.008-.045-.007a1.107,1.107,0,0,0-.151-.01h-.407a1.027,1.027,0,0,0-.151.01l-.045.006-.045.009a1.187,1.187,0,0,0-.942,1.158v.849l-.036.008a6.419,6.419,0,0,0-2.363,1.067l0,0a.359.359,0,0,0-.067.049l0,0a6.469,6.469,0,0,0,0,10.394l0,0a.37.37,0,0,0,.064.046l0,0a6.475,6.475,0,0,0,10.181-6.285Zm-4.813-4.508a5.716,5.716,0,0,1,1.621.747l.014.033.014.041a18.315,18.315,0,0,1,.454,2.288l.008.061-.061-.01c-.542-.09-1.092-.158-1.636-.2l-.038,0,0-.037a27.254,27.254,0,0,0-.43-2.863l-.015-.073Zm-2.26-1.635a.476.476,0,0,1,.417-.471.456.456,0,0,1,.058,0h.407a.438.438,0,0,1,.063,0,.477.477,0,0,1,.412.47v.738l-.05-.005a6.558,6.558,0,0,0-1.256,0l-.05,0Zm-.634,4.482a26.286,26.286,0,0,1,.476-2.98l.034-.035a5.8,5.8,0,0,1,1.524-.011l.032,0,.007.031a26.493,26.493,0,0,1,.475,2.987l.006.052-.052,0a22.6,22.6,0,0,0-2.454,0l-.053,0Zm-2.451.275a20.209,20.209,0,0,1,.454-2.307l-.183.137.2-.14a5.732,5.732,0,0,1,1.628-.79l.073-.022-.015.075a27.129,27.129,0,0,0-.425,2.846l0,.037-.037,0c-.544.051-1.095.122-1.637.211l-.061.01Zm-1.6.3a5.761,5.761,0,0,1,1.027-1.677l.08-.091v.13c-.1.493-.18,1-.239,1.5l0,.033-.078.015-.816.167Zm-.256,3.426,0-.018a5.821,5.821,0,0,1-.009-2.531l.008-.035h.053l1-.205,0,.06a19.166,19.166,0,0,0,0,2.89l0,.059-1.016-.2Zm1.28,2.5a5.78,5.78,0,0,1-1-1.615l-.11-.022.166-.082.01.025.772.151,0,.033c.06.49.138.985.236,1.471l.033.167Zm.524-2.139-.035-.006,0-.035a18.508,18.508,0,0,1,0-3.215l.041,0-.007-.044c.553-.1,1.115-.174,1.67-.229l.053-.005,0,.053c-.036.559-.056,1.127-.058,1.688,0,.651.023,1.311.068,1.962l0,.053-.053-.005C1834.042,2437.372,1833.478,2437.3,1832.923,2437.2Zm2.174,3.868a5.729,5.729,0,0,1-1.634-.785l-.024.006-.014-.042a18.452,18.452,0,0,1-.449-2.26l-.008-.061.06.01c.546.088,1.1.156,1.648.2l.038,0,0,.037a27.249,27.249,0,0,0,.438,2.837l.015.075Zm2.864-2.819a26.442,26.442,0,0,1-.485,2.974l0,.01v.025l-.04,0a5.666,5.666,0,0,1-.7.043,5.848,5.848,0,0,1-.776-.053l-.031,0-.007-.031a26.164,26.164,0,0,1-.484-2.974l-.005-.053.053,0c.414.022.835.033,1.25.034.39,0,.786-.01,1.177-.03l.053,0Zm2.459-.251a18.454,18.454,0,0,1-.462,2.311l-.009.034h-.025a5.738,5.738,0,0,1-1.628.75l-.072.02.015-.073a27.272,27.272,0,0,0,.442-2.854l0-.037.037,0c.546-.045,1.1-.112,1.646-.2l.06-.009Zm.093-.826,0,.041h-.042c-.553.09-1.115.162-1.67.215l-.053,0,0-.053c.007-.1.034-1.687.041-1.789a.354.354,0,1,0-.707-.041c-.008.137-.038,1.758-.049,1.9l0,.04-.04,0c-.416.023-.835.035-1.254.035-.443,0-.886-.013-1.326-.039l-.039,0,0-.04a26.762,26.762,0,0,1-.01-3.788l0-.04.04,0a21.785,21.785,0,0,1,2.6,0l.04,0,0,.04c.011.156.031,1.694.04,1.853a.353.353,0,0,0,.353.336h.021a.346.346,0,0,0,.242-.116.35.35,0,0,0,.091-.255c0-.093-.021-1.565-.027-1.658l-.009-.142.053.005c.554.053,1.115.128,1.668.223l.035.006,0,.035A18.517,18.517,0,0,1,1840.513,2437.176Zm.461-5.541a5.767,5.767,0,0,1,1.129,1.786l.019.048-.06.015h-.013l-.889-.181,0-.033c-.064-.532-.151-1.068-.26-1.594l-.033-.16Zm1.107,6.068a5.746,5.746,0,0,1-1.1,1.748l-.014.015h-.08l.011-.054c.106-.516.192-1.042.255-1.564l0-.033.156-.03.8-.159Zm.274-.878,0,.019-.031.019-1.093.217,0-.06a19.259,19.259,0,0,0,0-2.922l0-.06,1.075.22h.054l.008.036A5.83,5.83,0,0,1,1842.355,2436.825Z" transform="translate(-1830.265 -2427.184)" fill="#fcfcfc"/>
              <path id="Path_6995" data-name="Path 6995" d="M1855.96,2658.624h0Zm0,0h0Zm0,0h0Zm0,0h0Zm0,0h0Zm0,0h0Zm0,0h0Zm0,0h0Zm0,0h0Zm0,0h0Zm0,0h0Z" transform="translate(-1854.791 -2648.122)" fill="#fcfcfc"/>
            </g>
          </g>
        </g>
        <g id="Group_2087" data-name="Group 2087" transform="translate(1760.98 2338.438)">
          <g id="Group_2086" data-name="Group 2086" transform="translate(0 0)">
            <g id="Path_5333" data-name="Path 5333">
              <path id="Path_6996" data-name="Path 6996" d="M2003.236,2603.958a.354.354,0,1,1-.1-.251A.354.354,0,0,1,2003.236,2603.958Z" transform="translate(-2002.527 -2603.604)" fill="#fcfcfc"/>
            </g>
          </g>
        </g>
        <g id="Group_2089" data-name="Group 2089" transform="translate(1749.499 2341.729)">
          <g id="Group_2088" data-name="Group 2088" transform="translate(0 0)">
            <g id="Path_5334" data-name="Path 5334">
              <path id="Path_6997" data-name="Path 6997" d="M1753.288,2677.966a.361.361,0,0,0-.258-.259,1.8,1.8,0,0,1-1.286-1.3.354.354,0,0,0-.343-.27.361.361,0,0,0-.084.01.353.353,0,0,0-.259.26,1.8,1.8,0,0,1-1.287,1.3.362.362,0,0,0,0,.7,1.8,1.8,0,0,1,1.286,1.3.354.354,0,0,0,.687,0,1.8,1.8,0,0,1,1.287-1.3A.362.362,0,0,0,1753.288,2677.966Zm-1.239.129a2.5,2.5,0,0,0-.6.6v.129l-.083-.116a2.493,2.493,0,0,0-.611-.611l-.053-.037.053-.037a2.5,2.5,0,0,0,.611-.611l.037-.052.037.052a2.492,2.492,0,0,0,.611.611l.053.037Z" transform="translate(-1749.499 -2676.134)" fill="#fcfcfc"/>
            </g>
          </g>
        </g>
        <g id="Group_2091" data-name="Group 2091" transform="translate(1750.582 2327.928)">
          <g id="Group_2090" data-name="Group 2090" transform="translate(0 0)">
            <g id="Path_5335" data-name="Path 5335">
              <path id="Path_6998" data-name="Path 6998" d="M1779.126,2375.179l0-.007-.02-.039a.115.115,0,0,1-.01-.025l-1.388-2.931a.355.355,0,0,0-.32-.2.361.361,0,0,0-.151.034l-.025.014-3.041,1.751a.356.356,0,0,0-.143.458l.881,1.862-.066.005a1.6,1.6,0,0,0-.573.153,1.683,1.683,0,0,0-.733.66.942.942,0,0,0,.7,1.49,1.507,1.507,0,0,0,.242.019,1.724,1.724,0,0,0,.735-.168,1.545,1.545,0,0,0,.707-.658,1.031,1.031,0,0,0,.043-.922c-.006-.012-.013-.026-.02-.038a.134.134,0,0,1-.011-.026l-1.127-2.383,2.425-1.4.836,1.767-.065.006a1.626,1.626,0,0,0-.572.155,1.689,1.689,0,0,0-.733.66,1.015,1.015,0,0,0-.086.952,1.108,1.108,0,0,0,1.033.556,1.732,1.732,0,0,0,.729-.167l0,0A1.234,1.234,0,0,0,1779.126,2375.179Zm-4.133,1.621v0a.653.653,0,0,1,.082.011.28.28,0,0,1,.274.282.278.278,0,0,1-.06.171.826.826,0,0,1-.381.342.991.991,0,0,1-.432.1,1.053,1.053,0,0,1-.12-.007.255.255,0,0,1-.182-.04.249.249,0,0,1-.107-.161.252.252,0,0,1,.081-.238,1,1,0,0,1,.422-.37.9.9,0,0,1,.377-.092Zm3.49-1.1a.783.783,0,0,1-.387.4h0l-.026.015a1.043,1.043,0,0,1-.44.1.42.42,0,0,1-.383-.151l0-.011a.353.353,0,0,1,.063-.284.991.991,0,0,1,.424-.373.893.893,0,0,1,.376-.088.4.4,0,0,1,.373.165l0,.007A.281.281,0,0,1,1778.484,2375.7Z" transform="translate(-1773.356 -2371.974)" fill="#fcfcfc"/>
            </g>
          </g>
        </g>
        <g id="Group_2093" data-name="Group 2093" transform="translate(1763.86 2328.98)">
          <g id="Group_2092" data-name="Group 2092" transform="translate(0 0)">
            <g id="Path_5336" data-name="Path 5336">
              <path id="Path_6999" data-name="Path 6999" d="M2069.786,2397.016a.362.362,0,0,0-.258-.258h0a1.8,1.8,0,0,1-1.286-1.3.355.355,0,0,0-.343-.27.38.38,0,0,0-.086.01.356.356,0,0,0-.259.26,1.8,1.8,0,0,1-1.286,1.3.361.361,0,0,0,0,.7,1.8,1.8,0,0,1,1.286,1.3.354.354,0,0,0,.688,0,1.8,1.8,0,0,1,1.286-1.3.362.362,0,0,0,.259-.441Zm-1.24.13a2.494,2.494,0,0,0-.612.61l-.033-.023-.04.024a2.5,2.5,0,0,0-.611-.61l-.053-.037.053-.037a2.5,2.5,0,0,0,.611-.612l.037-.052.037.052a2.494,2.494,0,0,0,.611.612l.053.037Z" transform="translate(-2065.998 -2395.184)" fill="#fcfcfc"/>
            </g>
          </g>
        </g>
        <g id="Group_2095" data-name="Group 2095" transform="translate(1764.685 2340.867)">
          <g id="Group_2094" data-name="Group 2094" transform="translate(0 0)">
            <g id="Path_5337" data-name="Path 5337">
              <path id="Path_7000" data-name="Path 7000" d="M2089.02,2657.621l-.1-.008.006-.006a6.233,6.233,0,0,1-1.681-.449.355.355,0,0,0-.466.186.368.368,0,0,0-.025.094l-.311,2.38-.058-.032a1.679,1.679,0,0,0-.594-.192,1.76,1.76,0,0,0-.237-.016,1.739,1.739,0,0,0-.76.176.96.96,0,0,0-.221,1.666,1.779,1.779,0,0,0,1.158.429,1.213,1.213,0,0,0,1.29-.954v-.032l.377-2.888.053.02a5.868,5.868,0,0,0,1.541.336.356.356,0,0,0,.351-.354A.357.357,0,0,0,2089.02,2657.621Zm-2.7,3.179,0,.04h0a.333.333,0,0,1-.122.161.77.77,0,0,1-.464.139,1.091,1.091,0,0,1-.134-.009,1.044,1.044,0,0,1-.542-.238.365.365,0,0,1-.151-.268v-.01c.013-.105.142-.188.217-.228a1.032,1.032,0,0,1,.45-.1,1.131,1.131,0,0,1,.137.008.828.828,0,0,1,.544.28A.307.307,0,0,1,2086.319,2660.8Z" transform="translate(-2084.186 -2657.129)" fill="#fcfcfc"/>
            </g>
          </g>
        </g>
      </g>
    </g>
  </g>
</svg>
