<svg xmlns="http://www.w3.org/2000/svg" xmlns:xlink="http://www.w3.org/1999/xlink" width="173.64" height="48.315" viewBox="0 0 173.64 48.315"><defs><linearGradient id="a" x1="1.224" y1="-0.44" x2="0.563" y2="1.127" gradientUnits="objectBoundingBox"><stop offset="0" stop-color="#ffbc45"/><stop offset="0.83" stop-color="#f87b62"/><stop offset="1" stop-color="#f16178"/></linearGradient><linearGradient id="b" x1="1.224" y1="1.44" x2="0.563" y2="-0.127" xlink:href="#a"/></defs><path d="M2.322,0A2.355,2.355,0,0,0,.267,1.465a2.388,2.388,0,0,0,.488,2.84c1.414,1.456,2.864,2.877,4.3,4.311C6.228,9.791,7.378,10.99,8.59,12.124c.479.448.388.678-.027,1.086-2.5,2.459-4.971,4.944-7.449,7.424-1.484,1.485-1.486,2.809-.006,4.29,2.5,2.5,4.982,5.007,7.506,7.478.444.434.384.633-.019,1.03Q4.707,37.26.871,41.14A2.518,2.518,0,0,0,1.89,45.475a2.5,2.5,0,0,0,2.583-.757q3.491-3.5,6.988-6.99c.95-.951,1.909-1.894,2.85-2.854a2.536,2.536,0,0,0-.019-3.95q-3.82-3.841-7.669-7.651c-.387-.382-.413-.575-.009-.971,2.538-2.495,5.047-5.018,7.561-7.536,1.442-1.446,1.435-2.776-.02-4.233Q9.4,5.778,4.652,1.025A2.987,2.987,0,0,0,2.322,0Z" transform="translate(31.663 2) rotate(34)" fill="url(#a)"/><path d="M2.322,0A2.355,2.355,0,0,0,.267,1.465a2.388,2.388,0,0,0,.488,2.84c1.414,1.456,2.864,2.877,4.3,4.311C6.228,9.791,7.378,10.99,8.59,12.124c.479.448.388.678-.027,1.086-2.5,2.459-4.971,4.944-7.449,7.424-1.484,1.485-1.486,2.809-.006,4.29,2.5,2.5,4.982,5.007,7.506,7.478.444.434.384.633-.019,1.03Q4.707,37.26.871,41.14A2.518,2.518,0,0,0,1.89,45.475a2.5,2.5,0,0,0,2.583-.757q3.491-3.5,6.988-6.99c.95-.951,1.909-1.894,2.85-2.854a2.536,2.536,0,0,0-.019-3.95q-3.82-3.841-7.669-7.651c-.387-.382-.413-.575-.009-.971,2.538-2.495,5.047-5.018,7.561-7.536,1.442-1.446,1.435-2.776-.02-4.233Q9.4,5.778,4.652,1.025A2.987,2.987,0,0,0,2.322,0Z" transform="translate(168.974 37.401) rotate(139)" fill="url(#b)"/><path d="M1.661,0A1.683,1.683,0,0,0,.191,1.048,1.707,1.707,0,0,0,.54,3.079C1.55,4.12,2.587,5.136,3.614,6.162c.839.839,1.662,1.7,2.529,2.508.343.32.277.485-.02.777C4.337,11.2,2.568,12.981.8,14.755a1.878,1.878,0,0,0,0,3.068C2.577,19.609,4.355,21.4,6.16,23.17c.317.31.275.453-.013.737Q3.365,26.644.623,29.418a1.8,1.8,0,0,0,.729,3.1A1.784,1.784,0,0,0,3.2,31.976q2.5-2.5,5-5c.68-.68,1.365-1.354,2.038-2.041a1.814,1.814,0,0,0-.014-2.824q-2.731-2.747-5.484-5.471c-.277-.273-.295-.411-.007-.695,1.814-1.784,3.609-3.588,5.406-5.389a1.862,1.862,0,0,0-.014-3.027q-3.4-3.4-6.794-6.8A2.135,2.135,0,0,0,1.661,0Z" transform="translate(18.226 0) rotate(34)" fill="url(#a)"/><path d="M1.661,0A1.683,1.683,0,0,0,.191,1.048,1.707,1.707,0,0,0,.54,3.079C1.55,4.12,2.587,5.136,3.614,6.162c.839.839,1.662,1.7,2.529,2.508.343.32.277.485-.02.777C4.337,11.2,2.568,12.981.8,14.755a1.878,1.878,0,0,0,0,3.068C2.577,19.609,4.355,21.4,6.16,23.17c.317.31.275.453-.013.737Q3.365,26.644.623,29.418a1.8,1.8,0,0,0,.729,3.1A1.784,1.784,0,0,0,3.2,31.976q2.5-2.5,5-5c.68-.68,1.365-1.354,2.038-2.041a1.814,1.814,0,0,0-.014-2.824q-2.731-2.747-5.484-5.471c-.277-.273-.295-.411-.007-.695,1.814-1.784,3.609-3.588,5.406-5.389a1.862,1.862,0,0,0-.014-3.027q-3.4-3.4-6.794-6.8A2.135,2.135,0,0,0,1.661,0Z" transform="translate(173.64 24.6) rotate(139)" fill="url(#b)"/></svg>