<svg xmlns="http://www.w3.org/2000/svg" xmlns:xlink="http://www.w3.org/1999/xlink" width="36" height="36" viewBox="0 0 36 36"><defs><linearGradient id="a" x1="0.117" y1="0.107" x2="0.862" y2="0.932" gradientUnits="objectBoundingBox"><stop offset="0" stop-color="#ffbc45"/><stop offset="0.733" stop-color="#f87b62"/><stop offset="1" stop-color="#f16178"/></linearGradient></defs><g transform="translate(22009 8367)"><path d="M18,0A18,18,0,1,1,0,18,18,18,0,0,1,18,0Z" transform="translate(-22009 -8367)" fill="url(#a)"/><g transform="translate(-16677.73 -9184.146)"><path d="M-5317.578,838.645a.887.887,0,0,1,.449.126q2.256,1.373,4.518,2.737a1.151,1.151,0,0,0,1.232.048,1.125,1.125,0,0,0,.583-1.058c.007-1.993.028-3.986.042-5.979.012-1.581-.008-3.161.044-4.742a1.149,1.149,0,0,0-1.705-1.043c-1.539.919-3.078,1.839-4.643,2.712a1.045,1.045,0,0,1-.547.155c-1.378-.02-2.757-.031-4.136-.042-.4,0-.653.181-.7.509a1.344,1.344,0,0,0,0,.319l-.019,5.564c-.024.445.193.643.642.649l.32,0C-5321.329,838.606-5317.75,838.638-5317.578,838.645Zm-.139-1.309c0,.147-.035.2-.19.194-.844-.009-1.688.005-2.532-.016-.253-.006-.508-.047-.764-.038-.121,0-.123-.059-.123-.148q0-2.226,0-4.452c0-.126.032-.166.163-.165q1.639.011,3.278.007c.142,0,.144.061.153.173.071.806.011,1.613.007,2.419C-5317.72,835.985-5317.724,836.661-5317.717,837.336Zm5.792,3.262-2.992-1.808c-.5-.3-1-.609-1.5-.9a.293.293,0,0,1-.163-.295q.012-2.443.009-4.884a.272.272,0,0,1,.141-.28q2.22-1.3,4.434-2.616a1.031,1.031,0,0,1,.116-.05C-5311.84,833.371-5311.933,836.96-5311.925,840.6Z" transform="translate(0)" fill="#fcfcfc"/><path d="M-5011.557,872.92a6.23,6.23,0,0,1-1.8,4.376c-.3.312-.629.34-.883.088a.6.6,0,0,1,.067-.871,5.112,5.112,0,0,0,1.483-3.9,4.913,4.913,0,0,0-1.394-3.217.574.574,0,0,1,.233-1,.516.516,0,0,1,.53.167,6.079,6.079,0,0,1,1.71,3.511c.018.141.041.281.05.422S-5011.557,872.778-5011.557,872.92Z" transform="translate(-292.524 -37.784)" fill="#fcfcfc"/><path d="M-5043.854,902.94a3.842,3.842,0,0,1-1.1,2.745.586.586,0,0,1-.885.087.585.585,0,0,1,.067-.868,2.813,2.813,0,0,0,.037-3.873.576.576,0,0,1-.2-.52.6.6,0,0,1,.412-.506.568.568,0,0,1,.618.2A3.746,3.746,0,0,1-5043.854,902.94Z" transform="translate(-262.515 -67.794)" fill="#fcfcfc"/></g></g></svg>