<svg xmlns="http://www.w3.org/2000/svg" width="30" height="52" viewBox="0 0 30 52">
  <g id="Group_5774" data-name="Group 5774" transform="translate(0 -200.999)">
    <path id="Rectangle_2148" data-name="Rectangle 2148" d="M0,0H4A26,26,0,0,1,30,26v0A26,26,0,0,1,4,52H0a0,0,0,0,1,0,0V0A0,0,0,0,1,0,0Z" transform="translate(0 200.999)" fill="#ff9883"/>
    <path id="drop_down_arrow_icon" data-name="drop down arrow icon" d="M3432.124,1939.663l-9.838-5.68a.153.153,0,0,0-.23.133v11.36a.153.153,0,0,0,.23.133l9.838-5.68A.153.153,0,0,0,3432.124,1939.663Z" transform="translate(-3413.129 -1712.797)" fill="#fcfcfc"/>
  </g>
</svg>
