<svg xmlns="http://www.w3.org/2000/svg" width="10.684" height="11.013" viewBox="0 0 10.684 11.013">
  <g id="Group_6060" data-name="Group 6060" transform="translate(0)">
    <path id="Path_6824" data-name="Path 6824" d="M1068.541,1352.121a1.057,1.057,0,0,1-.757-.322l-8.548-8.812a1.126,1.126,0,0,1,0-1.557,1.047,1.047,0,0,1,1.511,0l8.548,8.812a1.126,1.126,0,0,1,0,1.558A1.048,1.048,0,0,1,1068.541,1352.121Z" transform="translate(-1058.924 -1341.108)" fill="#303036"/>
    <path id="Path_6825" data-name="Path 6825" d="M1059.993,1352.121a1.057,1.057,0,0,1-.756-.322,1.126,1.126,0,0,1,0-1.558l8.548-8.812a1.046,1.046,0,0,1,1.511,0,1.126,1.126,0,0,1,0,1.557l-8.548,8.812a1.049,1.049,0,0,1-.755.322Z" transform="translate(-1058.924 -1341.108)" fill="#303036"/>
  </g>
</svg>
