<svg xmlns="http://www.w3.org/2000/svg" width="58" height="59" viewBox="0 0 58 59">
  <g id="Group_5925" data-name="Group 5925" transform="translate(-588 -128.68)">
    <g id="Group_5922" data-name="Group 5922" transform="translate(229 -94.311)">
      <ellipse id="Ellipse_15" data-name="Ellipse 15" cx="23" cy="23.5" rx="23" ry="23.5" transform="translate(365 228.99)" fill="#25245e" opacity="0.2"/>
      <g id="Ellipse_14" data-name="Ellipse 14" transform="translate(364 224.99)" fill="#fcfcfc" stroke="#25245e" stroke-width="1">
        <circle cx="24" cy="24" r="24" stroke="none"/>
        <circle cx="24" cy="24" r="23.5" fill="none"/>
      </g>
      <g id="dice_1_" data-name="dice (1)" transform="translate(330.345 222.852)">
        <path id="Path_8627" data-name="Path 8627" d="M57.439,15,47.286,20.862V32.586l10.153,5.862,10.153-5.862V20.862Z" transform="translate(0 0)" fill="none" stroke="#25245e" stroke-linecap="round" stroke-linejoin="round" stroke-width="1.2"/>
        <path id="Path_8628" data-name="Path 8628" d="M67.593,20.862,57.439,26.724,47.286,20.862,57.439,15Z" transform="translate(0 0)" fill="none" stroke="#25245e" stroke-linecap="round" stroke-linejoin="round" stroke-width="1.2"/>
        <line id="Line_9" data-name="Line 9" y2="11.724" transform="translate(57.439 26.724)" fill="none" stroke="#25245e" stroke-linecap="round" stroke-linejoin="round" stroke-width="1.2"/>
        <line id="Line_10" data-name="Line 10" x2="0.782" transform="translate(57.048 20.862)" fill="none" stroke="#25245e" stroke-linecap="round" stroke-linejoin="round" stroke-width="1.2"/>
        <line id="Line_11" data-name="Line 11" y2="0.782" transform="translate(53.792 31.674)" fill="none" stroke="#25245e" stroke-linecap="round" stroke-linejoin="round" stroke-width="1.2"/>
        <line id="Line_12" data-name="Line 12" y2="0.782" transform="translate(50.926 27.245)" fill="none" stroke="#25245e" stroke-linecap="round" stroke-linejoin="round" stroke-width="1.2"/>
        <line id="Line_13" data-name="Line 13" y2="0.782" transform="translate(64.669 26.138)" fill="none" stroke="#25245e" stroke-linecap="round" stroke-linejoin="round" stroke-width="1.2"/>
        <line id="Line_14" data-name="Line 14" y2="0.782" transform="translate(60.37 32.781)" fill="none" stroke="#25245e" stroke-linecap="round" stroke-linejoin="round" stroke-width="1.2"/>
        <line id="Line_15" data-name="Line 15" y2="0.782" transform="translate(62.52 29.459)" fill="none" stroke="#25245e" stroke-linecap="round" stroke-linejoin="round" stroke-width="1.2"/>
      </g>
    </g>
  </g>
</svg>
