<svg xmlns="http://www.w3.org/2000/svg" xmlns:xlink="http://www.w3.org/1999/xlink" width="37.03" height="65.922" viewBox="0 0 37.03 65.922"><defs><linearGradient id="a" x1="1" y1="0.825" x2="0.211" gradientUnits="objectBoundingBox"><stop offset="0" stop-color="#e6e6e6"/><stop offset="1" stop-color="#717171"/></linearGradient></defs><g transform="translate(-641.349 -189.945)"><path d="M1203.054,2599.565a2.535,2.535,0,0,0-3.49.826,12.362,12.362,0,0,0,0,12.809,2.537,2.537,0,1,0,4.51-2.324,2.6,2.6,0,0,0-.2-.327,7.31,7.31,0,0,1,0-7.48,2.534,2.534,0,0,0-.805-3.494Z" transform="translate(1845.707 2829.624) rotate(180)" fill="url(#a)"/><path d="M1173.064,2565.971a2.534,2.534,0,0,0-3.547.528h0a27.89,27.89,0,0,0,0,33.445,2.537,2.537,0,0,0,4.058-3.04,22.811,22.811,0,0,1,0-27.4A2.533,2.533,0,0,0,1173.064,2565.971Z" transform="translate(1822.037 2806.023) rotate(180)" fill="url(#a)"/><path d="M1142.34,2543.925a2.537,2.537,0,1,0-3.935-3.2c-.042.049-.085.1-.124.16a40.564,40.564,0,0,0,0,48.68,2.538,2.538,0,0,0,4.059-3.042A35.473,35.473,0,0,1,1142.34,2543.925Z" transform="translate(1798.4 2788.043) rotate(180)" fill="url(#a)"/><path d="M1107,2579.429a2.536,2.536,0,0,0,4.058-3.037,48.193,48.193,0,0,1,0-57.813,2.536,2.536,0,1,0-3.933-3.2c-.044.054-.084.109-.124.163A53.242,53.242,0,0,0,1107,2579.429Z" transform="translate(1774.727 2770.308) rotate(180)" fill="url(#a)"/></g></svg>