<svg xmlns="http://www.w3.org/2000/svg" xmlns:xlink="http://www.w3.org/1999/xlink" width="36" height="36" viewBox="0 0 36 36"><defs><linearGradient id="a" x1="0.117" y1="0.107" x2="0.862" y2="0.932" gradientUnits="objectBoundingBox"><stop offset="0" stop-color="#ffbc45"/><stop offset="0.733" stop-color="#f87b62"/><stop offset="1" stop-color="#f16178"/></linearGradient></defs><g transform="translate(22319.5 8310)"><path d="M18,0A18,18,0,1,1,0,18,18,18,0,0,1,18,0Z" transform="translate(-22319.5 -8310)" fill="url(#a)"/><g transform="translate(-24561.801 -10650.368)"><g transform="translate(2251.89 2348.719)"><path d="M2505.263,2408.453a.339.339,0,0,1,.394-.272,2.163,2.163,0,0,1,1.844,2.436.2.2,0,0,1,0,.026.338.338,0,0,1-.333.278.362.362,0,0,1-.061,0,.34.34,0,0,1-.272-.394,1.486,1.486,0,0,0-1.268-1.671h-.007l-.021,0A.339.339,0,0,1,2505.263,2408.453Z" transform="translate(-2494.457 -2405.416)" fill="#fcfcfc"/><path d="M2505.6,2408.025a.494.494,0,0,1,.084.007,2.312,2.312,0,0,1,1.97,2.6.271.271,0,0,1,0,.03l0,.01a.488.488,0,0,1-.48.4.513.513,0,0,1-.085-.007.49.49,0,0,1-.4-.565,1.336,1.336,0,0,0-1.14-1.5l-.034-.005a.49.49,0,0,1-.394-.568A.49.49,0,0,1,2505.6,2408.025Zm1.755,2.583v-.012a2.013,2.013,0,0,0-1.716-2.267h-.006a.192.192,0,0,0-.219.153.189.189,0,0,0,.149.218l.018,0h0a1.637,1.637,0,0,1,1.4,1.84v.007a.189.189,0,0,0,.152.219l.034,0a.186.186,0,0,0,.108-.034.188.188,0,0,0,.077-.121Z" transform="translate(-2494.457 -2405.416)" fill="#fcfcfc"/><path d="M2288.963,2367.151a.338.338,0,0,1-.465-.111l0-.007-1.912-4.022a.309.309,0,0,1-.009-.03l-.941-1.982a.606.606,0,0,1-.017-.473l.3-.758a1.973,1.973,0,0,0-.038-1.514l-.978-2.166a1.738,1.738,0,0,0-.7-.785l-1.954-1.172-.039-.023a.807.807,0,1,0-.787,1.41l1.53.9.017.01a.34.34,0,0,1,.093.469,4.072,4.072,0,0,0-.635,2.945.339.339,0,0,1-.668.112,4.78,4.78,0,0,1,.553-3.127l-1.232-.723a1.484,1.484,0,0,1,.158-2.639l-.636-1.342a.3.3,0,0,1-.028-.039l0-.008-1.085-2.3a.661.661,0,0,0-1.221.5l1.71,3.6a.338.338,0,0,1-.4.446.331.331,0,0,1-.208-.154l0-.006-2.068-4.341c0-.007-.005-.012-.009-.018a.66.66,0,0,0-.885-.3.66.66,0,0,0-.3.884l2.262,4.77a.339.339,0,0,1-.142.4.338.338,0,0,1-.465-.11l0-.007-1.965-4.138a.663.663,0,0,0-1.2.568l2.066,4.351a.34.34,0,0,1-.142.4.337.337,0,0,1-.465-.111l0-.007-1.6-3.367a.661.661,0,0,0-1.193.567l4.031,8.09c.143.263.463.8.58.99a.353.353,0,0,1,.073.055,4.487,4.487,0,0,0,1.389.895l.261.106a.686.686,0,0,1,.364.346l1.216,2.566a.338.338,0,0,1-.319.451.387.387,0,0,1-.079-.009.334.334,0,0,1-.209-.151l0-.008-1.215-2.559a.024.024,0,0,0-.01-.01l-.261-.107a5.179,5.179,0,0,1-1.6-1.029.093.093,0,0,1-.015-.012l-.02-.021a.342.342,0,0,1-.116-.106c-.128-.194-.6-1-.7-1.216l-3.978-7.982a1.337,1.337,0,0,1,1.308-1.907,9.044,9.044,0,0,0,2.055-3.131,1.467,1.467,0,0,0,2.312-.1,1.335,1.335,0,0,1,1.779.635l.83,1.763a.346.346,0,0,1,.053.095l.946,2a1.472,1.472,0,0,1,.666.208l1.953,1.171a2.415,2.415,0,0,1,.967,1.088l.978,2.165a2.661,2.661,0,0,1,.051,2.041l-.285.726,1.3,2.737.005.006a.575.575,0,0,1,.031.064l.008.028h0l1.509,3.176A.34.34,0,0,1,2288.963,2367.151Z" transform="translate(-2272.51 -2348.719)" fill="#fcfcfc"/><path d="M2288.787,2367.351a.486.486,0,0,1-.416-.232l-.011-.021-1.917-4.035c0-.01-.007-.02-.01-.03l-.935-1.969a.758.758,0,0,1-.021-.591l.3-.76a1.822,1.822,0,0,0-.035-1.4l-.978-2.166a1.589,1.589,0,0,0-.638-.719l-1.961-1.176-.028-.017a.657.657,0,1,0-.64,1.148l1.538.9.01.006.01.006a.491.491,0,0,1,.134.677,3.923,3.923,0,0,0-.612,2.837v.007a.49.49,0,0,1-.385.539.5.5,0,0,1-.1.01.49.49,0,0,1-.479-.389v-.006a4.94,4.94,0,0,1,.5-3.1l-1.106-.65a1.634,1.634,0,0,1,.035-2.838l-.566-1.193a.424.424,0,0,1-.029-.043l-.011-.02-1.085-2.3a.506.506,0,0,0-.461-.294.512.512,0,0,0-.486.674l1.712,3.606a.487.487,0,0,1-.206.589.492.492,0,0,1-.37.055.481.481,0,0,1-.3-.222l-.009-.018-2.066-4.338-.007-.014,0-.006a.5.5,0,0,0-.293-.258.51.51,0,0,0-.623.709l2.269,4.786a.488.488,0,0,1-.574.637.481.481,0,0,1-.3-.219l-.011-.021-1.965-4.138a.506.506,0,0,0-.291-.264.513.513,0,0,0-.636.7l2.072,4.366a.488.488,0,0,1-.575.637.483.483,0,0,1-.3-.217l-.014-.023-1.6-3.367a.5.5,0,0,0-.455-.284.515.515,0,0,0-.215.047.508.508,0,0,0-.265.286.5.5,0,0,0,.014.39l4.028,8.084c.134.246.427.743.556.951a.5.5,0,0,1,.069.057,4.325,4.325,0,0,0,1.34.863l.261.106a.835.835,0,0,1,.443.421l1.221,2.58a.488.488,0,0,1-.46.651.52.52,0,0,1-.11-.012.484.484,0,0,1-.306-.219l-.012-.022-1.193-2.514-.213-.087a5.331,5.331,0,0,1-1.637-1.052l-.019-.016-.013-.014,0,0a.5.5,0,0,1-.144-.138c-.128-.193-.611-1.012-.717-1.237l-3.976-7.979a1.487,1.487,0,0,1,1.238-2.124,1.514,1.514,0,0,1-.01-.66,1.5,1.5,0,0,1,1.455-1.177h.021a6.42,6.42,0,0,0,3.042-1.384,1.485,1.485,0,0,1,1.979.707l.823,1.749a.5.5,0,0,1,.063.115l.907,1.916a1.628,1.628,0,0,1,.645.221l1.953,1.171a2.564,2.564,0,0,1,1.027,1.155l.978,2.165a2.814,2.814,0,0,1,.054,2.157l-.262.666,1.27,2.674a.731.731,0,0,1,.04.081l.011.035,1.509,3.178a.488.488,0,0,1-.46.651Zm-.158-.385a.193.193,0,0,0,.257.057.189.189,0,0,0,.081-.217l-1.519-3.2v-.013l-.014-.029-.008-.01-.008-.016-1.326-2.8.309-.787a2.51,2.51,0,0,0-.048-1.924l-.978-2.165a2.267,2.267,0,0,0-.907-1.021l-1.954-1.171a1.324,1.324,0,0,0-.6-.187l-.088-.005-.989-2.09a.2.2,0,0,0-.03-.053l-.011-.014-.837-1.779a1.186,1.186,0,0,0-2.056-.154l-.12.179-.126-.175a1.174,1.174,0,0,0-.678-.455,1.189,1.189,0,0,0-1.461,1.3l.023.193-.192-.026a1.171,1.171,0,0,0-.16-.011,1.194,1.194,0,0,0-1.162.94,1.208,1.208,0,0,0,.061.692l.09.224-.24-.018c-.03,0-.06,0-.09,0a1.187,1.187,0,0,0-1.072,1.7l3.976,7.979c.095.2.562,1,.7,1.2a.187.187,0,0,0,.063.057l.02.011.016.016.014.015.015.014a5.03,5.03,0,0,0,1.552,1l.278.115a.173.173,0,0,1,.072.077l1.212,2.554a.185.185,0,0,0,.114.081.236.236,0,0,0,.044.005.194.194,0,0,0,.1-.028.188.188,0,0,0,.08-.216l-1.212-2.558a.538.538,0,0,0-.285-.271l-.261-.106a4.634,4.634,0,0,1-1.435-.925.218.218,0,0,0-.044-.034l-.033-.019-.02-.032c-.119-.19-.442-.736-.584-1l0,0-4.031-8.09a.811.811,0,0,1,.4-1.079.815.815,0,0,1,.34-.075.8.8,0,0,1,.725.454l1.6,3.362a.188.188,0,0,0,.259.061.19.19,0,0,0,.081-.217l-2.062-4.343a.813.813,0,0,1,.387-1.083.816.816,0,0,1,.621-.031.8.8,0,0,1,.461.419l1.964,4.135a.188.188,0,0,0,.255.057.191.191,0,0,0,.082-.217l-2.259-4.761a.811.811,0,0,1,1.454-.716l.008.017,0,.005,2.067,4.339a.188.188,0,0,0,.255.059.189.189,0,0,0,.081-.221l-1.713-3.61a.811.811,0,0,1,1.5-.615l1.085,2.3h0l.011.015.012.015.008.017.7,1.482-.142.062a1.333,1.333,0,0,0-.141,2.373l1.359.8-.073.128a4.638,4.638,0,0,0-.536,3.026.189.189,0,0,0,.184.148.19.19,0,0,0,.188-.211,4.224,4.224,0,0,1,.659-3.049.19.19,0,0,0-.048-.259l-.016-.009-1.528-.9a.957.957,0,0,1,.936-1.67l.046.028,1.951,1.17a1.889,1.889,0,0,1,.758.853l.978,2.166a2.125,2.125,0,0,1,.041,1.631l-.3.759a.455.455,0,0,0,.013.354l.947,1.995,0,.014,0,.011Z" transform="translate(-2272.51 -2348.719)" fill="#fcfcfc"/><path d="M2510.027,2374.883a.342.342,0,0,1-.054-.253.338.338,0,0,1,.394-.272,3.749,3.749,0,0,1,3.2,4.222.242.242,0,0,1,0,.027.339.339,0,0,1-.333.278.4.4,0,0,1-.061-.005.34.34,0,0,1-.272-.395,3.072,3.072,0,0,0-2.621-3.456l-.027,0A.339.339,0,0,1,2510.027,2374.883Z" transform="translate(-2498.519 -2373.429)" fill="#fcfcfc"/><path d="M2510.3,2374.2a.5.5,0,0,1,.085.008,3.9,3.9,0,0,1,3.323,4.387c0,.011,0,.025-.006.039a.488.488,0,0,1-.48.4.541.541,0,0,1-.084-.007.491.491,0,0,1-.4-.566,2.921,2.921,0,0,0-2.494-3.284l-.03,0a.488.488,0,0,1,.083-.97Zm2.922,4.532a.189.189,0,0,0,.185-.154l0-.012v-.009a3.6,3.6,0,0,0-3.069-4.052h-.007a.2.2,0,0,0-.034,0,.188.188,0,0,0-.185.155.192.192,0,0,0,.031.142.187.187,0,0,0,.122.077l.016,0a3.222,3.222,0,0,1,2.753,3.626v.007a.189.189,0,0,0,.152.22Z" transform="translate(-2498.519 -2373.429)" fill="#fcfcfc"/></g><g transform="translate(2250.504 2359.315)"><path d="M2253.557,2575.076a.339.339,0,0,1-.334.286.385.385,0,0,1-.052,0,3.752,3.752,0,0,1-2.989-4.378.338.338,0,0,1,.665.125,3.075,3.075,0,0,0,2.448,3.587h0A.339.339,0,0,1,2253.557,2575.076Z" transform="translate(-2250.116 -2570.714)" fill="#fcfcfc"/><path d="M2253.223,2575.512a.555.555,0,0,1-.073,0h-.008a3.9,3.9,0,0,1-3.108-4.553.494.494,0,0,1,.478-.389.474.474,0,0,1,.074.006.49.49,0,0,1,.408.559,2.927,2.927,0,0,0,2.313,3.415h0l.018,0a.488.488,0,0,1-.105.965Zm-.029-.3h.029a.188.188,0,0,0,.048-.37h0a3.226,3.226,0,0,1-2.567-3.763.189.189,0,0,0-.158-.211l-.029,0a.191.191,0,0,0-.184.149A3.6,3.6,0,0,0,2253.194,2575.211Z" transform="translate(-2250.116 -2570.714)" fill="#fcfcfc"/><path d="M2286.411,2579.589a.336.336,0,0,1-.149.212.331.331,0,0,1-.18.053.326.326,0,0,1-.074-.008,2.162,2.162,0,0,1-1.724-2.525.34.34,0,0,1,.6-.128.344.344,0,0,1,.06.252,1.484,1.484,0,0,0,1.178,1.736h.007l.022,0A.34.34,0,0,1,2286.411,2579.589Z" transform="translate(-2282.314 -2577.054)" fill="#fcfcfc"/><path d="M2286.082,2580a.48.48,0,0,1-.1-.011,2.312,2.312,0,0,1-1.841-2.7.492.492,0,0,1,.477-.388.5.5,0,0,1,.076.006.489.489,0,0,1,.319.192.494.494,0,0,1,.088.365,1.335,1.335,0,0,0,1.05,1.564l.016,0,.013,0,.012,0a.488.488,0,0,1,.155.889A.481.481,0,0,1,2286.082,2580Zm-1.469-2.8a.189.189,0,0,0-.183.148,2.012,2.012,0,0,0,1.605,2.346h.006a.166.166,0,0,0,.041,0,.183.183,0,0,0,.1-.029.186.186,0,0,0,.084-.118.19.19,0,0,0-.139-.224l-.013,0-.015,0a1.634,1.634,0,0,1-1.3-1.911.185.185,0,0,0-.157-.21Z" transform="translate(-2282.314 -2577.054)" fill="#fcfcfc"/></g></g></g></svg>