<svg xmlns="http://www.w3.org/2000/svg" xmlns:xlink="http://www.w3.org/1999/xlink" width="195.93" height="75.051" viewBox="0 0 195.93 75.051">
  <defs>
    <filter id="Rectangle_1648" x="6" y="6" width="189.93" height="69.051" filterUnits="userSpaceOnUse">
      <feOffset dx="3" dy="3" input="SourceAlpha"/>
      <feGaussianBlur stdDeviation="1.5" result="blur"/>
      <feFlood flood-color="#171d1a" flood-opacity="0.071"/>
      <feComposite operator="in" in2="blur"/>
      <feComposite in="SourceGraphic"/>
    </filter>
    <filter id="Rectangle_1663" x="0" y="0" width="189.93" height="69.051" filterUnits="userSpaceOnUse">
      <feOffset dx="-3" dy="-3" input="SourceAlpha"/>
      <feGaussianBlur stdDeviation="1.5" result="blur-2"/>
      <feFlood flood-color="#fff" flood-opacity="0.302"/>
      <feComposite operator="in" in2="blur-2"/>
      <feComposite in="SourceGraphic"/>
    </filter>
    <linearGradient id="linear-gradient" x1="0.052" y1="-0.067" x2="1.57" y2="1" gradientUnits="objectBoundingBox">
      <stop offset="0" stop-color="#e6e6e6"/>
      <stop offset="1" stop-color="#fcfcfc"/>
    </linearGradient>
    <clipPath id="clip-path">
      <rect id="Rectangle_2671" data-name="Rectangle 2671" width="18.37" height="12.81" fill="none"/>
    </clipPath>
  </defs>
  <g id="Group_6074" data-name="Group 6074" transform="translate(-359.035 -374.5)">
    <g id="Group_5796" data-name="Group 5796" transform="translate(372.088 388.459)">
      <g transform="matrix(1, 0, 0, 1, -13.05, -13.96)" filter="url(#Rectangle_1648)">
        <rect id="Rectangle_1648-2" data-name="Rectangle 1648" width="168.93" height="48.051" rx="15" transform="translate(13.5 13.5)" fill="#fcfcfc"/>
      </g>
      <g transform="matrix(1, 0, 0, 1, -13.05, -13.96)" filter="url(#Rectangle_1663)">
        <rect id="Rectangle_1663-2" data-name="Rectangle 1663" width="168.93" height="48.051" rx="15" transform="translate(13.5 13.5)" fill="#fcfcfc"/>
      </g>
      <g id="Path_8591" data-name="Path 8591" transform="translate(0.447 -0.459)" fill="url(#linear-gradient)">
        <path d="M 153.9298400878906 47.30078125 L 15.00000667572021 47.30078125 C 11.19368076324463 47.30078125 7.6152024269104 45.81851959228516 4.923724174499512 43.12704467773438 C 2.2322678565979 40.43558502197266 0.7500069737434387 36.85708618164062 0.7500069737434387 33.05078125 L 0.7500069737434387 14.99999904632568 C 0.7500069737434387 11.19369506835938 2.2322678565979 7.615194797515869 4.923724174499512 4.923738479614258 C 7.6152024269104 2.232260227203369 11.19368076324463 0.7499993443489075 15.00000667572021 0.7499993443489075 L 153.9298400878906 0.7499993443489075 C 157.7361602783203 0.7499993443489075 161.3146362304688 2.232260227203369 164.0061187744141 4.923738479614258 C 166.6975708007812 7.615194797515869 168.1798400878906 11.19369506835938 168.1798400878906 14.99999904632568 L 168.1798400878906 33.05078125 C 168.1798400878906 36.85708618164062 166.6975708007812 40.43558502197266 164.0061187744141 43.12704467773438 C 161.3146362304688 45.81851959228516 157.7361602783203 47.30078125 153.9298400878906 47.30078125 Z" stroke="none"/>
        <path d="M 14.99998474121094 1.500003814697266 C 11.39401245117188 1.500003814697266 8.00384521484375 2.904254913330078 5.454055786132812 5.454071044921875 C 2.90423583984375 8.003868103027344 1.499984741210938 11.39402770996094 1.499984741210938 15.00000381469727 L 1.499984741210938 33.05077743530273 C 1.499984741210938 36.65675354003906 2.90423583984375 40.04691314697266 5.454055786132812 42.59671020507812 C 8.00384521484375 45.14652633666992 11.39401245117188 46.55077743530273 14.99998474121094 46.55077743530273 L 153.9298248291016 46.55077743530273 C 157.5358123779297 46.55077743530273 160.9259643554688 45.14652633666992 163.4757537841797 42.59671020507812 C 166.0255737304688 40.04691314697266 167.4298248291016 36.65675354003906 167.4298248291016 33.05077743530273 L 167.4298248291016 15.00000381469727 C 167.4298248291016 11.39402770996094 166.0255737304688 8.003868103027344 163.4757537841797 5.454071044921875 C 160.9259643554688 2.904254913330078 157.5358123779297 1.500003814697266 153.9298248291016 1.500003814697266 L 14.99998474121094 1.500003814697266 M 14.99998474121094 3.814697265625e-06 L 153.9298248291016 3.814697265625e-06 C 162.2140960693359 3.814697265625e-06 168.9298248291016 6.715732574462891 168.9298248291016 15.00000381469727 L 168.9298248291016 33.05077743530273 C 168.9298248291016 41.33504867553711 162.2140960693359 48.05077743530273 153.9298248291016 48.05077743530273 L 14.99998474121094 48.05077743530273 C 6.715713500976562 48.05077743530273 -1.52587890625e-05 41.33504867553711 -1.52587890625e-05 33.05077743530273 L -1.52587890625e-05 15.00000381469727 C -1.52587890625e-05 6.715732574462891 6.715713500976562 3.814697265625e-06 14.99998474121094 3.814697265625e-06 Z" stroke="none" fill="#fcfcfc"/>
      </g>
    </g>
    <g id="Group_5557" data-name="Group 5557" transform="translate(509.816 405.62)">
      <g id="Group_5556" data-name="Group 5556" clip-path="url(#clip-path)">
        <path id="Path_8318" data-name="Path 8318" d="M213.818,12.1a.709.709,0,0,1,.2-.5,7.507,7.507,0,0,0,0-10.395.712.712,0,0,1,1.02-.992,8.94,8.94,0,0,1,0,12.38.712.712,0,0,1-1.222-.5Z" transform="translate(-199.16 0)"/>
        <path id="Path_8319" data-name="Path 8319" d="M182.671,38.97a.71.71,0,0,1,.206-.5,4.361,4.361,0,0,0,0-6.116.712.712,0,0,1,1.012-1,5.788,5.788,0,0,1,0,8.118.712.712,0,0,1-1.218-.5" transform="translate(-170.148 -29.006)"/>
        <path id="Path_8320" data-name="Path 8320" d="M0,15.74a5.718,5.718,0,1,1,5.718,5.718A5.725,5.725,0,0,1,0,15.74m10.166,0a4.447,4.447,0,1,0-4.447,4.447,4.452,4.452,0,0,0,4.447-4.447" transform="translate(0 -9.335)"/>
        <path id="Path_8321" data-name="Path 8321" d="M37.072,50.27a3.177,3.177,0,1,1,3.177,3.177,3.18,3.18,0,0,1-3.177-3.177m5.083,0a1.906,1.906,0,1,0-1.906,1.906,1.908,1.908,0,0,0,1.906-1.906" transform="translate(-34.531 -43.865)"/>
      </g>
    </g>
  </g>
</svg>
