<svg xmlns="http://www.w3.org/2000/svg" xmlns:xlink="http://www.w3.org/1999/xlink" width="226.965" height="295.699" viewBox="0 0 226.965 295.699">
  <defs>
    <linearGradient id="linear-gradient" x1="-26.006" y1="112.638" x2="-26.611" y2="115.306" gradientUnits="objectBoundingBox">
      <stop offset="0" stop-color="#ffe66d"/>
      <stop offset="1" stop-color="#fe7f2d"/>
    </linearGradient>
    <linearGradient id="linear-gradient-2" x1="-11.995" y1="41.642" x2="-12.601" y2="44.31" xlink:href="#linear-gradient"/>
    <linearGradient id="linear-gradient-3" x1="-42.163" y1="87.866" x2="-42.765" y2="90.533" gradientUnits="objectBoundingBox">
      <stop offset="0" stop-color="#aaa3f5"/>
      <stop offset="1" stop-color="#462687"/>
    </linearGradient>
    <linearGradient id="linear-gradient-4" x1="35.1" y1="260.459" x2="34.507" y2="263.16" xlink:href="#linear-gradient"/>
    <linearGradient id="linear-gradient-5" x1="1.74" y1="0.831" x2="0.566" y2="0.511" gradientUnits="objectBoundingBox">
      <stop offset="0" stop-color="#311944"/>
      <stop offset="1" stop-color="#a03976"/>
    </linearGradient>
    <linearGradient id="linear-gradient-6" x1="2.229" y1="0.823" x2="0.272" y2="0.477" xlink:href="#linear-gradient-5"/>
    <linearGradient id="linear-gradient-7" x1="0.5" x2="0.5" y2="1" gradientUnits="objectBoundingBox">
      <stop offset="0" stop-color="#ff878f"/>
      <stop offset="1" stop-color="#db2a38"/>
    </linearGradient>
    <linearGradient id="linear-gradient-11" x1="57.727" y1="11.188" x2="59.194" y2="11.188" gradientUnits="objectBoundingBox">
      <stop offset="0" stop-color="#444b8c"/>
      <stop offset="0.996" stop-color="#26264f"/>
    </linearGradient>
    <linearGradient id="linear-gradient-12" x1="32.794" y1="22.516" x2="33.554" y2="22.516" xlink:href="#linear-gradient-11"/>
    <linearGradient id="linear-gradient-13" x1="0.5" y1="0" x2="0.5" y2="1" xlink:href="#linear-gradient"/>
    <linearGradient id="linear-gradient-14" x1="18.217" y1="6.049" x2="19.179" y2="5.226" gradientUnits="objectBoundingBox">
      <stop offset="0" stop-color="#ffc444"/>
      <stop offset="0.996" stop-color="#f36f56"/>
    </linearGradient>
    <linearGradient id="linear-gradient-15" x1="0.5" x2="0.5" y2="1" gradientUnits="objectBoundingBox">
      <stop offset="0" stop-color="#ffc444"/>
      <stop offset="0.996" stop-color="#f36f56"/>
      <stop offset="1" stop-color="#f36f56"/>
    </linearGradient>
    <linearGradient id="linear-gradient-16" x1="109.497" y1="15.583" x2="111.761" y2="14.704" xlink:href="#linear-gradient-14"/>
    <linearGradient id="linear-gradient-17" x1="31.339" y1="10.896" x2="32.45" y2="10.896" gradientUnits="objectBoundingBox">
      <stop offset="0.004" stop-color="#ebeff2"/>
      <stop offset="1" stop-color="#fff"/>
    </linearGradient>
    <linearGradient id="linear-gradient-18" x1="34.659" y1="15.603" x2="35.892" y2="15.603" xlink:href="#linear-gradient-17"/>
    <linearGradient id="linear-gradient-19" x1="34.939" y1="11.493" x2="34.641" y2="12.045" xlink:href="#linear-gradient-17"/>
    <linearGradient id="linear-gradient-20" x1="39.213" y1="14.316" x2="40.248" y2="12.955" xlink:href="#linear-gradient-11"/>
    <linearGradient id="linear-gradient-21" x1="118.509" y1="13.765" x2="118.635" y2="13.28" xlink:href="#linear-gradient-14"/>
    <linearGradient id="linear-gradient-22" x1="0.5" y1="0" x2="0.5" y2="1" xlink:href="#linear-gradient-3"/>
    <linearGradient id="linear-gradient-23" x1="126.422" y1="15.894" x2="125.696" y2="16.633" gradientUnits="objectBoundingBox">
      <stop offset="0" stop-color="#aa80f9"/>
      <stop offset="0.996" stop-color="#6165d7"/>
    </linearGradient>
    <linearGradient id="linear-gradient-24" x1="69.446" y1="30.587" x2="69.144" y2="31.681" xlink:href="#linear-gradient-11"/>
    <linearGradient id="linear-gradient-25" x1="41.611" y1="20.332" x2="42.714" y2="18.355" xlink:href="#linear-gradient-11"/>
    <linearGradient id="linear-gradient-27" x1="94.772" y1="-4.595" x2="92.441" y2="3.13" gradientUnits="objectBoundingBox">
      <stop offset="0" stop-color="#893976"/>
      <stop offset="1" stop-color="#311944"/>
    </linearGradient>
    <linearGradient id="linear-gradient-28" x1="336.787" y1="432.253" x2="335.107" y2="449.049" xlink:href="#linear-gradient-27"/>
    <linearGradient id="linear-gradient-29" x1="-46.984" y1="14.223" x2="-47.916" y2="9.709" xlink:href="#linear-gradient-23"/>
    <linearGradient id="linear-gradient-30" x1="-125.377" y1="26.542" x2="-124.561" y2="20.968" xlink:href="#linear-gradient-14"/>
    <linearGradient id="linear-gradient-31" x1="-36.078" y1="17.303" x2="-36.794" y2="11.421" xlink:href="#linear-gradient-23"/>
    <linearGradient id="linear-gradient-32" x1="-125.553" y1="26.889" x2="-124.737" y2="21.315" xlink:href="#linear-gradient-14"/>
    <linearGradient id="linear-gradient-33" x1="1.028" y1="0.185" x2="0.156" y2="0.757" xlink:href="#linear-gradient-27"/>
    <linearGradient id="linear-gradient-34" x1="-6.424" y1="1.966" x2="-5.78" y2="0.75" xlink:href="#linear-gradient-11"/>
    <linearGradient id="linear-gradient-36" x1="41.466" y1="-7.615" x2="40.763" y2="-9.163" gradientUnits="objectBoundingBox">
      <stop offset="0" stop-color="#444b8c"/>
      <stop offset="0.996" stop-color="#3e4177"/>
    </linearGradient>
    <linearGradient id="linear-gradient-37" x1="9.781" y1="67.891" x2="6.851" y2="85.734" gradientUnits="objectBoundingBox">
      <stop offset="0" stop-color="#fff"/>
      <stop offset="1" stop-color="#311944"/>
    </linearGradient>
    <linearGradient id="linear-gradient-38" x1="-35.93" y1="10.467" x2="-35.855" y2="10.147" gradientUnits="objectBoundingBox">
      <stop offset="0.004" stop-color="#26264f"/>
      <stop offset="1" stop-color="#444b8c"/>
    </linearGradient>
    <linearGradient id="linear-gradient-39" x1="-14.096" y1="14.229" x2="-13.797" y2="13.229" xlink:href="#linear-gradient-38"/>
    <linearGradient id="linear-gradient-40" x1="-14.537" y1="16.244" x2="-13.535" y2="16.244" xlink:href="#linear-gradient-38"/>
    <linearGradient id="linear-gradient-41" x1="-12.885" y1="14.77" x2="-12.613" y2="13.672" xlink:href="#linear-gradient-38"/>
    <linearGradient id="linear-gradient-42" x1="-13.755" y1="18.652" x2="-12.726" y2="18.652" xlink:href="#linear-gradient-38"/>
    <linearGradient id="linear-gradient-43" x1="-12.832" y1="11.393" x2="-11.845" y2="11.393" xlink:href="#linear-gradient-38"/>
    <linearGradient id="linear-gradient-44" x1="-56.079" y1="7.207" x2="-55.651" y2="6.735" xlink:href="#linear-gradient-38"/>
    <linearGradient id="linear-gradient-45" x1="-3.998" y1="2.063" x2="-3.351" y2="2.912" xlink:href="#linear-gradient"/>
    <linearGradient id="linear-gradient-46" x1="-116.249" y1="4.056" x2="-112.816" y2="3.501" gradientUnits="objectBoundingBox">
      <stop offset="0.494" stop-color="#ebeff2"/>
      <stop offset="1" stop-color="#fff"/>
    </linearGradient>
    <linearGradient id="linear-gradient-47" x1="-20.931" y1="4.238" x2="-20.302" y2="3.659" xlink:href="#linear-gradient-46"/>
    <linearGradient id="linear-gradient-48" x1="-21.757" y1="29.247" x2="-21.127" y2="25.303" xlink:href="#linear-gradient-46"/>
    <linearGradient id="linear-gradient-49" x1="-4.802" y1="1.901" x2="-4.958" y2="2.809" gradientUnits="objectBoundingBox">
      <stop offset="0" stop-color="#fcb148"/>
      <stop offset="0.052" stop-color="#fdb946"/>
      <stop offset="0.142" stop-color="#fec144"/>
      <stop offset="0.318" stop-color="#ffc444"/>
      <stop offset="0.485" stop-color="#fdb946"/>
      <stop offset="0.775" stop-color="#f99c4c"/>
      <stop offset="0.866" stop-color="#f8924f"/>
      <stop offset="1" stop-color="#f8924f"/>
    </linearGradient>
    <clipPath id="clip-path">
      <path id="Path_44" data-name="Path 44" d="M3006.436,373.134c-20.56,11.417-13.934,66.724,34.568,55.469,7.156-1.66,10.366-12.161,14.738-5.359,2.412,3.752,3.6,5.238,5.956,7.108,8.649,6.853,20.664,6.095,26.835-1.694s50.085-70.644,41.436-77.5c-3.8-3.015-37.526.4-55.2,7.235C3052.264,367.1,3011.3,370.432,3006.436,373.134Z" transform="translate(-2995.467 -350.059)" fill="none"/>
    </clipPath>
  </defs>
  <g id="Group_3547" data-name="Group 3547" transform="translate(-455.265 -93)">
    <g id="Group_3546" data-name="Group 3546" transform="translate(0 6.077)" opacity="0.2">
      <path id="Path_8" data-name="Path 8" d="M11.522,7.284,8.081,8.452,7.074,12.037a.464.464,0,0,1-.83.149L4.1,9.169l-3.61.1a.492.492,0,0,1-.4-.773L2.179,5.455.93,1.9a.481.481,0,0,1,.586-.636L4.984,2.422,7.857.1a.475.475,0,0,1,.766.391l.019,3.789,3,2.13A.5.5,0,0,1,11.522,7.284Z" transform="matrix(0.966, 0.259, -0.259, 0.966, 565.071, 345.092)" fill="url(#linear-gradient)"/>
      <path id="Path_9" data-name="Path 9" d="M32.145,20.322l-9.6,3.258-2.809,10A1.294,1.294,0,0,1,17.422,34l-5.987-8.417-10.069.288A1.374,1.374,0,0,1,.244,23.711L6.078,15.22,2.6,5.293A1.341,1.341,0,0,1,4.229,3.518l9.676,3.238L21.921.29a1.324,1.324,0,0,1,2.137,1.09l.054,10.57,8.366,5.942A1.389,1.389,0,0,1,32.145,20.322Z" transform="matrix(0.966, 0.259, -0.259, 0.966, 604.487, 275.289)" fill="url(#linear-gradient-2)"/>
      <path id="Path_10" data-name="Path 10" d="M13.608,7.18,10.1,9.523l-.054,4.326a.539.539,0,0,1-.887.416L5.842,11.523l-4.019,1.2a.572.572,0,0,1-.684-.748L2.574,7.93.1,4.311a.559.559,0,0,1,.467-.89l4.241.262L7.341.221A.552.552,0,0,1,8.319.43L9.477,4.677l4,1.491A.578.578,0,0,1,13.608,7.18Z" transform="matrix(0.966, 0.259, -0.259, 0.966, 639.213, 225.473)" fill="url(#linear-gradient-3)"/>
      <path id="Path_11" data-name="Path 11" d="M5.736,6.261,3.793,5.6,2.105,6.858a.262.262,0,0,1-.423-.219l.079-2.091L.108,3.35a.279.279,0,0,1,.086-.485l1.986-.643L2.848.2A.272.272,0,0,1,3.33.114L4.484,1.83l2.085-.048a.268.268,0,0,1,.209.439l-1.3,1.7.61,1.988A.281.281,0,0,1,5.736,6.261Z" transform="matrix(0.966, 0.259, -0.259, 0.966, 553.132, 346.466)" fill="url(#linear-gradient-4)"/>
      <path id="Path_12" data-name="Path 12" d="M3146.875,436.165a1.752,1.752,0,0,0,1.581-3.115c-.041-.021-.083-.038-.125-.055a10.069,10.069,0,0,0,.333-1.435c.046,0,.091,0,.138-.005a1.828,1.828,0,0,0,1.607-1.86,1.548,1.548,0,0,0-1.675-1.567c-.048,0-.094.012-.14.02a9.254,9.254,0,0,0-.388-1.371c.041-.024.083-.05.123-.078a1.827,1.827,0,0,0,.554-2.395,1.548,1.548,0,0,0-2.255-.428c-.04.028-.077.058-.113.089a8.212,8.212,0,0,0-1.006-.939c.026-.042.051-.084.073-.129.437-.86,1.007-1.8.207-2.19-1.852-.9-2.646-.13-3.083.73-.022.044-.042.09-.061.135a8.185,8.185,0,0,0-1.351-.258c0-.048,0-.1,0-.144-.019-.947.262-1.459-.647-1.476-1.983-.039-2.653.823-2.634,1.769,0,.05,0,.1.01.146a9.224,9.224,0,0,0-1.336.5c-.021-.042-.042-.084-.067-.125a1.547,1.547,0,0,0-2.254-.427,1.828,1.828,0,0,0-.554,2.395c.024.04.051.077.077.114a10.132,10.132,0,0,0-.961,1.116c-.039-.024-.078-.048-.119-.069a1.752,1.752,0,0,0-1.582,3.115c.042.021.083.039.125.055a10.1,10.1,0,0,0-.333,1.435c-.045,0-.091,0-.138.005a1.827,1.827,0,0,0-1.606,1.86,1.548,1.548,0,0,0,1.676,1.568c.047,0,.094-.012.14-.02a9.224,9.224,0,0,0,.388,1.371c-.042.024-.083.05-.124.078a1.828,1.828,0,0,0-.553,2.395,2.266,2.266,0,0,0,2.8.6c.04-.028-.468-.228-.43-.259a8.229,8.229,0,0,0,1,.939c-.025.042-.05.084-.073.129a1.618,1.618,0,1,0,2.876,1.46c.023-.045.042-.09.061-.135a8.172,8.172,0,0,0,1.351.258c0,.048-.005.1,0,.144a1.548,1.548,0,0,0,1.675,1.568,1.827,1.827,0,0,0,1.607-1.86c0-.049-.005-.1-.01-.146a9.267,9.267,0,0,0,1.336-.5c.021.042.042.084.066.125a1.548,1.548,0,0,0,2.254.427,1.826,1.826,0,0,0,.554-2.395,1.268,1.268,0,0,0-.078-.114,9.958,9.958,0,0,0,.963-1.116A1.322,1.322,0,0,0,3146.875,436.165Zm-9.9.126a6.361,6.361,0,1,1,8.093-3A6.113,6.113,0,0,1,3136.973,436.29Z" transform="translate(-2576.833 -317.769)" fill="url(#linear-gradient-5)"/>
      <path id="Path_13" data-name="Path 13" d="M3203.482,443.08a1.828,1.828,0,0,0,1.606-1.86,1.548,1.548,0,0,0-1.676-1.567c-.048,0-.094.012-.14.02a9.225,9.225,0,0,0-.388-1.371c.042-.024.083-.05.124-.078.775-.543,1.735-1.856,1.188-2.583-1.038-1.38-2.113-.783-2.888-.239-.04.028-.077.058-.114.088a8.2,8.2,0,0,0-1.005-.938c.025-.042.051-.084.073-.129a1.8,1.8,0,0,0,.1-1.423q-1.123,1.977-2.213,3.972a6.207,6.207,0,0,1,1.595,7.841,6.351,6.351,0,0,1-6.007,3.579c-.1.274-.209.549-.322.82-.307.736-.656,1.456-1,2.175q.329.062.661.1c0,.048-.006.1,0,.144.019.947.594,1.751,2.236,1.664.908-.048,1.065-1.01,1.046-1.956,0-.049-.006-.1-.01-.146a9.253,9.253,0,0,0,1.335-.5c.02.042.042.084.066.125a2.363,2.363,0,0,0,2.874.567c.775-.543.4-1.755-.066-2.534-.024-.04-.05-.077-.077-.114a10.08,10.08,0,0,0,.962-1.116c.038.024.077.048.118.068a1.752,1.752,0,0,0,1.582-3.114c-.041-.021-.083-.039-.125-.055a9.976,9.976,0,0,0,.333-1.435C3203.389,443.085,3203.435,443.085,3203.482,443.08Z" transform="translate(-2631.512 -329.295)" fill="url(#linear-gradient-6)"/>
      <path id="Path_14" data-name="Path 14" d="M3153.254,436.268a1.752,1.752,0,0,0,1.582-3.115c-.041-.021-.083-.038-.125-.055a10.034,10.034,0,0,0,.333-1.435c.046,0,.092,0,.138,0a1.828,1.828,0,0,0,1.607-1.86,1.548,1.548,0,0,0-1.675-1.568c-.047,0-.094.012-.14.02a9.25,9.25,0,0,0-.388-1.371c.042-.024.083-.05.124-.078a1.828,1.828,0,0,0,.554-2.395,1.548,1.548,0,0,0-2.254-.428c-.04.028-.077.058-.114.088a8.185,8.185,0,0,0-1.006-.939c.026-.042.051-.084.073-.129a1.618,1.618,0,1,0-2.876-1.46c-.023.045-.043.09-.061.135a8.187,8.187,0,0,0-1.351-.258c0-.048.005-.1,0-.144a1.548,1.548,0,0,0-1.675-1.568,1.827,1.827,0,0,0-1.606,1.86c0,.05,0,.1.01.146a9.267,9.267,0,0,0-1.336.5c-.021-.042-.042-.084-.066-.125a1.548,1.548,0,0,0-2.254-.428,1.828,1.828,0,0,0-.554,2.395c.024.04.051.077.077.114a10.11,10.11,0,0,0-.962,1.116,1.348,1.348,0,0,0-.118-.069,1.752,1.752,0,0,0-1.581,3.115c.041.021.083.038.125.055a10.064,10.064,0,0,0-.333,1.435c-.045,0-.091,0-.138.005a1.827,1.827,0,0,0-1.606,1.86,1.547,1.547,0,0,0,1.675,1.568c.047,0,.094-.012.14-.02a9.4,9.4,0,0,0,.388,1.371c-.041.024-.083.05-.123.078a1.827,1.827,0,0,0-.553,2.395,1.547,1.547,0,0,0,2.254.427c.04-.028.077-.058.114-.088a8.223,8.223,0,0,0,1.005.939c-.025.042-.051.084-.073.129a1.618,1.618,0,1,0,2.876,1.46c.022-.045.042-.09.061-.135a8.2,8.2,0,0,0,1.352.258c0,.048-.005.1,0,.144a1.547,1.547,0,0,0,1.675,1.567,1.827,1.827,0,0,0,1.607-1.86c0-.049-.005-.1-.01-.146a9.214,9.214,0,0,0,1.336-.5c.021.042.042.084.067.125a1.548,1.548,0,0,0,2.254.427,1.827,1.827,0,0,0,.554-2.395c-.024-.04-.05-.077-.077-.114a10.126,10.126,0,0,0,.962-1.116C3153.175,436.223,3153.213,436.247,3153.254,436.268Zm-9.9.126a6.361,6.361,0,1,1,8.093-3A6.113,6.113,0,0,1,3143.352,436.393Z" transform="translate(-2582.359 -317.775)" fill="url(#linear-gradient-7)"/>
      <path id="Path_15" data-name="Path 15" d="M2879.61,590.279a3.432,3.432,0,0,0,3.1-6.1c-.08-.041-.163-.075-.245-.108a19.813,19.813,0,0,0,.653-2.812c.089,0,.179,0,.269-.01a3.58,3.58,0,0,0,3.147-3.644,3.032,3.032,0,0,0-3.281-3.071c-.093.008-.184.023-.274.039a18.164,18.164,0,0,0-.76-2.685c.082-.048.163-.1.242-.153a3.579,3.579,0,0,0,1.085-4.691,3.032,3.032,0,0,0-4.416-.838c-.077.055-.151.113-.223.173a16.067,16.067,0,0,0-1.97-1.839c.05-.082.1-.165.144-.252.855-1.685,1.973-3.525.405-4.291-3.628-1.771-5.184-.255-6.04,1.43-.044.087-.082.176-.119.265a16.033,16.033,0,0,0-2.647-.505c.006-.094.01-.187.008-.283-.037-1.854.513-2.857-1.269-2.892-3.886-.075-5.2,1.611-5.159,3.465,0,.1.01.192.02.286a18.091,18.091,0,0,0-2.617.971c-.04-.083-.082-.165-.13-.245a3.031,3.031,0,0,0-4.415-.837,3.58,3.58,0,0,0-1.085,4.691c.047.078.1.151.151.223a19.765,19.765,0,0,0-1.885,2.187c-.075-.047-.152-.093-.232-.134a3.432,3.432,0,0,0-3.1,6.1c.081.041.163.075.246.108a19.8,19.8,0,0,0-.653,2.812c-.089,0-.179,0-.27.01a3.58,3.58,0,0,0-3.147,3.644,3.032,3.032,0,0,0,3.282,3.07c.093-.008.184-.023.274-.039a18.086,18.086,0,0,0,.76,2.685c-.082.048-.163.1-.242.153a3.58,3.58,0,0,0-1.085,4.691,4.441,4.441,0,0,0,5.484,1.172c.078-.055-.917-.448-.845-.508a16.017,16.017,0,0,0,1.97,1.839c-.05.082-.1.165-.144.252a3.17,3.17,0,1,0,5.635,2.861c.044-.087.083-.176.119-.265a16.04,16.04,0,0,0,2.647.505c-.005.094-.01.187-.008.283a3.032,3.032,0,0,0,3.282,3.071,3.58,3.58,0,0,0,3.147-3.644c0-.1-.01-.192-.02-.286a18.074,18.074,0,0,0,2.616-.971c.041.083.082.165.131.245a3.032,3.032,0,0,0,4.416.837,3.58,3.58,0,0,0,1.084-4.691c-.047-.078-.1-.151-.151-.223a19.708,19.708,0,0,0,1.885-2.187C2879.453,590.192,2879.529,590.238,2879.61,590.279Zm-19.4.246c-5.65-2.868-7.712-10.152-4.606-16.269s10.2-8.751,15.853-5.883,7.711,10.153,4.606,16.27S2865.862,593.394,2860.213,590.525Z" transform="translate(-2330.746 -437.565)" fill="url(#linear-gradient-5)"/>
      <path id="Path_16" data-name="Path 16" d="M2990.5,603.827a3.581,3.581,0,0,0,3.147-3.644,3.032,3.032,0,0,0-3.282-3.071c-.093.008-.184.023-.275.039a18.135,18.135,0,0,0-.76-2.685c.082-.048.163-.1.242-.153,1.519-1.064,3.4-3.635,2.326-5.059-2.033-2.7-4.138-1.533-5.657-.469-.078.055-.151.113-.223.173a16.049,16.049,0,0,0-1.97-1.839c.05-.082.1-.165.143-.252a3.534,3.534,0,0,0,.2-2.787q-2.2,3.873-4.335,7.782c4.507,3.3,5.941,9.811,3.125,15.36a12.44,12.44,0,0,1-11.766,7.011c-.207.536-.41,1.075-.631,1.606-.6,1.441-1.283,2.852-1.966,4.261q.644.122,1.294.19c-.006.094-.01.188-.009.283.038,1.854,1.163,3.429,4.38,3.259,1.78-.095,2.086-1.978,2.049-3.832,0-.1-.01-.192-.02-.286a18.068,18.068,0,0,0,2.616-.971c.041.083.083.165.13.245.92,1.527,4.111,2.175,5.63,1.111s.791-3.438-.129-4.965c-.048-.078-.1-.151-.152-.224a19.721,19.721,0,0,0,1.885-2.186c.075.047.152.093.232.134a3.432,3.432,0,0,0,3.1-6.1c-.081-.041-.163-.075-.245-.108a19.714,19.714,0,0,0,.653-2.812C2990.316,603.836,2990.405,603.834,2990.5,603.827Z" transform="translate(-2437.856 -460.143)" fill="url(#linear-gradient-6)"/>
      <path id="Path_17" data-name="Path 17" d="M2892.107,590.481a3.432,3.432,0,0,0,3.1-6.1c-.08-.041-.163-.075-.245-.108a19.679,19.679,0,0,0,.653-2.812c.089,0,.179,0,.27-.01a3.58,3.58,0,0,0,3.147-3.644,3.032,3.032,0,0,0-3.282-3.071c-.093.008-.184.023-.275.039a17.992,17.992,0,0,0-.76-2.685c.082-.048.163-.1.242-.153a3.579,3.579,0,0,0,1.085-4.691,3.032,3.032,0,0,0-4.416-.837c-.078.055-.151.113-.223.173a16.055,16.055,0,0,0-1.97-1.839c.05-.082.1-.165.144-.252a3.17,3.17,0,1,0-5.635-2.861c-.044.087-.083.176-.119.265a16.036,16.036,0,0,0-2.646-.505c.005-.094.01-.187.008-.282a3.032,3.032,0,0,0-3.282-3.071,3.579,3.579,0,0,0-3.147,3.644c0,.1.01.192.02.286a18.107,18.107,0,0,0-2.616.971c-.04-.083-.083-.165-.131-.245a3.032,3.032,0,0,0-4.415-.837,3.58,3.58,0,0,0-1.084,4.691c.047.078.1.152.151.224a19.689,19.689,0,0,0-1.884,2.187c-.076-.047-.152-.093-.232-.134a3.432,3.432,0,0,0-3.1,6.1c.081.041.163.075.245.108a19.808,19.808,0,0,0-.653,2.812c-.089,0-.178,0-.269.01a3.581,3.581,0,0,0-3.147,3.644,3.032,3.032,0,0,0,3.282,3.07c.092-.008.183-.023.274-.039a18.141,18.141,0,0,0,.76,2.685c-.082.048-.163.1-.242.153a3.579,3.579,0,0,0-1.084,4.691,3.031,3.031,0,0,0,4.415.837c.078-.055.151-.113.224-.173a16.045,16.045,0,0,0,1.969,1.839c-.05.082-.1.165-.144.252a3.17,3.17,0,1,0,5.635,2.861c.044-.087.082-.176.119-.265a16.066,16.066,0,0,0,2.647.505c-.006.094-.01.188-.008.283a3.032,3.032,0,0,0,3.282,3.07,3.58,3.58,0,0,0,3.147-3.644c0-.1-.01-.192-.02-.286a18.064,18.064,0,0,0,2.616-.971c.041.083.083.165.131.245a3.032,3.032,0,0,0,4.416.837,3.581,3.581,0,0,0,1.085-4.691c-.047-.078-.1-.151-.151-.223a19.707,19.707,0,0,0,1.885-2.187C2891.95,590.394,2892.026,590.44,2892.107,590.481Zm-19.4.246c-5.65-2.868-7.712-10.152-4.606-16.27s10.2-8.751,15.852-5.882,7.712,10.152,4.605,16.27S2878.359,593.6,2872.71,590.728Z" transform="translate(-2341.568 -437.577)" fill="url(#linear-gradient-7)"/>
      <path id="Path_18" data-name="Path 18" d="M3414.808,1146.606s15.2,17.091,2.235,44.548a3.656,3.656,0,0,1-6.332.48l-10.107-14.916a10.248,10.248,0,0,1-1.474-8.163l3.5-14.412Z" transform="translate(-2843.256 -863.998)" fill="url(#linear-gradient-11)"/>
      <path id="Path_19" data-name="Path 19" d="M2971.8,925.477s-20.113-10.89-43.88,8.007a3.657,3.657,0,0,0,.98,6.274l16.832,6.429a10.246,10.246,0,0,0,8.284-.431l13.231-6.7Z" transform="translate(-2434.205 -669.777)" fill="url(#linear-gradient-12)"/>
      <path id="Path_20" data-name="Path 20" d="M3426.026,1132.449s15.2,17.091,2.236,44.548a3.658,3.658,0,0,1-6.333.48l-10.106-14.916a10.245,10.245,0,0,1-1.474-8.163l3.5-14.412Z" transform="translate(-2852.971 -851.737)" fill="#f36f56"/>
      <path id="Path_21" data-name="Path 21" d="M2983.016,911.321s-20.113-10.89-43.879,8.007a3.657,3.657,0,0,0,.98,6.274l16.831,6.429a10.244,10.244,0,0,0,8.284-.431l13.231-6.7Z" transform="translate(-2443.922 -657.518)" fill="#f36f56"/>
      <path id="Path_22" data-name="Path 22" d="M3199.1,512.56c21.341-21.54,56.681-13.755,56.7-13.712.046.009,15.7,32.635-.388,58.333-14.595,23.309-47.041,40.238-53.275,43.339-.67.333-1.759.79-2.157.156-7.744-12.333-18.127-20.129-30.594-24.229-.69-.227-.474-1.372-.307-2.079C3170.644,567.683,3179.705,532.132,3199.1,512.56Z" transform="translate(-2644.111 -301.768)" fill="url(#linear-gradient-13)"/>
      <path id="Path_23" data-name="Path 23" d="M3325.262,607.315c11.941-11.956,23.138-7.05,34.672-17.467,4.212-3.8,8.819-9.968,11.411-20.619,3.572,11.331,7.6,32.38-3.512,50.125-14.6,23.309-47.042,40.238-53.275,43.339-.67.334-1.759.79-2.157.156a58.517,58.517,0,0,0-13.686-15.324,38.78,38.78,0,0,0,10.1-8.5C3318.425,627.538,3314.382,618.207,3325.262,607.315Z" transform="translate(-2756.536 -363.94)" fill="url(#linear-gradient-14)"/>
      <path id="Path_24" data-name="Path 24" d="M3535.453,516.625c-8.217-6.511-18.336-12.407-27.388-14.26,17.1-7.251,35.769-4.581,40.392-3.732a2.094,2.094,0,0,1,1.54,1.22c1.883,4.306,8.749,21.873,5.6,40.175C3552.356,532.526,3543.67,523.136,3535.453,516.625Z" transform="translate(-2937.852 -301.773)" fill="url(#linear-gradient-15)"/>
      <path id="Path_25" data-name="Path 25" d="M3786.7,569.234l.05.159.086.273.084.276.081.265c.029.1.059.2.089.3s.05.17.076.257l.093.318.072.249c.032.112.064.224.1.338l.068.242q.05.178.1.358.033.116.063.233c.034.125.069.25.1.377l.061.229c.034.13.068.261.1.392.019.074.039.149.057.224q.052.2.1.411c.018.072.036.144.054.216.035.142.071.285.1.428.018.07.034.141.051.211l.106.445c.015.068.032.136.047.2q.053.23.106.462l.045.2c.035.158.07.317.1.476.015.065.028.13.042.2q.052.244.1.49l.04.191q.052.251.1.505c.012.062.025.124.037.185q.051.259.1.521.017.09.034.18.051.266.1.535c.011.058.021.117.032.175.032.183.065.366.1.55l.029.167c.031.188.063.377.094.566.008.054.017.108.026.161q.046.288.09.58c.008.052.016.1.023.157q.045.294.087.591c.007.051.014.1.022.155q.042.3.082.6c.007.049.013.1.019.148q.04.307.078.617c.005.047.011.1.017.143q.038.314.073.63c0,.045.009.09.014.135.023.214.046.428.068.643,0,.043.008.087.013.13q.031.327.061.656c0,.041.007.082.01.123q.029.334.055.67c0,.039.006.078.009.117.017.227.033.454.048.682,0,.036,0,.073.007.109.015.231.03.462.042.695,0,.035,0,.07,0,.1q.019.352.034.706l0,.094q.015.36.026.721c0,.028,0,.057,0,.085q.011.367.018.735c0,.026,0,.051,0,.077q.006.374.008.749c0,.021,0,.043,0,.064q0,.382,0,.766c0,.017,0,.034,0,.051q0,.391-.011.783c0,.012,0,.025,0,.037q-.009.4-.022.8c0,.006,0,.013,0,.019a56.916,56.916,0,0,1-.775,7.627c-2.071-4.794-6.367-10.359-11.343-15.452C3781.559,582.9,3784.721,577.381,3786.7,569.234Z" transform="translate(-3171.896 -363.945)" fill="url(#linear-gradient-16)" style="mix-blend-mode: multiply;isolation: isolate"/>
      <ellipse id="Ellipse_1" data-name="Ellipse 1" cx="22.018" cy="24.448" rx="22.018" ry="24.448" transform="matrix(0.621, -0.784, 0.784, 0.621, 544.358, 242.679)" fill="url(#linear-gradient-17)"/>
      <path id="Path_26" data-name="Path 26" d="M3447.566,769.076c9.746-9.756,18.994-8.286,28.335-13.075,4.993,8.124,5.034,18.248-.7,25.49-7.552,9.531-22.253,10.459-32.835,2.073a27.252,27.252,0,0,1-2.432-2.175A30.632,30.632,0,0,1,3447.566,769.076Z" transform="translate(-2878.841 -525.701)" fill="url(#linear-gradient-18)" style="mix-blend-mode: multiply;isolation: isolate"/>
      <ellipse id="Ellipse_2" data-name="Ellipse 2" cx="20.182" cy="22.41" rx="20.182" ry="22.41" transform="matrix(0.621, -0.784, 0.784, 0.621, 547.096, 242.506)" fill="url(#linear-gradient-19)"/>
      <ellipse id="Ellipse_3" data-name="Ellipse 3" cx="17.58" cy="19.521" rx="17.58" ry="19.521" transform="translate(550.975 242.262) rotate(-51.607)" fill="url(#linear-gradient-20)"/>
      <ellipse id="Ellipse_4" data-name="Ellipse 4" cx="6.007" cy="20.333" rx="6.007" ry="20.333" transform="translate(520.812 278.891) rotate(-51.607)" fill="url(#linear-gradient-21)"/>
      <path id="Path_27" data-name="Path 27" d="M3160.161,1124.965l6.84,5.42a11.4,11.4,0,0,1,3.862,12.141l-1.237,4.229a2.286,2.286,0,0,1-3.613,1.149l-22.682-17.972a2.286,2.286,0,0,1,.293-3.78l3.834-2.171A11.4,11.4,0,0,1,3160.161,1124.965Z" transform="translate(-2621.212 -843.12)" fill="url(#linear-gradient-22)"/>
      <ellipse id="Ellipse_5" data-name="Ellipse 5" cx="5.669" cy="16.78" rx="5.669" ry="16.78" transform="translate(517.503 288.908) rotate(-51.607)" fill="url(#linear-gradient-23)"/>
      <path id="Path_28" data-name="Path 28" d="M3162.036,1174.672c-1.478,1.865,1.8,6.923,7.319,11.3s11.193,6.409,12.671,4.544-1.8-6.923-7.32-11.3S3163.514,1172.807,3162.036,1174.672Z" transform="translate(-2637.854 -887.707)" fill="url(#linear-gradient-24)"/>
      <path id="Path_29" data-name="Path 29" d="M3459.879,780.632c8.288-8.3,16.217-8.474,24.148-11.288,4.167,6.534,4.271,14.774-.38,20.643-6.03,7.61-17.769,8.351-26.218,1.655a21.634,21.634,0,0,1-3.284-3.223A30.376,30.376,0,0,1,3459.879,780.632Z" transform="translate(-2891.153 -537.258)" fill="url(#linear-gradient-25)"/>
      <path id="Path_30" data-name="Path 30" d="M2825.719,1252.975c-2.2,4.967-7.375,13.688-19.238,24.051-18.626,16.272-18.361-3.686-16.019-8.348s-11.194,6.071-23.977,2.656a6.846,6.846,0,0,1-3.814-2.228c-3.483-4.562,3.462-10.457,6.641-12.647,6.462-4.451,13.712-3.415,21.03-4.836,6.79-1.318,12.731-5.586,17.5-10.431a11,11,0,0,1,17.675,2.832A10.571,10.571,0,0,1,2825.719,1252.975Z" transform="translate(-2291.453 -943.081)" fill="url(#linear-gradient-7)"/>
      <path id="Path_31" data-name="Path 31" d="M2831.883,1280.78c-2.2,4.967-7.375,13.688-19.238,24.051-18.626,16.272-18.361-3.686-16.019-8.348s-11.194,6.071-23.976,2.656a6.843,6.843,0,0,1-3.814-2.229c4.079.5,10.156-.925,16.5-3.558,10.059-4.175,11.954-5.789,13.093-.1s.1,8.635,13,4.082c11.511-4.062,17.886-23.228,19.13-27.316a10.884,10.884,0,0,1,1.13,1.807A10.568,10.568,0,0,1,2831.883,1280.78Z" transform="translate(-2297.616 -970.886)" fill="#ff9085" style="mix-blend-mode: multiply;isolation: isolate"/>
      <path id="Path_32" data-name="Path 32" d="M3853.11,466.192s.994-1.472,1.613-2.556a42.267,42.267,0,0,1,3.659-4.236s.286.438-.36,1.228-2.027,2.166-1.643,2.67,1.382.9.77,1.955-1.872.471-2.422,1.326-1.112,1.784-1.112,1.784Z" transform="translate(-3236.69 -268.819)" fill="url(#linear-gradient-27)"/>
      <path id="Path_33" data-name="Path 33" d="M3208.831,754.325s-1.6.6-2.944,1.111-2.225,1.745-3.252,2.4.309.624,1.135.6a4.61,4.61,0,0,0,2.927-1.113c.466-.665.884-1.183,1-1.176s1.962-.729,1.962-.729Z" transform="translate(-2673 -524.249)" fill="url(#linear-gradient-28)"/>
      <path id="Path_34" data-name="Path 34" d="M3417.1,1275.777a1.243,1.243,0,0,1,.39-1.1,1.4,1.4,0,0,1,1.543-.037c.24.139.417.34.96,1.845.575,1.591.547,1.835.416,1.962-.266.257-.913-.018-1.052-.077-.463-.2-.558-.435-1.45-1.458C3417.3,1276.221,3417.14,1276.1,3417.1,1275.777Z" transform="translate(-2859.054 -974.701)" fill="url(#linear-gradient-29)"/>
      <path id="Path_35" data-name="Path 35" d="M3422.365,1267.14l-.011,1.776c.38.249.631.257.781.078l.513-1.725Z" transform="translate(-2863.617 -968.39)" fill="url(#linear-gradient-30)"/>
      <path id="Path_36" data-name="Path 36" d="M3544.877,1283.593a1.239,1.239,0,0,1-.16-1.154,1.4,1.4,0,0,1,1.353-.744c.276.013.525.11,1.7,1.2,1.244,1.147,1.332,1.377,1.273,1.55-.117.352-.818.405-.969.417-.5.039-.7-.129-1.959-.626C3545.26,1283.894,3545.067,1283.861,3544.877,1283.593Z" transform="translate(-2969.526 -980.994)" fill="url(#linear-gradient-31)"/>
      <path id="Path_37" data-name="Path 37" d="M3549.444,1274.032l-.01,1.776c.38.249.63.257.78.079l.514-1.725Z" transform="translate(-2973.68 -974.359)" fill="url(#linear-gradient-32)"/>
      <path id="Path_38" data-name="Path 38" d="M3417.04,943.473l1.887.306q3-9.6,6.451-19.615,3.79-10.966,7.725-21.217c.335,2.735.618,5.923.735,9.486a103.781,103.781,0,0,1-.166,10.412c-.4,5.678-.96,6.3-1.083,9.855a37.918,37.918,0,0,0,1.608,12.1l1.822.073a139.395,139.395,0,0,0,6.107-50.645l-16.5-1.148a39.246,39.246,0,0,0-3.833,9.1c-1.26,4.538-1,6.865-2.394,14.672-.719,4.035-1.009,4.657-1.506,7.334A72.579,72.579,0,0,0,3417.04,943.473Z" transform="translate(-2858.778 -644.424)" fill="url(#linear-gradient-33)"/>
      <path id="Path_39" data-name="Path 39" d="M3422.257,928.235c1.036-5.266-.892-5.349.464-9.852,1.247-4.143,3.061-4.671,4.891-9.936,1.469-4.226.776-5.255,1.773-7.068,1.232-2.241,4.4-4.5,12.872-4.745-.038-.82-.082-1.625-.131-2.4l-16.5-1.148a39.246,39.246,0,0,0-3.833,9.1c-1.26,4.538-1,6.865-2.394,14.672-.719,4.035-1.009,4.657-1.506,7.334a72.579,72.579,0,0,0-.854,19.289l1.887.306c.058-.186.12-.375.178-.561a8.191,8.191,0,0,1-.648-1.843C3417.5,936.969,3420.962,934.816,3422.257,928.235Z" transform="translate(-2858.778 -644.424)" fill="url(#linear-gradient-34)" style="mix-blend-mode: multiply;isolation: isolate"/>
      <path id="Path_40" data-name="Path 40" d="M3247.533,541.1l1.047,2.094a39.714,39.714,0,0,0,7.069-2.356c4.578-2.022,5.382-3.42,9.687-4.974,2.957-1.068,6.744-2.377,9.425-.524a5.669,5.669,0,0,1,1.854,2.251c-.359,3.462-.75,6.216-.955,7.92-1.8,15.042-2.061,17.779-.211,19.484,1.609,1.482,2.7.242,10.6,1.19,7.2.864,8.6,2.173,10.563,1.034,3.188-1.849,2.548-7.067,3.238-13.435a56.921,56.921,0,0,1,6.922-21.309,29.967,29.967,0,0,0,13.024-6.035,30.474,30.474,0,0,0,10.21-15.97l-1.833-1.833a29.791,29.791,0,0,1-10.21,8.64c-6.623,3.327-11.883,2.546-21.725,3.088-3.872.214-15.438.914-24.521,3.891C3265.524,526.283,3256.694,530.621,3247.533,541.1Z" transform="translate(-2712.209 -311.461)" fill="url(#linear-gradient-22)"/>
      <path id="Path_41" data-name="Path 41" d="M3563.176,512.809a5.166,5.166,0,0,0-1.012-6.414c-1.393-1.157-3.141-.991-4.415-.869-.589.056-4.734.5-5.967,3.418a4.908,4.908,0,0,0-.063,3.227,12.326,12.326,0,0,0,1.318,2.458c.7,1.126.656,1.087.872,1.415a17.19,17.19,0,0,0,3.434,3.7,11.9,11.9,0,0,1,.669-1.969,10.565,10.565,0,0,1,1.39-2.311C3560.945,513.6,3562.235,514.088,3563.176,512.809Z" transform="translate(-2975.45 -308.694)" fill="url(#linear-gradient-36)"/>
      <path id="Path_42" data-name="Path 42" d="M3562.367,554.152a6.5,6.5,0,0,0,5.7,2.912c3.406-.206,3.94-7.841,1.772-9.472a4.3,4.3,0,0,0-3.359-.449c-.7.192-.937.482-2.085.774-1.059.27-1.357.151-1.678.418-.4.334-.7,1.157-.04,3.393a1.852,1.852,0,0,0-1.979-.659,1.163,1.163,0,0,0-.455.44C3559.763,552.38,3560.555,553.5,3562.367,554.152Z" transform="translate(-2982.922 -344.682)" fill="url(#linear-gradient-37)"/>
      <path id="Path_43" data-name="Path 43" d="M3324.8,682.395c-.542-4.514-4.172-4.746-6.545-10.472-2.486-6,.092-9.123-2.356-11.258-3.615-3.153-12.163,1.111-15.708,2.88a44.9,44.9,0,0,0-12.262,9.062c.853-.3,1.759-.659,2.706-1.077,4.578-2.022,5.383-3.42,9.687-4.974,2.958-1.068,6.745-2.377,9.425-.523a5.663,5.663,0,0,1,1.854,2.251c-.359,3.463-.75,6.216-.955,7.919-1.8,15.042-2.061,17.779-.211,19.484,1.609,1.482,2.705.242,10.6,1.19,1.719.206,3.105.438,4.25.656-2.178-2.326-2.822-4.337-2.837-5.974C3322.416,688.019,3325.3,686.559,3324.8,682.395Z" transform="translate(-2747.198 -442.153)" fill="#aaa3f5"/>
      <path id="Path_44-2" data-name="Path 44" d="M3006.184,372.6c-20.087,11.154-13.613,65.189,33.773,54.194,6.991-1.622,10.128-11.881,14.4-5.236,2.357,3.665,3.513,5.118,5.819,6.945,8.45,6.7,20.188,5.954,26.219-1.655s48.933-69.019,40.483-75.715c-3.717-2.946-36.663.392-53.932,7.069C3050.958,366.705,3010.938,369.964,3006.184,372.6Z" transform="translate(-2493.899 -174.12)" fill="none"/>
      <path id="Path_45" data-name="Path 45" d="M3746.587,1148.16c1.594-9.619-5.3-18.774-15.406-20.448S3711.6,1132.478,3710,1142.1a17.391,17.391,0,0,0,5.3,15.432,7.282,7.282,0,0,1,2.173,6.451l-.22,1.333a5.315,5.315,0,0,0,4.375,6.113l4.494.745a5.316,5.316,0,0,0,6.113-4.375l.22-1.333a7.285,7.285,0,0,1,4.137-5.406A17.392,17.392,0,0,0,3746.587,1148.16Z" transform="translate(-3084.34 -994.635)" fill="#f4f7fa"/>
      <ellipse id="Ellipse_6" data-name="Ellipse 6" cx="2.178" cy="4.113" rx="2.178" ry="4.113" transform="translate(633.834 186.405) rotate(-80.59)" fill="url(#linear-gradient-38)"/>
      <path id="Path_46" data-name="Path 46" d="M3767.43,1481.3l-.364,2.194a1.953,1.953,0,0,0,.8,1.922,10.428,10.428,0,0,0,4.58,1.656,10.766,10.766,0,0,0,3.876-.033,1.986,1.986,0,0,0,1.5-1.616l.2-1.214Z" transform="translate(-3133.938 -1301.099)" fill="url(#linear-gradient-39)"/>
      <path id="Path_47" data-name="Path 47" d="M3767.576,1483.219a2.176,2.176,0,0,0,.5.491c.961.671,7.611,2.915,9.363,2.569a2.256,2.256,0,0,0,.627-.223,2,2,0,0,0,.221-.636l.2-1.214-10.6-2.91Z" transform="translate(-3134.401 -1301.099)" fill="url(#linear-gradient-40)" style="mix-blend-mode: multiply;isolation: isolate"/>
      <path id="Path_48" data-name="Path 48" d="M3766.674,1470.5a1.043,1.043,0,0,0-1.306.835l-.01.062a2.191,2.191,0,0,0,.9,2.157c.961.671,7.612,2.915,9.363,2.569a2.019,2.019,0,0,0,1.661-1.688l.008-.05a1.043,1.043,0,0,0-.753-1.176Z" transform="translate(-3132.454 -1291.715)" fill="url(#linear-gradient-41)"/>
      <path id="Path_49" data-name="Path 49" d="M3778.534,1473.209l-9.865-2.709a1.041,1.041,0,0,0-1.037.294,2.178,2.178,0,0,0,.869,1.277c.961.671,7.878,3.109,9.343,2.694a2.389,2.389,0,0,0,1.36-.987A1.041,1.041,0,0,0,3778.534,1473.209Z" transform="translate(-3134.451 -1291.716)" fill="url(#linear-gradient-42)" style="mix-blend-mode: multiply;isolation: isolate"/>
      <path id="Path_50" data-name="Path 50" d="M3769.205,1443.65a.753.753,0,0,0-.866.62l-.285,1.718a2.192,2.192,0,0,0,.9,2.157c.961.671,7.878,3.108,9.342,2.694a2.3,2.3,0,0,0,1.682-1.813l.456-2.751a.753.753,0,0,0-.62-.866Z" transform="translate(-3134.789 -1268.484)" fill="url(#linear-gradient-43)"/>
      <ellipse id="Ellipse_7" data-name="Ellipse 7" cx="1.414" cy="5.979" rx="1.414" ry="5.979" transform="matrix(0.163, -0.987, 0.987, 0.163, 633.502, 176.997)" fill="url(#linear-gradient-44)"/>
      <path id="Path_51" data-name="Path 51" d="M3746.587,1148.16c1.594-9.619-5.3-18.774-15.406-20.448S3711.6,1132.478,3710,1142.1a17.391,17.391,0,0,0,5.3,15.432,7.282,7.282,0,0,1,2.173,6.451l-.22,1.333a5.315,5.315,0,0,0,4.375,6.113l4.494.745a5.316,5.316,0,0,0,6.113-4.375l.22-1.333a7.285,7.285,0,0,1,4.137-5.406A17.392,17.392,0,0,0,3746.587,1148.16Z" transform="translate(-3084.34 -994.635)" fill="url(#linear-gradient-45)"/>
      <ellipse id="Ellipse_8" data-name="Ellipse 8" cx="1.034" cy="4.375" rx="1.034" ry="4.375" transform="translate(635.328 175.785) rotate(-80.59)" fill="#f4f7fa" style="mix-blend-mode: soft-light;isolation: isolate"/>
      <path id="Path_52" data-name="Path 52" d="M3806.619,1282.98a.254.254,0,0,1-.211-.259l.917-25.219a.252.252,0,1,1,.5.018l-.916,25.219a.253.253,0,0,1-.262.243Z" transform="translate(-3168.032 -1107.063)" fill="url(#linear-gradient-46)"/>
      <path id="Path_53" data-name="Path 53" d="M3821.342,1292.224a.209.209,0,0,1-.032-.007.252.252,0,0,1-.169-.315l7.267-24.167a.253.253,0,0,1,.485.146l-7.267,24.167A.253.253,0,0,1,3821.342,1292.224Z" transform="translate(-3180.782 -1115.979)" fill="url(#linear-gradient-47)"/>
      <path id="Path_54" data-name="Path 54" d="M3824.675,1245.427a.252.252,0,0,1-.19-.147l-.656-1.475a.041.041,0,0,0-.07-.011l-.739.873a.546.546,0,0,1-.916-.129l-.6-1.323a.043.043,0,0,0-.031-.026.044.044,0,0,0-.037.013l-.865.893a.547.547,0,0,1-.48.16h0a.548.548,0,0,1-.4-.306l-.767-1.608a.047.047,0,0,0-.032-.025.04.04,0,0,0-.037.016l-1.181,1.433a.253.253,0,1,1-.389-.322l1.18-1.433a.546.546,0,0,1,.916.113l.768,1.608a.04.04,0,0,0,.031.025.039.039,0,0,0,.036-.013l.866-.893a.545.545,0,0,1,.891.157l.6,1.323c.006.015.018.028.032.025a.039.039,0,0,0,.037-.015l.74-.873a.546.546,0,0,1,.917.132l.656,1.475a.254.254,0,0,1-.128.334A.251.251,0,0,1,3824.675,1245.427Z" transform="translate(-3177.399 -1093.685)" fill="url(#linear-gradient-48)"/>
      <path id="Path_55" data-name="Path 55" d="M3726.35,1168.234c1.5-6.649,13.082-6.344,14.027-12.347.582-3.7-3.461-7.185-4.33-7.893-6.405-5.22-15.889-1.99-17.14-5.6a3.131,3.131,0,0,1,.251-2.25,4.844,4.844,0,0,1,1.553-1.949,17.19,17.19,0,0,0-5.41,28.642,7.282,7.282,0,0,1,2.173,6.452l-.22,1.333a5.315,5.315,0,0,0,4.375,6.113l4.494.745a5.316,5.316,0,0,0,6.113-4.374l.177-1.066a3.487,3.487,0,0,1-2.24.449C3727.472,1176.021,3725.6,1171.542,3726.35,1168.234Z" transform="translate(-3084.34 -1003.947)" fill="url(#linear-gradient-49)" style="mix-blend-mode: multiply;isolation: isolate"/>
      <ellipse id="Ellipse_9" data-name="Ellipse 9" cx="15.387" cy="15.955" rx="15.387" ry="15.955" transform="matrix(0.163, -0.987, 0.987, 0.163, 625.879, 163.793)" fill="#f4f7fa" style="mix-blend-mode: soft-light;isolation: isolate"/>
    </g>
    <g id="loading_illustration" data-name="loading illustration" transform="translate(463 101.922)">
      <g id="Group_3" data-name="Group 3" transform="matrix(0.966, 0.259, -0.259, 0.966, 121.679, 112.728)">
        <path id="Path_8-2" data-name="Path 8" d="M11.793,7.455l-3.522,1.2-1.03,3.67a.474.474,0,0,1-.849.152L4.2,9.385.5,9.491A.5.5,0,0,1,.089,8.7L2.23,5.583.952,1.942a.492.492,0,0,1,.6-.651L5.1,2.479,8.042.107a.486.486,0,0,1,.784.4l.02,3.878,3.069,2.18A.509.509,0,0,1,11.793,7.455Z" transform="translate(11.44 137.904)" fill="url(#linear-gradient)"/>
        <path id="Path_9-2" data-name="Path 9" d="M32.9,20.8l-9.825,3.335L20.2,34.374a1.324,1.324,0,0,1-2.37.425L11.7,26.183,1.4,26.478A1.407,1.407,0,0,1,.249,24.269l5.972-8.691L2.657,5.418A1.372,1.372,0,0,1,4.329,3.6l9.9,3.314L22.437.3a1.355,1.355,0,0,1,2.187,1.116l.055,10.819,8.563,6.082A1.422,1.422,0,0,1,32.9,20.8Z" transform="translate(31.917 58.451)" fill="url(#linear-gradient-2)"/>
        <path id="Path_10-2" data-name="Path 10" d="M13.928,7.349l-3.594,2.4-.055,4.428a.552.552,0,0,1-.908.425L5.979,11.794,1.865,13.021a.586.586,0,0,1-.7-.765L2.634,8.117.107,4.413A.572.572,0,0,1,.585,3.5l4.341.268L7.514.226a.565.565,0,0,1,1,.214L9.7,4.787l4.1,1.526A.592.592,0,0,1,13.928,7.349Z" transform="translate(53.053 0)" fill="url(#linear-gradient-3)"/>
        <path id="Path_11-2" data-name="Path 11" d="M5.871,6.408,3.882,5.73,2.155,7.019a.268.268,0,0,1-.433-.224L1.8,4.654.111,3.429a.285.285,0,0,1,.088-.5l2.033-.658L2.915.2A.278.278,0,0,1,3.408.117L4.589,1.873l2.134-.049a.275.275,0,0,1,.214.45L5.609,4.017l.624,2.034A.288.288,0,0,1,5.871,6.408Z" transform="translate(0 142.425)" fill="url(#linear-gradient-4)"/>
      </g>
      <g id="Group_6" data-name="Group 6" transform="translate(45.168 0.001)">
        <g id="Group_4" data-name="Group 4" transform="translate(38.946 0)">
          <path id="Path_12-2" data-name="Path 12" d="M3147.289,436.552a1.793,1.793,0,0,0,1.619-3.188c-.042-.021-.085-.039-.128-.057a10.307,10.307,0,0,0,.341-1.469c.047,0,.093,0,.141-.005a1.871,1.871,0,0,0,1.645-1.9,1.585,1.585,0,0,0-1.715-1.6c-.049,0-.1.012-.144.02a9.49,9.49,0,0,0-.4-1.4c.042-.025.084-.051.126-.08a1.871,1.871,0,0,0,.567-2.451,1.585,1.585,0,0,0-2.308-.438c-.041.029-.079.059-.116.091a8.412,8.412,0,0,0-1.03-.961c.026-.043.052-.086.075-.132.447-.88,1.031-1.842.212-2.242-1.9-.925-2.709-.133-3.156.747-.023.046-.042.092-.062.138a8.38,8.38,0,0,0-1.383-.264c0-.049,0-.1,0-.148-.019-.969.268-1.493-.663-1.511-2.03-.039-2.715.842-2.7,1.811,0,.051,0,.1.01.149a9.43,9.43,0,0,0-1.367.507c-.021-.043-.043-.086-.068-.128a1.584,1.584,0,0,0-2.307-.437,1.871,1.871,0,0,0-.567,2.451c.025.041.052.079.079.117a10.381,10.381,0,0,0-.984,1.142c-.04-.025-.079-.049-.122-.07a1.793,1.793,0,0,0-1.619,3.188c.042.022.085.039.128.057a10.338,10.338,0,0,0-.341,1.469c-.046,0-.094,0-.141.005a1.87,1.87,0,0,0-1.644,1.9,1.584,1.584,0,0,0,1.715,1.6c.048,0,.1-.012.143-.02a9.46,9.46,0,0,0,.4,1.4c-.043.025-.085.051-.127.08a1.871,1.871,0,0,0-.566,2.451,2.319,2.319,0,0,0,2.865.612c.041-.028-.479-.234-.44-.265a8.411,8.411,0,0,0,1.028.961c-.026.043-.052.086-.074.132a1.656,1.656,0,1,0,2.944,1.495c.023-.046.043-.092.063-.138a8.364,8.364,0,0,0,1.383.264c0,.049-.005.1,0,.148a1.584,1.584,0,0,0,1.715,1.6,1.871,1.871,0,0,0,1.645-1.9c0-.051-.005-.1-.01-.149a9.483,9.483,0,0,0,1.367-.507c.021.043.043.086.068.128a1.584,1.584,0,0,0,2.307.438,1.869,1.869,0,0,0,.567-2.451,1.325,1.325,0,0,0-.08-.117,10.206,10.206,0,0,0,.985-1.142A1.367,1.367,0,0,0,3147.289,436.552Zm-10.135.129a6.511,6.511,0,1,1,8.283-3.074A6.257,6.257,0,0,1,3137.154,436.681Z" transform="translate(-3129.278 -419.692)" fill="url(#linear-gradient-5)"/>
          <path id="Path_13-2" data-name="Path 13" d="M3203.742,443.318a1.871,1.871,0,0,0,1.644-1.9,1.584,1.584,0,0,0-1.715-1.6c-.049,0-.1.012-.144.02a9.432,9.432,0,0,0-.4-1.4c.043-.025.085-.051.126-.08.794-.556,1.776-1.9,1.216-2.643-1.063-1.412-2.163-.8-2.956-.245-.041.029-.079.059-.117.09a8.4,8.4,0,0,0-1.029-.96c.026-.043.052-.086.075-.132a1.847,1.847,0,0,0,.1-1.456q-1.15,2.024-2.265,4.066a6.353,6.353,0,0,1,1.633,8.026,6.5,6.5,0,0,1-6.148,3.663c-.107.28-.214.562-.329.839-.314.753-.671,1.49-1.028,2.226.224.042.45.076.677.1,0,.049-.006.1,0,.148.02.969.607,1.792,2.289,1.7.93-.049,1.09-1.033,1.071-2,0-.051-.006-.1-.01-.149a9.469,9.469,0,0,0,1.367-.507c.021.043.043.086.068.128a2.418,2.418,0,0,0,2.942.581c.794-.556.413-1.8-.068-2.594-.024-.041-.052-.079-.079-.117a10.28,10.28,0,0,0,.985-1.143c.039.025.079.049.121.07a1.793,1.793,0,0,0,1.619-3.188c-.042-.021-.085-.039-.128-.057a10.214,10.214,0,0,0,.341-1.469C3203.648,443.323,3203.695,443.322,3203.742,443.318Z" transform="translate(-3183.759 -431.176)" fill="url(#linear-gradient-6)"/>
          <path id="Path_14-2" data-name="Path 14" d="M3153.668,436.658a1.793,1.793,0,0,0,1.619-3.188c-.042-.021-.085-.039-.128-.057a10.272,10.272,0,0,0,.341-1.469c.047,0,.094,0,.141-.005a1.871,1.871,0,0,0,1.645-1.9,1.584,1.584,0,0,0-1.715-1.6c-.048,0-.1.012-.143.02a9.458,9.458,0,0,0-.4-1.4c.043-.025.085-.051.127-.08a1.871,1.871,0,0,0,.567-2.451,1.585,1.585,0,0,0-2.308-.438c-.041.029-.079.059-.116.091a8.367,8.367,0,0,0-1.029-.961c.026-.043.052-.086.075-.132a1.656,1.656,0,1,0-2.944-1.495c-.024.046-.044.092-.063.138a8.376,8.376,0,0,0-1.383-.264c0-.049.005-.1,0-.148a1.584,1.584,0,0,0-1.715-1.6,1.87,1.87,0,0,0-1.644,1.9c0,.051,0,.1.01.149a9.483,9.483,0,0,0-1.367.507c-.021-.043-.043-.086-.068-.128a1.584,1.584,0,0,0-2.307-.438,1.871,1.871,0,0,0-.567,2.451c.025.041.052.079.079.117a10.361,10.361,0,0,0-.985,1.143,1.394,1.394,0,0,0-.121-.07,1.793,1.793,0,0,0-1.618,3.188c.042.021.084.039.128.057a10.3,10.3,0,0,0-.341,1.469c-.046,0-.094,0-.141.005a1.87,1.87,0,0,0-1.644,1.9,1.584,1.584,0,0,0,1.714,1.6c.048,0,.1-.012.143-.02a9.639,9.639,0,0,0,.4,1.4c-.042.025-.085.051-.126.08a1.87,1.87,0,0,0-.566,2.451,1.584,1.584,0,0,0,2.307.438c.041-.029.079-.059.117-.091a8.423,8.423,0,0,0,1.029.961c-.026.043-.052.086-.075.132a1.656,1.656,0,1,0,2.944,1.495c.023-.046.043-.092.062-.138a8.393,8.393,0,0,0,1.384.264c0,.049-.006.1,0,.148a1.584,1.584,0,0,0,1.714,1.6,1.87,1.87,0,0,0,1.645-1.9c0-.051-.005-.1-.01-.149a9.43,9.43,0,0,0,1.367-.507c.021.043.043.086.068.128a1.584,1.584,0,0,0,2.307.438,1.87,1.87,0,0,0,.567-2.451c-.024-.041-.051-.079-.079-.117a10.374,10.374,0,0,0,.984-1.143C3153.587,436.612,3153.626,436.636,3153.668,436.658Zm-10.135.129a6.511,6.511,0,1,1,8.283-3.074A6.257,6.257,0,0,1,3143.533,436.786Z" transform="translate(-3134.784 -419.698)" fill="url(#linear-gradient-7)"/>
        </g>
        <g id="Group_5" data-name="Group 5" transform="translate(0 18.959)">
          <path id="Path_15-2" data-name="Path 15" d="M2880.421,591.039a3.513,3.513,0,0,0,3.17-6.245c-.082-.042-.167-.077-.251-.111a20.27,20.27,0,0,0,.669-2.878c.091,0,.183,0,.276-.01a3.664,3.664,0,0,0,3.221-3.729,3.1,3.1,0,0,0-3.359-3.143c-.095.009-.188.024-.281.04a18.62,18.62,0,0,0-.778-2.748c.083-.049.167-.1.248-.156a3.664,3.664,0,0,0,1.11-4.8,3.1,3.1,0,0,0-4.519-.857c-.079.056-.155.116-.229.177a16.439,16.439,0,0,0-2.016-1.882c.052-.084.1-.169.147-.258.875-1.724,2.02-3.608.415-4.392-3.713-1.813-5.306-.261-6.182,1.463-.045.089-.084.18-.122.271a16.409,16.409,0,0,0-2.709-.517c.006-.1.01-.192.008-.289-.038-1.9.525-2.924-1.3-2.96-3.977-.077-5.32,1.649-5.281,3.547,0,.1.01.2.02.292a18.518,18.518,0,0,0-2.678.994c-.041-.085-.084-.169-.133-.25a3.1,3.1,0,0,0-4.519-.857,3.664,3.664,0,0,0-1.111,4.8c.048.08.1.155.155.229a20.222,20.222,0,0,0-1.929,2.238c-.077-.048-.156-.1-.238-.137a3.513,3.513,0,0,0-3.171,6.245c.083.042.167.077.251.111a20.261,20.261,0,0,0-.669,2.878c-.091,0-.183,0-.276.01a3.665,3.665,0,0,0-3.221,3.729,3.1,3.1,0,0,0,3.359,3.143c.095-.008.188-.023.281-.04a18.514,18.514,0,0,0,.778,2.748c-.084.049-.167.1-.248.156a3.664,3.664,0,0,0-1.11,4.8c.942,1.563,4.059,2.288,5.613,1.2.08-.056-.939-.458-.865-.519a16.388,16.388,0,0,0,2.016,1.882c-.052.084-.1.169-.147.258a3.244,3.244,0,1,0,5.767,2.928c.045-.089.084-.18.122-.271a16.422,16.422,0,0,0,2.709.517c-.006.1-.01.192-.008.289a3.1,3.1,0,0,0,3.359,3.143,3.664,3.664,0,0,0,3.221-3.729c0-.1-.01-.2-.021-.293a18.5,18.5,0,0,0,2.678-.994c.042.085.084.169.134.25a3.1,3.1,0,0,0,4.52.857,3.665,3.665,0,0,0,1.11-4.8c-.048-.08-.1-.155-.155-.229a20.165,20.165,0,0,0,1.929-2.238C2880.26,590.95,2880.338,591,2880.421,591.039Zm-19.853.252c-5.783-2.936-7.893-10.391-4.714-16.652s10.444-8.957,16.226-6.021,7.893,10.391,4.714,16.652S2866.35,594.226,2860.568,591.291Z" transform="translate(-2845.14 -558.011)" fill="url(#linear-gradient-5)"/>
          <path id="Path_16-2" data-name="Path 16" d="M2991.007,604.291a3.665,3.665,0,0,0,3.221-3.73,3.1,3.1,0,0,0-3.359-3.143c-.1.008-.188.023-.281.04a18.533,18.533,0,0,0-.778-2.748c.083-.049.167-.1.248-.156,1.555-1.089,3.478-3.721,2.381-5.178-2.081-2.767-4.236-1.569-5.79-.48-.08.056-.155.116-.229.177a16.421,16.421,0,0,0-2.016-1.882c.051-.084.1-.169.146-.258a3.617,3.617,0,0,0,.2-2.853q-2.252,3.964-4.437,7.965c4.613,3.38,6.081,10.042,3.2,15.721a12.732,12.732,0,0,1-12.043,7.176c-.212.549-.419,1.1-.646,1.644-.615,1.475-1.313,2.919-2.012,4.361q.659.124,1.325.195c-.006.1-.01.192-.009.289.038,1.9,1.191,3.51,4.483,3.335,1.821-.1,2.135-2.024,2.1-3.922,0-.1-.01-.2-.02-.292a18.5,18.5,0,0,0,2.678-.994c.042.085.085.169.133.25.942,1.563,4.208,2.226,5.762,1.137s.809-3.519-.132-5.081c-.049-.08-.1-.155-.155-.229a20.2,20.2,0,0,0,1.929-2.238c.077.048.155.1.238.137a3.513,3.513,0,0,0,3.17-6.245c-.083-.042-.167-.077-.251-.111a20.169,20.169,0,0,0,.668-2.878C2990.822,604.3,2990.913,604.3,2991.007,604.291Z" transform="translate(-2951.862 -580.507)" fill="url(#linear-gradient-6)"/>
          <path id="Path_17-2" data-name="Path 17" d="M2892.918,591.245a3.513,3.513,0,0,0,3.17-6.245c-.082-.042-.167-.077-.251-.111a20.136,20.136,0,0,0,.668-2.878c.092,0,.183,0,.276-.01a3.665,3.665,0,0,0,3.221-3.729,3.1,3.1,0,0,0-3.359-3.143c-.1.008-.188.023-.281.04a18.448,18.448,0,0,0-.778-2.748c.084-.049.167-.1.248-.156a3.664,3.664,0,0,0,1.11-4.8,3.1,3.1,0,0,0-4.519-.857c-.08.056-.155.116-.229.177a16.426,16.426,0,0,0-2.016-1.882c.051-.084.1-.169.147-.258a3.244,3.244,0,1,0-5.767-2.928c-.045.089-.085.18-.122.271a16.413,16.413,0,0,0-2.709-.517c.006-.1.01-.192.008-.289a3.1,3.1,0,0,0-3.359-3.143,3.664,3.664,0,0,0-3.221,3.729c0,.1.01.2.02.292a18.543,18.543,0,0,0-2.678.994c-.041-.085-.085-.169-.134-.251a3.1,3.1,0,0,0-4.519-.857,3.664,3.664,0,0,0-1.11,4.8c.048.08.1.155.155.229a20.145,20.145,0,0,0-1.928,2.238c-.078-.048-.156-.1-.238-.137a3.513,3.513,0,0,0-3.171,6.245c.083.042.167.077.251.111a20.263,20.263,0,0,0-.669,2.878c-.091,0-.183,0-.275.01a3.665,3.665,0,0,0-3.221,3.729,3.1,3.1,0,0,0,3.359,3.143c.094-.008.188-.023.28-.04a18.569,18.569,0,0,0,.779,2.748c-.084.049-.167.1-.248.156a3.664,3.664,0,0,0-1.11,4.8,3.1,3.1,0,0,0,4.519.857c.08-.056.155-.116.229-.177a16.417,16.417,0,0,0,2.016,1.882c-.051.084-.1.169-.147.258a3.244,3.244,0,1,0,5.768,2.928c.045-.089.084-.18.122-.271a16.442,16.442,0,0,0,2.709.517c-.006.1-.01.192-.008.289a3.1,3.1,0,0,0,3.359,3.143,3.665,3.665,0,0,0,3.221-3.729c0-.1-.01-.2-.021-.292a18.49,18.49,0,0,0,2.678-.994c.042.085.084.169.134.25a3.1,3.1,0,0,0,4.519.857,3.665,3.665,0,0,0,1.11-4.8c-.049-.08-.1-.155-.155-.229a20.169,20.169,0,0,0,1.929-2.238C2892.757,591.156,2892.836,591.2,2892.918,591.245Zm-19.853.252c-5.782-2.936-7.893-10.391-4.714-16.653s10.443-8.957,16.226-6.021,7.893,10.391,4.714,16.652S2878.847,594.433,2873.065,591.5Z" transform="translate(-2855.924 -558.023)" fill="url(#linear-gradient-7)"/>
        </g>
      </g>
      <g id="Group_13" data-name="Group 13" transform="translate(0 95.959)">
        <g id="Group_11" data-name="Group 11" transform="translate(22.592 0)">
          <g id="Group_7" data-name="Group 7" transform="translate(0 58.242)">
            <path id="Path_18-2" data-name="Path 18" d="M3415.184,1146.606s15.557,17.493,2.288,45.6a3.743,3.743,0,0,1-6.481.492l-10.345-15.267a10.489,10.489,0,0,1-1.509-8.355l3.581-14.751Z" transform="translate(-3334.105 -1115.868)" fill="url(#linear-gradient-11)"/>
            <path id="Path_19-2" data-name="Path 19" d="M2972.865,925.55s-20.586-11.146-44.912,8.2a3.743,3.743,0,0,0,1,6.422l17.228,6.58a10.487,10.487,0,0,0,8.479-.441l13.542-6.858Z" transform="translate(-2926.544 -922.355)" fill="url(#linear-gradient-12)"/>
          </g>
          <g id="Group_8" data-name="Group 8" transform="translate(1.538 56.301)">
            <path id="Path_20-2" data-name="Path 20" d="M3426.4,1132.449s15.557,17.493,2.289,45.6a3.744,3.744,0,0,1-6.482.491l-10.344-15.267a10.487,10.487,0,0,1-1.508-8.355l3.58-14.751Z" transform="translate(-3345.323 -1101.712)" fill="#f36f56"/>
            <path id="Path_21-2" data-name="Path 21" d="M2984.082,911.394s-20.586-11.146-44.912,8.2a3.743,3.743,0,0,0,1,6.422l17.227,6.58a10.485,10.485,0,0,0,8.479-.441l13.543-6.858Z" transform="translate(-2937.761 -908.199)" fill="#f36f56"/>
          </g>
          <path id="Path_22-2" data-name="Path 22" d="M3199.807,512.916c21.843-22.047,58.015-14.079,58.034-14.035.047.009,16.071,33.4-.4,59.706-14.938,23.858-48.148,41.185-54.529,44.359-.686.341-1.8.809-2.208.16-7.927-12.623-18.554-20.6-31.314-24.8-.706-.232-.485-1.4-.314-2.128C3170.685,569.336,3179.959,532.949,3199.807,512.916Z" transform="translate(-3135.686 -497.443)" fill="url(#linear-gradient-13)"/>
          <g id="Group_9" data-name="Group 9" transform="translate(51.013 9.839)" opacity="0.3" style="mix-blend-mode: multiply;isolation: isolate">
            <path id="Path_23-2" data-name="Path 23" d="M3325.887,608.211c12.222-12.237,23.683-7.216,35.488-17.878,4.311-3.893,9.027-10.2,11.68-21.1,3.656,11.6,7.777,33.142-3.595,51.3-14.939,23.858-48.149,41.185-54.529,44.359-.686.341-1.8.809-2.208.16a59.89,59.89,0,0,0-14.009-15.685,39.693,39.693,0,0,0,10.335-8.7C3318.889,628.91,3314.751,619.36,3325.887,608.211Z" transform="translate(-3298.715 -569.228)" fill="url(#linear-gradient-14)"/>
          </g>
          <path id="Path_24-2" data-name="Path 24" d="M3536.1,517.076c-8.411-6.665-18.768-12.7-28.033-14.6,17.5-7.421,36.611-4.689,41.342-3.82a2.143,2.143,0,0,1,1.576,1.249c1.927,4.407,8.955,22.388,5.731,41.12C3553.4,533.352,3544.508,523.741,3536.1,517.076Z" transform="translate(-3428.357 -497.447)" fill="url(#linear-gradient-15)"/>
          <path id="Path_25-2" data-name="Path 25" d="M3786.9,569.234c.017.054.034.108.051.163l.088.279.086.282.083.271c.03.1.061.2.091.3l.078.263.095.325.074.255q.049.172.1.345l.07.247q.051.182.1.366.033.119.065.239c.035.128.07.256.1.386l.063.234c.035.133.07.267.1.4.02.076.04.152.059.229q.053.209.107.421c.018.073.037.147.055.221.036.145.072.291.107.438.018.072.035.144.052.216q.055.227.109.456c.015.069.032.139.049.209q.054.235.108.472l.046.2q.053.242.107.488c.015.066.029.133.043.2q.053.25.106.5l.041.2q.053.257.1.517c.012.063.025.126.038.19q.052.265.1.533.018.092.034.184.052.272.1.547c.011.06.022.12.033.18.033.187.066.374.1.563.01.057.02.114.03.171.032.192.065.385.1.579.009.055.017.11.026.165q.047.3.092.593c.008.054.016.107.024.161q.046.3.089.6c.008.053.015.105.022.158q.043.308.084.618c.007.05.013.1.019.151q.041.315.08.632c.006.049.011.1.017.146q.039.321.075.645l.014.139q.036.328.069.659c0,.044.009.089.013.133q.032.335.063.671c0,.042.007.084.01.126q.03.341.057.685c0,.04.006.08.009.119.017.232.034.465.05.7,0,.037,0,.075.007.112.015.236.03.473.043.711,0,.036,0,.071,0,.107q.02.36.035.723c0,.032,0,.064,0,.1q.016.368.027.738c0,.029,0,.058,0,.087q.011.375.018.752c0,.026,0,.052,0,.078q.006.383.008.767c0,.022,0,.044,0,.065q0,.391,0,.784c0,.017,0,.035,0,.052q0,.4-.012.8c0,.013,0,.026,0,.038q-.009.409-.023.82c0,.006,0,.013,0,.019a58.216,58.216,0,0,1-.794,7.806c-2.119-4.907-6.516-10.6-11.61-15.815C3781.635,583.222,3784.872,577.573,3786.9,569.234Z" transform="translate(-3661.549 -559.394)" opacity="0.3" fill="url(#linear-gradient-16)" style="mix-blend-mode: multiply;isolation: isolate"/>
          <ellipse id="Ellipse_1-2" data-name="Ellipse 1" cx="22.536" cy="25.023" rx="22.536" ry="25.023" transform="matrix(0.621, -0.784, 0.784, 0.621, 53.245, 48.111)" fill="url(#linear-gradient-17)"/>
          <path id="Path_26-2" data-name="Path 26" d="M3447.746,769.383c9.975-9.986,19.441-8.481,29-13.382,5.11,8.315,5.153,18.677-.72,26.089-7.729,9.755-22.777,10.705-33.608,2.122a27.9,27.9,0,0,1-2.489-2.227A31.348,31.348,0,0,1,3447.746,769.383Z" transform="translate(-3369.561 -720.561)" fill="url(#linear-gradient-18)" style="mix-blend-mode: multiply;isolation: isolate"/>
          <ellipse id="Ellipse_2-2" data-name="Ellipse 2" cx="20.657" cy="22.937" rx="20.657" ry="22.937" transform="matrix(0.621, -0.784, 0.784, 0.621, 56.047, 47.934)" fill="url(#linear-gradient-19)"/>
          <ellipse id="Ellipse_3-2" data-name="Ellipse 3" cx="17.994" cy="19.98" rx="17.994" ry="19.98" transform="translate(60.018 47.683) rotate(-51.607)" fill="url(#linear-gradient-20)"/>
          <ellipse id="Ellipse_4-2" data-name="Ellipse 4" cx="6.149" cy="20.811" rx="6.149" ry="20.811" transform="translate(29.144 85.175) rotate(-51.607)" fill="url(#linear-gradient-21)"/>
          <path id="Path_27-2" data-name="Path 27" d="M3160.577,1125.023l7,5.547a11.672,11.672,0,0,1,3.953,12.427l-1.266,4.328a2.339,2.339,0,0,1-3.7,1.176l-23.216-18.4a2.34,2.34,0,0,1,.3-3.869l3.924-2.222A11.673,11.673,0,0,1,3160.577,1125.023Z" transform="translate(-3112.869 -1036.824)" fill="url(#linear-gradient-22)"/>
          <ellipse id="Ellipse_5-2" data-name="Ellipse 5" cx="5.802" cy="17.175" rx="5.802" ry="17.175" transform="translate(25.758 95.428) rotate(-51.607)" fill="url(#linear-gradient-23)"/>
          <path id="Path_28-2" data-name="Path 28" d="M3162.045,1174.688c-1.513,1.909,1.841,7.086,7.492,11.563s11.457,6.559,12.969,4.651-1.842-7.086-7.492-11.563S3163.557,1172.78,3162.045,1174.688Z" transform="translate(-3129.452 -1081.249)" fill="url(#linear-gradient-24)"/>
          <g id="Group_10" data-name="Group 10" transform="translate(72.317 37.269)" opacity="0.3" style="mix-blend-mode: color-burn;isolation: isolate">
            <path id="Path_29-2" data-name="Path 29" d="M3460.014,780.9c8.483-8.493,16.6-8.674,24.717-11.554,4.265,6.688,4.371,15.122-.389,21.129-6.172,7.789-18.187,8.548-26.835,1.694a22.141,22.141,0,0,1-3.361-3.3A31.092,31.092,0,0,1,3460.014,780.9Z" transform="translate(-3454.146 -769.344)" fill="url(#linear-gradient-25)"/>
          </g>
        </g>
        <g id="Group_12" data-name="Group 12" transform="translate(0 101.495)">
          <path id="Path_30-2" data-name="Path 30" d="M2827.225,1253.329c-2.249,5.084-7.548,14.01-19.691,24.617-19.064,16.655-18.793-3.773-16.4-8.545s-11.458,6.214-24.541,2.718a7.007,7.007,0,0,1-3.9-2.281c-3.565-4.669,3.544-10.7,6.8-12.945,6.614-4.556,14.035-3.5,21.525-4.95,6.95-1.349,13.03-5.718,17.917-10.676a11.261,11.261,0,0,1,18.091,2.9A10.819,10.819,0,0,1,2827.225,1253.329Z" transform="translate(-2761.718 -1237.917)" fill="url(#linear-gradient-7)"/>
          <path id="Path_31-2" data-name="Path 31" d="M2833.367,1281.033c-2.25,5.083-7.548,14.01-19.691,24.617-19.064,16.655-18.793-3.773-16.4-8.545s-11.458,6.214-24.541,2.718a7,7,0,0,1-3.9-2.281c4.175.51,10.395-.947,16.888-3.641,10.3-4.274,12.236-5.925,13.4-.1s.1,8.839,13.3,4.178c11.781-4.157,18.307-23.775,19.58-27.958a11.148,11.148,0,0,1,1.156,1.85A10.818,10.818,0,0,1,2833.367,1281.033Z" transform="translate(-2767.86 -1265.62)" fill="#ff9085" opacity="0.37" style="mix-blend-mode: multiply;isolation: isolate"/>
        </g>
      </g>
      <g id="Group_22" data-name="Group 22" transform="translate(32.039 75.759)">
        <g id="Group_21" data-name="Group 21" transform="translate(0 0)" clip-path="url(#clip-path)">
          <g id="Group_14" data-name="Group 14" transform="translate(117.555 14.987)">
            <path id="Path_32-2" data-name="Path 32" d="M3853.11,466.352s1.018-1.507,1.651-2.616a43.235,43.235,0,0,1,3.746-4.335s.293.448-.368,1.257-2.075,2.217-1.682,2.733,1.414.917.788,2-1.916.482-2.479,1.357-1.138,1.826-1.138,1.826Z" transform="translate(-3853.11 -459.4)" fill="url(#linear-gradient-27)"/>
          </g>
          <g id="Group_20" data-name="Group 20" transform="translate(28.345 21.298)">
            <path id="Path_33-2" data-name="Path 33" d="M3208.985,754.325s-1.636.613-3.013,1.137-2.277,1.786-3.329,2.457.316.638,1.162.617,2.52-.458,3-1.139.9-1.211,1.027-1.2,2.008-.747,2.008-.747Z" transform="translate(-3202.261 -720.211)" fill="url(#linear-gradient-28)"/>
            <g id="Group_15" data-name="Group 15" transform="translate(29.402 53.133)">
              <path id="Path_34-2" data-name="Path 34" d="M3417.1,1275.809a1.272,1.272,0,0,1,.4-1.125,1.436,1.436,0,0,1,1.579-.038c.245.142.426.348.983,1.889.589,1.628.56,1.879.425,2.009-.272.263-.934-.018-1.077-.079-.474-.2-.571-.446-1.485-1.492C3417.3,1276.263,3417.142,1276.142,3417.1,1275.809Z" transform="translate(-3417.04 -1222.157)" fill="url(#linear-gradient-29)"/>
              <path id="Path_35-2" data-name="Path 35" d="M3422.365,1267.14l-.011,1.818c.389.254.646.263.8.08l.525-1.766Z" transform="translate(-3421.588 -1215.869)" fill="url(#linear-gradient-30)"/>
              <path id="Path_36-2" data-name="Path 36" d="M3544.883,1283.638a1.269,1.269,0,0,1-.164-1.182,1.436,1.436,0,0,1,1.385-.762c.282.013.538.113,1.742,1.223,1.273,1.174,1.363,1.409,1.3,1.586-.12.36-.838.415-.992.427-.514.04-.712-.132-2.005-.64C3545.275,1283.946,3545.077,1283.912,3544.883,1283.638Z" transform="translate(-3527.11 -1228.427)" fill="url(#linear-gradient-31)"/>
              <path id="Path_37-2" data-name="Path 37" d="M3549.444,1274.032l-.011,1.818c.389.255.645.263.8.081l.526-1.766Z" transform="translate(-3531.249 -1221.816)" fill="url(#linear-gradient-32)"/>
              <path id="Path_38-2" data-name="Path 38" d="M3417.046,944.659l1.932.313q3.07-9.829,6.6-20.076,3.879-11.224,7.907-21.716c.343,2.8.632,6.062.752,9.709a106.235,106.235,0,0,1-.17,10.657c-.408,5.812-.982,6.445-1.108,10.086a38.807,38.807,0,0,0,1.646,12.386l1.864.075a142.677,142.677,0,0,0,6.251-51.837l-16.889-1.175a40.165,40.165,0,0,0-3.923,9.31c-1.29,4.645-1.027,7.027-2.45,15.017-.736,4.129-1.033,4.766-1.541,7.507A74.29,74.29,0,0,0,3417.046,944.659Z" transform="translate(-3416.766 -893.082)" fill="url(#linear-gradient-33)"/>
              <path id="Path_39-2" data-name="Path 39" d="M3422.387,929.063c1.061-5.39-.914-5.475.475-10.084,1.276-4.24,3.133-4.781,5.006-10.17,1.5-4.325.794-5.379,1.815-7.235,1.261-2.293,4.5-4.609,13.175-4.857-.039-.839-.084-1.663-.134-2.46l-16.889-1.175a40.165,40.165,0,0,0-3.923,9.31c-1.29,4.645-1.027,7.027-2.45,15.017-.736,4.129-1.033,4.766-1.541,7.507a74.29,74.29,0,0,0-.874,19.743l1.932.313c.06-.19.123-.384.182-.575a8.39,8.39,0,0,1-.663-1.887C3417.517,938,3421.061,935.8,3422.387,929.063Z" transform="translate(-3416.766 -893.082)" opacity="0.3" fill="url(#linear-gradient-34)" style="mix-blend-mode: multiply;isolation: isolate"/>
            </g>
            <g id="Group_16" data-name="Group 16" transform="translate(6.205 0.438)">
              <path id="Path_40-2" data-name="Path 40" d="M3247.533,541.864l1.072,2.144a40.646,40.646,0,0,0,7.235-2.412c4.686-2.069,5.509-3.5,9.915-5.091,3.027-1.093,6.9-2.433,9.647-.536a5.8,5.8,0,0,1,1.9,2.3c-.367,3.544-.768,6.362-.977,8.106-1.844,15.4-2.11,18.2-.216,19.942,1.647,1.517,2.769.247,10.846,1.218,7.367.884,8.8,2.224,10.812,1.058,3.263-1.893,2.608-7.233,3.314-13.751a58.264,58.264,0,0,1,7.085-21.811,30.671,30.671,0,0,0,13.33-6.177,31.191,31.191,0,0,0,10.451-16.346l-1.876-1.876a30.491,30.491,0,0,1-10.451,8.843c-6.779,3.406-12.162,2.606-22.236,3.161-3.963.219-15.8.935-25.1,3.982C3265.948,526.7,3256.909,531.138,3247.533,541.864Z" transform="translate(-3247.533 -508.636)" fill="url(#linear-gradient-22)"/>
            </g>
            <g id="Group_18" data-name="Group 18" transform="translate(47.866)">
              <g id="Group_17" data-name="Group 17">
                <path id="Path_41-2" data-name="Path 41" d="M3563.451,512.983a5.287,5.287,0,0,0-1.036-6.565c-1.426-1.185-3.215-1.014-4.519-.89-.6.058-4.846.514-6.108,3.5a5.025,5.025,0,0,0-.065,3.3,12.63,12.63,0,0,0,1.349,2.516c.721,1.153.671,1.112.893,1.448a17.6,17.6,0,0,0,3.515,3.788,12.216,12.216,0,0,1,.685-2.015,10.814,10.814,0,0,1,1.423-2.365C3561.168,513.793,3562.488,514.292,3563.451,512.983Z" transform="translate(-3551.478 -505.44)" fill="url(#linear-gradient-36)"/>
                <path id="Path_42-2" data-name="Path 42" d="M3562.42,554.321a6.647,6.647,0,0,0,5.836,2.981c3.487-.211,4.033-8.026,1.813-9.695a4.4,4.4,0,0,0-3.438-.46c-.716.2-.958.493-2.134.792-1.084.276-1.389.154-1.717.428-.41.342-.713,1.184-.041,3.473a1.9,1.9,0,0,0-2.026-.674,1.19,1.19,0,0,0-.466.45C3559.756,552.507,3560.566,553.651,3562.42,554.321Z" transform="translate(-3558.924 -541.298)" fill="url(#linear-gradient-37)"/>
              </g>
            </g>
            <g id="Group_19" data-name="Group 19" transform="translate(11.743 21.121)" opacity="0.2">
              <path id="Path_43-2" data-name="Path 43" d="M3325.673,682.933c-.555-4.621-4.27-4.857-6.7-10.719-2.544-6.137.094-9.337-2.412-11.523-3.7-3.227-12.449,1.137-16.078,2.948a45.951,45.951,0,0,0-12.551,9.275c.873-.311,1.8-.674,2.77-1.1,4.685-2.069,5.509-3.5,9.915-5.091,3.027-1.093,6.9-2.433,9.647-.536a5.8,5.8,0,0,1,1.9,2.3c-.367,3.544-.768,6.362-.977,8.106-1.844,15.4-2.11,18.2-.216,19.942,1.647,1.517,2.769.247,10.846,1.218,1.76.211,3.178.449,4.35.671-2.229-2.381-2.888-4.439-2.9-6.114C3323.228,688.69,3326.184,687.195,3325.673,682.933Z" transform="translate(-3287.933 -659.535)" fill="#aaa3f5"/>
            </g>
          </g>
        </g>
      </g>
      <g id="Group_24" data-name="Group 24" transform="translate(158.819 31.618)">
        <path id="Path_45-2" data-name="Path 45" d="M3747.453,1148.648c1.632-9.845-5.428-19.216-15.768-20.93s-20.045,4.879-21.677,14.724a17.8,17.8,0,0,0,5.423,15.795,7.453,7.453,0,0,1,2.224,6.6l-.226,1.364a5.44,5.44,0,0,0,4.478,6.256l4.6.762a5.441,5.441,0,0,0,6.257-4.478l.226-1.364a7.456,7.456,0,0,1,4.235-5.533A17.8,17.8,0,0,0,3747.453,1148.648Z" transform="translate(-3709.774 -1127.447)" fill="#f4f7fa" opacity="0.75"/>
        <ellipse id="Ellipse_6-2" data-name="Ellipse 6" cx="2.229" cy="4.21" rx="2.229" ry="4.21" transform="translate(8.598 54.854) rotate(-80.59)" fill="url(#linear-gradient-38)"/>
        <path id="Path_46-2" data-name="Path 46" d="M3767.439,1481.3l-.372,2.246a2,2,0,0,0,.822,1.968,10.673,10.673,0,0,0,4.688,1.695,11.017,11.017,0,0,0,3.968-.034,2.033,2.033,0,0,0,1.535-1.654l.206-1.242Z" transform="translate(-3759.191 -1432.796)" fill="url(#linear-gradient-39)"/>
        <path id="Path_47-2" data-name="Path 47" d="M3767.576,1483.264a2.23,2.23,0,0,0,.515.5c.983.687,7.79,2.984,9.583,2.629a2.3,2.3,0,0,0,.642-.228,2.047,2.047,0,0,0,.226-.651l.206-1.242L3767.9,1481.3Z" transform="translate(-3759.653 -1432.796)" opacity="0.3" fill="url(#linear-gradient-40)" style="mix-blend-mode: multiply;isolation: isolate"/>
        <path id="Path_48-2" data-name="Path 48" d="M3766.705,1470.5a1.068,1.068,0,0,0-1.337.855l-.01.064a2.243,2.243,0,0,0,.923,2.208c.984.686,7.791,2.984,9.583,2.629a2.066,2.066,0,0,0,1.7-1.728l.008-.051a1.068,1.068,0,0,0-.771-1.2Z" transform="translate(-3757.713 -1423.446)" fill="url(#linear-gradient-41)"/>
        <path id="Path_49-2" data-name="Path 49" d="M3778.791,1473.274l-10.1-2.772a1.066,1.066,0,0,0-1.062.3,2.23,2.23,0,0,0,.889,1.307c.983.686,8.064,3.182,9.563,2.757a2.444,2.444,0,0,0,1.392-1.01A1.066,1.066,0,0,0,3778.791,1473.274Z" transform="translate(-3759.702 -1423.447)" opacity="0.3" fill="url(#linear-gradient-42)" style="mix-blend-mode: multiply;isolation: isolate"/>
        <path id="Path_50-2" data-name="Path 50" d="M3769.233,1443.65a.77.77,0,0,0-.886.634l-.292,1.759a2.244,2.244,0,0,0,.923,2.208c.984.686,8.064,3.181,9.562,2.757a2.352,2.352,0,0,0,1.722-1.856l.467-2.816a.771.771,0,0,0-.635-.886Z" transform="translate(-3760.04 -1400.3)" fill="url(#linear-gradient-43)"/>
        <ellipse id="Ellipse_7-2" data-name="Ellipse 7" cx="1.447" cy="6.12" rx="1.447" ry="6.12" transform="matrix(0.163, -0.987, 0.987, 0.163, 8.258, 45.225)" fill="url(#linear-gradient-44)"/>
        <path id="Path_51-2" data-name="Path 51" d="M3747.453,1148.648c1.632-9.845-5.428-19.216-15.768-20.93s-20.045,4.879-21.677,14.724a17.8,17.8,0,0,0,5.423,15.795,7.453,7.453,0,0,1,2.224,6.6l-.226,1.364a5.44,5.44,0,0,0,4.478,6.256l4.6.762a5.441,5.441,0,0,0,6.257-4.478l.226-1.364a7.456,7.456,0,0,1,4.235-5.533A17.8,17.8,0,0,0,3747.453,1148.648Z" transform="translate(-3709.774 -1127.447)" fill="url(#linear-gradient-45)"/>
        <ellipse id="Ellipse_8-2" data-name="Ellipse 8" cx="1.059" cy="4.478" rx="1.059" ry="4.478" transform="translate(10.128 43.984) rotate(-80.59)" fill="#f4f7fa" opacity="0.5" style="mix-blend-mode: soft-light;isolation: isolate"/>
        <g id="Group_23" data-name="Group 23" transform="translate(13.245 15.676)">
          <path id="Path_52-2" data-name="Path 52" d="M3806.624,1283.585a.259.259,0,0,1-.216-.265l.939-25.813a.258.258,0,1,1,.517.019l-.938,25.813a.259.259,0,0,1-.268.249Z" transform="translate(-3806.408 -1255.141)" fill="url(#linear-gradient-46)"/>
          <path id="Path_53-2" data-name="Path 53" d="M3821.347,1292.8a.2.2,0,0,1-.033-.008.258.258,0,0,1-.173-.322l7.438-24.735a.259.259,0,0,1,.5.149l-7.438,24.735A.259.259,0,0,1,3821.347,1292.8Z" transform="translate(-3819.112 -1264.026)" fill="url(#linear-gradient-47)"/>
          <path id="Path_54-2" data-name="Path 54" d="M3824.851,1245.512a.259.259,0,0,1-.194-.15l-.671-1.51a.041.041,0,0,0-.033-.026.042.042,0,0,0-.039.015l-.756.894a.559.559,0,0,1-.937-.132l-.611-1.354a.043.043,0,0,0-.032-.026.045.045,0,0,0-.038.013l-.885.914a.56.56,0,0,1-.492.164h0a.561.561,0,0,1-.414-.313l-.785-1.646a.048.048,0,0,0-.033-.025.041.041,0,0,0-.038.017l-1.209,1.467a.258.258,0,1,1-.4-.329l1.208-1.467a.559.559,0,0,1,.938.115l.786,1.646a.041.041,0,0,0,.031.025.04.04,0,0,0,.037-.013l.886-.914a.558.558,0,0,1,.912.16l.612,1.354c.006.015.019.029.033.026a.041.041,0,0,0,.038-.015l.757-.894a.559.559,0,0,1,.939.135l.672,1.51a.259.259,0,0,1-.279.36Z" transform="translate(-3815.74 -1241.812)" fill="url(#linear-gradient-48)"/>
        </g>
        <path id="Path_55-2" data-name="Path 55" d="M3726.74,1168.941c1.54-6.805,13.39-6.493,14.357-12.638.6-3.784-3.542-7.354-4.432-8.079-6.556-5.343-16.263-2.036-17.543-5.727a3.2,3.2,0,0,1,.257-2.3,4.959,4.959,0,0,1,1.589-2,17.594,17.594,0,0,0-5.537,29.316,7.452,7.452,0,0,1,2.224,6.6l-.226,1.364a5.44,5.44,0,0,0,4.478,6.256l4.6.762a5.441,5.441,0,0,0,6.257-4.477l.181-1.091a3.569,3.569,0,0,1-2.293.459C3727.888,1176.912,3725.974,1172.327,3726.74,1168.941Z" transform="translate(-3709.774 -1136.725)" opacity="0.3" fill="url(#linear-gradient-49)" style="mix-blend-mode: multiply;isolation: isolate"/>
        <ellipse id="Ellipse_9-2" data-name="Ellipse 9" cx="15.749" cy="16.331" rx="15.749" ry="16.331" transform="matrix(0.163, -0.987, 0.987, 0.163, 0.455, 31.71)" fill="#f4f7fa" opacity="0.44" style="mix-blend-mode: soft-light;isolation: isolate"/>
      </g>
    </g>
  </g>
</svg>
