<svg xmlns="http://www.w3.org/2000/svg" xmlns:xlink="http://www.w3.org/1999/xlink" width="83" height="83" viewBox="0 0 83 83">
  <defs>
    <filter id="Ellipse_719" x="1" y="1" width="82" height="82" filterUnits="userSpaceOnUse">
      <feOffset dx="2" dy="2" input="SourceAlpha"/>
      <feGaussianBlur stdDeviation="2" result="blur"/>
      <feFlood flood-opacity="0.071"/>
      <feComposite operator="in" in2="blur"/>
      <feComposite in="SourceGraphic"/>
    </filter>
    <filter id="Ellipse_720" x="0" y="0" width="76" height="76" filterUnits="userSpaceOnUse">
      <feOffset dx="-2" dy="-2" input="SourceAlpha"/>
      <feGaussianBlur stdDeviation="2" result="blur-2"/>
      <feFlood flood-color="#fff" flood-opacity="0.071"/>
      <feComposite operator="in" in2="blur-2"/>
      <feComposite in="SourceGraphic"/>
    </filter>
    <linearGradient id="linear-gradient" x1="1" y1="-0.553" x2="0.234" y2="1.08" gradientUnits="objectBoundingBox">
      <stop offset="0" stop-color="#c2c2c2"/>
      <stop offset="1" stop-color="#fcfcfc"/>
    </linearGradient>
  </defs>
  <g id="Group_5618" data-name="Group 5618" transform="translate(-125 219) rotate(-90)">
    <g id="Group_5616" data-name="Group 5616">
      <g transform="matrix(0, 1, -1, 0, 219, 125)" filter="url(#Ellipse_719)">
        <circle id="Ellipse_719-2" data-name="Ellipse 719" cx="32" cy="32" r="32" transform="translate(8 72) rotate(-90)" fill="#fff" opacity="0.5"/>
      </g>
      <g transform="matrix(0, 1, -1, 0, 219, 125)" filter="url(#Ellipse_720)">
        <circle id="Ellipse_720-2" data-name="Ellipse 720" cx="32" cy="32" r="32" transform="translate(8 72) rotate(-90)" fill="#fff"/>
      </g>
      <g id="Ellipse_721" data-name="Ellipse 721" transform="translate(147 133)" stroke="#fff" stroke-width="1.5" fill="url(#linear-gradient)">
        <circle cx="32" cy="32" r="32" stroke="none"/>
        <circle cx="32" cy="32" r="31.25" fill="none"/>
      </g>
    </g>
    <g id="play" transform="translate(170.572 170.578) rotate(-90)">
      <g id="Group_3698" data-name="Group 3698" transform="translate(0)">
        <path id="Path_8151" data-name="Path 8151" d="M10.334,6.048,2.083.4A2.014,2.014,0,0,0,1,0C.382,0,0,.5,0,1.324V13.533c0,.828.381,1.322,1,1.322a2,2,0,0,0,1.079-.4l8.255-5.649a1.694,1.694,0,0,0,.825-1.379A1.688,1.688,0,0,0,10.334,6.048Z" fill="#25245e"/>
      </g>
    </g>
  </g>
</svg>
