<svg xmlns="http://www.w3.org/2000/svg" xmlns:xlink="http://www.w3.org/1999/xlink" width="40" height="40" viewBox="0 0 40 40">
  <defs>
    <clipPath id="clip-path">
      <rect id="Rectangle_1829" data-name="Rectangle 1829" width="40" height="40" transform="translate(350 225)" fill="#fff" stroke="#707070" stroke-width="1"/>
    </clipPath>
    <linearGradient id="linear-gradient" x1="0.117" y1="0.107" x2="0.862" y2="0.932" gradientUnits="objectBoundingBox">
      <stop offset="0" stop-color="#ffbc45"/>
      <stop offset="0.733" stop-color="#f87b62"/>
      <stop offset="1" stop-color="#f16178"/>
    </linearGradient>
    <clipPath id="clip-path-2">
      <rect id="Rectangle_2683" data-name="Rectangle 2683" width="17.428" height="13.485" fill="#fff"/>
    </clipPath>
  </defs>
  <g id="button_40x40_-_white_fill" data-name="button 40x40 - white fill" transform="translate(-350 -225)" clip-path="url(#clip-path)">
    <path id="Path_7764" data-name="Path 7764" d="M18,0A18,18,0,1,1,0,18,18,18,0,0,1,18,0Z" transform="translate(352 226)" fill="url(#linear-gradient)"/>
    <g id="Group_5580" data-name="Group 5580" transform="translate(361.287 237.258)">
      <g id="Group_5580-2" data-name="Group 5580" clip-path="url(#clip-path-2)">
        <path id="Path_8344" data-name="Path 8344" d="M15.238,13.485H2.19A2.192,2.192,0,0,1,0,11.3V2.19A2.192,2.192,0,0,1,2.19,0H15.238a2.192,2.192,0,0,1,2.19,2.19V11.3a2.192,2.192,0,0,1-2.19,2.19M2.19,1.19a1,1,0,0,0-1,1V11.3a1,1,0,0,0,1,1H15.238a1,1,0,0,0,1-1V2.19a1,1,0,0,0-1-1Z" fill="#fff"/>
        <path id="Path_8345" data-name="Path 8345" d="M72.5,86.563A1.693,1.693,0,1,1,70.8,84.87,1.693,1.693,0,0,1,72.5,86.563" transform="translate(-64.999 -79.82)" fill="#fff"/>
        <path id="Path_8346" data-name="Path 8346" d="M170.274,86.563a1.693,1.693,0,1,1-1.693-1.693,1.693,1.693,0,0,1,1.693,1.693" transform="translate(-156.958 -79.82)" fill="#fff" opacity="0.3"/>
      </g>
    </g>
  </g>
</svg>
