<svg xmlns="http://www.w3.org/2000/svg" xmlns:xlink="http://www.w3.org/1999/xlink" width="36" height="36" viewBox="0 0 36 36"><defs><linearGradient id="a" x1="1.483" y1="1.079" x2="-0.777" y2="-0.232" gradientUnits="objectBoundingBox"><stop offset="0" stop-color="#e6e6e6"/><stop offset="1" stop-color="#c2c2c2"/></linearGradient></defs><g transform="translate(22274.5 8090)"><path d="M18,0A18,18,0,1,1,0,18,18,18,0,0,1,18,0Z" transform="translate(-22274.5 -8090)" fill="url(#a)"/><g transform="translate(-4716.342 -8563.335)"><path d="M1942.044,1274.067h-.622v-3.731a4.975,4.975,0,0,0-9.949,0v3.731h-.621a.622.622,0,0,0,0,1.244h1.866v3.124a.622.622,0,1,0,1.243,0v-3.124h4.975v3.124a.622.622,0,0,0,1.244,0v-3.124h1.865a.622.622,0,0,0,0-1.244Zm-9.327,0v-3.731a3.731,3.731,0,0,1,7.461,0v3.731Z" transform="translate(-19476.607 -779.388)"/><path d="M1933.339,1279.207a.773.773,0,0,1-.772-.772v-2.974h-1.716a.772.772,0,0,1,0-1.544h.471v-3.581a5.125,5.125,0,0,1,10.249,0v3.581h.472a.772.772,0,0,1,0,1.544h-1.715v2.974a.772.772,0,0,1-1.544,0v-2.974h-4.675v2.974A.773.773,0,0,1,1933.339,1279.207Zm-2.487-4.99a.472.472,0,0,0,0,.944h2.016v3.274a.472.472,0,1,0,.943,0v-3.274h5.275v3.274a.472.472,0,0,0,.944,0v-3.274h2.015a.472.472,0,0,0,0-.944h-.772v-3.881a4.825,4.825,0,0,0-9.649,0v3.881Zm9.477,0h-7.761v-3.881a3.881,3.881,0,0,1,7.761,0Zm-7.461-.3h7.161v-3.581a3.581,3.581,0,0,0-7.161,0Z" transform="translate(-19476.607 -779.388)"/><path d="M2048.952,1303.887h1.244a.621.621,0,0,1,.622.621h0a.622.622,0,0,1-.622.622h-1.244a.622.622,0,0,1-.621-.622h0A.622.622,0,0,1,2048.952,1303.887Z" transform="translate(-19581.025 -813.279)"/><path d="M2048.952,1303.737h1.244a.772.772,0,0,1,0,1.544h-1.244a.772.772,0,0,1,0-1.544Zm1.244,1.244a.472.472,0,0,0,0-.944h-1.244a.472.472,0,0,0,0,.944Z" transform="translate(-19581.025 -813.279)"/><path d="M1899.831,1303.887h1.244a.621.621,0,0,1,.622.621h0a.622.622,0,0,1-.622.622h-1.244a.622.622,0,0,1-.622-.622h0A.622.622,0,0,1,1899.831,1303.887Z" transform="translate(-19449.318 -813.279)"/><path d="M1899.831,1303.737h1.244a.772.772,0,1,1,0,1.544h-1.244a.772.772,0,1,1,0-1.544Zm1.244,1.244a.472.472,0,1,0,0-.944h-1.244a.472.472,0,1,0,0,.944Z" transform="translate(-19449.318 -813.279)"/><path d="M1977.383,1224h0a.621.621,0,0,1,.621.622v1.244a.621.621,0,0,1-.621.621h0a.622.622,0,0,1-.622-.621v-1.244A.622.622,0,0,1,1977.383,1224Z" transform="translate(-19517.547 -743)"/><path d="M1977.383,1223.85h0a.772.772,0,0,1,.771.772v1.244a.772.772,0,0,1-1.543,0v-1.244A.773.773,0,0,1,1977.383,1223.85Zm0,2.487a.472.472,0,0,0,.472-.471v-1.244a.472.472,0,0,0-.471-.472h0a.472.472,0,0,0-.472.472v1.244A.472.472,0,0,0,1977.383,1226.337Z" transform="translate(-19517.547 -743)"/><path d="M1922.1,1246.895h0a.622.622,0,0,1,.88,0l.879.879a.622.622,0,0,1,0,.879h0a.62.62,0,0,1-.879,0l-.88-.879A.622.622,0,0,1,1922.1,1246.895Z" transform="translate(-19469.295 -762.981)"/><path d="M1922.543,1246.563a.768.768,0,0,1,.546.226l.879.879a.771.771,0,1,1-1.091,1.09l-.879-.878a.772.772,0,0,1,.546-1.317Zm.879,2.122a.472.472,0,0,0,.333-.805l-.879-.879a.472.472,0,0,0-.667.667l.88.879A.467.467,0,0,0,1923.422,1248.685Z" transform="translate(-19469.295 -762.981)"/><path d="M2024.452,1247.774l.879-.879a.621.621,0,0,1,.879,0h0a.622.622,0,0,1,0,.879l-.879.879a.621.621,0,0,1-.879,0h0A.622.622,0,0,1,2024.452,1247.774Z" transform="translate(-19559.336 -762.981)"/><path d="M2024.892,1248.985a.772.772,0,0,1-.546-1.317l.879-.879a.772.772,0,0,1,1.091,1.091l-.879.879A.766.766,0,0,1,2024.892,1248.985Zm.879-2.122a.469.469,0,0,0-.333.138l-.879.879a.472.472,0,1,0,.667.667l.879-.879a.472.472,0,0,0-.333-.805Z" transform="translate(-19559.336 -762.981)"/></g></g></svg>