<svg xmlns="http://www.w3.org/2000/svg" xmlns:xlink="http://www.w3.org/1999/xlink" width="233.762" height="233.762" viewBox="0 0 233.762 233.762"><defs><clipPath id="a"><rect width="177.42" height="161.249" transform="translate(0 18)" fill="none" stroke="#707070" stroke-width="1"/></clipPath></defs><g transform="translate(19.941 9.88)"><rect width="189.309" height="188.394" rx="3" transform="translate(-0.001 0)" fill="#ffbc45"/><rect width="173.762" height="173.762" rx="3" transform="translate(10.059 20.12)" fill="#171d1a" opacity="0.15"/><g transform="translate(6.401 5.487)" clip-path="url(#a)"><rect width="47.514" height="155.867" transform="translate(6.653 19.219)" fill="#171d1a" opacity="0.25"/><rect width="47.514" height="155.867" transform="translate(65.035 19.219)" fill="#171d1a" opacity="0.25"/><rect width="47.514" height="155.867" transform="translate(123.416 19.219)" fill="#171d1a" opacity="0.25"/><rect width="55.511" height="303.966" rx="1.404" transform="translate(2.655 -130.328)" fill="#fcfcfc"/><rect width="55.537" height="303.966" rx="1.404" transform="translate(60.868 -130.328)" fill="#fcfcfc"/><rect width="28.408" height="81.996" transform="translate(45.262 7.697)" fill="#171d1a" opacity="0.25"/><rect width="55.536" height="303.966" rx="1.404" transform="translate(119.108 -130.328)" fill="#fcfcfc"/><rect width="28.408" height="81.996" transform="translate(103.504 7.697)" fill="#171d1a" opacity="0.25"/><rect width="34.338" height="68.889" transform="translate(42.301 18)" fill="#171d1a"/><rect width="34.338" height="68.889" transform="translate(100.539 18)" fill="#171d1a"/></g><rect width="177.42" height="21.949" transform="translate(4.572 2.744)" fill="#ffbc45"/></g></svg>