<svg xmlns="http://www.w3.org/2000/svg" xmlns:xlink="http://www.w3.org/1999/xlink" width="132" height="72" viewBox="0 0 132 72"><defs><clipPath id="a"><rect width="132" height="72" transform="translate(68 43)" fill="#fff" stroke="#707070" stroke-width="1"/></clipPath><linearGradient id="b" x1="-0.145" y1="0.083" x2="0.698" y2="0.631" gradientUnits="objectBoundingBox"><stop offset="0" stop-color="#ffd35e"/><stop offset="1" stop-color="#ffb32c"/></linearGradient></defs><g transform="translate(-68 -43)" clip-path="url(#a)"><g transform="translate(76.889 53)"><path d="M-162.367-225.725s1.394-10.193-14.154-11.159-76.706-3.954-76.706-3.954-14.279-.59-13.047,11.453,1.609,14.337,1.609,14.337.322,10.9,16.192,10.105,69.7-4.76,69.7-4.76S-160.758-209.821-162.367-225.725Z" transform="translate(274.928 256.903)" fill="#ffb32c" opacity="0.3"/><path d="M-151.348-220.439S-149.806-234.2-167-235.5s-84.835-5.337-84.835-5.337-15.792-.8-14.429,15.457,1.779,19.351,1.779,19.351.356,14.706,17.908,13.639,77.086-6.424,77.086-6.424S-149.569-198.973-151.348-220.439Z" transform="translate(266.35 240.843)" fill="url(#b)"/></g></g></svg>