<svg xmlns="http://www.w3.org/2000/svg" xmlns:xlink="http://www.w3.org/1999/xlink" width="186" height="367" viewBox="0 0 186 367">
  <defs>
    <linearGradient id="linear-gradient" x1="-0.982" y1="0.269" x2="1.308" y2="0.636" gradientUnits="objectBoundingBox">
      <stop offset="0" stop-color="#e6e6e6"/>
      <stop offset="1" stop-color="#fcfcfc"/>
    </linearGradient>
  </defs>
  <g id="side_bar" data-name="side bar" style="mix-blend-mode: normal;isolation: isolate">
    <path id="Union_16" data-name="Union 16" d="M17346,9405h146a11,11,0,0,1,11,11v356h-157Z" transform="translate(-17346 -9405)" fill="url(#linear-gradient)"/>
    <path id="Rectangle_2148" data-name="Rectangle 2148" d="M0,0H4A26,26,0,0,1,30,26v0A26,26,0,0,1,4,52H0a0,0,0,0,1,0,0V0A0,0,0,0,1,0,0Z" transform="translate(156 140)" fill="#ff9883"/>
    <path id="drop_down_arrow_icon" data-name="drop down arrow icon" d="M3432.124,1939.663l-9.838-5.68a.153.153,0,0,0-.23.133v11.36a.153.153,0,0,0,.23.133l9.838-5.68A.153.153,0,0,0,3432.124,1939.663Z" transform="translate(-3257.129 -1773.796)" fill="#fcfcfc"/>
  </g>
</svg>
