<svg xmlns="http://www.w3.org/2000/svg" width="58" height="59" viewBox="0 0 58 59">
  <g id="Group_5923" data-name="Group 5923" transform="translate(-738 -128.68)">
    <ellipse id="Ellipse_820" data-name="Ellipse 820" cx="23" cy="23.5" rx="23" ry="23.5" transform="translate(744 134.68)" fill="#25245e" opacity="0.2"/>
    <g id="Ellipse_821" data-name="Ellipse 821" transform="translate(743 130.68)" fill="#fcfcfc" stroke="#25245e" stroke-width="1">
      <circle cx="24" cy="24" r="24" stroke="none"/>
      <circle cx="24" cy="24" r="23.5" fill="none"/>
    </g>
    <g id="Union_49" data-name="Union 49" transform="translate(-20613.986 -12844.291)" fill="none" stroke-linecap="round">
      <path d="M21381.752,13005.921a6.981,6.981,0,0,0,6.2-6.2h5.025a11.994,11.994,0,0,1-11.221,11.221Zm-12.752-6.2h5.02a6.993,6.993,0,0,0,6.2,6.2v5.02A11.989,11.989,0,0,1,21369,12999.72Zm18.947-1.5a6.976,6.976,0,0,0-6.2-6.2V12987a11.991,11.991,0,0,1,11.221,11.222Zm-18.947,0a11.986,11.986,0,0,1,11.221-11.222v5.021a6.982,6.982,0,0,0-6.2,6.2Z" stroke="none"/>
      <path d="M 21379.220703125 13009.826171875 L 21379.220703125 13006.7685546875 C 21376.22265625 13006.0966796875 21373.84375 13003.71875 21373.171875 13000.7197265625 L 21370.11328125 13000.7197265625 C 21370.474609375 13002.98828125 21371.546875 13005.0966796875 21373.1953125 13006.7451171875 C 21374.84375 13008.3935546875 21376.953125 13009.4658203125 21379.220703125 13009.826171875 M 21382.751953125 13009.826171875 C 21385.01953125 13009.4658203125 21387.126953125 13008.3935546875 21388.775390625 13006.7451171875 C 21390.421875 13005.09765625 21391.49609375 13002.98828125 21391.857421875 13000.7197265625 L 21388.796875 13000.7197265625 C 21388.12890625 13003.71875 21385.751953125 13006.0966796875 21382.751953125 13006.7685546875 L 21382.751953125 13009.826171875 M 21391.857421875 12997.2216796875 C 21391.49609375 12994.951171875 21390.421875 12992.841796875 21388.775390625 12991.1943359375 C 21387.126953125 12989.546875 21385.01953125 12988.474609375 21382.751953125 12988.1142578125 L 21382.751953125 12991.171875 C 21385.751953125 12991.8388671875 21388.12890625 12994.21875 21388.796875 12997.2216796875 L 21391.857421875 12997.2216796875 M 21373.169921875 12997.2216796875 C 21373.837890625 12994.21875 21376.216796875 12991.8388671875 21379.220703125 12991.171875 L 21379.220703125 12988.1142578125 C 21376.951171875 12988.474609375 21374.84375 12989.546875 21373.1953125 12991.1943359375 C 21371.546875 12992.841796875 21370.474609375 12994.9521484375 21370.11328125 12997.2216796875 L 21373.169921875 12997.2216796875 M 21381.751953125 13010.9404296875 L 21381.751953125 13005.9208984375 C 21385.009765625 13005.5771484375 21387.609375 13002.978515625 21387.947265625 12999.7197265625 L 21392.97265625 12999.7197265625 C 21392.607421875 13005.73828125 21387.76953125 13010.5810546875 21381.751953125 13010.9404296875 Z M 21380.220703125 13010.9404296875 C 21374.203125 13010.5810546875 21369.359375 13005.73828125 21369 12999.7197265625 L 21374.01953125 12999.7197265625 C 21374.36328125 13002.978515625 21376.962890625 13005.5771484375 21380.220703125 13005.9208984375 L 21380.220703125 13010.9404296875 Z M 21392.97265625 12998.2216796875 L 21387.947265625 12998.2216796875 C 21387.609375 12994.962890625 21385.009765625 12992.3583984375 21381.751953125 12992.0205078125 L 21381.751953125 12987 C 21387.76953125 12987.3603515625 21392.607421875 12992.197265625 21392.97265625 12998.2216796875 Z M 21374.01953125 12998.2216796875 L 21369 12998.2216796875 C 21369.359375 12992.197265625 21374.203125 12987.3603515625 21380.220703125 12987 L 21380.220703125 12992.0205078125 C 21376.962890625 12992.3583984375 21374.357421875 12994.962890625 21374.01953125 12998.2216796875 Z" stroke="none" fill="#25245e"/>
    </g>
  </g>
</svg>
