<svg xmlns="http://www.w3.org/2000/svg" width="969" height="968" viewBox="0 0 969 968"><g transform="translate(-31.36 306.85)"><g transform="translate(343.052 5.229)" opacity="0.9"><path d="M172.5,10C82.9,10,10,82.673,10,172S82.9,334,172.5,334,335,261.327,335,172,262.1,10,172.5,10m0-10C267.769,0,345,77.007,345,172S267.769,344,172.5,344,0,266.993,0,172,77.231,0,172.5,0Z" transform="translate(0.309 -0.078)" fill="#fcfcfc"/><path d="M172.5,10C82.9,10,10,82.673,10,172S82.9,334,172.5,334,335,261.327,335,172,262.1,10,172.5,10m0-10C267.769,0,345,77.007,345,172S267.769,344,172.5,344,0,266.993,0,172,77.231,0,172.5,0Z" transform="translate(0.309 -0.078)" fill="#fcfcfc"/></g><g transform="translate(394.453 56.627)"><path d="M120.5,10C59.57,10,10,59.794,10,121S59.57,232,120.5,232,231,182.206,231,121,181.43,10,120.5,10m0-10C187.05,0,241,54.174,241,121S187.05,242,120.5,242,0,187.826,0,121,53.95,0,120.5,0Z" transform="translate(-0.093 -0.477)" fill="#fcfcfc"/><path d="M120.5,10C59.57,10,10,59.794,10,121S59.57,232,120.5,232,231,182.206,231,121,181.43,10,120.5,10m0-10C187.05,0,241,54.174,241,121S187.05,242,120.5,242,0,187.826,0,121,53.95,0,120.5,0Z" transform="translate(-0.093 -0.477)" fill="#fcfcfc"/></g><g transform="translate(195.946 -141.878)" opacity="0.8"><path d="M319,10C148.617,10,10,148.617,10,319S148.617,628,319,628,628,489.383,628,319,489.383,10,319,10m0-10C495.179,0,638,142.821,638,319S495.179,638,319,638,0,495.179,0,319,142.821,0,319,0Z" transform="translate(0.414 0.028)" fill="#fcfcfc"/><path d="M319,10C148.617,10,10,148.617,10,319S148.617,628,319,628,628,489.383,628,319,489.383,10,319,10m0-10C495.179,0,638,142.821,638,319S495.179,638,319,638,0,495.179,0,319,142.821,0,319,0Z" transform="translate(0.414 0.028)" fill="#fcfcfc"/></g><g transform="translate(119.732 -218.092)" opacity="0.7"><path d="M396.5,10C183.383,10,10,182.71,10,395S183.383,780,396.5,780,783,607.29,783,395,609.617,10,396.5,10m0-10C615.481,0,793,176.848,793,395S615.481,790,396.5,790,0,613.152,0,395,177.519,0,396.5,0Z" transform="translate(-0.371 0.243)" fill="#fcfcfc"/><path d="M396.5,10C183.383,10,10,182.71,10,395S183.383,780,396.5,780,783,607.29,783,395,609.617,10,396.5,10m0-10C615.481,0,793,176.848,793,395S615.481,790,396.5,790,0,613.152,0,395,177.519,0,396.5,0Z" transform="translate(-0.371 0.243)" fill="#fcfcfc"/></g><g transform="translate(31.114 -306.71)" opacity="0.6"><path d="M484.5,10C222.86,10,10,222.635,10,484S222.86,958,484.5,958,959,745.365,959,484,746.14,10,484.5,10m0-10C752.082,0,969,216.694,969,484S752.082,968,484.5,968,0,751.306,0,484,216.918,0,484.5,0Z" transform="translate(0.247 -0.14)" fill="#fcfcfc"/><path d="M484.5,10C222.86,10,10,222.635,10,484S222.86,958,484.5,958,959,745.365,959,484,746.14,10,484.5,10m0-10C752.082,0,969,216.694,969,484S752.082,968,484.5,968,0,751.306,0,484,216.918,0,484.5,0Z" transform="translate(0.247 -0.14)" fill="#fcfcfc"/></g><g transform="translate(273.931 -63.894)" opacity="0.9"><path d="M241.5,10C113.85,10,10,113.626,10,241S113.85,472,241.5,472,473,368.374,473,241,369.15,10,241.5,10m0-10C374.877,0,483,107.9,483,241S374.877,482,241.5,482,0,374.1,0,241,108.123,0,241.5,0Z" transform="translate(0.431 0.045)" fill="#fcfcfc"/><path d="M241.5,10C113.85,10,10,113.626,10,241S113.85,472,241.5,472,473,368.374,473,241,369.15,10,241.5,10m0-10C374.877,0,483,107.9,483,241S374.877,482,241.5,482,0,374.1,0,241,108.123,0,241.5,0Z" transform="translate(0.431 0.045)" fill="#fcfcfc"/></g></g></svg>