<svg xmlns="http://www.w3.org/2000/svg" xmlns:xlink="http://www.w3.org/1999/xlink" width="240" height="240" viewBox="0 0 240 240"><defs><clipPath id="a"><rect width="240" height="240" transform="translate(275 318)" fill="#fff" stroke="#707070" stroke-width="1"/></clipPath><filter id="b" x="-0.118" y="17.078" width="264.395" height="245.705" filterUnits="userSpaceOnUse"><feOffset dx="12" dy="12" input="SourceAlpha"/><feGaussianBlur stdDeviation="10" result="c"/><feFlood flood-color="#171d1a" flood-opacity="0.071"/><feComposite operator="in" in2="c"/><feComposite in="SourceGraphic"/></filter><filter id="d" x="1.001" y="18.197" width="228.158" height="209.468" filterUnits="userSpaceOnUse"><feOffset dx="-5" dy="-5" input="SourceAlpha"/><feGaussianBlur stdDeviation="10" result="e"/><feFlood flood-color="#fff" flood-opacity="0.149"/><feComposite operator="in" in2="e"/><feComposite in="SourceGraphic"/></filter><linearGradient id="f" x1="-0.571" y1="0.301" x2="0.776" y2="0.456" gradientUnits="objectBoundingBox"><stop offset="0" stop-color="#e7e7e7"/><stop offset="1" stop-color="#fcfcfc"/></linearGradient><linearGradient id="g" x1="0.114" y1="0.123" x2="0.615" y2="1" gradientUnits="objectBoundingBox"><stop offset="0" stop-color="#ffbc45"/><stop offset="1" stop-color="#ffb32c"/></linearGradient></defs><g transform="translate(-275 -318)" clip-path="url(#a)"><g transform="translate(16.159 -748.273)"><g transform="matrix(0.995, -0.105, 0.105, 0.995, 294.842, 1135.672)"><g transform="matrix(0.99, 0.1, -0.1, 0.99, -28.55, -72.78)" filter="url(#b)"><rect width="155" height="134" rx="25" transform="matrix(0.99, -0.1, 0.1, 0.99, 36, 69.4)" fill="#fcfcfc"/></g><g transform="matrix(0.99, 0.1, -0.1, 0.99, -28.55, -72.78)" filter="url(#d)"><rect width="155" height="134" rx="25" transform="matrix(0.99, -0.1, 0.1, 0.99, 36, 69.4)" fill="#fcfcfc"/></g><g stroke="#fcfcfc" stroke-width="1.5" fill="url(#f)"><rect width="155" height="134" rx="25" stroke="none"/><rect x="0.75" y="0.75" width="153.5" height="132.5" rx="24.25" fill="none"/></g></g><g transform="translate(12 943.203)"><path d="M19.3,72.6a2.629,2.629,0,0,1-2.436-3.618l.854-2.084a2.62,2.62,0,0,1,1.912-1.585A11.155,11.155,0,0,0,28.574,53.6v-.022a13.218,13.218,0,0,1,8.566-13.259A31.5,31.5,0,0,0,54.748,23.573a18.151,18.151,0,0,0,.994-2.863.058.058,0,0,1,.113.008,30.328,30.328,0,0,1,.6,6.031V29.1a1.537,1.537,0,0,0,.256.845l6.129,9.291a.055.055,0,0,1-.016.082L57.8,42.767a1.542,1.542,0,0,0-.672,1.263v4.485a.05.05,0,0,1-.029.052l-4.852,2.2a1.533,1.533,0,0,0,.084,2.832l4.76,1.8a.061.061,0,0,1,.037.059v3.214a3.774,3.774,0,0,1-3.773,3.775H38.7a1.6,1.6,0,0,0-1.6,1.263,1.532,1.532,0,0,0,1.51,1.809,2.621,2.621,0,0,1,2.443,3.573l-.7,1.832A2.628,2.628,0,0,1,37.9,72.6ZM12.893,60.786A33.938,33.938,0,0,1,0,34.119C.9,16.682,5.883,13.558,10.105,9.969,15.732,6.157,24.105,0,34.09,0a35.155,35.155,0,0,1,6.078.537A15.809,15.809,0,0,1,51.393,8.729a15.5,15.5,0,0,1,.555,13.61,28.248,28.248,0,0,1-5.922,8.646,28.076,28.076,0,0,1-9.971,6.459A16.342,16.342,0,0,0,25.518,53.769v.038a7.977,7.977,0,0,1-4.307,7.728,7.773,7.773,0,0,1-3.639.936A7.468,7.468,0,0,1,12.893,60.786Zm57.471.859L66.4,60.159a1.531,1.531,0,0,1,1.068-2.87l3.971,1.486a1.533,1.533,0,0,1-.539,2.969A1.489,1.489,0,0,1,70.363,61.646Zm-1.682-8.161a1.532,1.532,0,0,1,0-3.063h5.262a1.532,1.532,0,1,1,0,3.063ZM65.5,45.719a1.531,1.531,0,0,1,.9-1.973l3.963-1.487a1.536,1.536,0,0,1,1.076,2.877l-3.971,1.48a1.485,1.485,0,0,1-.537.1A1.519,1.519,0,0,1,65.5,45.719Zm-5.98-17.087V26.749a33.84,33.84,0,0,0-3.945-15.837,18.321,18.321,0,0,0-1.473-3.626A18.9,18.9,0,0,0,47.26,0h1.09A17.07,17.07,0,0,1,65.4,17.055a16.9,16.9,0,0,1-5.334,12.385Z" transform="translate(317.66 166.07)" opacity="0.3" fill="url(#g)"/><path d="M20.328,76.6a2.773,2.773,0,0,1-2.565-3.817l.9-2.2a2.761,2.761,0,0,1,2.013-1.672,11.454,11.454,0,0,0,3.171-1.128A11.606,11.606,0,0,0,30.088,56.55v-.024a13.947,13.947,0,0,1,9.02-13.989,32.745,32.745,0,0,0,11.638-7.556,32.729,32.729,0,0,0,6.9-10.109A19.177,19.177,0,0,0,58.7,21.851a.061.061,0,0,1,.119.008,32.061,32.061,0,0,1,.635,6.364V30.7a1.624,1.624,0,0,0,.269.891l6.454,9.8a.058.058,0,0,1-.016.087l-5.29,3.643a1.628,1.628,0,0,0-.707,1.332v4.732a.053.053,0,0,1-.031.055l-5.109,2.319a1.619,1.619,0,0,0,.088,2.988l5.012,1.9a.065.065,0,0,1,.039.062V61.9a3.978,3.978,0,0,1-3.973,3.983H40.752a1.689,1.689,0,0,0-1.682,1.332,1.615,1.615,0,0,0,1.59,1.908,2.765,2.765,0,0,1,2.573,3.77l-.74,1.933A2.767,2.767,0,0,1,39.909,76.6ZM13.576,64.135A35.834,35.834,0,0,1,0,36C.944,17.6,6.195,14.3,10.641,10.518,16.566,6.5,25.383,0,35.9,0a36.946,36.946,0,0,1,6.4.567A16.649,16.649,0,0,1,54.116,9.21a16.387,16.387,0,0,1,.584,14.36,29.807,29.807,0,0,1-6.236,9.123,29.558,29.558,0,0,1-10.5,6.815,17.244,17.244,0,0,0-11.1,17.223v.04a8.42,8.42,0,0,1-4.535,8.153,8.172,8.172,0,0,1-3.831.987A7.854,7.854,0,0,1,13.576,64.135Zm60.516.907-4.173-1.568a1.617,1.617,0,0,1-.944-2.081,1.6,1.6,0,0,1,2.069-.947l4.181,1.568a1.618,1.618,0,0,1-.568,3.132A1.565,1.565,0,0,1,74.092,65.042Zm-1.771-8.611a1.616,1.616,0,0,1,0-3.232h5.541a1.616,1.616,0,1,1,0,3.232Zm-3.346-8.193a1.616,1.616,0,0,1,.944-2.081l4.173-1.569a1.62,1.62,0,0,1,1.133,3.035l-4.181,1.562a1.561,1.561,0,0,1-.566.11A1.6,1.6,0,0,1,68.975,48.238Zm-6.3-18.028V28.223a35.761,35.761,0,0,0-4.154-16.709,19.352,19.352,0,0,0-1.551-3.826A19.926,19.926,0,0,0,49.764,0h1.148A18,18,0,0,1,63.247,31.061Z" transform="translate(309.918 160.07)" fill="url(#g)"/></g></g></g></svg>