<svg xmlns="http://www.w3.org/2000/svg" xmlns:xlink="http://www.w3.org/1999/xlink" width="160" height="160" viewBox="0 0 160 160"><defs><clipPath id="a"><rect width="160" height="160" fill="#fff" stroke="#707070" stroke-width="1"/></clipPath><filter id="b" x="-7" y="-7" width="184" height="184" filterUnits="userSpaceOnUse"><feOffset dx="5" dy="5" input="SourceAlpha"/><feGaussianBlur stdDeviation="5" result="c"/><feFlood flood-opacity="0.071"/><feComposite operator="in" in2="c"/><feComposite in="SourceGraphic"/></filter><filter id="d" x="-2" y="-2" width="154" height="154" filterUnits="userSpaceOnUse"><feOffset dx="-5" dy="-5" input="SourceAlpha"/><feGaussianBlur stdDeviation="5" result="e"/><feFlood flood-color="#fff" flood-opacity="0.071"/><feComposite operator="in" in2="e"/><feComposite in="SourceGraphic"/></filter><linearGradient id="f" x1="-0.254" y1="0.077" x2="0.946" y2="0.655" gradientUnits="objectBoundingBox"><stop offset="0" stop-color="#e7e7e7"/><stop offset="1" stop-color="#fcfcfc"/></linearGradient></defs><g clip-path="url(#a)"><g transform="matrix(1, 0, 0, 1, 0, 0)" filter="url(#b)"><circle cx="62" cy="62" r="62" transform="translate(18 18)" fill="#fff"/></g><g transform="matrix(1, 0, 0, 1, 0, 0)" filter="url(#d)"><circle cx="62" cy="62" r="62" transform="translate(18 18)" fill="#fff"/></g><g transform="translate(18 18)" stroke="#fff" stroke-width="1.5" opacity="0.8" fill="url(#f)"><circle cx="62" cy="62" r="62" stroke="none"/><circle cx="62" cy="62" r="61.25" fill="none"/></g><g transform="translate(-541.293 -134)"><g transform="translate(-7.57 29.484)"><path d="M139.93,2719.754V2715.9a1.545,1.545,0,1,0-3.09,0v3.854a13.454,13.454,0,1,1-26.908,0V2715.9a1.545,1.545,0,1,0-3.09,0v3.854a16.567,16.567,0,0,0,15,16.472v4.363h-5.871a6.672,6.672,0,0,0-6.664,6.665,2.784,2.784,0,0,0,2.781,2.781h22.6a2.784,2.784,0,0,0,2.781-2.781,6.672,6.672,0,0,0-6.664-6.665H124.93v-4.363a16.567,16.567,0,0,0,15-16.472Zm-5.567,27.19H112.408a3.58,3.58,0,0,1,3.561-3.265H130.8a3.579,3.579,0,0,1,3.561,3.265Z" transform="translate(505.021 -2539.152)" fill="#25245e"/><path d="M140.355,2683.279a10.376,10.376,0,0,0,10.364-10.364V2660.82a10.364,10.364,0,0,0-20.728,0v12.095A10.376,10.376,0,0,0,140.355,2683.279Zm0-29.733a7.285,7.285,0,0,1,7.107,5.729H143.9a1.545,1.545,0,0,0,0,3.09h3.732v3.09H143.9a1.545,1.545,0,0,0,0,3.09h3.732v3.09H143.9a1.545,1.545,0,0,0,0,3.09h3.5a7.275,7.275,0,0,1-14.091,0h3.4a1.545,1.545,0,0,0,0-3.09h-3.627v-3.09h3.627a1.545,1.545,0,0,0,0-3.09h-3.627v-3.09h3.627a1.545,1.545,0,0,0,0-3.09h-3.461a7.285,7.285,0,0,1,7.107-5.729Z" transform="translate(488.052 -2492.313)" fill="#25245e"/></g><g transform="translate(0 -7)" opacity="0.35"><path d="M139.93,2719.754V2715.9a1.545,1.545,0,1,0-3.09,0v3.854a13.454,13.454,0,1,1-26.908,0V2715.9a1.545,1.545,0,1,0-3.09,0v3.854a16.567,16.567,0,0,0,15,16.472v4.363h-5.871a6.672,6.672,0,0,0-6.664,6.665,2.784,2.784,0,0,0,2.781,2.781h22.6a2.784,2.784,0,0,0,2.781-2.781,6.672,6.672,0,0,0-6.664-6.665H124.93v-4.363a16.567,16.567,0,0,0,15-16.472Zm-5.567,27.19H112.408a3.58,3.58,0,0,1,3.561-3.265H130.8a3.579,3.579,0,0,1,3.561,3.265Z" transform="translate(497.451 -2499.668)" fill="#25245e"/><path d="M140.355,2683.279a10.376,10.376,0,0,0,10.364-10.364V2660.82a10.364,10.364,0,0,0-20.728,0v12.095A10.376,10.376,0,0,0,140.355,2683.279Zm0-29.733a7.285,7.285,0,0,1,7.107,5.729H143.9a1.545,1.545,0,0,0,0,3.09h3.732v3.09H143.9a1.545,1.545,0,0,0,0,3.09h3.732v3.09H143.9a1.545,1.545,0,0,0,0,3.09h3.5a7.275,7.275,0,0,1-14.091,0h3.4a1.545,1.545,0,0,0,0-3.09h-3.627v-3.09h3.627a1.545,1.545,0,0,0,0-3.09h-3.627v-3.09h3.627a1.545,1.545,0,0,0,0-3.09h-3.461a7.285,7.285,0,0,1,7.107-5.729Z" transform="translate(480.482 -2452.828)" fill="#25245e"/></g></g></g></svg>