<svg xmlns="http://www.w3.org/2000/svg" xmlns:xlink="http://www.w3.org/1999/xlink" width="160" height="160" viewBox="0 0 160 160"><defs><clipPath id="a"><rect width="160" height="160" fill="#fff" stroke="#707070" stroke-width="1"/></clipPath><filter id="b" x="-7" y="-7" width="184" height="184" filterUnits="userSpaceOnUse"><feOffset dx="5" dy="5" input="SourceAlpha"/><feGaussianBlur stdDeviation="5" result="c"/><feFlood flood-opacity="0.071"/><feComposite operator="in" in2="c"/><feComposite in="SourceGraphic"/></filter><filter id="d" x="-2" y="-2" width="154" height="154" filterUnits="userSpaceOnUse"><feOffset dx="-5" dy="-5" input="SourceAlpha"/><feGaussianBlur stdDeviation="5" result="e"/><feFlood flood-color="#fff" flood-opacity="0.071"/><feComposite operator="in" in2="e"/><feComposite in="SourceGraphic"/></filter><linearGradient id="f" x1="-0.254" y1="0.077" x2="0.946" y2="0.655" gradientUnits="objectBoundingBox"><stop offset="0" stop-color="#e7e7e7"/><stop offset="1" stop-color="#fcfcfc"/></linearGradient><filter id="h" x="-7" y="-7" width="184" height="184" filterUnits="userSpaceOnUse"><feOffset dx="5" dy="5" input="SourceAlpha"/><feGaussianBlur stdDeviation="5" result="i"/><feFlood flood-opacity="0.071"/><feComposite operator="in" in2="i"/><feComposite in="SourceGraphic"/></filter><filter id="j" x="-2" y="-2" width="154" height="154" filterUnits="userSpaceOnUse"><feOffset dx="-5" dy="-5" input="SourceAlpha"/><feGaussianBlur stdDeviation="5" result="k"/><feFlood flood-color="#fcfcfc"/><feComposite operator="in" in2="k"/><feComposite in="SourceGraphic"/></filter><clipPath id="l"><circle cx="62" cy="62" r="62" transform="translate(-4938.718 -2093.574)" fill="none"/></clipPath><linearGradient id="m" x1="-0.254" y1="0.077" x2="1.39" y2="0.892" gradientUnits="objectBoundingBox"><stop offset="0" stop-color="#717171"/><stop offset="1" stop-color="#8c8c8c"/></linearGradient></defs><g clip-path="url(#a)"><g transform="matrix(1, 0, 0, 1, 0, 0)" filter="url(#b)"><circle cx="62" cy="62" r="62" transform="translate(18 18)" fill="#fff"/></g><g transform="matrix(1, 0, 0, 1, 0, 0)" filter="url(#d)"><circle cx="62" cy="62" r="62" transform="translate(18 18)" fill="#fff"/></g><g transform="translate(18 18)" stroke="#fff" stroke-width="1.5" opacity="0.8" fill="url(#f)"><circle cx="62" cy="62" r="62" stroke="none"/><circle cx="62" cy="62" r="61.25" fill="none"/></g><g transform="translate(-541.293 -134)"><g transform="translate(-7.57 29.484)"><path d="M139.93,2719.754V2715.9a1.545,1.545,0,1,0-3.09,0v3.854a13.454,13.454,0,1,1-26.908,0V2715.9a1.545,1.545,0,1,0-3.09,0v3.854a16.567,16.567,0,0,0,15,16.472v4.363h-5.871a6.672,6.672,0,0,0-6.664,6.665,2.784,2.784,0,0,0,2.781,2.781h22.6a2.784,2.784,0,0,0,2.781-2.781,6.672,6.672,0,0,0-6.664-6.665H124.93v-4.363a16.567,16.567,0,0,0,15-16.472Zm-5.567,27.19H112.408a3.58,3.58,0,0,1,3.561-3.265H130.8a3.579,3.579,0,0,1,3.561,3.265Z" transform="translate(505.021 -2539.152)" fill="#25245e"/><path d="M140.355,2683.279a10.376,10.376,0,0,0,10.364-10.364V2660.82a10.364,10.364,0,0,0-20.728,0v12.095A10.376,10.376,0,0,0,140.355,2683.279Zm0-29.733a7.285,7.285,0,0,1,7.107,5.729H143.9a1.545,1.545,0,0,0,0,3.09h3.732v3.09H143.9a1.545,1.545,0,0,0,0,3.09h3.732v3.09H143.9a1.545,1.545,0,0,0,0,3.09h3.5a7.275,7.275,0,0,1-14.091,0h3.4a1.545,1.545,0,0,0,0-3.09h-3.627v-3.09h3.627a1.545,1.545,0,0,0,0-3.09h-3.627v-3.09h3.627a1.545,1.545,0,0,0,0-3.09h-3.461a7.285,7.285,0,0,1,7.107-5.729Z" transform="translate(488.052 -2492.313)" fill="#25245e"/></g><g transform="translate(0 -7)" opacity="0.35"><path d="M139.93,2719.754V2715.9a1.545,1.545,0,1,0-3.09,0v3.854a13.454,13.454,0,1,1-26.908,0V2715.9a1.545,1.545,0,1,0-3.09,0v3.854a16.567,16.567,0,0,0,15,16.472v4.363h-5.871a6.672,6.672,0,0,0-6.664,6.665,2.784,2.784,0,0,0,2.781,2.781h22.6a2.784,2.784,0,0,0,2.781-2.781,6.672,6.672,0,0,0-6.664-6.665H124.93v-4.363a16.567,16.567,0,0,0,15-16.472Zm-5.567,27.19H112.408a3.58,3.58,0,0,1,3.561-3.265H130.8a3.579,3.579,0,0,1,3.561,3.265Z" transform="translate(497.451 -2499.668)" fill="#25245e"/><path d="M140.355,2683.279a10.376,10.376,0,0,0,10.364-10.364V2660.82a10.364,10.364,0,0,0-20.728,0v12.095A10.376,10.376,0,0,0,140.355,2683.279Zm0-29.733a7.285,7.285,0,0,1,7.107,5.729H143.9a1.545,1.545,0,0,0,0,3.09h3.732v3.09H143.9a1.545,1.545,0,0,0,0,3.09h3.732v3.09H143.9a1.545,1.545,0,0,0,0,3.09h3.5a7.275,7.275,0,0,1-14.091,0h3.4a1.545,1.545,0,0,0,0-3.09h-3.627v-3.09h3.627a1.545,1.545,0,0,0,0-3.09h-3.627v-3.09h3.627a1.545,1.545,0,0,0,0-3.09h-3.461a7.285,7.285,0,0,1,7.107-5.729Z" transform="translate(480.482 -2452.828)" fill="#25245e"/></g></g></g><g clip-path="url(#a)"><g transform="matrix(1, 0, 0, 1, 0, 0)" filter="url(#h)"><circle cx="62" cy="62" r="62" transform="translate(18 18)" fill="#fff"/></g><g transform="matrix(1, 0, 0, 1, 0, 0)" filter="url(#j)"><circle cx="62" cy="62" r="62" transform="translate(18 18)" fill="rgba(59,178,115,0.11)"/></g><g transform="translate(4956.718 2111.574)"><g clip-path="url(#l)"><path d="M-4849.13-2006.36c12.94-3.578,28.777-9.976,33.195-19.415,5.72-12.231-10.095-12.473-18.786-11.8-27.474,2.11-54.5,13.489-82.748,12.81-13.018-.313-25.925-2-38.814-3.739,12.317,15.752,15.419,27.211,37.175,29.213,16.145,1.485,32.238-2.467,48.293-3.334A107.837,107.837,0,0,0-4849.13-2006.36Z" fill="#3bb273" opacity="0.47" style="isolation:isolate"/><path d="M-4883.024-2029.79c-24.746-6.328-33.969-16.042-59.9-5.9,5.362,41.32,23.557,66.119,66.336,66.119a84.2,84.2,0,0,0,83.19-71.283c-2.578,7.639-24.545,14.4-42.024,16.48C-4851.291-2022.487-4867.588-2025.843-4883.024-2029.79Z" fill="#0bbaa9"/></g></g><g transform="translate(18 18)" stroke="#fcfcfc" stroke-width="1.5" fill="url(#m)" style="mix-blend-mode:hard-light;isolation:isolate"><circle cx="62" cy="62" r="62" stroke="none"/><circle cx="62" cy="62" r="61.25" fill="none"/></g><g transform="translate(-541.294 -134)"><g transform="translate(0 -7)" opacity="0.25"><path d="M139.93,2719.754V2715.9a1.545,1.545,0,1,0-3.09,0v3.854a13.454,13.454,0,1,1-26.908,0V2715.9a1.545,1.545,0,1,0-3.09,0v3.854a16.567,16.567,0,0,0,15,16.472v4.363h-5.871a6.672,6.672,0,0,0-6.664,6.665,2.784,2.784,0,0,0,2.781,2.781h22.6a2.784,2.784,0,0,0,2.781-2.781,6.672,6.672,0,0,0-6.664-6.665H124.93v-4.363a16.567,16.567,0,0,0,15-16.472Zm-5.567,27.19H112.408a3.58,3.58,0,0,1,3.561-3.265H130.8a3.579,3.579,0,0,1,3.561,3.265Z" transform="translate(497.451 -2499.668)"/><path d="M140.355,2683.279a10.376,10.376,0,0,0,10.364-10.364V2660.82a10.364,10.364,0,0,0-20.728,0v12.095A10.376,10.376,0,0,0,140.355,2683.279Zm0-29.733a7.285,7.285,0,0,1,7.107,5.729H143.9a1.545,1.545,0,0,0,0,3.09h3.732v3.09H143.9a1.545,1.545,0,0,0,0,3.09h3.732v3.09H143.9a1.545,1.545,0,0,0,0,3.09h3.5a7.275,7.275,0,0,1-14.091,0h3.4a1.545,1.545,0,0,0,0-3.09h-3.627v-3.09h3.627a1.545,1.545,0,0,0,0-3.09h-3.627v-3.09h3.627a1.545,1.545,0,0,0,0-3.09h-3.461a7.285,7.285,0,0,1,7.107-5.729Z" transform="translate(480.482 -2452.828)"/></g><g transform="translate(-7.57 29.484)" style="isolation:isolate"><path d="M139.93,2719.754V2715.9a1.545,1.545,0,1,0-3.09,0v3.854a13.454,13.454,0,1,1-26.908,0V2715.9a1.545,1.545,0,1,0-3.09,0v3.854a16.567,16.567,0,0,0,15,16.472v4.363h-5.871a6.672,6.672,0,0,0-6.664,6.665,2.784,2.784,0,0,0,2.781,2.781h22.6a2.784,2.784,0,0,0,2.781-2.781,6.672,6.672,0,0,0-6.664-6.665H124.93v-4.363a16.567,16.567,0,0,0,15-16.472Zm-5.567,27.19H112.408a3.58,3.58,0,0,1,3.561-3.265H130.8a3.579,3.579,0,0,1,3.561,3.265Z" transform="translate(505.021 -2539.152)" fill="#fcfcfc"/><path d="M140.355,2683.279a10.376,10.376,0,0,0,10.364-10.364V2660.82a10.364,10.364,0,0,0-20.728,0v12.095A10.376,10.376,0,0,0,140.355,2683.279Zm0-29.733a7.285,7.285,0,0,1,7.107,5.729H143.9a1.545,1.545,0,0,0,0,3.09h3.732v3.09H143.9a1.545,1.545,0,0,0,0,3.09h3.732v3.09H143.9a1.545,1.545,0,0,0,0,3.09h3.5a7.275,7.275,0,0,1-14.091,0h3.4a1.545,1.545,0,0,0,0-3.09h-3.627v-3.09h3.627a1.545,1.545,0,0,0,0-3.09h-3.627v-3.09h3.627a1.545,1.545,0,0,0,0-3.09h-3.461a7.285,7.285,0,0,1,7.107-5.729Z" transform="translate(488.052 -2492.313)" fill="#fcfcfc"/></g></g></g></svg>