<svg xmlns="http://www.w3.org/2000/svg" xmlns:xlink="http://www.w3.org/1999/xlink" width="40" height="40" viewBox="0 0 40 40">
  <defs>
    <clipPath id="clip-path">
      <rect id="Rectangle_3139" data-name="Rectangle 3139" width="40" height="40" transform="translate(350 225)" fill="#fff" stroke="#707070" stroke-width="1"/>
    </clipPath>
    <linearGradient id="linear-gradient" x1="1.483" y1="1.079" x2="-0.777" y2="-0.232" gradientUnits="objectBoundingBox">
      <stop offset="0" stop-color="#e6e6e6"/>
      <stop offset="1" stop-color="#c2c2c2"/>
    </linearGradient>
  </defs>
  <g id="button_40x40_-_white_fill" data-name="button 40x40 - white fill" transform="translate(-350 -225)" clip-path="url(#clip-path)">
    <path id="Path_8752" data-name="Path 8752" d="M18,0A18,18,0,1,1,0,18,18,18,0,0,1,18,0Z" transform="translate(352 226)" fill="url(#linear-gradient)"/>
    <g id="led_icon" data-name="led icon" transform="translate(17910.158 -246.335)">
      <path id="Path_6950" data-name="Path 6950" d="M1942.044,1274.067h-.622v-3.731a4.975,4.975,0,0,0-9.949,0v3.731h-.621a.622.622,0,0,0,0,1.244h1.866v3.124a.622.622,0,1,0,1.243,0v-3.124h4.975v3.124a.622.622,0,0,0,1.244,0v-3.124h1.865a.622.622,0,0,0,0-1.244Zm-9.327,0v-3.731a3.731,3.731,0,0,1,7.461,0v3.731Z" transform="translate(-19476.607 -779.388)" stroke="#000" stroke-width="0.3"/>
      <path id="path-1" d="M2048.952,1303.887h1.244a.621.621,0,0,1,.622.621h0a.622.622,0,0,1-.622.622h-1.244a.622.622,0,0,1-.621-.622h0A.622.622,0,0,1,2048.952,1303.887Z" transform="translate(-19581.025 -813.279)" stroke="#000" stroke-width="0.3"/>
      <path id="path-1-2" data-name="path-1" d="M1899.831,1303.887h1.244a.621.621,0,0,1,.622.621h0a.622.622,0,0,1-.622.622h-1.244a.622.622,0,0,1-.622-.622h0A.622.622,0,0,1,1899.831,1303.887Z" transform="translate(-19449.318 -813.279)" stroke="#000" stroke-width="0.3"/>
      <path id="Path_6951" data-name="Path 6951" d="M1977.383,1224h0a.621.621,0,0,1,.621.622v1.244a.621.621,0,0,1-.621.621h0a.622.622,0,0,1-.622-.621v-1.244A.622.622,0,0,1,1977.383,1224Z" transform="translate(-19517.547 -743)" stroke="#000" stroke-width="0.3"/>
      <path id="Path_6952" data-name="Path 6952" d="M1922.1,1246.895h0a.622.622,0,0,1,.88,0l.879.879a.622.622,0,0,1,0,.879h0a.62.62,0,0,1-.879,0l-.88-.879A.622.622,0,0,1,1922.1,1246.895Z" transform="translate(-19469.295 -762.981)" stroke="#000" stroke-width="0.3"/>
      <path id="Path_6953" data-name="Path 6953" d="M2024.452,1247.774l.879-.879a.621.621,0,0,1,.879,0h0a.622.622,0,0,1,0,.879l-.879.879a.621.621,0,0,1-.879,0h0A.622.622,0,0,1,2024.452,1247.774Z" transform="translate(-19559.336 -762.981)" stroke="#000" stroke-width="0.3"/>
    </g>
  </g>
</svg>
