<svg xmlns="http://www.w3.org/2000/svg" xmlns:xlink="http://www.w3.org/1999/xlink" width="40" height="40" viewBox="0 0 40 40">
  <defs>
    <clipPath id="clip-path">
      <rect id="Rectangle_3134" data-name="Rectangle 3134" width="40" height="40" transform="translate(350 225)" fill="#fff" stroke="#707070" stroke-width="1"/>
    </clipPath>
    <linearGradient id="linear-gradient" x1="1.483" y1="1.079" x2="-0.777" y2="-0.232" gradientUnits="objectBoundingBox">
      <stop offset="0" stop-color="#e6e6e6"/>
      <stop offset="1" stop-color="#c2c2c2"/>
    </linearGradient>
  </defs>
  <g id="button_40x40_-_white_fill" data-name="button 40x40 - white fill" transform="translate(-350 -225)" clip-path="url(#clip-path)">
    <path id="Path_8723" data-name="Path 8723" d="M18,0A18,18,0,1,1,0,18,18,18,0,0,1,18,0Z" transform="translate(352 226)" fill="url(#linear-gradient)"/>
    <path id="Subtraction_13" data-name="Subtraction 13" d="M16.54,12.291a.272.272,0,0,1-.193-.465l.472-.468H9.93a.273.273,0,0,1,0-.546h6.888l-.472-.47a.273.273,0,0,1,.388-.384l.937.932a.275.275,0,0,1,.082.2.271.271,0,0,1-.082.193l-.937.934A.273.273,0,0,1,16.54,12.291Zm-8.381-.934H7.612a.273.273,0,1,1,0-.546h.548a.274.274,0,0,1,.221.113.271.271,0,0,1,.039.243A.276.276,0,0,1,8.159,11.357Zm-2.19,0H5.422a.273.273,0,1,1,0-.546h.547a.275.275,0,0,1,.222.113.27.27,0,0,1,.039.243A.276.276,0,0,1,5.969,11.357Zm-2.19,0H3.232a.273.273,0,1,1,0-.546h.547A.274.274,0,0,1,4,10.924a.268.268,0,0,1,.039.243A.275.275,0,0,1,3.779,11.357Zm-2.19,0H1.042a.275.275,0,0,1-.222-.113.274.274,0,0,1,.222-.433h.547a.274.274,0,0,1,.221.112.271.271,0,0,1,.04.244A.275.275,0,0,1,1.589,11.357ZM13.146,9.176a4.588,4.588,0,1,1,4.607-4.588A4.6,4.6,0,0,1,13.146,9.176Zm0-8.469a3.882,3.882,0,1,0,3.9,3.881A3.893,3.893,0,0,0,13.146.707ZM10.3,9.176A4.588,4.588,0,1,1,10.3,0a.273.273,0,1,1,0,.546,4.043,4.043,0,1,0,0,8.085.272.272,0,1,1,0,.545Zm-2.847,0A4.588,4.588,0,1,1,7.452,0a.273.273,0,1,1,0,.546,4.043,4.043,0,1,0,0,8.085.272.272,0,1,1,0,.545Zm-2.847,0A4.588,4.588,0,1,1,4.606,0a.273.273,0,1,1,0,.546,4.043,4.043,0,1,0,0,8.085.272.272,0,1,1,0,.545Z" transform="translate(361.123 237.854)" stroke="#000" stroke-width="0.5"/>
  </g>
</svg>
