<svg xmlns="http://www.w3.org/2000/svg" width="58" height="59" viewBox="0 0 58 59">
  <g id="Group_5924" data-name="Group 5924" transform="translate(-663 -128.68)">
    <ellipse id="Ellipse_816" data-name="Ellipse 816" cx="23" cy="23.5" rx="23" ry="23.5" transform="translate(669 134.68)" fill="#25245e" opacity="0.2"/>
    <g id="Ellipse_817" data-name="Ellipse 817" transform="translate(668 130.68)" fill="#fcfcfc" stroke="#25245e" stroke-width="1">
      <circle cx="24" cy="24" r="24" stroke="none"/>
      <circle cx="24" cy="24" r="23.5" fill="none"/>
    </g>
    <g id="rock-guitar" transform="translate(681.107 145.801)">
      <g id="Group_5956" data-name="Group 5956" transform="translate(0.029 0)">
        <g id="Group_5955" data-name="Group 5955" transform="translate(0 0)">
          <path id="Path_8629" data-name="Path 8629" d="M19.651.24A.574.574,0,0,0,19.182,0H17.547a.574.574,0,0,0-.409.165l-.409.409L16.32.169A.578.578,0,0,0,15.5.986l.409.409-.818.818L14.685,1.8a.578.578,0,0,0-.818.818l.409.409-2.1,2.1a2.89,2.89,0,0,0-5.3,1.595c0,.765-.94,1.06-2.487,1.454A8.085,8.085,0,0,0,1.723,9.19a4.047,4.047,0,0,0-.509,6.154l3.2,3.2a4.047,4.047,0,0,0,6.154-.509,5.968,5.968,0,0,0,.773-2.269c.26-1.287.439-1.825.873-1.825a2.312,2.312,0,0,0,2.1-3.289.575.575,0,0,0-.906-.216.578.578,0,0,1-.781-.851l.007-.008,3.518-3.519h1.4a.578.578,0,0,0,.548-.4L19.73.76A.578.578,0,0,0,19.651.24ZM13.371,11.7a1.155,1.155,0,0,1-1.154,1.093c-1.473,0-1.772,1.593-2.006,2.752a5.264,5.264,0,0,1-.58,1.826,2.891,2.891,0,0,1-4.4.364L4.042,16.537l.818-.818.409.409a.578.578,0,1,0,.818-.818L4.45,13.676a.578.578,0,1,0-.818.818l.409.409-.818.817L2.032,14.527a2.891,2.891,0,0,1,.364-4.4A7.359,7.359,0,0,1,4.672,9.3C6.15,8.925,8.03,8.473,8.03,6.727a1.734,1.734,0,0,1,3.3-.748L7.721,9.588a1.734,1.734,0,1,0,2.453,2.453l1.3-1.3a1.733,1.733,0,0,0,1.9.951Zm-4.015-.472a.578.578,0,1,1-.817-.818l5.738-5.74.817.817ZM17.13,4.9h-.979L15.094,3.848l2.692-2.692h.594Z" transform="translate(-0.029 0)" fill="#25245e" stroke="#fcfcfc" stroke-width="0.2"/>
        </g>
      </g>
      <g id="Group_5958" data-name="Group 5958" transform="translate(5.099 11.871)">
        <g id="Group_5957" data-name="Group 5957">
          <path id="Path_8630" data-name="Path 8630" d="M134.185,309.837,132.55,308.2a.578.578,0,0,0-.818.818l1.635,1.635a.578.578,0,0,0,.818-.818Z" transform="translate(-131.564 -308.033)" fill="#25245e" stroke="#fcfcfc" stroke-width="0.2"/>
        </g>
      </g>
    </g>
  </g>
</svg>
