<svg xmlns="http://www.w3.org/2000/svg" xmlns:xlink="http://www.w3.org/1999/xlink" width="240" height="240" viewBox="0 0 240 240"><defs><clipPath id="a"><rect width="240" height="240" transform="translate(405 298)" fill="#fff" stroke="#707070" stroke-width="1"/></clipPath><filter id="b" x="-0.12" y="16.169" width="264.395" height="245.705" filterUnits="userSpaceOnUse"><feOffset dx="12" dy="12" input="SourceAlpha"/><feGaussianBlur stdDeviation="10" result="c"/><feFlood flood-color="#171d1a" flood-opacity="0.071"/><feComposite operator="in" in2="c"/><feComposite in="SourceGraphic"/></filter><filter id="d" x="0.999" y="17.287" width="228.158" height="209.468" filterUnits="userSpaceOnUse"><feOffset dx="-5" dy="-5" input="SourceAlpha"/><feGaussianBlur stdDeviation="10" result="e"/><feFlood flood-color="#fff" flood-opacity="0.149"/><feComposite operator="in" in2="e"/><feComposite in="SourceGraphic"/></filter><linearGradient id="f" x1="-0.571" y1="0.301" x2="0.776" y2="0.456" gradientUnits="objectBoundingBox"><stop offset="0" stop-color="#e7e7e7"/><stop offset="1" stop-color="#fcfcfc"/></linearGradient><linearGradient id="g" x1="0.5" x2="0.5" y2="1" gradientUnits="objectBoundingBox"><stop offset="0" stop-color="#ffbc45"/><stop offset="1" stop-color="#ffb32c"/></linearGradient></defs><g transform="translate(-405 -298)" clip-path="url(#a)"><g transform="translate(-55.263 -769.183)"><g transform="matrix(0.995, -0.105, 0.105, 0.995, 496.262, 1135.672)"><g transform="matrix(0.99, 0.1, -0.1, 0.99, -28.64, -71.88)" filter="url(#b)"><rect width="155" height="134" rx="25" transform="matrix(0.99, -0.1, 0.1, 0.99, 36, 68.49)" fill="#fcfcfc"/></g><g transform="matrix(0.99, 0.1, -0.1, 0.99, -28.64, -71.88)" filter="url(#d)"><rect width="155" height="134" rx="25" transform="matrix(0.99, -0.1, 0.1, 0.99, 36, 68.49)" fill="#fcfcfc"/></g><g stroke="#fcfcfc" stroke-width="1.5" fill="url(#f)"><rect width="155" height="134" rx="25" stroke="none"/><rect x="0.75" y="0.75" width="153.5" height="132.5" rx="24.25" fill="none"/></g></g><g transform="translate(-1 943.203)"><path d="M25.971,64.643A8.078,8.078,0,0,1,38.1,57.65l.86.5V27.853a1.593,1.593,0,0,1,1.157-1.531L70.7,17.665a1.6,1.6,0,0,1,2.03,1.531v36.8a8.1,8.1,0,1,1-4.048-7l.858.492V29.961l-27.4,7.756V64.643a8.084,8.084,0,1,1-16.168,0ZM42.14,29.06V34.4l27.4-7.756V21.3ZM0,43a8.078,8.078,0,0,1,12.128-7l.862.5V1.592a1.59,1.59,0,0,1,2.916-.88l2.5,3.742a35.391,35.391,0,0,0,4.546,5.454,56.127,56.127,0,0,0,6.344,5.344,10.252,10.252,0,0,1-6.058,18.526,1.594,1.594,0,0,1,0-3.188,7.067,7.067,0,0,0,4.18-12.766A50.224,50.224,0,0,1,17.2,8.225L16.177,6.908V43A8.089,8.089,0,0,1,0,43Z" transform="translate(532.201 167.688)" opacity="0.3" fill="url(#g)"/><path d="M26.651,66.334A8.29,8.29,0,0,1,39.1,59.159l.883.511V28.582a1.635,1.635,0,0,1,1.187-1.571l31.386-8.884A1.643,1.643,0,0,1,74.635,19.7V57.457a8.316,8.316,0,1,1-4.153-7.183l.881.5V30.744L43.242,38.7v27.63a8.3,8.3,0,1,1-16.591,0ZM43.242,29.82V35.3l28.121-7.958V21.861ZM0,44.129a8.29,8.29,0,0,1,12.445-7.183l.885.512V1.634a1.631,1.631,0,0,1,2.992-.9l2.561,3.84a36.317,36.317,0,0,0,4.664,5.6,57.6,57.6,0,0,0,6.51,5.484,10.52,10.52,0,0,1-6.216,19.011,1.636,1.636,0,0,1,0-3.272,7.252,7.252,0,0,0,4.289-13.1A51.538,51.538,0,0,1,17.645,8.44L16.6,7.088V44.129a8.3,8.3,0,1,1-16.6,0Z" transform="translate(526.492 161.979)" fill="url(#g)"/></g></g></g></svg>