<svg xmlns="http://www.w3.org/2000/svg" width="72.162" height="61.367" viewBox="0 0 72.162 61.367">
  <g id="Group_5985" data-name="Group 5985" transform="translate(17543.494 15992.47)">
    <path id="Path_18" data-name="Path 18" d="M97.141,66.106h-.007A35.982,35.982,0,0,0,73.145,55.577l-.6-.02c-.593-.014-1.213-.014-1.813,0-.231,0-.463.007-.686.02-.245.014-.488.025-.732.046a36.114,36.114,0,0,0-33.774,36v11.537a13.768,13.768,0,0,0,13.752,13.752H93.958A13.768,13.768,0,0,0,107.7,103.162V91.626A35.882,35.882,0,0,0,97.141,66.106Zm3.97,37.057a7.166,7.166,0,0,1-7.153,7.16H49.293a7.167,7.167,0,0,1-7.16-7.16V91.626A29.5,29.5,0,0,1,69.763,62.2l.1-.007c.15-.014.3-.027.448-.027l.125-.007a2.852,2.852,0,0,1,.343-.014h.079c.5-.012,1.061-.012,1.49,0l.547.014a29.489,29.489,0,0,1,28.216,29.463Z" transform="translate(-17579.035 -16048.017)" fill="#25245e"/>
    <g id="Group_21" data-name="Group 21" transform="translate(-17529.572 -15961.619)">
      <g id="Group_20" data-name="Group 20">
        <path id="Path_19" data-name="Path 19" d="M56.408,80.118a6.312,6.312,0,1,1-6.317-6.31A6.325,6.325,0,0,1,56.408,80.118Z" transform="translate(-43.783 -73.808)" fill="#25245e"/>
      </g>
    </g>
    <g id="Group_23" data-name="Group 23" transform="translate(-17497.875 -15961.619)">
      <g id="Group_22" data-name="Group 22" transform="translate(0)">
        <path id="Path_20" data-name="Path 20" d="M75.17,80.118a6.312,6.312,0,1,1-6.315-6.31A6.325,6.325,0,0,1,75.17,80.118Z" transform="translate(-62.545 -73.808)" fill="#25245e"/>
      </g>
    </g>
    <g id="Group_25" data-name="Group 25" transform="translate(-17513.684 -15951.169)">
      <g id="Group_24" data-name="Group 24">
        <path id="Path_21" data-name="Path 21" d="M65.733,80.546a6.314,6.314,0,0,1-12.545,0,.505.505,0,0,1,.125-.389.5.5,0,0,1,.37-.164h11.55a.507.507,0,0,1,.375.164A.518.518,0,0,1,65.733,80.546Z" transform="translate(-53.186 -79.994)" fill="#25245e"/>
      </g>
    </g>
  </g>
</svg>
