<svg xmlns="http://www.w3.org/2000/svg" xmlns:xlink="http://www.w3.org/1999/xlink" width="264.395" height="245.705" viewBox="0 0 264.395 245.705">
  <defs>
    <filter id="Rectangle_1648" x="0" y="0" width="264.395" height="245.705" filterUnits="userSpaceOnUse">
      <feOffset dx="12" dy="12" input="SourceAlpha"/>
      <feGaussianBlur stdDeviation="10" result="blur"/>
      <feFlood flood-color="#171d1a" flood-opacity="0.071"/>
      <feComposite operator="in" in2="blur"/>
      <feComposite in="SourceGraphic"/>
    </filter>
    <filter id="Rectangle_1663" x="1.119" y="1.119" width="228.158" height="209.468" filterUnits="userSpaceOnUse">
      <feOffset dx="-5" dy="-5" input="SourceAlpha"/>
      <feGaussianBlur stdDeviation="10" result="blur-2"/>
      <feFlood flood-color="#fff" flood-opacity="0.149"/>
      <feComposite operator="in" in2="blur-2"/>
      <feComposite in="SourceGraphic"/>
    </filter>
    <linearGradient id="linear-gradient" x1="-0.571" y1="0.301" x2="0.776" y2="0.456" gradientUnits="objectBoundingBox">
      <stop offset="0" stop-color="#e7e7e7"/>
      <stop offset="1" stop-color="#fcfcfc"/>
    </linearGradient>
    <linearGradient id="linear-gradient-2" x1="0.105" y1="0.025" x2="0.871" y2="1" gradientUnits="objectBoundingBox">
      <stop offset="0" stop-color="#3ab7f7"/>
      <stop offset="1" stop-color="#30a8ce"/>
    </linearGradient>
  </defs>
  <g id="Group_6216" data-name="Group 6216" transform="translate(-57.303 -119.147)">
    <g id="sub_menu_card" data-name="sub menu card" transform="matrix(0.995, -0.105, 0.105, 0.995, 93.422, 171.468)">
      <g transform="matrix(0.99, 0.1, -0.1, 0.99, -30.45, -55.81)" filter="url(#Rectangle_1648)">
        <rect id="Rectangle_1648-2" data-name="Rectangle 1648" width="155" height="134" rx="25" transform="matrix(0.99, -0.1, 0.1, 0.99, 36.12, 52.32)" fill="#fcfcfc"/>
      </g>
      <g transform="matrix(0.99, 0.1, -0.1, 0.99, -30.45, -55.81)" filter="url(#Rectangle_1663)">
        <rect id="Rectangle_1663-2" data-name="Rectangle 1663" width="155" height="134" rx="25" transform="matrix(0.99, -0.1, 0.1, 0.99, 36.12, 52.32)" fill="#fcfcfc"/>
      </g>
      <g id="Rectangle_1664" data-name="Rectangle 1664" stroke="#fcfcfc" stroke-width="1.5" fill="url(#linear-gradient)">
        <rect width="155" height="134" rx="25" stroke="none"/>
        <rect x="0.75" y="0.75" width="153.5" height="132.5" rx="24.25" fill="none"/>
      </g>
    </g>
    <g id="Group_6217" data-name="Group 6217" transform="translate(-259.795 -59.444)">
      <path id="Union_61" data-name="Union 61" d="M46.334,75.739h-31.4a14.877,14.877,0,0,1,0-29.754h34.93a18.927,18.927,0,1,1-3.525,29.754Zm-.3-13.523A13.525,13.525,0,1,0,59.56,48.69,13.523,13.523,0,0,0,46.037,62.216ZM5.462,60.862a9.467,9.467,0,0,0,9.468,9.468H42.478a18.772,18.772,0,0,1,1.568-18.935H14.929A9.561,9.561,0,0,0,5.462,60.862ZM1.116,25.338A18.935,18.935,0,0,1,28.689,2.705h34.93a14.877,14.877,0,0,1,0,29.754h-31.4a18.873,18.873,0,0,1-13.229,5.412h-.046A18.943,18.943,0,0,1,1.116,25.338Zm4.346-6.4A13.525,13.525,0,1,0,18.985,5.41,13.539,13.539,0,0,0,5.462,18.936ZM36.068,27.05H63.619a9.467,9.467,0,0,0,9.468-9.468,9.657,9.657,0,0,0-9.468-9.468H34.5A18.777,18.777,0,0,1,36.068,27.05Z" transform="translate(383.853 204.705)" opacity="0.3" fill="url(#linear-gradient-2)"/>
      <path id="Union_62" data-name="Union 62" d="M46.334,75.739h-31.4a14.877,14.877,0,0,1,0-29.754h34.93a18.927,18.927,0,1,1-3.525,29.754Zm-.3-13.523A13.525,13.525,0,1,0,59.56,48.69,13.523,13.523,0,0,0,46.037,62.216ZM5.462,60.862a9.467,9.467,0,0,0,9.468,9.468H42.478a18.772,18.772,0,0,1,1.568-18.935H14.929A9.561,9.561,0,0,0,5.462,60.862ZM1.116,25.338A18.935,18.935,0,0,1,28.689,2.705h34.93a14.877,14.877,0,0,1,0,29.754h-31.4a18.873,18.873,0,0,1-13.229,5.412h-.046A18.943,18.943,0,0,1,1.116,25.338Zm4.346-6.4A13.525,13.525,0,1,0,18.985,5.41,13.539,13.539,0,0,0,5.462,18.936ZM36.068,27.05H63.619a9.467,9.467,0,0,0,9.468-9.468,9.657,9.657,0,0,0-9.468-9.468H34.5A18.777,18.777,0,0,1,36.068,27.05Z" transform="translate(382.5 202)" fill="url(#linear-gradient-2)"/>
    </g>
  </g>
</svg>
