<svg xmlns="http://www.w3.org/2000/svg" width="126.179" height="137.77" viewBox="0 0 126.179 137.77">
  <g id="Group_3697" data-name="Group 3697" transform="translate(-480.976 781.003)">
    <g id="Group_3695" data-name="Group 3695" transform="translate(508.838 -781.003)">
      <path id="Path_8120" data-name="Path 8120" d="M612.249-763.279c.184,10.115-8.347,18.393-18.463,18.393H586.68a10.543,10.543,0,0,0-10.544,10.544v7.108c0,10.126-8.287,18.655-18.412,18.461a18.057,18.057,0,0,1-17.706-18.055v-36.117A18.061,18.061,0,0,1,558.077-781h36.117A18.06,18.06,0,0,1,612.249-763.279Z" transform="translate(-540.018 781.003)" fill="#ffbc45"/>
      <circle id="Ellipse_740" data-name="Ellipse 740" cx="11.145" cy="11.145" r="11.145" transform="translate(47.918 47.92)" fill="#ffbc45"/>
    </g>
    <g id="Group_3696" data-name="Group 3696" transform="translate(480.976 -694.619)">
      <path id="Path_8121" data-name="Path 8121" d="M462.516-622.755a9.577,9.577,0,0,0-7.989,3.7.407.407,0,0,1-.706-.114l-.773-2.182a1.02,1.02,0,0,0-.961-.679h-3.227a1.02,1.02,0,0,0-1.021,1.021l0,35.959a1.02,1.02,0,0,0,1.53.883l4.476-2.583a1.021,1.021,0,0,0,.51-.884V-598.8a.407.407,0,0,1,.7-.283,9.548,9.548,0,0,0,7.322,2.858c7.43,0,11.761-5.561,11.761-13.219C474.14-617.148,469.718-622.755,462.516-622.755Zm-1.6,20.6c-3.966,0-6.564-2.963-6.564-7.339,0-4.33,2.552-7.339,6.564-7.339,3.966,0,6.564,3.009,6.564,7.339S464.886-602.151,460.92-602.151Z" transform="translate(-447.838 635.411)" fill="#ffbc45"/>
      <path id="Path_8122" data-name="Path 8122" d="M526.718-616.438a1.027,1.027,0,0,0-1.118-.811c-1.726.171-2.631-.481-2.631-2.476v-28.318a1.02,1.02,0,0,0-1.53-.883l-4.615,2.664a1.019,1.019,0,0,0-.51.883v26.429c0,7.262,4.4,8.924,10.381,7.044a1.024,1.024,0,0,0,.7-1.178Z" transform="translate(-486.221 650.159)" fill="#ffbc45"/>
      <path id="Path_8123" data-name="Path 8123" d="M558.168-622.755c-7.886,0-13.447,5.2-13.447,13.311,0,8.068,5.561,13.219,13.447,13.219,9.162,0,13.4-6.655,13.4-13.219C571.57-617.513,565.872-622.755,558.168-622.755Zm0,20.695c-4.559,0-6.61-3.646-6.61-7.384,0-3.829,2.051-7.476,6.61-7.476,4.513,0,6.564,3.647,6.564,7.476C564.732-605.706,562.59-602.06,558.168-602.06Z" transform="translate(-502.144 635.411)" fill="#ffbc45"/>
      <path id="Path_8124" data-name="Path 8124" d="M631.486-647.947v11.625a.407.407,0,0,1-.7.283,9.547,9.547,0,0,0-7.322-2.859c-7.43,0-11.76,5.561-11.76,13.22,0,7.7,4.422,13.31,11.624,13.31a9.577,9.577,0,0,0,7.989-3.7.407.407,0,0,1,.706.113l.773,2.182a1.021,1.021,0,0,0,.962.679h3.228a1.02,1.02,0,0,0,1.02-1.02v-36.415a1.02,1.02,0,0,0-1.53-.883L632-648.83A1.019,1.019,0,0,0,631.486-647.947Zm-6.564,29.653c-3.966,0-6.564-3.009-6.564-7.339s2.6-7.339,6.564-7.339,6.564,2.963,6.564,7.339C631.486-621.3,628.933-618.294,624.921-618.294Z" transform="translate(-539.689 651.554)" fill="#ffbc45"/>
      <path id="Path_8125" data-name="Path 8125" d="M693.766-601.559a5.848,5.848,0,0,1-6.013-4.617,1.023,1.023,0,0,1,.98-1.309h15.381c1.459-9.39-2.552-15.271-11.122-15.271-8.387,0-12.535,5.972-12.535,13.22,0,8.023,5.242,13.31,13.311,13.31a16.753,16.753,0,0,0,9.615-2.728,1.023,1.023,0,0,0,.331-1.384L702-603.212a1.019,1.019,0,0,0-1.4-.355A13.29,13.29,0,0,1,693.766-601.559Zm-.638-16.182c3.592,0,5.017,2.516,5.255,5.132a1.021,1.021,0,0,1-1.018,1.113h-8.786a1.021,1.021,0,0,1-1.008-1.181C687.965-615.12,689.606-617.741,693.128-617.741Z" transform="translate(-578.228 635.411)" fill="#ffbc45"/>
    </g>
  </g>
</svg>
