<svg xmlns="http://www.w3.org/2000/svg" xmlns:xlink="http://www.w3.org/1999/xlink" width="83" height="83" viewBox="0 0 83 83">
  <defs>
    <filter id="Ellipse_719" x="1" y="1" width="82" height="82" filterUnits="userSpaceOnUse">
      <feOffset dx="2" dy="2" input="SourceAlpha"/>
      <feGaussianBlur stdDeviation="2" result="blur"/>
      <feFlood flood-opacity="0.071"/>
      <feComposite operator="in" in2="blur"/>
      <feComposite in="SourceGraphic"/>
    </filter>
    <filter id="Ellipse_720" x="0" y="0" width="76" height="76" filterUnits="userSpaceOnUse">
      <feOffset dx="-2" dy="-2" input="SourceAlpha"/>
      <feGaussianBlur stdDeviation="2" result="blur-2"/>
      <feFlood flood-color="#fff" flood-opacity="0.071"/>
      <feComposite operator="in" in2="blur-2"/>
      <feComposite in="SourceGraphic"/>
    </filter>
    <linearGradient id="linear-gradient" x1="0.697" y1="-0.126" x2="0.205" y2="1.167" gradientUnits="objectBoundingBox">
      <stop offset="0" stop-color="#c2c2c2"/>
      <stop offset="1" stop-color="#fcfcfc"/>
    </linearGradient>
  </defs>
  <g id="Group_5619" data-name="Group 5619" transform="translate(8 72) rotate(-90)">
    <g id="Group_5616" data-name="Group 5616">
      <g transform="matrix(0, 1, -1, 0, 72, -8)" filter="url(#Ellipse_719)">
        <circle id="Ellipse_719-2" data-name="Ellipse 719" cx="32" cy="32" r="32" transform="translate(8 72) rotate(-90)" fill="#fff" opacity="0.5"/>
      </g>
      <g transform="matrix(0, 1, -1, 0, 72, -8)" filter="url(#Ellipse_720)">
        <circle id="Ellipse_720-2" data-name="Ellipse 720" cx="32" cy="32" r="32" transform="translate(8 72) rotate(-90)" fill="#fff"/>
      </g>
      <g id="Ellipse_721" data-name="Ellipse 721" stroke="#fff" stroke-width="1.5" fill="url(#linear-gradient)">
        <circle cx="32" cy="32" r="32" stroke="none"/>
        <circle cx="32" cy="32" r="31.25" fill="none"/>
      </g>
    </g>
    <g id="play" transform="translate(39.427 28.422) rotate(90)">
      <g id="Group_3698" data-name="Group 3698">
        <path id="Path_8151" data-name="Path 8151" d="M10.334,8.807,2.083,14.456a2.014,2.014,0,0,1-1.084.4c-.617,0-1-.5-1-1.324V1.322C0,.494.381,0,1,0A2,2,0,0,1,2.076.4l8.255,5.649a1.694,1.694,0,0,1,.825,1.379A1.688,1.688,0,0,1,10.334,8.807Z" fill="#25245e"/>
      </g>
    </g>
  </g>
</svg>
