<svg xmlns="http://www.w3.org/2000/svg" xmlns:xlink="http://www.w3.org/1999/xlink" width="32" height="32" viewBox="0 0 32 32"><defs><clipPath id="a"><rect width="32" height="32" transform="translate(31 39)" fill="#fff" stroke="#707070" stroke-width="1"/></clipPath></defs><g transform="translate(-31 -39)" clip-path="url(#a)"><g data-type="innerShadowGroup"><g transform="translate(-21337 -19656)" fill="#25245e" opacity="0.5"><path d="M 21384 19718.5 C 21381.46875 19718.5 21379.0859375 19717.462890625 21377.291015625 19715.578125 C 21375.4921875 19713.69140625 21374.501953125 19711.17578125 21374.501953125 19708.5 C 21374.501953125 19705.8203125 21375.4921875 19703.306640625 21377.291015625 19701.421875 C 21379.08203125 19699.5390625 21381.46484375 19698.50390625 21384 19698.50390625 C 21386.53515625 19698.50390625 21388.91796875 19699.5390625 21390.7109375 19701.421875 C 21392.509765625 19703.310546875 21393.501953125 19705.82421875 21393.501953125 19708.5 C 21393.501953125 19714.013671875 21389.240234375 19718.5 21384 19718.5 Z M 21384 19703.62109375 C 21381.42578125 19703.62109375 21379.33203125 19705.810546875 21379.33203125 19708.5 C 21379.33203125 19711.1875 21381.42578125 19713.375 21384 19713.375 C 21386.57421875 19713.375 21388.66796875 19711.1875 21388.66796875 19708.5 C 21388.66796875 19705.810546875 21386.57421875 19703.62109375 21384 19703.62109375 Z" stroke="none"/><path d="M 21384 19718 C 21388.962890625 19718 21393.001953125 19713.73828125 21393.001953125 19708.5 C 21393.001953125 19705.953125 21392.05859375 19703.5625 21390.34765625 19701.765625 C 21388.650390625 19699.984375 21386.396484375 19699.00390625 21384 19699.00390625 C 21381.603515625 19699.00390625 21379.349609375 19699.984375 21377.65234375 19701.767578125 C 21375.943359375 19703.556640625 21375.001953125 19705.94921875 21375.001953125 19708.5 C 21375.001953125 19711.046875 21375.943359375 19713.439453125 21377.654296875 19715.234375 C 21379.353515625 19717.017578125 21381.607421875 19718 21384 19718 M 21384 19703.12109375 C 21386.849609375 19703.12109375 21389.16796875 19705.533203125 21389.16796875 19708.5 C 21389.16796875 19711.462890625 21386.849609375 19713.875 21384 19713.875 C 21381.150390625 19713.875 21378.83203125 19711.462890625 21378.83203125 19708.5 C 21378.83203125 19705.533203125 21381.150390625 19703.12109375 21384 19703.12109375 M 21384 19719 C 21381.330078125 19719 21378.818359375 19717.90625 21376.9296875 19715.923828125 C 21375.041015625 19713.94140625 21374.001953125 19711.302734375 21374.001953125 19708.5 C 21374.001953125 19705.69140625 21375.041015625 19703.0546875 21376.9296875 19701.076171875 C 21378.81640625 19699.09375 21381.330078125 19698.00390625 21384 19698.00390625 C 21386.671875 19698.00390625 21389.18359375 19699.09375 21391.072265625 19701.076171875 C 21392.9609375 19703.05859375 21394.001953125 19705.69140625 21394.001953125 19708.5 C 21394.001953125 19714.287109375 21389.513671875 19719 21384 19719 Z M 21384 19704.12109375 C 21381.701171875 19704.12109375 21379.83203125 19706.083984375 21379.83203125 19708.5 C 21379.83203125 19710.912109375 21381.701171875 19712.875 21384 19712.875 C 21386.298828125 19712.875 21388.16796875 19710.912109375 21388.16796875 19708.5 C 21388.16796875 19706.083984375 21386.298828125 19704.12109375 21384 19704.12109375 Z" stroke="none"/></g><g transform="translate(-21337 -19656)" fill="#fff" opacity="0.5"><path d="M 21384 19718.5 C 21381.46875 19718.5 21379.0859375 19717.462890625 21377.291015625 19715.578125 C 21375.4921875 19713.69140625 21374.501953125 19711.17578125 21374.501953125 19708.5 C 21374.501953125 19705.8203125 21375.4921875 19703.306640625 21377.291015625 19701.421875 C 21379.08203125 19699.5390625 21381.46484375 19698.50390625 21384 19698.50390625 C 21386.53515625 19698.50390625 21388.91796875 19699.5390625 21390.7109375 19701.421875 C 21392.509765625 19703.310546875 21393.501953125 19705.82421875 21393.501953125 19708.5 C 21393.501953125 19714.013671875 21389.240234375 19718.5 21384 19718.5 Z M 21384 19703.62109375 C 21381.42578125 19703.62109375 21379.33203125 19705.810546875 21379.33203125 19708.5 C 21379.33203125 19711.1875 21381.42578125 19713.375 21384 19713.375 C 21386.57421875 19713.375 21388.66796875 19711.1875 21388.66796875 19708.5 C 21388.66796875 19705.810546875 21386.57421875 19703.62109375 21384 19703.62109375 Z" stroke="none"/><path d="M 21384 19718 C 21388.962890625 19718 21393.001953125 19713.73828125 21393.001953125 19708.5 C 21393.001953125 19705.953125 21392.05859375 19703.5625 21390.34765625 19701.765625 C 21388.650390625 19699.984375 21386.396484375 19699.00390625 21384 19699.00390625 C 21381.603515625 19699.00390625 21379.349609375 19699.984375 21377.65234375 19701.767578125 C 21375.943359375 19703.556640625 21375.001953125 19705.94921875 21375.001953125 19708.5 C 21375.001953125 19711.046875 21375.943359375 19713.439453125 21377.654296875 19715.234375 C 21379.353515625 19717.017578125 21381.607421875 19718 21384 19718 M 21384 19703.12109375 C 21386.849609375 19703.12109375 21389.16796875 19705.533203125 21389.16796875 19708.5 C 21389.16796875 19711.462890625 21386.849609375 19713.875 21384 19713.875 C 21381.150390625 19713.875 21378.83203125 19711.462890625 21378.83203125 19708.5 C 21378.83203125 19705.533203125 21381.150390625 19703.12109375 21384 19703.12109375 M 21384 19719 C 21381.330078125 19719 21378.818359375 19717.90625 21376.9296875 19715.923828125 C 21375.041015625 19713.94140625 21374.001953125 19711.302734375 21374.001953125 19708.5 C 21374.001953125 19705.69140625 21375.041015625 19703.0546875 21376.9296875 19701.076171875 C 21378.81640625 19699.09375 21381.330078125 19698.00390625 21384 19698.00390625 C 21386.671875 19698.00390625 21389.18359375 19699.09375 21391.072265625 19701.076171875 C 21392.9609375 19703.05859375 21394.001953125 19705.69140625 21394.001953125 19708.5 C 21394.001953125 19714.287109375 21389.513671875 19719 21384 19719 Z M 21384 19704.12109375 C 21381.701171875 19704.12109375 21379.83203125 19706.083984375 21379.83203125 19708.5 C 21379.83203125 19710.912109375 21381.701171875 19712.875 21384 19712.875 C 21386.298828125 19712.875 21388.16796875 19710.912109375 21388.16796875 19708.5 C 21388.16796875 19706.083984375 21386.298828125 19704.12109375 21384 19704.12109375 Z" stroke="none"/></g><g transform="translate(-21337 -19656)" fill="#25245e" opacity="0.5"><path d="M 21384 19718.5 C 21381.46875 19718.5 21379.0859375 19717.462890625 21377.291015625 19715.578125 C 21375.4921875 19713.69140625 21374.501953125 19711.17578125 21374.501953125 19708.5 C 21374.501953125 19705.8203125 21375.4921875 19703.306640625 21377.291015625 19701.421875 C 21379.08203125 19699.5390625 21381.46484375 19698.50390625 21384 19698.50390625 C 21386.53515625 19698.50390625 21388.91796875 19699.5390625 21390.7109375 19701.421875 C 21392.509765625 19703.310546875 21393.501953125 19705.82421875 21393.501953125 19708.5 C 21393.501953125 19714.013671875 21389.240234375 19718.5 21384 19718.5 Z M 21384 19703.62109375 C 21381.42578125 19703.62109375 21379.33203125 19705.810546875 21379.33203125 19708.5 C 21379.33203125 19711.1875 21381.42578125 19713.375 21384 19713.375 C 21386.57421875 19713.375 21388.66796875 19711.1875 21388.66796875 19708.5 C 21388.66796875 19705.810546875 21386.57421875 19703.62109375 21384 19703.62109375 Z" stroke="none"/><path d="M 21384 19718 C 21388.962890625 19718 21393.001953125 19713.73828125 21393.001953125 19708.5 C 21393.001953125 19705.953125 21392.05859375 19703.5625 21390.34765625 19701.765625 C 21388.650390625 19699.984375 21386.396484375 19699.00390625 21384 19699.00390625 C 21381.603515625 19699.00390625 21379.349609375 19699.984375 21377.65234375 19701.767578125 C 21375.943359375 19703.556640625 21375.001953125 19705.94921875 21375.001953125 19708.5 C 21375.001953125 19711.046875 21375.943359375 19713.439453125 21377.654296875 19715.234375 C 21379.353515625 19717.017578125 21381.607421875 19718 21384 19718 M 21384 19703.12109375 C 21386.849609375 19703.12109375 21389.16796875 19705.533203125 21389.16796875 19708.5 C 21389.16796875 19711.462890625 21386.849609375 19713.875 21384 19713.875 C 21381.150390625 19713.875 21378.83203125 19711.462890625 21378.83203125 19708.5 C 21378.83203125 19705.533203125 21381.150390625 19703.12109375 21384 19703.12109375 M 21384 19719 C 21381.330078125 19719 21378.818359375 19717.90625 21376.9296875 19715.923828125 C 21375.041015625 19713.94140625 21374.001953125 19711.302734375 21374.001953125 19708.5 C 21374.001953125 19705.69140625 21375.041015625 19703.0546875 21376.9296875 19701.076171875 C 21378.81640625 19699.09375 21381.330078125 19698.00390625 21384 19698.00390625 C 21386.671875 19698.00390625 21389.18359375 19699.09375 21391.072265625 19701.076171875 C 21392.9609375 19703.05859375 21394.001953125 19705.69140625 21394.001953125 19708.5 C 21394.001953125 19714.287109375 21389.513671875 19719 21384 19719 Z M 21384 19704.12109375 C 21381.701171875 19704.12109375 21379.83203125 19706.083984375 21379.83203125 19708.5 C 21379.83203125 19710.912109375 21381.701171875 19712.875 21384 19712.875 C 21386.298828125 19712.875 21388.16796875 19710.912109375 21388.16796875 19708.5 C 21388.16796875 19706.083984375 21386.298828125 19704.12109375 21384 19704.12109375 Z" stroke="none" fill="#25245e"/></g></g><g data-type="innerShadowGroup"><g transform="translate(-21339 -19659)" fill="#25245e"><path d="M 21385.998046875 19721.5 C 21382.927734375 19721.5 21380.0390625 19720.302734375 21377.8671875 19718.130859375 C 21375.6953125 19715.958984375 21374.5 19713.0703125 21374.5 19709.998046875 C 21374.5 19706.92578125 21375.6953125 19704.0390625 21377.8671875 19701.869140625 C 21380.0390625 19699.697265625 21382.92578125 19698.501953125 21385.998046875 19698.501953125 C 21389.0703125 19698.501953125 21391.958984375 19699.697265625 21394.130859375 19701.869140625 C 21396.302734375 19704.0390625 21397.5 19706.927734375 21397.5 19709.998046875 C 21397.5 19716.33984375 21392.33984375 19721.5 21385.998046875 19721.5 Z M 21385.998046875 19704.498046875 C 21382.96484375 19704.498046875 21380.498046875 19706.96484375 21380.498046875 19709.998046875 C 21380.498046875 19713.03125 21382.96484375 19715.498046875 21385.998046875 19715.498046875 C 21389.033203125 19715.498046875 21391.501953125 19713.03125 21391.501953125 19709.998046875 C 21391.501953125 19706.96484375 21389.033203125 19704.498046875 21385.998046875 19704.498046875 Z" stroke="none"/><path d="M 21385.998046875 19721 C 21392.064453125 19721 21397 19716.064453125 21397 19709.998046875 C 21397 19707.060546875 21395.85546875 19704.298828125 21393.77734375 19702.22265625 C 21391.701171875 19700.146484375 21388.9375 19699.001953125 21385.998046875 19699.001953125 C 21383.060546875 19699.001953125 21380.296875 19700.146484375 21378.220703125 19702.22265625 C 21376.14453125 19704.298828125 21375 19707.05859375 21375 19709.998046875 C 21375 19712.9375 21376.14453125 19715.701171875 21378.220703125 19717.77734375 C 21380.298828125 19719.85546875 21383.060546875 19721 21385.998046875 19721 M 21385.998046875 19703.998046875 C 21389.30859375 19703.998046875 21392.001953125 19706.689453125 21392.001953125 19709.998046875 C 21392.001953125 19713.306640625 21389.30859375 19715.998046875 21385.998046875 19715.998046875 C 21382.689453125 19715.998046875 21379.998046875 19713.306640625 21379.998046875 19709.998046875 C 21379.998046875 19706.689453125 21382.689453125 19703.998046875 21385.998046875 19703.998046875 M 21385.998046875 19722 C 21382.794921875 19722 21379.78125 19720.751953125 21377.513671875 19718.484375 C 21375.248046875 19716.21875 21374 19713.205078125 21374 19709.998046875 C 21374 19706.79296875 21375.248046875 19703.779296875 21377.513671875 19701.515625 C 21379.779296875 19699.25 21382.79296875 19698.001953125 21385.998046875 19698.001953125 C 21389.205078125 19698.001953125 21392.21875 19699.25 21394.484375 19701.515625 C 21396.751953125 19703.78125 21398 19706.79296875 21398 19709.998046875 C 21398 19716.615234375 21392.615234375 19722 21385.998046875 19722 Z M 21385.998046875 19704.998046875 C 21383.240234375 19704.998046875 21380.998046875 19707.240234375 21380.998046875 19709.998046875 C 21380.998046875 19712.755859375 21383.240234375 19714.998046875 21385.998046875 19714.998046875 C 21388.7578125 19714.998046875 21391.001953125 19712.755859375 21391.001953125 19709.998046875 C 21391.001953125 19707.240234375 21388.7578125 19704.998046875 21385.998046875 19704.998046875 Z" stroke="none"/></g><g transform="translate(-21339 -19659)" fill="#25245e"><path d="M 21385.998046875 19721.5 C 21382.927734375 19721.5 21380.0390625 19720.302734375 21377.8671875 19718.130859375 C 21375.6953125 19715.958984375 21374.5 19713.0703125 21374.5 19709.998046875 C 21374.5 19706.92578125 21375.6953125 19704.0390625 21377.8671875 19701.869140625 C 21380.0390625 19699.697265625 21382.92578125 19698.501953125 21385.998046875 19698.501953125 C 21389.0703125 19698.501953125 21391.958984375 19699.697265625 21394.130859375 19701.869140625 C 21396.302734375 19704.0390625 21397.5 19706.927734375 21397.5 19709.998046875 C 21397.5 19716.33984375 21392.33984375 19721.5 21385.998046875 19721.5 Z M 21385.998046875 19704.498046875 C 21382.96484375 19704.498046875 21380.498046875 19706.96484375 21380.498046875 19709.998046875 C 21380.498046875 19713.03125 21382.96484375 19715.498046875 21385.998046875 19715.498046875 C 21389.033203125 19715.498046875 21391.501953125 19713.03125 21391.501953125 19709.998046875 C 21391.501953125 19706.96484375 21389.033203125 19704.498046875 21385.998046875 19704.498046875 Z" stroke="none"/><path d="M 21385.998046875 19721 C 21392.064453125 19721 21397 19716.064453125 21397 19709.998046875 C 21397 19707.060546875 21395.85546875 19704.298828125 21393.77734375 19702.22265625 C 21391.701171875 19700.146484375 21388.9375 19699.001953125 21385.998046875 19699.001953125 C 21383.060546875 19699.001953125 21380.296875 19700.146484375 21378.220703125 19702.22265625 C 21376.14453125 19704.298828125 21375 19707.05859375 21375 19709.998046875 C 21375 19712.9375 21376.14453125 19715.701171875 21378.220703125 19717.77734375 C 21380.298828125 19719.85546875 21383.060546875 19721 21385.998046875 19721 M 21385.998046875 19703.998046875 C 21389.30859375 19703.998046875 21392.001953125 19706.689453125 21392.001953125 19709.998046875 C 21392.001953125 19713.306640625 21389.30859375 19715.998046875 21385.998046875 19715.998046875 C 21382.689453125 19715.998046875 21379.998046875 19713.306640625 21379.998046875 19709.998046875 C 21379.998046875 19706.689453125 21382.689453125 19703.998046875 21385.998046875 19703.998046875 M 21385.998046875 19722 C 21382.794921875 19722 21379.78125 19720.751953125 21377.513671875 19718.484375 C 21375.248046875 19716.21875 21374 19713.205078125 21374 19709.998046875 C 21374 19706.79296875 21375.248046875 19703.779296875 21377.513671875 19701.515625 C 21379.779296875 19699.25 21382.79296875 19698.001953125 21385.998046875 19698.001953125 C 21389.205078125 19698.001953125 21392.21875 19699.25 21394.484375 19701.515625 C 21396.751953125 19703.78125 21398 19706.79296875 21398 19709.998046875 C 21398 19716.615234375 21392.615234375 19722 21385.998046875 19722 Z M 21385.998046875 19704.998046875 C 21383.240234375 19704.998046875 21380.998046875 19707.240234375 21380.998046875 19709.998046875 C 21380.998046875 19712.755859375 21383.240234375 19714.998046875 21385.998046875 19714.998046875 C 21388.7578125 19714.998046875 21391.001953125 19712.755859375 21391.001953125 19709.998046875 C 21391.001953125 19707.240234375 21388.7578125 19704.998046875 21385.998046875 19704.998046875 Z" stroke="none"/></g><g transform="translate(-21339 -19659)" fill="#25245e"><path d="M 21385.998046875 19721.5 C 21382.927734375 19721.5 21380.0390625 19720.302734375 21377.8671875 19718.130859375 C 21375.6953125 19715.958984375 21374.5 19713.0703125 21374.5 19709.998046875 C 21374.5 19706.92578125 21375.6953125 19704.0390625 21377.8671875 19701.869140625 C 21380.0390625 19699.697265625 21382.92578125 19698.501953125 21385.998046875 19698.501953125 C 21389.0703125 19698.501953125 21391.958984375 19699.697265625 21394.130859375 19701.869140625 C 21396.302734375 19704.0390625 21397.5 19706.927734375 21397.5 19709.998046875 C 21397.5 19716.33984375 21392.33984375 19721.5 21385.998046875 19721.5 Z M 21385.998046875 19704.498046875 C 21382.96484375 19704.498046875 21380.498046875 19706.96484375 21380.498046875 19709.998046875 C 21380.498046875 19713.03125 21382.96484375 19715.498046875 21385.998046875 19715.498046875 C 21389.033203125 19715.498046875 21391.501953125 19713.03125 21391.501953125 19709.998046875 C 21391.501953125 19706.96484375 21389.033203125 19704.498046875 21385.998046875 19704.498046875 Z" stroke="none"/><path d="M 21385.998046875 19721 C 21392.064453125 19721 21397 19716.064453125 21397 19709.998046875 C 21397 19707.060546875 21395.85546875 19704.298828125 21393.77734375 19702.22265625 C 21391.701171875 19700.146484375 21388.9375 19699.001953125 21385.998046875 19699.001953125 C 21383.060546875 19699.001953125 21380.296875 19700.146484375 21378.220703125 19702.22265625 C 21376.14453125 19704.298828125 21375 19707.05859375 21375 19709.998046875 C 21375 19712.9375 21376.14453125 19715.701171875 21378.220703125 19717.77734375 C 21380.298828125 19719.85546875 21383.060546875 19721 21385.998046875 19721 M 21385.998046875 19703.998046875 C 21389.30859375 19703.998046875 21392.001953125 19706.689453125 21392.001953125 19709.998046875 C 21392.001953125 19713.306640625 21389.30859375 19715.998046875 21385.998046875 19715.998046875 C 21382.689453125 19715.998046875 21379.998046875 19713.306640625 21379.998046875 19709.998046875 C 21379.998046875 19706.689453125 21382.689453125 19703.998046875 21385.998046875 19703.998046875 M 21385.998046875 19722 C 21382.794921875 19722 21379.78125 19720.751953125 21377.513671875 19718.484375 C 21375.248046875 19716.21875 21374 19713.205078125 21374 19709.998046875 C 21374 19706.79296875 21375.248046875 19703.779296875 21377.513671875 19701.515625 C 21379.779296875 19699.25 21382.79296875 19698.001953125 21385.998046875 19698.001953125 C 21389.205078125 19698.001953125 21392.21875 19699.25 21394.484375 19701.515625 C 21396.751953125 19703.78125 21398 19706.79296875 21398 19709.998046875 C 21398 19716.615234375 21392.615234375 19722 21385.998046875 19722 Z M 21385.998046875 19704.998046875 C 21383.240234375 19704.998046875 21380.998046875 19707.240234375 21380.998046875 19709.998046875 C 21380.998046875 19712.755859375 21383.240234375 19714.998046875 21385.998046875 19714.998046875 C 21388.7578125 19714.998046875 21391.001953125 19712.755859375 21391.001953125 19709.998046875 C 21391.001953125 19707.240234375 21388.7578125 19704.998046875 21385.998046875 19704.998046875 Z" stroke="none" fill="#25245e"/></g></g></g></svg>