<svg xmlns="http://www.w3.org/2000/svg" width="10.424" height="17.68" viewBox="0 0 10.424 17.68">
  <g id="Group_5179" data-name="Group 5179" transform="translate(6390.159 1223.609)">
    <path id="Path_8128" data-name="Path 8128" d="M-6360.605-1162.75v-6.829a.518.518,0,0,0-.518-.518.518.518,0,0,0-.518.518v6.829a2.108,2.108,0,0,0-1.586,2.04,2.106,2.106,0,0,0,2.1,2.1,2.106,2.106,0,0,0,2.1-2.1A2.108,2.108,0,0,0-6360.605-1162.75Zm-.518,3.108a1.069,1.069,0,0,1-1.068-1.068,1.069,1.069,0,0,1,1.068-1.068,1.069,1.069,0,0,1,1.068,1.068A1.069,1.069,0,0,1-6361.123-1159.642Z" transform="translate(-24.86 -49.395)"/>
    <path id="Path_8129" data-name="Path 8129" d="M-6383.413-1213.4v-7.641a2.574,2.574,0,0,0-2.571-2.571,2.574,2.574,0,0,0-2.57,2.571v7.641a4.176,4.176,0,0,0-1.605,3.292,4.181,4.181,0,0,0,4.176,4.177,4.181,4.181,0,0,0,4.176-4.177A4.176,4.176,0,0,0-6383.413-1213.4Zm-2.571,6.432a3.144,3.144,0,0,1-3.14-3.141,3.141,3.141,0,0,1,1.378-2.6.518.518,0,0,0,.227-.429v-7.9a1.536,1.536,0,0,1,1.534-1.535,1.537,1.537,0,0,1,1.535,1.535v7.9a.517.517,0,0,0,.227.429,3.139,3.139,0,0,1,1.378,2.6A3.144,3.144,0,0,1-6385.983-1206.965Z" transform="translate(0 0)"/>
    <path id="Path_8130" data-name="Path 8130" d="M-6286.874-1116.113h-1.6a.518.518,0,0,0-.518.518.518.518,0,0,0,.518.518h1.6a.518.518,0,0,0,.518-.518A.518.518,0,0,0-6286.874-1116.113Z" transform="translate(-93.38 -99.226)"/>
    <path id="Path_8131" data-name="Path 8131" d="M-6286.874-1143.05h-1.6a.518.518,0,0,0-.518.518.518.518,0,0,0,.518.518h1.6a.518.518,0,0,0,.518-.518A.518.518,0,0,0-6286.874-1143.05Z" transform="translate(-93.38 -74.361)"/>
    <path id="Path_8132" data-name="Path 8132" d="M-6286.874-1169.986h-1.6a.518.518,0,0,0-.518.518.518.518,0,0,0,.518.518h1.6a.518.518,0,0,0,.518-.518A.518.518,0,0,0-6286.874-1169.986Z" transform="translate(-93.38 -49.498)"/>
    <path id="Path_8133" data-name="Path 8133" d="M-6288.479-1195.887h1.6a.518.518,0,0,0,.518-.518.518.518,0,0,0-.518-.518h-1.6a.518.518,0,0,0-.518.518A.518.518,0,0,0-6288.479-1195.887Z" transform="translate(-93.38 -24.633)"/>
  </g>
</svg>
