<svg xmlns="http://www.w3.org/2000/svg" xmlns:xlink="http://www.w3.org/1999/xlink" width="195.93" height="75.051" viewBox="0 0 195.93 75.051">
  <defs>
    <filter id="Rectangle_1648" x="6" y="6" width="189.93" height="69.051" filterUnits="userSpaceOnUse">
      <feOffset dx="3" dy="3" input="SourceAlpha"/>
      <feGaussianBlur stdDeviation="1.5" result="blur"/>
      <feFlood flood-color="#171d1a" flood-opacity="0.071"/>
      <feComposite operator="in" in2="blur"/>
      <feComposite in="SourceGraphic"/>
    </filter>
    <filter id="Rectangle_1663" x="0" y="0" width="189.93" height="69.051" filterUnits="userSpaceOnUse">
      <feOffset dx="-3" dy="-3" input="SourceAlpha"/>
      <feGaussianBlur stdDeviation="1.5" result="blur-2"/>
      <feFlood flood-color="#fff" flood-opacity="0.302"/>
      <feComposite operator="in" in2="blur-2"/>
      <feComposite in="SourceGraphic"/>
    </filter>
    <linearGradient id="linear-gradient" x1="0.052" y1="-0.067" x2="1.57" y2="1" gradientUnits="objectBoundingBox">
      <stop offset="0" stop-color="#e6e6e6"/>
      <stop offset="1" stop-color="#fcfcfc"/>
    </linearGradient>
  </defs>
  <g id="Group_5889" data-name="Group 5889" transform="translate(-359.035 -164.5)">
    <g id="Group_5796" data-name="Group 5796" transform="translate(372.088 178.459)">
      <g transform="matrix(1, 0, 0, 1, -13.05, -13.96)" filter="url(#Rectangle_1648)">
        <rect id="Rectangle_1648-2" data-name="Rectangle 1648" width="168.93" height="48.051" rx="15" transform="translate(13.5 13.5)" fill="#fcfcfc"/>
      </g>
      <g transform="matrix(1, 0, 0, 1, -13.05, -13.96)" filter="url(#Rectangle_1663)">
        <rect id="Rectangle_1663-2" data-name="Rectangle 1663" width="168.93" height="48.051" rx="15" transform="translate(13.5 13.5)" fill="#fcfcfc"/>
      </g>
      <g id="Path_8591" data-name="Path 8591" transform="translate(0.447 -0.459)" fill="url(#linear-gradient)">
        <path d="M 153.9298400878906 47.30078125 L 15.00000667572021 47.30078125 C 11.19368076324463 47.30078125 7.6152024269104 45.81851959228516 4.923724174499512 43.12704467773438 C 2.2322678565979 40.43558502197266 0.7500069737434387 36.85708618164062 0.7500069737434387 33.05078125 L 0.7500069737434387 14.99999904632568 C 0.7500069737434387 11.19369506835938 2.2322678565979 7.615194797515869 4.923724174499512 4.923738479614258 C 7.6152024269104 2.232260227203369 11.19368076324463 0.7499993443489075 15.00000667572021 0.7499993443489075 L 153.9298400878906 0.7499993443489075 C 157.7361602783203 0.7499993443489075 161.3146362304688 2.232260227203369 164.0061187744141 4.923738479614258 C 166.6975708007812 7.615194797515869 168.1798400878906 11.19369506835938 168.1798400878906 14.99999904632568 L 168.1798400878906 33.05078125 C 168.1798400878906 36.85708618164062 166.6975708007812 40.43558502197266 164.0061187744141 43.12704467773438 C 161.3146362304688 45.81851959228516 157.7361602783203 47.30078125 153.9298400878906 47.30078125 Z" stroke="none"/>
        <path d="M 14.99998474121094 1.500003814697266 C 11.39401245117188 1.500003814697266 8.00384521484375 2.904254913330078 5.454055786132812 5.454071044921875 C 2.90423583984375 8.003868103027344 1.499984741210938 11.39402770996094 1.499984741210938 15.00000381469727 L 1.499984741210938 33.05077743530273 C 1.499984741210938 36.65675354003906 2.90423583984375 40.04691314697266 5.454055786132812 42.59671020507812 C 8.00384521484375 45.14652633666992 11.39401245117188 46.55077743530273 14.99998474121094 46.55077743530273 L 153.9298248291016 46.55077743530273 C 157.5358123779297 46.55077743530273 160.9259643554688 45.14652633666992 163.4757537841797 42.59671020507812 C 166.0255737304688 40.04691314697266 167.4298248291016 36.65675354003906 167.4298248291016 33.05077743530273 L 167.4298248291016 15.00000381469727 C 167.4298248291016 11.39402770996094 166.0255737304688 8.003868103027344 163.4757537841797 5.454071044921875 C 160.9259643554688 2.904254913330078 157.5358123779297 1.500003814697266 153.9298248291016 1.500003814697266 L 14.99998474121094 1.500003814697266 M 14.99998474121094 3.814697265625e-06 L 153.9298248291016 3.814697265625e-06 C 162.2140960693359 3.814697265625e-06 168.9298248291016 6.715732574462891 168.9298248291016 15.00000381469727 L 168.9298248291016 33.05077743530273 C 168.9298248291016 41.33504867553711 162.2140960693359 48.05077743530273 153.9298248291016 48.05077743530273 L 14.99998474121094 48.05077743530273 C 6.715713500976562 48.05077743530273 -1.52587890625e-05 41.33504867553711 -1.52587890625e-05 33.05077743530273 L -1.52587890625e-05 15.00000381469727 C -1.52587890625e-05 6.715732574462891 6.715713500976562 3.814697265625e-06 14.99998474121094 3.814697265625e-06 Z" stroke="none" fill="#fcfcfc"/>
      </g>
    </g>
    <g id="Group_5876" data-name="Group 5876" transform="translate(144.933 -42.23)">
      <path id="Path_8531" data-name="Path 8531" d="M-7379.414,203.6a1.211,1.211,0,0,0-.834-1.123,1.274,1.274,0,0,0-.927,0h0v0a1.315,1.315,0,0,0-.672-.81,1.3,1.3,0,0,0-1.06-.051,1.309,1.309,0,0,0-.65-.8,1.309,1.309,0,0,0-1.03-.082l-.006,0v-.176c0-.707.007-1.413,0-2.12a1.294,1.294,0,0,0-1.293-1.263,1.3,1.3,0,0,0-1.3,1.287c-.006.99,0,1.981,0,2.971v.158a.235.235,0,0,1-.053,0,1.311,1.311,0,0,0-1.682,1.324c.02.821.005,1.644,0,2.466a4.7,4.7,0,0,0,.1,1.017,4.78,4.78,0,0,0,4.17,3.8s.245.022.489.022.494-.021.5-.022a4.336,4.336,0,0,0,1.212-.3,4.7,4.7,0,0,0,3.029-4.042A15.624,15.624,0,0,0-7379.414,203.6Zm-8.606,2.374a2.77,2.77,0,0,1-.035-.416q-.007-1.356,0-2.712a.435.435,0,0,1,.38-.452.434.434,0,0,1,.472.336.77.77,0,0,1,.012.171q0,1.4,0,2.8v.148h.866v-.157q0-3.562,0-7.125a.908.908,0,0,1,.01-.186.435.435,0,0,1,.453-.343.434.434,0,0,1,.4.418c.006.144,0,.289,0,.433v5.232h.849c.031-.041.016-.086.016-.127,0-.658,0-1.317,0-1.976a.44.44,0,0,1,.432-.49.439.439,0,0,1,.434.487v2.1h.853c.029-.042.011-.1.011-.147,0-.37,0-.74,0-1.111a.436.436,0,0,1,.428-.464.437.437,0,0,1,.437.47c0,.413,0,.827,0,1.25h.866c0-.123,0-.255,0-.388a.438.438,0,0,1,.425-.467.433.433,0,0,1,.439.467c-.01.711.036,1.423-.026,2.133a3.919,3.919,0,0,1-3.207,3.429A3.9,3.9,0,0,1-7388.02,205.977Z" transform="translate(7750.382 42.02)"/>
      <path id="Path_8532" data-name="Path 8532" d="M-7382.75,183.234h-.856a2.165,2.165,0,0,0-.9-1.745,2.075,2.075,0,0,0-1.452-.406,2.172,2.172,0,0,0-1.983,2.146h-.854a3,3,0,0,1,2.878-3.013A3.02,3.02,0,0,1-7382.75,183.234Z" transform="translate(7750.264 57.253)"/>
      <path id="Path_8533" data-name="Path 8533" d="M3.215-11.333.95-10.6l.365,1.028L2.74-10.1v6.277H4v-7.514Z" transform="translate(372 248.586)"/>
    </g>
  </g>
</svg>
