<svg xmlns="http://www.w3.org/2000/svg" xmlns:xlink="http://www.w3.org/1999/xlink" width="40" height="40" viewBox="0 0 40 40">
  <defs>
    <clipPath id="clip-path">
      <rect id="Rectangle_1829" data-name="Rectangle 1829" width="40" height="40" transform="translate(350 225)" fill="#fff" stroke="#707070" stroke-width="1"/>
    </clipPath>
    <linearGradient id="linear-gradient" x1="0.117" y1="0.107" x2="0.862" y2="0.932" gradientUnits="objectBoundingBox">
      <stop offset="0" stop-color="#ffbc45"/>
      <stop offset="0.733" stop-color="#f87b62"/>
      <stop offset="1" stop-color="#f16178"/>
    </linearGradient>
  </defs>
  <g id="button_40x40_-_white_fill" data-name="button 40x40 - white fill" transform="translate(-350 -225)" clip-path="url(#clip-path)">
    <path id="Path_7764" data-name="Path 7764" d="M18,0A18,18,0,1,1,0,18,18,18,0,0,1,18,0Z" transform="translate(352 226)" fill="url(#linear-gradient)"/>
    <path id="Path_8354" data-name="Path 8354" d="M3.405,6.633A1.8,1.8,0,0,0,2.29,5.684a.347.347,0,0,1-.271-.327V0H1.561V5.335a.37.37,0,0,1-.277.346,1.788,1.788,0,0,0-.258,3.331c.317.153.535.213.535.841v1.83h.458V9.854c0-.75.207-.7.535-.851a1.788,1.788,0,0,0,.851-2.369M2.827,8.26a1.014,1.014,0,0,1-.218.207V8.456a1.313,1.313,0,0,1-.808.273A1.348,1.348,0,0,1,.742,6.546.8.8,0,0,1,.96,6.338a1.248,1.248,0,0,1,.961-.273,1.326,1.326,0,0,1,.906.491,1.348,1.348,0,0,1,0,1.7" transform="translate(361.241 238.158)" fill="#fff" stroke="#fff" stroke-width="0.4"/>
    <path id="Path_8355" data-name="Path 8355" d="M52.571,5.049A1.8,1.8,0,0,1,51.456,6a.347.347,0,0,0-.271.327v5.357h-.458V6.347A.37.37,0,0,0,50.449,6a1.788,1.788,0,0,1-.258-3.331c.317-.153.535-.213.535-.841V0h.458v1.83c0,.75.207.7.535.851a1.788,1.788,0,0,1,.851,2.369m-.579-1.627a1.011,1.011,0,0,0-.218-.207v.011a1.312,1.312,0,0,0-.808-.273,1.348,1.348,0,0,0-1.059,2.183.8.8,0,0,0,.218.207,1.248,1.248,0,0,0,.961.273,1.326,1.326,0,0,0,.906-.491,1.348,1.348,0,0,0,0-1.7" transform="translate(316.723 238.159)" fill="#fff" stroke="#fff" stroke-width="0.4"/>
    <path id="Path_8356" data-name="Path 8356" d="M101.737,6.633a1.8,1.8,0,0,0-1.115-.949.347.347,0,0,1-.271-.327V0h-.458V5.335a.37.37,0,0,1-.277.346,1.788,1.788,0,0,0-.258,3.331c.317.153.535.213.535.841v1.83h.458V9.854c0-.75.207-.7.535-.851a1.788,1.788,0,0,0,.851-2.369m-.578,1.627a1.017,1.017,0,0,1-.218.207V8.456a1.313,1.313,0,0,1-.808.273,1.348,1.348,0,0,1-1.059-2.183.8.8,0,0,1,.218-.207,1.248,1.248,0,0,1,.961-.273,1.326,1.326,0,0,1,.906.491,1.348,1.348,0,0,1,0,1.7" transform="translate(272.207 238.158)" fill="#fff" stroke="#fff" stroke-width="0.4"/>
    <path id="Path_8357" data-name="Path 8357" d="M150.9,5.049A1.8,1.8,0,0,1,149.789,6a.347.347,0,0,0-.271.327v5.357h-.458V6.347A.37.37,0,0,0,148.782,6a1.788,1.788,0,0,1-.258-3.331c.317-.153.535-.213.535-.841V0h.458v1.83c0,.75.207.7.535.851a1.788,1.788,0,0,1,.851,2.369m-.579-1.627a1.011,1.011,0,0,0-.218-.207v.011a1.312,1.312,0,0,0-.808-.273,1.348,1.348,0,0,0-1.059,2.183.8.8,0,0,0,.218.207,1.248,1.248,0,0,0,.961.273,1.326,1.326,0,0,0,.906-.491,1.348,1.348,0,0,0,0-1.7" transform="translate(227.688 238.159)" fill="#fff" stroke="#fff" stroke-width="0.4"/>
  </g>
</svg>
