<svg xmlns="http://www.w3.org/2000/svg" xmlns:xlink="http://www.w3.org/1999/xlink" width="40" height="40" viewBox="0 0 40 40">
  <defs>
    <clipPath id="clip-path">
      <rect id="Rectangle_1829" data-name="Rectangle 1829" width="40" height="40" transform="translate(350 225)" fill="#fff" stroke="#707070" stroke-width="1"/>
    </clipPath>
    <linearGradient id="linear-gradient" x1="1.483" y1="1.079" x2="-0.777" y2="-0.232" gradientUnits="objectBoundingBox">
      <stop offset="0" stop-color="#e6e6e6"/>
      <stop offset="1" stop-color="#c2c2c2"/>
    </linearGradient>
  </defs>
  <g id="button_40x40_-_white_fill" data-name="button 40x40 - white fill" transform="translate(-350 -225)" clip-path="url(#clip-path)">
    <path id="Path_7764" data-name="Path 7764" d="M18,0A18,18,0,1,1,0,18,18,18,0,0,1,18,0Z" transform="translate(352 226)" fill="url(#linear-gradient)"/>
    <path id="Union_26" data-name="Union 26" d="M18249.508,10070.686v-5.337a.373.373,0,0,0-.279-.348,1.788,1.788,0,0,1-.256-3.33c.316-.151.535-.211.535-.839V10059h.459v1.832c0,.747.205.7.531.848a1.782,1.782,0,0,1-.262,3.321.342.342,0,0,0-.27.325v5.359Zm-.818-8.218a1.366,1.366,0,0,0,0,1.672.771.771,0,0,0,.219.206,1.234,1.234,0,0,0,.957.271,1.32,1.32,0,0,0,.908-.49,1.354,1.354,0,0,0,0-1.7,1.226,1.226,0,0,0-.221-.206v.014a1.293,1.293,0,0,0-.807-.275A1.35,1.35,0,0,0,18248.689,10062.468Zm-3.83,8.218v-1.833c0-.627-.221-.687-.535-.838a1.836,1.836,0,0,1-.854-.852,1.793,1.793,0,0,1,1.109-2.483.365.365,0,0,0,.279-.343V10059h.457v5.359a.346.346,0,0,0,.271.325,1.777,1.777,0,0,1,.266,3.316c-.33.155-.537.1-.537.852v1.833Zm-.6-5.346a.869.869,0,0,0-.221.206,1.349,1.349,0,0,0,1.059,2.185,1.307,1.307,0,0,0,.811-.274v.009a.931.931,0,0,0,.215-.206,1.339,1.339,0,0,0,0-1.7,1.315,1.315,0,0,0-.9-.49,1.458,1.458,0,0,0-.158-.009A1.21,1.21,0,0,0,18244.26,10065.34Zm-4.051,5.346v-5.337a.371.371,0,0,0-.279-.348,1.788,1.788,0,0,1-.256-3.33c.316-.151.535-.211.535-.839V10059h.459v1.832c0,.747.207.7.535.848a1.78,1.78,0,0,1-.266,3.321.346.346,0,0,0-.27.325v5.359Zm-.818-8.218a1.366,1.366,0,0,0,0,1.672.858.858,0,0,0,.219.206,1.24,1.24,0,0,0,.963.271,1.315,1.315,0,0,0,.9-.49,1.354,1.354,0,0,0,0-1.7,1.159,1.159,0,0,0-.215-.206v.014a1.322,1.322,0,0,0-.812-.275A1.361,1.361,0,0,0,18239.391,10062.468Zm-3.83,8.218v-1.833c0-.627-.221-.687-.535-.838a1.836,1.836,0,0,1-.854-.852,1.792,1.792,0,0,1,1.109-2.483.365.365,0,0,0,.279-.343V10059h.459v5.359a.346.346,0,0,0,.27.325,1.777,1.777,0,0,1,.266,3.316c-.33.155-.535.1-.535.852v1.833Zm-.6-5.346a.869.869,0,0,0-.221.206,1.349,1.349,0,0,0,1.059,2.185,1.307,1.307,0,0,0,.811-.274v.009a.931.931,0,0,0,.215-.206,1.339,1.339,0,0,0,0-1.7,1.311,1.311,0,0,0-.9-.49,1.458,1.458,0,0,0-.158-.009A1.213,1.213,0,0,0,18234.961,10065.34Z" transform="translate(-17872.76 -9820.842)" stroke="#000" stroke-width="0.4"/>
  </g>
</svg>
