<svg xmlns="http://www.w3.org/2000/svg" xmlns:xlink="http://www.w3.org/1999/xlink" width="40" height="40" viewBox="0 0 40 40">
  <defs>
    <clipPath id="clip-path">
      <rect id="Rectangle_3142" data-name="Rectangle 3142" width="40" height="40" transform="translate(350 225)" fill="#fff" stroke="#707070" stroke-width="1"/>
    </clipPath>
    <linearGradient id="linear-gradient" x1="0.117" y1="0.107" x2="0.862" y2="0.932" gradientUnits="objectBoundingBox">
      <stop offset="0" stop-color="#ffbc45"/>
      <stop offset="0.733" stop-color="#f87b62"/>
      <stop offset="1" stop-color="#f16178"/>
    </linearGradient>
  </defs>
  <g id="button_40x40_-_white_fill" data-name="button 40x40 - white fill" transform="translate(-350 -225)" clip-path="url(#clip-path)">
    <path id="Path_8755" data-name="Path 8755" d="M18,0A18,18,0,1,1,0,18,18,18,0,0,1,18,0Z" transform="translate(352 225)" fill="url(#linear-gradient)"/>
    <g id="Group_6159" data-name="Group 6159" transform="translate(362.172 235.343)">
      <path id="Path_8726" data-name="Path 8726" d="M-2250.461,2737.082a1.376,1.376,0,0,0-1.382,1.374,1.385,1.385,0,0,0,1.371,1.376,1.376,1.376,0,0,0,1.378-1.363A1.368,1.368,0,0,0-2250.461,2737.082Zm0,1.833a.47.47,0,0,1-.463-.456.46.46,0,0,1,.455-.459.454.454,0,0,1,.46.452A.462.462,0,0,1-2250.463,2738.914Zm0,1.673a1.385,1.385,0,0,0-1.375,1.386,1.377,1.377,0,0,0,1.377,1.365,1.369,1.369,0,0,0,1.372-1.366A1.378,1.378,0,0,0-2250.468,2740.587Zm.006,1.833a.461.461,0,0,1-.464-.451.468.468,0,0,1,.454-.464.461.461,0,0,1,.461.454A.454.454,0,0,1-2250.462,2742.42Zm2.482-7.824a1.375,1.375,0,0,0-1.377,1.364,1.369,1.369,0,0,0,1.368,1.385,1.377,1.377,0,0,0,1.381-1.376A1.383,1.383,0,0,0-2247.98,2734.6Zm0,1.831a.454.454,0,0,1-.462-.45.461.461,0,0,1,.449-.466.469.469,0,0,1,.465.453A.46.46,0,0,1-2247.979,2736.427Zm.009,6.646a1.369,1.369,0,0,0-1.388,1.365,1.377,1.377,0,0,0,1.373,1.384,1.384,1.384,0,0,0,1.376-1.369A1.376,1.376,0,0,0-2247.97,2743.074Zm-.022,1.832a.461.461,0,0,1-.449-.467.453.453,0,0,1,.462-.448.46.46,0,0,1,.452.463A.469.469,0,0,1-2247.992,2744.906Zm3.523-10.311a1.386,1.386,0,0,0-1.382,1.378,1.377,1.377,0,0,0,1.37,1.372,1.369,1.369,0,0,0,1.38-1.375A1.377,1.377,0,0,0-2244.469,2734.595Zm-.018,1.832a.46.46,0,0,1-.447-.469.468.468,0,0,1,.472-.446.46.46,0,0,1,.442.472A.453.453,0,0,1-2244.487,2736.427Zm2.511.655a1.369,1.369,0,0,0-1.389,1.364,1.379,1.379,0,0,0,1.372,1.386,1.385,1.385,0,0,0,1.377-1.369A1.374,1.374,0,0,0-2241.977,2737.082Zm-.016,1.833a.462.462,0,0,1-.457-.459.456.456,0,0,1,.456-.457.46.46,0,0,1,.46.456A.47.47,0,0,1-2241.992,2738.914Zm.016-1.833a1.369,1.369,0,0,0-1.389,1.364,1.379,1.379,0,0,0,1.372,1.386,1.385,1.385,0,0,0,1.377-1.369A1.374,1.374,0,0,0-2241.977,2737.082Zm-.016,1.833a.462.462,0,0,1-.457-.459.456.456,0,0,1,.456-.457.46.46,0,0,1,.46.456A.47.47,0,0,1-2241.992,2738.914Zm-2.477-4.319a1.386,1.386,0,0,0-1.382,1.378,1.377,1.377,0,0,0,1.37,1.372,1.369,1.369,0,0,0,1.38-1.375A1.377,1.377,0,0,0-2244.469,2734.595Zm-.018,1.832a.46.46,0,0,1-.447-.469.468.468,0,0,1,.472-.446.46.46,0,0,1,.442.472A.453.453,0,0,1-2244.487,2736.427Zm-3.482,6.647a1.369,1.369,0,0,0-1.388,1.365,1.377,1.377,0,0,0,1.373,1.384,1.384,1.384,0,0,0,1.376-1.369A1.376,1.376,0,0,0-2247.97,2743.074Zm-.022,1.832a.461.461,0,0,1-.449-.467.453.453,0,0,1,.462-.448.46.46,0,0,1,.452.463A.469.469,0,0,1-2247.992,2744.906Zm.012-10.31a1.375,1.375,0,0,0-1.377,1.364,1.369,1.369,0,0,0,1.368,1.385,1.377,1.377,0,0,0,1.381-1.376A1.383,1.383,0,0,0-2247.98,2734.6Zm0,1.831a.454.454,0,0,1-.462-.45.461.461,0,0,1,.449-.466.469.469,0,0,1,.465.453A.46.46,0,0,1-2247.979,2736.427Zm-2.489,4.16a1.385,1.385,0,0,0-1.375,1.386,1.377,1.377,0,0,0,1.377,1.365,1.369,1.369,0,0,0,1.372-1.366A1.378,1.378,0,0,0-2250.468,2740.587Zm.006,1.833a.461.461,0,0,1-.464-.451.468.468,0,0,1,.454-.464.461.461,0,0,1,.461.454A.454.454,0,0,1-2250.462,2742.42Zm0-5.338a1.376,1.376,0,0,0-1.382,1.374,1.385,1.385,0,0,0,1.371,1.376,1.376,1.376,0,0,0,1.378-1.363A1.368,1.368,0,0,0-2250.461,2737.082Zm0,1.833a.47.47,0,0,1-.463-.456.46.46,0,0,1,.455-.459.454.454,0,0,1,.46.452A.462.462,0,0,1-2250.463,2738.914Zm0-1.833a1.376,1.376,0,0,0-1.382,1.374,1.385,1.385,0,0,0,1.371,1.376,1.376,1.376,0,0,0,1.378-1.363A1.368,1.368,0,0,0-2250.461,2737.082Zm0,1.833a.47.47,0,0,1-.463-.456.46.46,0,0,1,.455-.459.454.454,0,0,1,.46.452A.462.462,0,0,1-2250.463,2738.914Zm0,1.673a1.385,1.385,0,0,0-1.375,1.386,1.377,1.377,0,0,0,1.377,1.365,1.369,1.369,0,0,0,1.372-1.366A1.378,1.378,0,0,0-2250.468,2740.587Zm.006,1.833a.461.461,0,0,1-.464-.451.468.468,0,0,1,.454-.464.461.461,0,0,1,.461.454A.454.454,0,0,1-2250.462,2742.42Zm2.482-7.824a1.375,1.375,0,0,0-1.377,1.364,1.369,1.369,0,0,0,1.368,1.385,1.377,1.377,0,0,0,1.381-1.376A1.383,1.383,0,0,0-2247.98,2734.6Zm0,1.831a.454.454,0,0,1-.462-.45.461.461,0,0,1,.449-.466.469.469,0,0,1,.465.453A.46.46,0,0,1-2247.979,2736.427Zm.009,6.646a1.369,1.369,0,0,0-1.388,1.365,1.377,1.377,0,0,0,1.373,1.384,1.384,1.384,0,0,0,1.376-1.369A1.376,1.376,0,0,0-2247.97,2743.074Zm-.022,1.832a.461.461,0,0,1-.449-.467.453.453,0,0,1,.462-.448.46.46,0,0,1,.452.463A.469.469,0,0,1-2247.992,2744.906Zm3.523-10.311a1.386,1.386,0,0,0-1.382,1.378,1.377,1.377,0,0,0,1.37,1.372,1.369,1.369,0,0,0,1.38-1.375A1.377,1.377,0,0,0-2244.469,2734.595Zm-.018,1.832a.46.46,0,0,1-.447-.469.468.468,0,0,1,.472-.446.46.46,0,0,1,.442.472A.453.453,0,0,1-2244.487,2736.427Zm2.511.655a1.369,1.369,0,0,0-1.389,1.364,1.379,1.379,0,0,0,1.372,1.386,1.385,1.385,0,0,0,1.377-1.369A1.374,1.374,0,0,0-2241.977,2737.082Zm-.016,1.833a.462.462,0,0,1-.457-.459.456.456,0,0,1,.456-.457.46.46,0,0,1,.46.456A.47.47,0,0,1-2241.992,2738.914Zm.016-1.833a1.369,1.369,0,0,0-1.389,1.364,1.379,1.379,0,0,0,1.372,1.386,1.385,1.385,0,0,0,1.377-1.369A1.374,1.374,0,0,0-2241.977,2737.082Zm-.016,1.833a.462.462,0,0,1-.457-.459.456.456,0,0,1,.456-.457.46.46,0,0,1,.46.456A.47.47,0,0,1-2241.992,2738.914Zm-2.477-4.319a1.386,1.386,0,0,0-1.382,1.378,1.377,1.377,0,0,0,1.37,1.372,1.369,1.369,0,0,0,1.38-1.375A1.377,1.377,0,0,0-2244.469,2734.595Zm-.018,1.832a.46.46,0,0,1-.447-.469.468.468,0,0,1,.472-.446.46.46,0,0,1,.442.472A.453.453,0,0,1-2244.487,2736.427Zm-3.482,6.647a1.369,1.369,0,0,0-1.388,1.365,1.377,1.377,0,0,0,1.373,1.384,1.384,1.384,0,0,0,1.376-1.369A1.376,1.376,0,0,0-2247.97,2743.074Zm-.022,1.832a.461.461,0,0,1-.449-.467.453.453,0,0,1,.462-.448.46.46,0,0,1,.452.463A.469.469,0,0,1-2247.992,2744.906Zm.012-10.31a1.375,1.375,0,0,0-1.377,1.364,1.369,1.369,0,0,0,1.368,1.385,1.377,1.377,0,0,0,1.381-1.376A1.383,1.383,0,0,0-2247.98,2734.6Zm0,1.831a.454.454,0,0,1-.462-.45.461.461,0,0,1,.449-.466.469.469,0,0,1,.465.453A.46.46,0,0,1-2247.979,2736.427Zm-2.489,4.16a1.385,1.385,0,0,0-1.375,1.386,1.377,1.377,0,0,0,1.377,1.365,1.369,1.369,0,0,0,1.372-1.366A1.378,1.378,0,0,0-2250.468,2740.587Zm.006,1.833a.461.461,0,0,1-.464-.451.468.468,0,0,1,.454-.464.461.461,0,0,1,.461.454A.454.454,0,0,1-2250.462,2742.42Zm-.01-2.589a1.376,1.376,0,0,0,1.378-1.363,1.368,1.368,0,0,0-1.367-1.387,1.376,1.376,0,0,0-1.382,1.374A1.385,1.385,0,0,0-2250.473,2739.831Zm0-1.833a.454.454,0,0,1,.46.452.462.462,0,0,1-.452.464.47.47,0,0,1-.463-.456A.46.46,0,0,1-2250.471,2738Zm11.58-.514a7.7,7.7,0,0,0-6.167-5.015,7.962,7.962,0,0,0-2.281-.048,7.508,7.508,0,0,0-2.4.74,7.848,7.848,0,0,0-2.52,1.991,7.809,7.809,0,0,0-1.594,3.079,6.981,6.981,0,0,0-.208,1.3s-.034,1.016,0,1.429a6.839,6.839,0,0,0,.367,1.632,7.8,7.8,0,0,0,7.483,5.436,2.253,2.253,0,0,0,2.187-2.571,2.777,2.777,0,0,1,.068-1.225,2.633,2.633,0,0,1,2.945-1.826,2.243,2.243,0,0,0,2.6-2.286A7.2,7.2,0,0,0-2238.891,2737.484Zm-2.024,4.019a3.53,3.53,0,0,0-4.022,2.95,3.517,3.517,0,0,0,0,1.081,1.344,1.344,0,0,1-1.365,1.586,6.9,6.9,0,0,1-6.687-5.449,6.954,6.954,0,0,1-.153-1.26,6.975,6.975,0,0,1,5.262-6.915,6.906,6.906,0,0,1,8.235,4.612,6.816,6.816,0,0,1,.322,2.012A1.341,1.341,0,0,1-2240.916,2741.5Zm-1.061-4.421a1.369,1.369,0,0,0-1.389,1.364,1.379,1.379,0,0,0,1.372,1.386,1.385,1.385,0,0,0,1.377-1.369A1.374,1.374,0,0,0-2241.977,2737.082Zm-.016,1.833a.462.462,0,0,1-.457-.459.456.456,0,0,1,.456-.457.46.46,0,0,1,.46.456A.47.47,0,0,1-2241.992,2738.914Zm-2.477-4.319a1.386,1.386,0,0,0-1.382,1.378,1.377,1.377,0,0,0,1.37,1.372,1.369,1.369,0,0,0,1.38-1.375A1.377,1.377,0,0,0-2244.469,2734.595Zm-.018,1.832a.46.46,0,0,1-.447-.469.468.468,0,0,1,.472-.446.46.46,0,0,1,.442.472A.453.453,0,0,1-2244.487,2736.427Zm-3.482,6.647a1.369,1.369,0,0,0-1.388,1.365,1.377,1.377,0,0,0,1.373,1.384,1.384,1.384,0,0,0,1.376-1.369A1.376,1.376,0,0,0-2247.97,2743.074Zm-.022,1.832a.461.461,0,0,1-.449-.467.453.453,0,0,1,.462-.448.46.46,0,0,1,.452.463A.469.469,0,0,1-2247.992,2744.906Zm.012-10.31a1.375,1.375,0,0,0-1.377,1.364,1.369,1.369,0,0,0,1.368,1.385,1.377,1.377,0,0,0,1.381-1.376A1.383,1.383,0,0,0-2247.98,2734.6Zm0,1.831a.454.454,0,0,1-.462-.45.461.461,0,0,1,.449-.466.469.469,0,0,1,.465.453A.46.46,0,0,1-2247.979,2736.427Zm-2.489,4.16a1.385,1.385,0,0,0-1.375,1.386,1.377,1.377,0,0,0,1.377,1.365,1.369,1.369,0,0,0,1.372-1.366A1.378,1.378,0,0,0-2250.468,2740.587Zm.006,1.833a.461.461,0,0,1-.464-.451.468.468,0,0,1,.454-.464.461.461,0,0,1,.461.454A.454.454,0,0,1-2250.462,2742.42Zm-.01-2.589a1.376,1.376,0,0,0,1.378-1.363,1.368,1.368,0,0,0-1.367-1.387,1.376,1.376,0,0,0-1.382,1.374A1.385,1.385,0,0,0-2250.473,2739.831Zm0-1.833a.454.454,0,0,1,.46.452.462.462,0,0,1-.452.464.47.47,0,0,1-.463-.456A.46.46,0,0,1-2250.471,2738Zm.01-.917a1.376,1.376,0,0,0-1.382,1.374,1.385,1.385,0,0,0,1.371,1.376,1.376,1.376,0,0,0,1.378-1.363A1.368,1.368,0,0,0-2250.461,2737.082Zm0,1.833a.47.47,0,0,1-.463-.456.46.46,0,0,1,.455-.459.454.454,0,0,1,.46.452A.462.462,0,0,1-2250.463,2738.914Zm0,1.673a1.385,1.385,0,0,0-1.375,1.386,1.377,1.377,0,0,0,1.377,1.365,1.369,1.369,0,0,0,1.372-1.366A1.378,1.378,0,0,0-2250.468,2740.587Zm.006,1.833a.461.461,0,0,1-.464-.451.468.468,0,0,1,.454-.464.461.461,0,0,1,.461.454A.454.454,0,0,1-2250.462,2742.42Zm2.482-7.824a1.375,1.375,0,0,0-1.377,1.364,1.369,1.369,0,0,0,1.368,1.385,1.377,1.377,0,0,0,1.381-1.376A1.383,1.383,0,0,0-2247.98,2734.6Zm0,1.831a.454.454,0,0,1-.462-.45.461.461,0,0,1,.449-.466.469.469,0,0,1,.465.453A.46.46,0,0,1-2247.979,2736.427Zm.009,6.646a1.369,1.369,0,0,0-1.388,1.365,1.377,1.377,0,0,0,1.373,1.384,1.384,1.384,0,0,0,1.376-1.369A1.376,1.376,0,0,0-2247.97,2743.074Zm-.022,1.832a.461.461,0,0,1-.449-.467.453.453,0,0,1,.462-.448.46.46,0,0,1,.452.463A.469.469,0,0,1-2247.992,2744.906Zm3.523-10.311a1.386,1.386,0,0,0-1.382,1.378,1.377,1.377,0,0,0,1.37,1.372,1.369,1.369,0,0,0,1.38-1.375A1.377,1.377,0,0,0-2244.469,2734.595Zm-.018,1.832a.46.46,0,0,1-.447-.469.468.468,0,0,1,.472-.446.46.46,0,0,1,.442.472A.453.453,0,0,1-2244.487,2736.427Zm2.511.655a1.369,1.369,0,0,0-1.389,1.364,1.379,1.379,0,0,0,1.372,1.386,1.385,1.385,0,0,0,1.377-1.369A1.374,1.374,0,0,0-2241.977,2737.082Zm-.016,1.833a.462.462,0,0,1-.457-.459.456.456,0,0,1,.456-.457.46.46,0,0,1,.46.456A.47.47,0,0,1-2241.992,2738.914Zm.016-1.833a1.369,1.369,0,0,0-1.389,1.364,1.379,1.379,0,0,0,1.372,1.386,1.385,1.385,0,0,0,1.377-1.369A1.374,1.374,0,0,0-2241.977,2737.082Zm-.016,1.833a.462.462,0,0,1-.457-.459.456.456,0,0,1,.456-.457.46.46,0,0,1,.46.456A.47.47,0,0,1-2241.992,2738.914Zm-2.477-4.319a1.386,1.386,0,0,0-1.382,1.378,1.377,1.377,0,0,0,1.37,1.372,1.369,1.369,0,0,0,1.38-1.375A1.377,1.377,0,0,0-2244.469,2734.595Zm-.018,1.832a.46.46,0,0,1-.447-.469.468.468,0,0,1,.472-.446.46.46,0,0,1,.442.472A.453.453,0,0,1-2244.487,2736.427Zm-3.482,6.647a1.369,1.369,0,0,0-1.388,1.365,1.377,1.377,0,0,0,1.373,1.384,1.384,1.384,0,0,0,1.376-1.369A1.376,1.376,0,0,0-2247.97,2743.074Zm-.022,1.832a.461.461,0,0,1-.449-.467.453.453,0,0,1,.462-.448.46.46,0,0,1,.452.463A.469.469,0,0,1-2247.992,2744.906Zm.012-10.31a1.375,1.375,0,0,0-1.377,1.364,1.369,1.369,0,0,0,1.368,1.385,1.377,1.377,0,0,0,1.381-1.376A1.383,1.383,0,0,0-2247.98,2734.6Zm0,1.831a.454.454,0,0,1-.462-.45.461.461,0,0,1,.449-.466.469.469,0,0,1,.465.453A.46.46,0,0,1-2247.979,2736.427Zm-2.489,4.16a1.385,1.385,0,0,0-1.375,1.386,1.377,1.377,0,0,0,1.377,1.365,1.369,1.369,0,0,0,1.372-1.366A1.378,1.378,0,0,0-2250.468,2740.587Zm.006,1.833a.461.461,0,0,1-.464-.451.468.468,0,0,1,.454-.464.461.461,0,0,1,.461.454A.454.454,0,0,1-2250.462,2742.42Zm0-5.338a1.376,1.376,0,0,0-1.382,1.374,1.385,1.385,0,0,0,1.371,1.376,1.376,1.376,0,0,0,1.378-1.363A1.368,1.368,0,0,0-2250.461,2737.082Zm0,1.833a.47.47,0,0,1-.463-.456.46.46,0,0,1,.455-.459.454.454,0,0,1,.46.452A.462.462,0,0,1-2250.463,2738.914Z" transform="translate(2254.072 -2732.356)" fill="#fcfcfc"/>
      <path id="Path_8727" data-name="Path 8727" d="M-2179.973,2807.9a1.375,1.375,0,0,0-1.382,1.375,1.385,1.385,0,0,0,1.371,1.375,1.376,1.376,0,0,0,1.379-1.363A1.368,1.368,0,0,0-2179.973,2807.9Zm0,1.833a.471.471,0,0,1-.463-.456.462.462,0,0,1,.455-.46.456.456,0,0,1,.46.453A.462.462,0,0,1-2179.975,2809.737Zm0,1.673a1.386,1.386,0,0,0-1.375,1.385,1.377,1.377,0,0,0,1.377,1.366,1.37,1.37,0,0,0,1.372-1.367A1.377,1.377,0,0,0-2179.979,2811.41Zm.006,1.833a.462.462,0,0,1-.465-.451.469.469,0,0,1,.454-.464.461.461,0,0,1,.461.454A.454.454,0,0,1-2179.973,2813.243Zm2.482-7.825a1.377,1.377,0,0,0-1.377,1.364,1.37,1.37,0,0,0,1.368,1.386,1.376,1.376,0,0,0,1.381-1.376A1.384,1.384,0,0,0-2177.491,2805.418Zm0,1.832a.454.454,0,0,1-.462-.45.461.461,0,0,1,.449-.465.468.468,0,0,1,.465.453A.46.46,0,0,1-2177.49,2807.25Zm.01,6.646a1.37,1.37,0,0,0-1.389,1.366,1.376,1.376,0,0,0,1.373,1.383,1.384,1.384,0,0,0,1.376-1.369A1.376,1.376,0,0,0-2177.481,2813.9Zm-.023,1.833a.461.461,0,0,1-.448-.466.453.453,0,0,1,.463-.449.459.459,0,0,1,.452.462A.469.469,0,0,1-2177.5,2815.729Zm3.523-10.311a1.385,1.385,0,0,0-1.382,1.378,1.376,1.376,0,0,0,1.37,1.372,1.369,1.369,0,0,0,1.38-1.375A1.376,1.376,0,0,0-2173.98,2805.418Zm-.019,1.832a.459.459,0,0,1-.446-.468.467.467,0,0,1,.471-.446.459.459,0,0,1,.443.472A.452.452,0,0,1-2174,2807.25Zm2.51.655a1.369,1.369,0,0,0-1.389,1.365,1.378,1.378,0,0,0,1.373,1.385,1.384,1.384,0,0,0,1.377-1.369A1.376,1.376,0,0,0-2171.489,2807.9Zm-.014,1.833a.461.461,0,0,1-.457-.458.454.454,0,0,1,.455-.458.461.461,0,0,1,.46.456A.471.471,0,0,1-2171.5,2809.737Z" transform="translate(2183.584 -2803.179)" fill="#fcfcfc"/>
      <path id="Path_8728" data-name="Path 8728" d="M-2098.858,2805.428a1.374,1.374,0,0,0-1.377,1.363,1.369,1.369,0,0,0,1.368,1.386,1.376,1.376,0,0,0,1.381-1.376A1.383,1.383,0,0,0-2098.858,2805.428Zm0,1.832a.454.454,0,0,1-.462-.45.46.46,0,0,1,.449-.465.469.469,0,0,1,.466.453A.461.461,0,0,1-2098.856,2807.26Z" transform="translate(2104.95 -2803.189)" fill="#fcfcfc"/>
      <path id="Path_8729" data-name="Path 8729" d="M-2098.856,3082.066a1.369,1.369,0,0,0-1.388,1.366,1.376,1.376,0,0,0,1.373,1.383,1.383,1.383,0,0,0,1.376-1.369A1.375,1.375,0,0,0-2098.856,3082.066Zm-.022,1.832a.461.461,0,0,1-.449-.466.453.453,0,0,1,.463-.448.46.46,0,0,1,.453.462A.469.469,0,0,1-2098.878,3083.9Z" transform="translate(2104.958 -3071.348)" fill="#fcfcfc"/>
      <path id="Path_8730" data-name="Path 8730" d="M-2179.97,2886.529a1.377,1.377,0,0,0-1.382,1.375,1.384,1.384,0,0,0,1.37,1.374,1.375,1.375,0,0,0,1.379-1.363A1.368,1.368,0,0,0-2179.97,2886.529Zm0,1.833a.469.469,0,0,1-.462-.456.46.46,0,0,1,.455-.459.454.454,0,0,1,.46.452A.463.463,0,0,1-2179.973,2888.362Z" transform="translate(2183.58 -2881.803)" fill="#fcfcfc"/>
      <path id="Path_8731" data-name="Path 8731" d="M-1903.335,2886.546a1.369,1.369,0,0,0-1.389,1.364,1.379,1.379,0,0,0,1.373,1.385,1.384,1.384,0,0,0,1.377-1.369A1.374,1.374,0,0,0-1903.335,2886.546Zm-.015,1.832a.462.462,0,0,1-.457-.459.455.455,0,0,1,.455-.458.461.461,0,0,1,.46.455A.47.47,0,0,1-1903.35,2888.378Z" transform="translate(1915.431 -2881.82)" fill="#fcfcfc"/>
      <path id="Path_8732" data-name="Path 8732" d="M-2179.979,3000.93a1.385,1.385,0,0,0-1.375,1.385,1.378,1.378,0,0,0,1.377,1.366,1.37,1.37,0,0,0,1.372-1.367A1.378,1.378,0,0,0-2179.979,3000.93Zm.006,1.833a.462.462,0,0,1-.465-.451.469.469,0,0,1,.454-.465.462.462,0,0,1,.461.455A.455.455,0,0,1-2179.973,3002.763Z" transform="translate(2183.584 -2992.699)" fill="#fcfcfc"/>
      <path id="Path_8733" data-name="Path 8733" d="M-1984.459,2805.418a1.386,1.386,0,0,0-1.383,1.378,1.378,1.378,0,0,0,1.371,1.372,1.368,1.368,0,0,0,1.379-1.375A1.376,1.376,0,0,0-1984.459,2805.418Zm-.019,1.832a.46.46,0,0,1-.447-.468.468.468,0,0,1,.472-.446.459.459,0,0,1,.442.472A.452.452,0,0,1-1984.478,2807.25Z" transform="translate(1994.063 -2803.179)" fill="#fcfcfc"/>
      <path id="Path_8761" data-name="Path 8761" d="M2,1.726V2.733a.575.575,0,1,0,1.151,0V1.726a.576.576,0,0,1,.575-.575h.863A.575.575,0,0,0,4.589,0H3.726A1.728,1.728,0,0,0,2,1.726Z" transform="translate(-2.65 -0.631)" fill="#fcfcfc"/>
      <path id="Path_8762" data-name="Path 8762" d="M3.726,11.558h.863a.575.575,0,0,0,0-1.151H3.726a.576.576,0,0,1-.575-.575V8.825A.575.575,0,1,0,2,8.825V9.832A1.728,1.728,0,0,0,3.726,11.558Z" transform="translate(-2.65 4.387)" fill="#fcfcfc"/>
      <path id="Path_8763" data-name="Path 8763" d="M19.664,1.726A1.728,1.728,0,0,0,17.938,0h-.863a.575.575,0,0,0,0,1.151h.863a.576.576,0,0,1,.575.575V2.733a.575.575,0,1,0,1.151,0Z" transform="translate(-3.358 -0.631)" fill="#fcfcfc"/>
      <path id="Path_8764" data-name="Path 8764" d="M19.664,9.832V8.825a.575.575,0,1,0-1.151,0V9.832a.576.576,0,0,1-.575.575h-.863a.575.575,0,0,0,0,1.151h.863A1.728,1.728,0,0,0,19.664,9.832Z" transform="translate(-3.358 4.387)" fill="#fcfcfc"/>
    </g>
  </g>
</svg>
