<svg xmlns="http://www.w3.org/2000/svg" xmlns:xlink="http://www.w3.org/1999/xlink" width="40" height="40" viewBox="0 0 40 40">
  <defs>
    <clipPath id="clip-path">
      <rect id="Rectangle_3130" data-name="Rectangle 3130" width="40" height="40" transform="translate(350 225)" fill="#fff" stroke="#707070" stroke-width="1"/>
    </clipPath>
    <linearGradient id="linear-gradient" x1="1.483" y1="1.079" x2="-0.777" y2="-0.232" gradientUnits="objectBoundingBox">
      <stop offset="0" stop-color="#e6e6e6"/>
      <stop offset="1" stop-color="#c2c2c2"/>
    </linearGradient>
  </defs>
  <g id="button_40x40_-_white_fill" data-name="button 40x40 - white fill" transform="translate(-350 -225)" clip-path="url(#clip-path)">
    <path id="Path_8711" data-name="Path 8711" d="M18,0A18,18,0,1,1,0,18,18,18,0,0,1,18,0Z" transform="translate(352 226)" fill="url(#linear-gradient)"/>
    <g id="face_3342269" transform="translate(361.322 235.987)">
      <path id="Exclusion_1" data-name="Exclusion 1" d="M10795.079,8650.014a3.5,3.5,0,0,1-3.5-3.5,3.553,3.553,0,0,1,.033-.484h-3.856a.5.5,0,1,1,0-1h4.153a3.494,3.494,0,0,0-.3,1h6.931a3.436,3.436,0,0,0-.3-1h4.509a.5.5,0,1,1,0,1h-4.212a3.5,3.5,0,0,1-3.464,3.985Zm3.167-4.985h-6.337a3.5,3.5,0,0,1,6.336,0Z" transform="translate(-10786.578 -8641.014)"/>
      <path id="Path_8712" data-name="Path 8712" d="M3.5,21.01H14.519a.5.5,0,0,0,.5-.5V18.172A3.176,3.176,0,0,0,11.848,15H6.172A3.176,3.176,0,0,0,3,18.172v2.337A.5.5,0,0,0,3.5,21.01Z" transform="translate(-0.332 -3.983)"/>
      <path id="Path_8713" data-name="Path 8713" d="M2,2V3.172a.668.668,0,0,0,1.336,0V2A.668.668,0,0,1,4,1.336H5A.668.668,0,1,0,5,0H4A2.006,2.006,0,0,0,2,2Z" transform="translate(-1 -1)"/>
      <path id="Path_8714" data-name="Path 8714" d="M4,12.09H5a.668.668,0,1,0,0-1.336H4a.668.668,0,0,1-.668-.668V8.918A.668.668,0,0,0,2,8.918v1.169A2.006,2.006,0,0,0,4,12.09Z" transform="translate(-1 -1.741)"/>
      <path id="Path_8715" data-name="Path 8715" d="M20.173,2a2.006,2.006,0,0,0-2-2h-1a.668.668,0,1,0,0,1.336h1A.668.668,0,0,1,18.837,2V3.172a.668.668,0,1,0,1.336,0Z" transform="translate(-3.817 -1)"/>
      <path id="Path_8716" data-name="Path 8716" d="M20.173,10.086V8.918a.668.668,0,1,0-1.336,0v1.169a.668.668,0,0,1-.668.668h-1a.668.668,0,1,0,0,1.336h1A2.006,2.006,0,0,0,20.173,10.086Z" transform="translate(-3.817 -1.741)"/>
    </g>
  </g>
</svg>
