<svg xmlns="http://www.w3.org/2000/svg" xmlns:xlink="http://www.w3.org/1999/xlink" width="40" height="40" viewBox="0 0 40 40">
  <defs>
    <clipPath id="clip-path">
      <rect id="Rectangle_1829" data-name="Rectangle 1829" width="40" height="40" transform="translate(350 225)" fill="#fff" stroke="#707070" stroke-width="1"/>
    </clipPath>
    <linearGradient id="linear-gradient" x1="0.117" y1="0.107" x2="0.862" y2="0.932" gradientUnits="objectBoundingBox">
      <stop offset="0" stop-color="#ffbc45"/>
      <stop offset="0.733" stop-color="#f87b62"/>
      <stop offset="1" stop-color="#f16178"/>
    </linearGradient>
    <clipPath id="clip-path-2">
      <rect id="Rectangle_2671" data-name="Rectangle 2671" width="8.933" height="19.142" fill="#fff"/>
    </clipPath>
  </defs>
  <g id="button_40x40_-_white_fill" data-name="button 40x40 - white fill" transform="translate(-350 -225)" clip-path="url(#clip-path)">
    <path id="Path_7764" data-name="Path 7764" d="M18,0A18,18,0,1,1,0,18,18,18,0,0,1,18,0Z" transform="translate(352 226)" fill="url(#linear-gradient)"/>
    <g id="Group_5504" data-name="Group 5504" transform="translate(365.535 234.43)">
      <g id="Group_5504-2" data-name="Group 5504" clip-path="url(#clip-path-2)">
        <path id="Path_8318" data-name="Path 8318" d="M7.807,2.4H7.432V1.126A1.127,1.127,0,0,0,6.306,0H2.627A1.127,1.127,0,0,0,1.5,1.126V2.4H1.126A1.127,1.127,0,0,0,0,3.528V18.016a1.127,1.127,0,0,0,1.126,1.126H7.807a1.127,1.127,0,0,0,1.126-1.126V3.528A1.127,1.127,0,0,0,7.807,2.4M2.627,1.126H6.306V2.4H2.627Zm5.18,16.89H1.126V3.528H7.807c0,14.783,0,14.488,0,14.488" fill="#fff"/>
        <path id="Path_8319" data-name="Path 8319" d="M67.818,130h-.938v-.938a.563.563,0,1,0-1.126,0V130h-.938a.563.563,0,1,0,0,1.126h.938v.938a.563.563,0,0,0,1.126,0v-.938h.938a.563.563,0,1,0,0-1.126" transform="translate(-61.85 -123.698)" fill="#fff"/>
        <path id="Path_8320" data-name="Path 8320" d="M67.818,417.631h-3a.563.563,0,0,0,0,1.126h3a.563.563,0,0,0,0-1.126" transform="translate(-61.85 -402.017)" fill="#fff"/>
      </g>
    </g>
  </g>
</svg>
