<svg xmlns="http://www.w3.org/2000/svg" xmlns:xlink="http://www.w3.org/1999/xlink" width="52" height="52" viewBox="0 0 52 52">
  <defs>
    <clipPath id="clip-path">
      <rect id="Rectangle_2749" data-name="Rectangle 2749" width="52" height="52" transform="translate(29 39)" fill="#25245e" stroke="#707070" stroke-width="1"/>
    </clipPath>
  </defs>
  <g id="button_48x48_-_stroke" data-name="button 48x48 - stroke" transform="translate(-29 -39)" clip-path="url(#clip-path)">
    <g id="Group_6203" data-name="Group 6203" transform="translate(-822 -129)">
      <circle id="Ellipse_799" data-name="Ellipse 799" cx="19" cy="19" r="19" transform="translate(858 172)" fill="#25245e" opacity="0.35"/>
      <g id="Ellipse_800" data-name="Ellipse 800" transform="translate(857 168)" fill="#25245e" stroke="#25245e" stroke-width="1">
        <circle cx="20" cy="20" r="20" stroke="none"/>
        <circle cx="20" cy="20" r="19.5" fill="none"/>
      </g>
      <path id="layout_9950482" d="M11.04-.134a3.381,3.381,0,1,0,3.381,3.381A3.381,3.381,0,0,0,11.04-.134Zm0,5.853a2.472,2.472,0,1,1,2.472-2.472A2.472,2.472,0,0,1,11.04,5.719Zm2.553,1.943H8.486a.825.825,0,0,0-.824.824v5.107a.825.825,0,0,0,.824.824h5.107a.825.825,0,0,0,.824-.824V8.486A.825.825,0,0,0,13.593,7.662Zm-.085,5.845H8.572V8.572h4.936ZM.694,6.624H5.8A.825.825,0,0,0,6.624,5.8V.694A.825.825,0,0,0,5.8-.13H.694A.825.825,0,0,0-.13.694V5.8a.825.825,0,0,0,.824.824ZM.779.779H5.715V5.715H.779ZM3.247,14.421A3.381,3.381,0,1,0-.134,11.04a3.381,3.381,0,0,0,3.381,3.381Zm0-5.853A2.472,2.472,0,1,1,.775,11.04,2.472,2.472,0,0,1,3.247,8.568Z" transform="translate(869.857 180.856)" fill="#fff" stroke="#fff" stroke-width="0.2"/>
    </g>
  </g>
</svg>
