<svg xmlns="http://www.w3.org/2000/svg" xmlns:xlink="http://www.w3.org/1999/xlink" width="240" height="240" viewBox="0 0 240 240"><defs><clipPath id="a"><rect width="240" height="240" transform="translate(604.999 267)" fill="#fff" stroke="#707070" stroke-width="1"/></clipPath><filter id="b" x="-0.118" y="16.169" width="264.395" height="245.705" filterUnits="userSpaceOnUse"><feOffset dx="12" dy="12" input="SourceAlpha"/><feGaussianBlur stdDeviation="10" result="c"/><feFlood flood-color="#171d1a" flood-opacity="0.071"/><feComposite operator="in" in2="c"/><feComposite in="SourceGraphic"/></filter><filter id="d" x="1.001" y="17.287" width="228.158" height="209.468" filterUnits="userSpaceOnUse"><feOffset dx="-5" dy="-5" input="SourceAlpha"/><feGaussianBlur stdDeviation="10" result="e"/><feFlood flood-color="#fff" flood-opacity="0.149"/><feComposite operator="in" in2="e"/><feComposite in="SourceGraphic"/></filter><linearGradient id="f" x1="-0.571" y1="0.301" x2="0.776" y2="0.456" gradientUnits="objectBoundingBox"><stop offset="0" stop-color="#e7e7e7"/><stop offset="1" stop-color="#fcfcfc"/></linearGradient><linearGradient id="g" x1="0.5" x2="0.5" y2="1" gradientUnits="objectBoundingBox"><stop offset="0" stop-color="#ffbc45"/><stop offset="1" stop-color="#ffb32c"/></linearGradient></defs><g transform="translate(-604.999 -267)" clip-path="url(#a)"><g transform="translate(-56.682 -800.183)"><g transform="matrix(0.995, -0.105, 0.105, 0.995, 697.682, 1135.672)"><g transform="matrix(0.99, 0.1, -0.1, 0.99, -28.64, -71.88)" filter="url(#b)"><rect width="155" height="134" rx="25" transform="matrix(0.99, -0.1, 0.1, 0.99, 36, 68.49)" fill="#fcfcfc"/></g><g transform="matrix(0.99, 0.1, -0.1, 0.99, -28.64, -71.88)" filter="url(#d)"><rect width="155" height="134" rx="25" transform="matrix(0.99, -0.1, 0.1, 0.99, 36, 68.49)" fill="#fcfcfc"/></g><g stroke="#fcfcfc" stroke-width="1.5" fill="url(#f)"><rect width="155" height="134" rx="25" stroke="none"/><rect x="0.75" y="0.75" width="153.5" height="132.5" rx="24.25" fill="none"/></g></g><g transform="translate(6 943.203)"><g transform="translate(0 9.744)" opacity="0.3"><path d="M522.438,67.843H505.855l-1.719-5.172a6.505,6.505,0,0,0-6.175-4.44H482.444a6.49,6.49,0,0,0-6.175,4.44l-1.735,5.172h-5.109V63.116a4.9,4.9,0,0,0-4.886-4.886h-3.215a4.9,4.9,0,0,0-4.9,4.886V67.97l-.525.143a8.107,8.107,0,0,0-6.048,7.846v41.7a8.117,8.117,0,0,0,8.1,8.117h64.487a8.13,8.13,0,0,0,8.117-8.117v-41.7A8.13,8.13,0,0,0,522.438,67.843Zm-62.625-4.727a1.522,1.522,0,0,1,1.512-1.512h3.215a1.522,1.522,0,0,1,1.512,1.512v4.727h-6.239Zm67.352,54.54a4.727,4.727,0,0,1-4.727,4.727H457.951a4.724,4.724,0,0,1-4.711-4.727v-41.7a4.724,4.724,0,0,1,4.711-4.727h17.809a1.677,1.677,0,0,0,1.607-1.162l2.117-6.334a3.116,3.116,0,0,1,2.96-2.133h15.517a3.131,3.131,0,0,1,2.96,2.133l2.117,6.334a1.672,1.672,0,0,0,1.592,1.162h17.809a4.727,4.727,0,0,1,4.727,4.727Z" transform="translate(276.129 103.749)" fill="url(#g)"/><path d="M521.178,69.979H503.369a1.672,1.672,0,0,1-1.592-1.162l-2.117-6.334a3.131,3.131,0,0,0-2.96-2.133H481.184a3.116,3.116,0,0,0-2.96,2.133l-2.117,6.334a1.677,1.677,0,0,1-1.607,1.162H456.691a4.724,4.724,0,0,0-4.711,4.727v41.7a4.724,4.724,0,0,0,4.711,4.727h64.487A4.727,4.727,0,0,0,525.9,116.4v-41.7A4.727,4.727,0,0,0,521.178,69.979Zm-56.307,9.628h-4.806a1.695,1.695,0,0,1,0-3.39h4.806a1.695,1.695,0,1,1,0,3.39Zm24.063,35.283a20.944,20.944,0,1,1,20.944-20.944A20.971,20.971,0,0,1,488.935,114.89ZM517.82,79.607a1.695,1.695,0,1,1,1.687-1.7A1.7,1.7,0,0,1,517.82,79.607Z" transform="translate(277.39 105.002)" fill="url(#g)"/><path d="M481.724,70.43a17.562,17.562,0,1,0,17.554,17.554A17.578,17.578,0,0,0,481.724,70.43Zm0,28.885A11.323,11.323,0,1,1,493.04,87.984,11.343,11.343,0,0,1,481.724,99.315Z" transform="translate(284.6 110.965)" fill="url(#g)"/></g><g transform="translate(719.65 161.979)"><path d="M526.462,68.375h-17.5l-1.814-5.459a6.866,6.866,0,0,0-6.517-4.686H484.251a6.85,6.85,0,0,0-6.517,4.686L475.9,68.375h-5.392V63.387a5.169,5.169,0,0,0-5.157-5.157h-3.393a5.172,5.172,0,0,0-5.174,5.157V68.51l-.554.151a8.556,8.556,0,0,0-6.383,8.281v44.009a8.567,8.567,0,0,0,8.55,8.567h68.062a8.581,8.581,0,0,0,8.567-8.567V76.942A8.581,8.581,0,0,0,526.462,68.375Zm-66.1-4.989a1.606,1.606,0,0,1,1.6-1.6h3.393a1.606,1.606,0,0,1,1.6,1.6v4.989h-6.585Zm71.086,57.564a4.989,4.989,0,0,1-4.989,4.989H458.4a4.986,4.986,0,0,1-4.972-4.989V76.942a4.986,4.986,0,0,1,4.972-4.989h18.8a1.77,1.77,0,0,0,1.7-1.226l2.234-6.685a3.289,3.289,0,0,1,3.124-2.251h16.377a3.3,3.3,0,0,1,3.124,2.251l2.234,6.685a1.764,1.764,0,0,0,1.68,1.226h18.8a4.989,4.989,0,0,1,4.989,4.989Z" transform="translate(-449.85 -58.23)" fill="url(#g)"/><path d="M525.014,70.512h-18.8a1.764,1.764,0,0,1-1.68-1.226L502.3,62.6a3.3,3.3,0,0,0-3.124-2.251H482.8a3.289,3.289,0,0,0-3.124,2.251l-2.234,6.685a1.77,1.77,0,0,1-1.7,1.226h-18.8A4.986,4.986,0,0,0,451.98,75.5V119.51a4.986,4.986,0,0,0,4.972,4.989h68.062A4.989,4.989,0,0,0,530,119.51V75.5A4.989,4.989,0,0,0,525.014,70.512ZM465.586,80.675h-5.073a1.789,1.789,0,0,1,0-3.578h5.073a1.789,1.789,0,1,1,0,3.578Zm25.4,37.239a22.105,22.105,0,1,1,22.105-22.105A22.133,22.133,0,0,1,490.983,117.914ZM521.47,80.675a1.789,1.789,0,1,1,1.781-1.8A1.8,1.8,0,0,1,521.47,80.675Z" transform="translate(-448.402 -56.789)" fill="url(#g)"/><path d="M482.7,70.43a18.536,18.536,0,1,0,18.527,18.527A18.553,18.553,0,0,0,482.7,70.43Zm0,30.487a11.951,11.951,0,1,1,11.943-11.96A11.972,11.972,0,0,1,482.7,100.917Z" transform="translate(-440.116 -49.937)" fill="url(#g)"/></g></g></g></g></svg>