<svg xmlns="http://www.w3.org/2000/svg" xmlns:xlink="http://www.w3.org/1999/xlink" width="36" height="36" viewBox="0 0 36 36"><defs><linearGradient id="a" x1="0.117" y1="0.107" x2="0.862" y2="0.932" gradientUnits="objectBoundingBox"><stop offset="0" stop-color="#ffbc45"/><stop offset="0.733" stop-color="#f87b62"/><stop offset="1" stop-color="#f16178"/></linearGradient></defs><g transform="translate(22229.5 8310)"><path d="M18,0A18,18,0,1,1,0,18,18,18,0,0,1,18,0Z" transform="translate(-22229.5 -8310)" fill="url(#a)"/><g transform="translate(-22269.025 -8353.125)"><path d="M-2249.015,2738.974a1.927,1.927,0,0,0-1.936,1.925,1.941,1.941,0,0,0,1.919,1.927,1.927,1.927,0,0,0,1.931-1.909A1.915,1.915,0,0,0-2249.015,2738.974Zm0,2.567a.658.658,0,0,1-.648-.638.644.644,0,0,1,.637-.644.636.636,0,0,1,.644.633A.647.647,0,0,1-2249.018,2741.541Zm-.006,2.343a1.94,1.94,0,0,0-1.927,1.941,1.929,1.929,0,0,0,1.929,1.912,1.918,1.918,0,0,0,1.921-1.914A1.929,1.929,0,0,0-2249.024,2743.884Zm.008,2.567a.646.646,0,0,1-.65-.632.657.657,0,0,1,.636-.65.645.645,0,0,1,.646.636A.636.636,0,0,1-2249.017,2746.451Zm3.477-10.958a1.926,1.926,0,0,0-1.929,1.91,1.917,1.917,0,0,0,1.916,1.94,1.928,1.928,0,0,0,1.934-1.928A1.937,1.937,0,0,0-2245.54,2735.493Zm0,2.565a.635.635,0,0,1-.647-.629.646.646,0,0,1,.63-.652.657.657,0,0,1,.651.635A.644.644,0,0,1-2245.538,2738.058Zm.013,9.309a1.917,1.917,0,0,0-1.944,1.912,1.928,1.928,0,0,0,1.923,1.939,1.938,1.938,0,0,0,1.927-1.917A1.927,1.927,0,0,0-2245.525,2747.366Zm-.03,2.566a.645.645,0,0,1-.629-.653.635.635,0,0,1,.647-.628.645.645,0,0,1,.634.648A.656.656,0,0,1-2245.556,2749.933Zm4.933-14.441a1.94,1.94,0,0,0-1.936,1.93,1.929,1.929,0,0,0,1.919,1.921,1.917,1.917,0,0,0,1.933-1.926A1.928,1.928,0,0,0-2240.622,2735.492Zm-.026,2.565a.644.644,0,0,1-.625-.656.656.656,0,0,1,.661-.625.643.643,0,0,1,.619.661A.633.633,0,0,1-2240.648,2738.057Zm3.517.917a1.917,1.917,0,0,0-1.946,1.91,1.931,1.931,0,0,0,1.922,1.941,1.939,1.939,0,0,0,1.928-1.917A1.924,1.924,0,0,0-2237.132,2738.975Zm-.022,2.566a.646.646,0,0,1-.639-.643.638.638,0,0,1,.637-.64.645.645,0,0,1,.644.638A.657.657,0,0,1-2237.153,2741.541Zm.022-2.566a1.917,1.917,0,0,0-1.946,1.91,1.931,1.931,0,0,0,1.922,1.941,1.939,1.939,0,0,0,1.928-1.917A1.924,1.924,0,0,0-2237.132,2738.975Zm-.022,2.566a.646.646,0,0,1-.639-.643.638.638,0,0,1,.637-.64.645.645,0,0,1,.644.638A.657.657,0,0,1-2237.153,2741.541Zm-3.469-6.049a1.94,1.94,0,0,0-1.936,1.93,1.929,1.929,0,0,0,1.919,1.921,1.917,1.917,0,0,0,1.933-1.926A1.928,1.928,0,0,0-2240.622,2735.492Zm-.026,2.565a.644.644,0,0,1-.625-.656.656.656,0,0,1,.661-.625.643.643,0,0,1,.619.661A.633.633,0,0,1-2240.648,2738.057Zm-4.877,9.309a1.917,1.917,0,0,0-1.944,1.912,1.928,1.928,0,0,0,1.923,1.939,1.938,1.938,0,0,0,1.927-1.917A1.927,1.927,0,0,0-2245.525,2747.366Zm-.03,2.566a.645.645,0,0,1-.629-.653.635.635,0,0,1,.647-.628.645.645,0,0,1,.634.648A.656.656,0,0,1-2245.556,2749.933Zm.016-14.44a1.926,1.926,0,0,0-1.929,1.91,1.917,1.917,0,0,0,1.916,1.94,1.928,1.928,0,0,0,1.934-1.928A1.937,1.937,0,0,0-2245.54,2735.493Zm0,2.565a.635.635,0,0,1-.647-.629.646.646,0,0,1,.63-.652.657.657,0,0,1,.651.635A.644.644,0,0,1-2245.538,2738.058Zm-3.486,5.826a1.94,1.94,0,0,0-1.927,1.941,1.929,1.929,0,0,0,1.929,1.912,1.918,1.918,0,0,0,1.921-1.914A1.929,1.929,0,0,0-2249.024,2743.884Zm.008,2.567a.646.646,0,0,1-.65-.632.657.657,0,0,1,.636-.65.645.645,0,0,1,.646.636A.636.636,0,0,1-2249.017,2746.451Zm0-7.477a1.927,1.927,0,0,0-1.936,1.925,1.941,1.941,0,0,0,1.919,1.927,1.927,1.927,0,0,0,1.931-1.909A1.915,1.915,0,0,0-2249.015,2738.974Zm0,2.567a.658.658,0,0,1-.648-.638.644.644,0,0,1,.637-.644.636.636,0,0,1,.644.633A.647.647,0,0,1-2249.018,2741.541Zm0-2.567a1.927,1.927,0,0,0-1.936,1.925,1.941,1.941,0,0,0,1.919,1.927,1.927,1.927,0,0,0,1.931-1.909A1.915,1.915,0,0,0-2249.015,2738.974Zm0,2.567a.658.658,0,0,1-.648-.638.644.644,0,0,1,.637-.644.636.636,0,0,1,.644.633A.647.647,0,0,1-2249.018,2741.541Zm-.006,2.343a1.94,1.94,0,0,0-1.927,1.941,1.929,1.929,0,0,0,1.929,1.912,1.918,1.918,0,0,0,1.921-1.914A1.929,1.929,0,0,0-2249.024,2743.884Zm.008,2.567a.646.646,0,0,1-.65-.632.657.657,0,0,1,.636-.65.645.645,0,0,1,.646.636A.636.636,0,0,1-2249.017,2746.451Zm3.477-10.958a1.926,1.926,0,0,0-1.929,1.91,1.917,1.917,0,0,0,1.916,1.94,1.928,1.928,0,0,0,1.934-1.928A1.937,1.937,0,0,0-2245.54,2735.493Zm0,2.565a.635.635,0,0,1-.647-.629.646.646,0,0,1,.63-.652.657.657,0,0,1,.651.635A.644.644,0,0,1-2245.538,2738.058Zm.013,9.309a1.917,1.917,0,0,0-1.944,1.912,1.928,1.928,0,0,0,1.923,1.939,1.938,1.938,0,0,0,1.927-1.917A1.927,1.927,0,0,0-2245.525,2747.366Zm-.03,2.566a.645.645,0,0,1-.629-.653.635.635,0,0,1,.647-.628.645.645,0,0,1,.634.648A.656.656,0,0,1-2245.556,2749.933Zm4.933-14.441a1.94,1.94,0,0,0-1.936,1.93,1.929,1.929,0,0,0,1.919,1.921,1.917,1.917,0,0,0,1.933-1.926A1.928,1.928,0,0,0-2240.622,2735.492Zm-.026,2.565a.644.644,0,0,1-.625-.656.656.656,0,0,1,.661-.625.643.643,0,0,1,.619.661A.633.633,0,0,1-2240.648,2738.057Zm3.517.917a1.917,1.917,0,0,0-1.946,1.91,1.931,1.931,0,0,0,1.922,1.941,1.939,1.939,0,0,0,1.928-1.917A1.924,1.924,0,0,0-2237.132,2738.975Zm-.022,2.566a.646.646,0,0,1-.639-.643.638.638,0,0,1,.637-.64.645.645,0,0,1,.644.638A.657.657,0,0,1-2237.153,2741.541Zm.022-2.566a1.917,1.917,0,0,0-1.946,1.91,1.931,1.931,0,0,0,1.922,1.941,1.939,1.939,0,0,0,1.928-1.917A1.924,1.924,0,0,0-2237.132,2738.975Zm-.022,2.566a.646.646,0,0,1-.639-.643.638.638,0,0,1,.637-.64.645.645,0,0,1,.644.638A.657.657,0,0,1-2237.153,2741.541Zm-3.469-6.049a1.94,1.94,0,0,0-1.936,1.93,1.929,1.929,0,0,0,1.919,1.921,1.917,1.917,0,0,0,1.933-1.926A1.928,1.928,0,0,0-2240.622,2735.492Zm-.026,2.565a.644.644,0,0,1-.625-.656.656.656,0,0,1,.661-.625.643.643,0,0,1,.619.661A.633.633,0,0,1-2240.648,2738.057Zm-4.877,9.309a1.917,1.917,0,0,0-1.944,1.912,1.928,1.928,0,0,0,1.923,1.939,1.938,1.938,0,0,0,1.927-1.917A1.927,1.927,0,0,0-2245.525,2747.366Zm-.03,2.566a.645.645,0,0,1-.629-.653.635.635,0,0,1,.647-.628.645.645,0,0,1,.634.648A.656.656,0,0,1-2245.556,2749.933Zm.016-14.44a1.926,1.926,0,0,0-1.929,1.91,1.917,1.917,0,0,0,1.916,1.94,1.928,1.928,0,0,0,1.934-1.928A1.937,1.937,0,0,0-2245.54,2735.493Zm0,2.565a.635.635,0,0,1-.647-.629.646.646,0,0,1,.63-.652.657.657,0,0,1,.651.635A.644.644,0,0,1-2245.538,2738.058Zm-3.486,5.826a1.94,1.94,0,0,0-1.927,1.941,1.929,1.929,0,0,0,1.929,1.912,1.918,1.918,0,0,0,1.921-1.914A1.929,1.929,0,0,0-2249.024,2743.884Zm.008,2.567a.646.646,0,0,1-.65-.632.657.657,0,0,1,.636-.65.645.645,0,0,1,.646.636A.636.636,0,0,1-2249.017,2746.451Zm-.015-3.626a1.927,1.927,0,0,0,1.931-1.909,1.915,1.915,0,0,0-1.914-1.942,1.927,1.927,0,0,0-1.936,1.925A1.941,1.941,0,0,0-2249.031,2742.825Zm0-2.567a.636.636,0,0,1,.644.633.647.647,0,0,1-.633.649.658.658,0,0,1-.648-.638A.644.644,0,0,1-2249.029,2740.259Zm16.219-.72a10.789,10.789,0,0,0-8.638-7.024,11.127,11.127,0,0,0-3.195-.066,10.518,10.518,0,0,0-3.355,1.036,10.991,10.991,0,0,0-3.53,2.789,10.938,10.938,0,0,0-2.232,4.312,9.8,9.8,0,0,0-.291,1.827s-.047,1.424,0,2a9.58,9.58,0,0,0,.515,2.285,10.919,10.919,0,0,0,10.481,7.614,3.154,3.154,0,0,0,3.063-3.6,3.894,3.894,0,0,1,.1-1.715,3.688,3.688,0,0,1,4.125-2.558,3.141,3.141,0,0,0,3.645-3.2A10.079,10.079,0,0,0-2232.81,2739.538Zm-2.836,5.629a4.943,4.943,0,0,0-5.633,4.131,4.922,4.922,0,0,0,.005,1.513,1.882,1.882,0,0,1-1.911,2.221,9.667,9.667,0,0,1-9.366-7.631,9.789,9.789,0,0,1-.215-1.765,9.771,9.771,0,0,1,7.369-9.685,9.673,9.673,0,0,1,11.533,6.46,9.567,9.567,0,0,1,.451,2.818A1.879,1.879,0,0,1-2235.646,2745.167Zm-1.486-6.192a1.917,1.917,0,0,0-1.946,1.91,1.931,1.931,0,0,0,1.922,1.941,1.939,1.939,0,0,0,1.928-1.917A1.924,1.924,0,0,0-2237.132,2738.975Zm-.022,2.566a.646.646,0,0,1-.639-.643.638.638,0,0,1,.637-.64.645.645,0,0,1,.644.638A.657.657,0,0,1-2237.153,2741.541Zm-3.469-6.049a1.94,1.94,0,0,0-1.936,1.93,1.929,1.929,0,0,0,1.919,1.921,1.917,1.917,0,0,0,1.933-1.926A1.928,1.928,0,0,0-2240.622,2735.492Zm-.026,2.565a.644.644,0,0,1-.625-.656.656.656,0,0,1,.661-.625.643.643,0,0,1,.619.661A.633.633,0,0,1-2240.648,2738.057Zm-4.877,9.309a1.917,1.917,0,0,0-1.944,1.912,1.928,1.928,0,0,0,1.923,1.939,1.938,1.938,0,0,0,1.927-1.917A1.927,1.927,0,0,0-2245.525,2747.366Zm-.03,2.566a.645.645,0,0,1-.629-.653.635.635,0,0,1,.647-.628.645.645,0,0,1,.634.648A.656.656,0,0,1-2245.556,2749.933Zm.016-14.44a1.926,1.926,0,0,0-1.929,1.91,1.917,1.917,0,0,0,1.916,1.94,1.928,1.928,0,0,0,1.934-1.928A1.937,1.937,0,0,0-2245.54,2735.493Zm0,2.565a.635.635,0,0,1-.647-.629.646.646,0,0,1,.63-.652.657.657,0,0,1,.651.635A.644.644,0,0,1-2245.538,2738.058Zm-3.486,5.826a1.94,1.94,0,0,0-1.927,1.941,1.929,1.929,0,0,0,1.929,1.912,1.918,1.918,0,0,0,1.921-1.914A1.929,1.929,0,0,0-2249.024,2743.884Zm.008,2.567a.646.646,0,0,1-.65-.632.657.657,0,0,1,.636-.65.645.645,0,0,1,.646.636A.636.636,0,0,1-2249.017,2746.451Zm-.015-3.626a1.927,1.927,0,0,0,1.931-1.909,1.915,1.915,0,0,0-1.914-1.942,1.927,1.927,0,0,0-1.936,1.925A1.941,1.941,0,0,0-2249.031,2742.825Zm0-2.567a.636.636,0,0,1,.644.633.647.647,0,0,1-.633.649.658.658,0,0,1-.648-.638A.644.644,0,0,1-2249.029,2740.259Zm.014-1.284a1.927,1.927,0,0,0-1.936,1.925,1.941,1.941,0,0,0,1.919,1.927,1.927,1.927,0,0,0,1.931-1.909A1.915,1.915,0,0,0-2249.015,2738.974Zm0,2.567a.658.658,0,0,1-.648-.638.644.644,0,0,1,.637-.644.636.636,0,0,1,.644.633A.647.647,0,0,1-2249.018,2741.541Zm-.006,2.343a1.94,1.94,0,0,0-1.927,1.941,1.929,1.929,0,0,0,1.929,1.912,1.918,1.918,0,0,0,1.921-1.914A1.929,1.929,0,0,0-2249.024,2743.884Zm.008,2.567a.646.646,0,0,1-.65-.632.657.657,0,0,1,.636-.65.645.645,0,0,1,.646.636A.636.636,0,0,1-2249.017,2746.451Zm3.477-10.958a1.926,1.926,0,0,0-1.929,1.91,1.917,1.917,0,0,0,1.916,1.94,1.928,1.928,0,0,0,1.934-1.928A1.937,1.937,0,0,0-2245.54,2735.493Zm0,2.565a.635.635,0,0,1-.647-.629.646.646,0,0,1,.63-.652.657.657,0,0,1,.651.635A.644.644,0,0,1-2245.538,2738.058Zm.013,9.309a1.917,1.917,0,0,0-1.944,1.912,1.928,1.928,0,0,0,1.923,1.939,1.938,1.938,0,0,0,1.927-1.917A1.927,1.927,0,0,0-2245.525,2747.366Zm-.03,2.566a.645.645,0,0,1-.629-.653.635.635,0,0,1,.647-.628.645.645,0,0,1,.634.648A.656.656,0,0,1-2245.556,2749.933Zm4.933-14.441a1.94,1.94,0,0,0-1.936,1.93,1.929,1.929,0,0,0,1.919,1.921,1.917,1.917,0,0,0,1.933-1.926A1.928,1.928,0,0,0-2240.622,2735.492Zm-.026,2.565a.644.644,0,0,1-.625-.656.656.656,0,0,1,.661-.625.643.643,0,0,1,.619.661A.633.633,0,0,1-2240.648,2738.057Zm3.517.917a1.917,1.917,0,0,0-1.946,1.91,1.931,1.931,0,0,0,1.922,1.941,1.939,1.939,0,0,0,1.928-1.917A1.924,1.924,0,0,0-2237.132,2738.975Zm-.022,2.566a.646.646,0,0,1-.639-.643.638.638,0,0,1,.637-.64.645.645,0,0,1,.644.638A.657.657,0,0,1-2237.153,2741.541Zm.022-2.566a1.917,1.917,0,0,0-1.946,1.91,1.931,1.931,0,0,0,1.922,1.941,1.939,1.939,0,0,0,1.928-1.917A1.924,1.924,0,0,0-2237.132,2738.975Zm-.022,2.566a.646.646,0,0,1-.639-.643.638.638,0,0,1,.637-.64.645.645,0,0,1,.644.638A.657.657,0,0,1-2237.153,2741.541Zm-3.469-6.049a1.94,1.94,0,0,0-1.936,1.93,1.929,1.929,0,0,0,1.919,1.921,1.917,1.917,0,0,0,1.933-1.926A1.928,1.928,0,0,0-2240.622,2735.492Zm-.026,2.565a.644.644,0,0,1-.625-.656.656.656,0,0,1,.661-.625.643.643,0,0,1,.619.661A.633.633,0,0,1-2240.648,2738.057Zm-4.877,9.309a1.917,1.917,0,0,0-1.944,1.912,1.928,1.928,0,0,0,1.923,1.939,1.938,1.938,0,0,0,1.927-1.917A1.927,1.927,0,0,0-2245.525,2747.366Zm-.03,2.566a.645.645,0,0,1-.629-.653.635.635,0,0,1,.647-.628.645.645,0,0,1,.634.648A.656.656,0,0,1-2245.556,2749.933Zm.016-14.44a1.926,1.926,0,0,0-1.929,1.91,1.917,1.917,0,0,0,1.916,1.94,1.928,1.928,0,0,0,1.934-1.928A1.937,1.937,0,0,0-2245.54,2735.493Zm0,2.565a.635.635,0,0,1-.647-.629.646.646,0,0,1,.63-.652.657.657,0,0,1,.651.635A.644.644,0,0,1-2245.538,2738.058Zm-3.486,5.826a1.94,1.94,0,0,0-1.927,1.941,1.929,1.929,0,0,0,1.929,1.912,1.918,1.918,0,0,0,1.921-1.914A1.929,1.929,0,0,0-2249.024,2743.884Zm.008,2.567a.646.646,0,0,1-.65-.632.657.657,0,0,1,.636-.65.645.645,0,0,1,.646.636A.636.636,0,0,1-2249.017,2746.451Zm0-7.477a1.927,1.927,0,0,0-1.936,1.925,1.941,1.941,0,0,0,1.919,1.927,1.927,1.927,0,0,0,1.931-1.909A1.915,1.915,0,0,0-2249.015,2738.974Zm0,2.567a.658.658,0,0,1-.648-.638.644.644,0,0,1,.637-.644.636.636,0,0,1,.644.633A.647.647,0,0,1-2249.018,2741.541Z" transform="translate(2300.226 -2682.21)" fill="#fcfcfc"/><path d="M-2179.419,2808.9a1.927,1.927,0,0,0-1.936,1.925,1.94,1.94,0,0,0,1.919,1.926,1.928,1.928,0,0,0,1.931-1.909A1.915,1.915,0,0,0-2179.419,2808.9Zm0,2.567a.658.658,0,0,1-.648-.638.645.645,0,0,1,.637-.645.637.637,0,0,1,.644.634A.647.647,0,0,1-2179.422,2811.467Zm-.007,2.343a1.939,1.939,0,0,0-1.926,1.94,1.929,1.929,0,0,0,1.929,1.912,1.918,1.918,0,0,0,1.922-1.914A1.929,1.929,0,0,0-2179.429,2813.81Zm.009,2.567a.647.647,0,0,1-.65-.632.656.656,0,0,1,.636-.65.645.645,0,0,1,.646.636A.637.637,0,0,1-2179.42,2816.378Zm3.477-10.959a1.927,1.927,0,0,0-1.929,1.91,1.918,1.918,0,0,0,1.916,1.941,1.927,1.927,0,0,0,1.934-1.927A1.938,1.938,0,0,0-2175.944,2805.419Zm0,2.565a.635.635,0,0,1-.647-.629.645.645,0,0,1,.63-.652.656.656,0,0,1,.652.635A.644.644,0,0,1-2175.942,2807.984Zm.013,9.308a1.918,1.918,0,0,0-1.944,1.913,1.927,1.927,0,0,0,1.923,1.938,1.938,1.938,0,0,0,1.927-1.918A1.927,1.927,0,0,0-2175.929,2817.292Zm-.031,2.567a.645.645,0,0,1-.628-.653.634.634,0,0,1,.648-.628.644.644,0,0,1,.633.647A.657.657,0,0,1-2175.96,2819.859Zm4.934-14.441a1.94,1.94,0,0,0-1.936,1.93,1.929,1.929,0,0,0,1.919,1.921,1.916,1.916,0,0,0,1.932-1.925A1.927,1.927,0,0,0-2171.026,2805.418Zm-.026,2.565a.645.645,0,0,1-.625-.656.655.655,0,0,1,.66-.625.644.644,0,0,1,.62.66A.634.634,0,0,1-2171.052,2807.984Zm3.517.917a1.918,1.918,0,0,0-1.945,1.912,1.93,1.93,0,0,0,1.923,1.939,1.938,1.938,0,0,0,1.928-1.917A1.925,1.925,0,0,0-2167.536,2808.9Zm-.021,2.566a.646.646,0,0,1-.639-.643.636.636,0,0,1,.637-.64.645.645,0,0,1,.644.638A.657.657,0,0,1-2167.557,2811.467Z" transform="translate(2230.632 -2752.135)" fill="#fcfcfc"/><path d="M-2098.306,2805.428a1.926,1.926,0,0,0-1.929,1.91,1.918,1.918,0,0,0,1.916,1.941,1.928,1.928,0,0,0,1.934-1.927A1.937,1.937,0,0,0-2098.306,2805.428Zm0,2.565a.636.636,0,0,1-.647-.63.644.644,0,0,1,.629-.652.656.656,0,0,1,.652.635A.645.645,0,0,1-2098.3,2807.993Z" transform="translate(2152.994 -2752.146)" fill="#fcfcfc"/><path d="M-2098.3,3082.066a1.918,1.918,0,0,0-1.944,1.913,1.928,1.928,0,0,0,1.923,1.938,1.937,1.937,0,0,0,1.927-1.917A1.926,1.926,0,0,0-2098.3,3082.066Zm-.031,2.566a.645.645,0,0,1-.629-.653.634.634,0,0,1,.647-.628.645.645,0,0,1,.634.647A.657.657,0,0,1-2098.33,3084.632Z" transform="translate(2153.001 -3016.909)" fill="#fcfcfc"/><path d="M-2179.417,2886.529a1.928,1.928,0,0,0-1.936,1.926,1.938,1.938,0,0,0,1.919,1.926,1.927,1.927,0,0,0,1.931-1.909A1.916,1.916,0,0,0-2179.417,2886.529Zm0,2.567a.658.658,0,0,1-.648-.639.645.645,0,0,1,.637-.644.636.636,0,0,1,.644.633A.647.647,0,0,1-2179.42,2889.1Z" transform="translate(2230.628 -2829.765)" fill="#fcfcfc"/><path d="M-1902.779,2886.546a1.917,1.917,0,0,0-1.945,1.911,1.931,1.931,0,0,0,1.922,1.94,1.939,1.939,0,0,0,1.928-1.917A1.924,1.924,0,0,0-1902.779,2886.546Zm-.021,2.566a.647.647,0,0,1-.64-.643.638.638,0,0,1,.638-.641.646.646,0,0,1,.644.638A.659.659,0,0,1-1902.8,2889.112Z" transform="translate(1965.875 -2829.781)" fill="#fcfcfc"/><path d="M-2179.429,3000.93a1.939,1.939,0,0,0-1.926,1.939,1.929,1.929,0,0,0,1.929,1.913,1.918,1.918,0,0,0,1.922-1.915A1.929,1.929,0,0,0-2179.429,3000.93Zm.009,2.567a.646.646,0,0,1-.65-.632.656.656,0,0,1,.636-.65.645.645,0,0,1,.646.636A.637.637,0,0,1-2179.42,3003.5Z" transform="translate(2230.632 -2939.256)" fill="#fcfcfc"/><path d="M-1983.905,2805.418a1.941,1.941,0,0,0-1.937,1.93,1.931,1.931,0,0,0,1.92,1.921,1.917,1.917,0,0,0,1.931-1.925A1.927,1.927,0,0,0-1983.905,2805.418Zm-.026,2.565a.645.645,0,0,1-.625-.656.655.655,0,0,1,.661-.625.644.644,0,0,1,.62.66A.634.634,0,0,1-1983.931,2807.984Z" transform="translate(2043.511 -2752.135)" fill="#fcfcfc"/></g></g></svg>