<svg xmlns="http://www.w3.org/2000/svg" width="16.99" height="17" viewBox="0 0 16.99 17">
  <g id="Group_3259" data-name="Group 3259" transform="translate(-46.155 -50.146)">
    <path id="Path_7754" data-name="Path 7754" d="M-2250.156,2737.48a1.492,1.492,0,0,0-1.5,1.49,1.5,1.5,0,0,0,1.486,1.491,1.492,1.492,0,0,0,1.495-1.478A1.483,1.483,0,0,0-2250.156,2737.48Zm0,1.987a.509.509,0,0,1-.5-.494.5.5,0,0,1,.493-.5.492.492,0,0,1,.5.49A.5.5,0,0,1-2250.159,2739.467Zm-.005,1.814a1.5,1.5,0,0,0-1.492,1.5,1.493,1.493,0,0,0,1.494,1.48,1.484,1.484,0,0,0,1.488-1.482A1.493,1.493,0,0,0-2250.164,2741.281Zm.006,1.988a.5.5,0,0,1-.5-.489.509.509,0,0,1,.493-.5.5.5,0,0,1,.5.493A.492.492,0,0,1-2250.158,2743.269Zm2.692-8.484a1.491,1.491,0,0,0-1.493,1.479,1.484,1.484,0,0,0,1.483,1.5,1.492,1.492,0,0,0,1.5-1.492A1.5,1.5,0,0,0-2247.466,2734.785Zm0,1.986a.491.491,0,0,1-.5-.487.5.5,0,0,1,.488-.5.508.508,0,0,1,.5.492A.5.5,0,0,1-2247.465,2736.771Zm.01,7.207a1.485,1.485,0,0,0-1.505,1.48,1.493,1.493,0,0,0,1.489,1.5,1.5,1.5,0,0,0,1.492-1.485A1.492,1.492,0,0,0-2247.455,2743.978Zm-.023,1.987a.5.5,0,0,1-.487-.506.491.491,0,0,1,.5-.487.5.5,0,0,1,.49.5A.508.508,0,0,1-2247.478,2745.965Zm3.82-11.181a1.5,1.5,0,0,0-1.5,1.494,1.494,1.494,0,0,0,1.486,1.488,1.485,1.485,0,0,0,1.5-1.491A1.493,1.493,0,0,0-2243.659,2734.784Zm-.02,1.986a.5.5,0,0,1-.484-.508.508.508,0,0,1,.512-.484.5.5,0,0,1,.479.511A.49.49,0,0,1-2243.679,2736.77Zm2.723.71a1.484,1.484,0,0,0-1.506,1.479,1.5,1.5,0,0,0,1.488,1.5,1.5,1.5,0,0,0,1.493-1.485A1.49,1.49,0,0,0-2240.956,2737.48Zm-.017,1.987a.5.5,0,0,1-.5-.5.494.494,0,0,1,.494-.5.5.5,0,0,1,.5.494A.509.509,0,0,1-2240.973,2739.467Zm.017-1.987a1.484,1.484,0,0,0-1.506,1.479,1.5,1.5,0,0,0,1.488,1.5,1.5,1.5,0,0,0,1.493-1.485A1.49,1.49,0,0,0-2240.956,2737.48Zm-.017,1.987a.5.5,0,0,1-.5-.5.494.494,0,0,1,.494-.5.5.5,0,0,1,.5.494A.509.509,0,0,1-2240.973,2739.467Zm-2.686-4.683a1.5,1.5,0,0,0-1.5,1.494,1.494,1.494,0,0,0,1.486,1.488,1.485,1.485,0,0,0,1.5-1.491A1.493,1.493,0,0,0-2243.659,2734.784Zm-.02,1.986a.5.5,0,0,1-.484-.508.508.508,0,0,1,.512-.484.5.5,0,0,1,.479.511A.49.49,0,0,1-2243.679,2736.77Zm-3.776,7.207a1.485,1.485,0,0,0-1.505,1.48,1.493,1.493,0,0,0,1.489,1.5,1.5,1.5,0,0,0,1.492-1.485A1.492,1.492,0,0,0-2247.455,2743.978Zm-.023,1.987a.5.5,0,0,1-.487-.506.491.491,0,0,1,.5-.487.5.5,0,0,1,.49.5A.508.508,0,0,1-2247.478,2745.965Zm.012-11.18a1.491,1.491,0,0,0-1.493,1.479,1.484,1.484,0,0,0,1.483,1.5,1.492,1.492,0,0,0,1.5-1.492A1.5,1.5,0,0,0-2247.466,2734.785Zm0,1.986a.491.491,0,0,1-.5-.487.5.5,0,0,1,.488-.5.508.508,0,0,1,.5.492A.5.5,0,0,1-2247.465,2736.771Zm-2.7,4.511a1.5,1.5,0,0,0-1.492,1.5,1.493,1.493,0,0,0,1.494,1.48,1.484,1.484,0,0,0,1.488-1.482A1.493,1.493,0,0,0-2250.164,2741.281Zm.006,1.988a.5.5,0,0,1-.5-.489.509.509,0,0,1,.493-.5.5.5,0,0,1,.5.493A.492.492,0,0,1-2250.158,2743.269Zm0-5.789a1.492,1.492,0,0,0-1.5,1.49,1.5,1.5,0,0,0,1.486,1.491,1.492,1.492,0,0,0,1.495-1.478A1.483,1.483,0,0,0-2250.156,2737.48Zm0,1.987a.509.509,0,0,1-.5-.494.5.5,0,0,1,.493-.5.492.492,0,0,1,.5.49A.5.5,0,0,1-2250.159,2739.467Zm0-1.987a1.492,1.492,0,0,0-1.5,1.49,1.5,1.5,0,0,0,1.486,1.491,1.492,1.492,0,0,0,1.495-1.478A1.483,1.483,0,0,0-2250.156,2737.48Zm0,1.987a.509.509,0,0,1-.5-.494.5.5,0,0,1,.493-.5.492.492,0,0,1,.5.49A.5.5,0,0,1-2250.159,2739.467Zm-.005,1.814a1.5,1.5,0,0,0-1.492,1.5,1.493,1.493,0,0,0,1.494,1.48,1.484,1.484,0,0,0,1.488-1.482A1.493,1.493,0,0,0-2250.164,2741.281Zm.006,1.988a.5.5,0,0,1-.5-.489.509.509,0,0,1,.493-.5.5.5,0,0,1,.5.493A.492.492,0,0,1-2250.158,2743.269Zm2.692-8.484a1.491,1.491,0,0,0-1.493,1.479,1.484,1.484,0,0,0,1.483,1.5,1.492,1.492,0,0,0,1.5-1.492A1.5,1.5,0,0,0-2247.466,2734.785Zm0,1.986a.491.491,0,0,1-.5-.487.5.5,0,0,1,.488-.5.508.508,0,0,1,.5.492A.5.5,0,0,1-2247.465,2736.771Zm.01,7.207a1.485,1.485,0,0,0-1.505,1.48,1.493,1.493,0,0,0,1.489,1.5,1.5,1.5,0,0,0,1.492-1.485A1.492,1.492,0,0,0-2247.455,2743.978Zm-.023,1.987a.5.5,0,0,1-.487-.506.491.491,0,0,1,.5-.487.5.5,0,0,1,.49.5A.508.508,0,0,1-2247.478,2745.965Zm3.82-11.181a1.5,1.5,0,0,0-1.5,1.494,1.494,1.494,0,0,0,1.486,1.488,1.485,1.485,0,0,0,1.5-1.491A1.493,1.493,0,0,0-2243.659,2734.784Zm-.02,1.986a.5.5,0,0,1-.484-.508.508.508,0,0,1,.512-.484.5.5,0,0,1,.479.511A.49.49,0,0,1-2243.679,2736.77Zm2.723.71a1.484,1.484,0,0,0-1.506,1.479,1.5,1.5,0,0,0,1.488,1.5,1.5,1.5,0,0,0,1.493-1.485A1.49,1.49,0,0,0-2240.956,2737.48Zm-.017,1.987a.5.5,0,0,1-.5-.5.494.494,0,0,1,.494-.5.5.5,0,0,1,.5.494A.509.509,0,0,1-2240.973,2739.467Zm.017-1.987a1.484,1.484,0,0,0-1.506,1.479,1.5,1.5,0,0,0,1.488,1.5,1.5,1.5,0,0,0,1.493-1.485A1.49,1.49,0,0,0-2240.956,2737.48Zm-.017,1.987a.5.5,0,0,1-.5-.5.494.494,0,0,1,.494-.5.5.5,0,0,1,.5.494A.509.509,0,0,1-2240.973,2739.467Zm-2.686-4.683a1.5,1.5,0,0,0-1.5,1.494,1.494,1.494,0,0,0,1.486,1.488,1.485,1.485,0,0,0,1.5-1.491A1.493,1.493,0,0,0-2243.659,2734.784Zm-.02,1.986a.5.5,0,0,1-.484-.508.508.508,0,0,1,.512-.484.5.5,0,0,1,.479.511A.49.49,0,0,1-2243.679,2736.77Zm-3.776,7.207a1.485,1.485,0,0,0-1.505,1.48,1.493,1.493,0,0,0,1.489,1.5,1.5,1.5,0,0,0,1.492-1.485A1.492,1.492,0,0,0-2247.455,2743.978Zm-.023,1.987a.5.5,0,0,1-.487-.506.491.491,0,0,1,.5-.487.5.5,0,0,1,.49.5A.508.508,0,0,1-2247.478,2745.965Zm.012-11.18a1.491,1.491,0,0,0-1.493,1.479,1.484,1.484,0,0,0,1.483,1.5,1.492,1.492,0,0,0,1.5-1.492A1.5,1.5,0,0,0-2247.466,2734.785Zm0,1.986a.491.491,0,0,1-.5-.487.5.5,0,0,1,.488-.5.508.508,0,0,1,.5.492A.5.5,0,0,1-2247.465,2736.771Zm-2.7,4.511a1.5,1.5,0,0,0-1.492,1.5,1.493,1.493,0,0,0,1.494,1.48,1.484,1.484,0,0,0,1.488-1.482A1.493,1.493,0,0,0-2250.164,2741.281Zm.006,1.988a.5.5,0,0,1-.5-.489.509.509,0,0,1,.493-.5.5.5,0,0,1,.5.493A.492.492,0,0,1-2250.158,2743.269Zm-.011-2.807a1.492,1.492,0,0,0,1.495-1.478,1.483,1.483,0,0,0-1.482-1.5,1.492,1.492,0,0,0-1.5,1.49A1.5,1.5,0,0,0-2250.169,2740.462Zm0-1.987a.492.492,0,0,1,.5.49.5.5,0,0,1-.49.5.509.509,0,0,1-.5-.494A.5.5,0,0,1-2250.167,2738.474Zm12.558-.557a8.353,8.353,0,0,0-6.688-5.439,8.619,8.619,0,0,0-2.473-.051,8.135,8.135,0,0,0-2.6.8,8.51,8.51,0,0,0-2.733,2.16,8.473,8.473,0,0,0-1.728,3.339,7.574,7.574,0,0,0-.225,1.414s-.036,1.1,0,1.55a7.416,7.416,0,0,0,.4,1.769,8.454,8.454,0,0,0,8.115,5.9,2.442,2.442,0,0,0,2.371-2.788,3.017,3.017,0,0,1,.074-1.328,2.855,2.855,0,0,1,3.193-1.98,2.431,2.431,0,0,0,2.822-2.478A7.8,7.8,0,0,0-2237.61,2737.917Zm-2.2,4.358a3.827,3.827,0,0,0-4.362,3.2,3.809,3.809,0,0,0,0,1.172,1.457,1.457,0,0,1-1.48,1.72,7.485,7.485,0,0,1-7.252-5.908,7.615,7.615,0,0,1-.166-1.366,7.565,7.565,0,0,1,5.706-7.5,7.489,7.489,0,0,1,8.929,5,7.4,7.4,0,0,1,.349,2.182A1.454,1.454,0,0,1-2239.805,2742.275Zm-1.151-4.794a1.484,1.484,0,0,0-1.506,1.479,1.5,1.5,0,0,0,1.488,1.5,1.5,1.5,0,0,0,1.493-1.485A1.49,1.49,0,0,0-2240.956,2737.48Zm-.017,1.987a.5.5,0,0,1-.5-.5.494.494,0,0,1,.494-.5.5.5,0,0,1,.5.494A.509.509,0,0,1-2240.973,2739.467Zm-2.686-4.683a1.5,1.5,0,0,0-1.5,1.494,1.494,1.494,0,0,0,1.486,1.488,1.485,1.485,0,0,0,1.5-1.491A1.493,1.493,0,0,0-2243.659,2734.784Zm-.02,1.986a.5.5,0,0,1-.484-.508.508.508,0,0,1,.512-.484.5.5,0,0,1,.479.511A.49.49,0,0,1-2243.679,2736.77Zm-3.776,7.207a1.485,1.485,0,0,0-1.505,1.48,1.493,1.493,0,0,0,1.489,1.5,1.5,1.5,0,0,0,1.492-1.485A1.492,1.492,0,0,0-2247.455,2743.978Zm-.023,1.987a.5.5,0,0,1-.487-.506.491.491,0,0,1,.5-.487.5.5,0,0,1,.49.5A.508.508,0,0,1-2247.478,2745.965Zm.012-11.18a1.491,1.491,0,0,0-1.493,1.479,1.484,1.484,0,0,0,1.483,1.5,1.492,1.492,0,0,0,1.5-1.492A1.5,1.5,0,0,0-2247.466,2734.785Zm0,1.986a.491.491,0,0,1-.5-.487.5.5,0,0,1,.488-.5.508.508,0,0,1,.5.492A.5.5,0,0,1-2247.465,2736.771Zm-2.7,4.511a1.5,1.5,0,0,0-1.492,1.5,1.493,1.493,0,0,0,1.494,1.48,1.484,1.484,0,0,0,1.488-1.482A1.493,1.493,0,0,0-2250.164,2741.281Zm.006,1.988a.5.5,0,0,1-.5-.489.509.509,0,0,1,.493-.5.5.5,0,0,1,.5.493A.492.492,0,0,1-2250.158,2743.269Zm-.011-2.807a1.492,1.492,0,0,0,1.495-1.478,1.483,1.483,0,0,0-1.482-1.5,1.492,1.492,0,0,0-1.5,1.49A1.5,1.5,0,0,0-2250.169,2740.462Zm0-1.987a.492.492,0,0,1,.5.49.5.5,0,0,1-.49.5.509.509,0,0,1-.5-.494A.5.5,0,0,1-2250.167,2738.474Zm.011-.994a1.492,1.492,0,0,0-1.5,1.49,1.5,1.5,0,0,0,1.486,1.491,1.492,1.492,0,0,0,1.495-1.478A1.483,1.483,0,0,0-2250.156,2737.48Zm0,1.987a.509.509,0,0,1-.5-.494.5.5,0,0,1,.493-.5.492.492,0,0,1,.5.49A.5.5,0,0,1-2250.159,2739.467Zm-.005,1.814a1.5,1.5,0,0,0-1.492,1.5,1.493,1.493,0,0,0,1.494,1.48,1.484,1.484,0,0,0,1.488-1.482A1.493,1.493,0,0,0-2250.164,2741.281Zm.006,1.988a.5.5,0,0,1-.5-.489.509.509,0,0,1,.493-.5.5.5,0,0,1,.5.493A.492.492,0,0,1-2250.158,2743.269Zm2.692-8.484a1.491,1.491,0,0,0-1.493,1.479,1.484,1.484,0,0,0,1.483,1.5,1.492,1.492,0,0,0,1.5-1.492A1.5,1.5,0,0,0-2247.466,2734.785Zm0,1.986a.491.491,0,0,1-.5-.487.5.5,0,0,1,.488-.5.508.508,0,0,1,.5.492A.5.5,0,0,1-2247.465,2736.771Zm.01,7.207a1.485,1.485,0,0,0-1.505,1.48,1.493,1.493,0,0,0,1.489,1.5,1.5,1.5,0,0,0,1.492-1.485A1.492,1.492,0,0,0-2247.455,2743.978Zm-.023,1.987a.5.5,0,0,1-.487-.506.491.491,0,0,1,.5-.487.5.5,0,0,1,.49.5A.508.508,0,0,1-2247.478,2745.965Zm3.82-11.181a1.5,1.5,0,0,0-1.5,1.494,1.494,1.494,0,0,0,1.486,1.488,1.485,1.485,0,0,0,1.5-1.491A1.493,1.493,0,0,0-2243.659,2734.784Zm-.02,1.986a.5.5,0,0,1-.484-.508.508.508,0,0,1,.512-.484.5.5,0,0,1,.479.511A.49.49,0,0,1-2243.679,2736.77Zm2.723.71a1.484,1.484,0,0,0-1.506,1.479,1.5,1.5,0,0,0,1.488,1.5,1.5,1.5,0,0,0,1.493-1.485A1.49,1.49,0,0,0-2240.956,2737.48Zm-.017,1.987a.5.5,0,0,1-.5-.5.494.494,0,0,1,.494-.5.5.5,0,0,1,.5.494A.509.509,0,0,1-2240.973,2739.467Zm.017-1.987a1.484,1.484,0,0,0-1.506,1.479,1.5,1.5,0,0,0,1.488,1.5,1.5,1.5,0,0,0,1.493-1.485A1.49,1.49,0,0,0-2240.956,2737.48Zm-.017,1.987a.5.5,0,0,1-.5-.5.494.494,0,0,1,.494-.5.5.5,0,0,1,.5.494A.509.509,0,0,1-2240.973,2739.467Zm-2.686-4.683a1.5,1.5,0,0,0-1.5,1.494,1.494,1.494,0,0,0,1.486,1.488,1.485,1.485,0,0,0,1.5-1.491A1.493,1.493,0,0,0-2243.659,2734.784Zm-.02,1.986a.5.5,0,0,1-.484-.508.508.508,0,0,1,.512-.484.5.5,0,0,1,.479.511A.49.49,0,0,1-2243.679,2736.77Zm-3.776,7.207a1.485,1.485,0,0,0-1.505,1.48,1.493,1.493,0,0,0,1.489,1.5,1.5,1.5,0,0,0,1.492-1.485A1.492,1.492,0,0,0-2247.455,2743.978Zm-.023,1.987a.5.5,0,0,1-.487-.506.491.491,0,0,1,.5-.487.5.5,0,0,1,.49.5A.508.508,0,0,1-2247.478,2745.965Zm.012-11.18a1.491,1.491,0,0,0-1.493,1.479,1.484,1.484,0,0,0,1.483,1.5,1.492,1.492,0,0,0,1.5-1.492A1.5,1.5,0,0,0-2247.466,2734.785Zm0,1.986a.491.491,0,0,1-.5-.487.5.5,0,0,1,.488-.5.508.508,0,0,1,.5.492A.5.5,0,0,1-2247.465,2736.771Zm-2.7,4.511a1.5,1.5,0,0,0-1.492,1.5,1.493,1.493,0,0,0,1.494,1.48,1.484,1.484,0,0,0,1.488-1.482A1.493,1.493,0,0,0-2250.164,2741.281Zm.006,1.988a.5.5,0,0,1-.5-.489.509.509,0,0,1,.493-.5.5.5,0,0,1,.5.493A.492.492,0,0,1-2250.158,2743.269Zm0-5.789a1.492,1.492,0,0,0-1.5,1.49,1.5,1.5,0,0,0,1.486,1.491,1.492,1.492,0,0,0,1.495-1.478A1.483,1.483,0,0,0-2250.156,2737.48Zm0,1.987a.509.509,0,0,1-.5-.494.5.5,0,0,1,.493-.5.492.492,0,0,1,.5.49A.5.5,0,0,1-2250.159,2739.467Z" transform="translate(2300.226 -2682.21)"/>
    <path id="Path_7755" data-name="Path 7755" d="M-2179.856,2808.114a1.492,1.492,0,0,0-1.5,1.491,1.5,1.5,0,0,0,1.486,1.491,1.492,1.492,0,0,0,1.495-1.478A1.483,1.483,0,0,0-2179.856,2808.114Zm0,1.987a.51.51,0,0,1-.5-.494.5.5,0,0,1,.493-.5.493.493,0,0,1,.5.49A.5.5,0,0,1-2179.858,2810.1Zm-.005,1.814a1.5,1.5,0,0,0-1.491,1.5,1.493,1.493,0,0,0,1.493,1.48,1.485,1.485,0,0,0,1.488-1.482A1.493,1.493,0,0,0-2179.864,2811.916Zm.007,1.988a.5.5,0,0,1-.5-.49.508.508,0,0,1,.492-.5.5.5,0,0,1,.5.492A.493.493,0,0,1-2179.857,2813.9Zm2.692-8.485a1.492,1.492,0,0,0-1.494,1.479,1.485,1.485,0,0,0,1.483,1.5,1.492,1.492,0,0,0,1.5-1.492A1.5,1.5,0,0,0-2177.165,2805.419Zm0,1.986a.492.492,0,0,1-.5-.488.5.5,0,0,1,.488-.5.508.508,0,0,1,.5.491A.5.5,0,0,1-2177.164,2807.405Zm.01,7.207a1.485,1.485,0,0,0-1.505,1.481,1.492,1.492,0,0,0,1.489,1.5,1.5,1.5,0,0,0,1.492-1.485A1.492,1.492,0,0,0-2177.154,2814.612Zm-.024,1.987a.5.5,0,0,1-.486-.506.491.491,0,0,1,.5-.486.5.5,0,0,1,.49.5A.509.509,0,0,1-2177.178,2816.6Zm3.82-11.181a1.5,1.5,0,0,0-1.5,1.494,1.494,1.494,0,0,0,1.486,1.488,1.484,1.484,0,0,0,1.5-1.491A1.492,1.492,0,0,0-2173.358,2805.418Zm-.02,1.986a.5.5,0,0,1-.484-.508.507.507,0,0,1,.511-.484.5.5,0,0,1,.48.511A.491.491,0,0,1-2173.378,2807.4Zm2.723.71a1.485,1.485,0,0,0-1.506,1.48,1.494,1.494,0,0,0,1.489,1.5,1.5,1.5,0,0,0,1.493-1.484A1.491,1.491,0,0,0-2170.656,2808.115Zm-.016,1.987a.5.5,0,0,1-.5-.5.493.493,0,0,1,.494-.5.5.5,0,0,1,.5.494A.509.509,0,0,1-2170.672,2810.1Z" transform="translate(2229.927 -2752.844)"/>
    <path id="Path_7756" data-name="Path 7756" d="M-2098.742,2805.428a1.491,1.491,0,0,0-1.493,1.479,1.485,1.485,0,0,0,1.484,1.5,1.493,1.493,0,0,0,1.5-1.492A1.5,1.5,0,0,0-2098.742,2805.428Zm0,1.986a.492.492,0,0,1-.5-.488.5.5,0,0,1,.487-.5.508.508,0,0,1,.5.491A.5.5,0,0,1-2098.74,2807.414Z" transform="translate(2151.503 -2752.854)"/>
    <path id="Path_7757" data-name="Path 7757" d="M-2098.739,3082.065a1.485,1.485,0,0,0-1.5,1.481,1.492,1.492,0,0,0,1.489,1.5,1.5,1.5,0,0,0,1.492-1.484A1.492,1.492,0,0,0-2098.739,3082.065Zm-.023,1.987a.5.5,0,0,1-.487-.506.49.49,0,0,1,.5-.486.5.5,0,0,1,.491.5A.509.509,0,0,1-2098.762,3084.052Z" transform="translate(2151.511 -3020.298)"/>
    <path id="Path_7758" data-name="Path 7758" d="M-2179.854,2886.529a1.492,1.492,0,0,0-1.5,1.491,1.5,1.5,0,0,0,1.486,1.491,1.492,1.492,0,0,0,1.5-1.478A1.483,1.483,0,0,0-2179.854,2886.529Zm0,1.987a.509.509,0,0,1-.5-.495.5.5,0,0,1,.493-.5.492.492,0,0,1,.5.49A.5.5,0,0,1-2179.856,2888.517Z" transform="translate(2229.923 -2831.259)"/>
    <path id="Path_7759" data-name="Path 7759" d="M-1903.218,2886.546a1.484,1.484,0,0,0-1.506,1.479,1.5,1.5,0,0,0,1.488,1.5,1.5,1.5,0,0,0,1.493-1.485A1.49,1.49,0,0,0-1903.218,2886.546Zm-.016,1.987a.5.5,0,0,1-.5-.5.493.493,0,0,1,.494-.5.5.5,0,0,1,.5.494A.51.51,0,0,1-1903.234,2888.533Z" transform="translate(1962.489 -2831.275)"/>
    <path id="Path_7760" data-name="Path 7760" d="M-2179.864,3000.93a1.5,1.5,0,0,0-1.491,1.5,1.494,1.494,0,0,0,1.493,1.481,1.485,1.485,0,0,0,1.488-1.482A1.493,1.493,0,0,0-2179.864,3000.93Zm.007,1.987a.5.5,0,0,1-.5-.489.509.509,0,0,1,.492-.5.5.5,0,0,1,.5.493A.493.493,0,0,1-2179.857,3002.917Z" transform="translate(2229.927 -2941.858)"/>
    <path id="Path_7761" data-name="Path 7761" d="M-1984.343,2805.418a1.5,1.5,0,0,0-1.5,1.494,1.5,1.5,0,0,0,1.487,1.488,1.484,1.484,0,0,0,1.5-1.491A1.492,1.492,0,0,0-1984.343,2805.418Zm-.02,1.986a.5.5,0,0,1-.484-.508.507.507,0,0,1,.512-.484.5.5,0,0,1,.48.511A.491.491,0,0,1-1984.362,2807.4Z" transform="translate(2040.912 -2752.844)"/>
  </g>
</svg>
