<svg xmlns="http://www.w3.org/2000/svg" xmlns:xlink="http://www.w3.org/1999/xlink" width="195.93" height="75.051" viewBox="0 0 195.93 75.051">
  <defs>
    <filter id="Rectangle_1648" x="6" y="6" width="189.93" height="69.051" filterUnits="userSpaceOnUse">
      <feOffset dx="3" dy="3" input="SourceAlpha"/>
      <feGaussianBlur stdDeviation="1.5" result="blur"/>
      <feFlood flood-color="#171d1a" flood-opacity="0.071"/>
      <feComposite operator="in" in2="blur"/>
      <feComposite in="SourceGraphic"/>
    </filter>
    <filter id="Rectangle_1663" x="0" y="0" width="189.93" height="69.051" filterUnits="userSpaceOnUse">
      <feOffset dx="-3" dy="-3" input="SourceAlpha"/>
      <feGaussianBlur stdDeviation="1.5" result="blur-2"/>
      <feFlood flood-color="#fff" flood-opacity="0.302"/>
      <feComposite operator="in" in2="blur-2"/>
      <feComposite in="SourceGraphic"/>
    </filter>
    <linearGradient id="linear-gradient" x1="0.052" y1="-0.067" x2="1.57" y2="1" gradientUnits="objectBoundingBox">
      <stop offset="0" stop-color="#f87b62"/>
      <stop offset="1" stop-color="#ffbc45"/>
    </linearGradient>
  </defs>
  <g id="Group_5909" data-name="Group 5909" transform="translate(-359.035 -304.5)">
    <g id="Group_5796" data-name="Group 5796" transform="translate(372.088 318.459)">
      <g transform="matrix(1, 0, 0, 1, -13.05, -13.96)" filter="url(#Rectangle_1648)">
        <rect id="Rectangle_1648-2" data-name="Rectangle 1648" width="168.93" height="48.051" rx="15" transform="translate(13.5 13.5)" fill="#fcfcfc"/>
      </g>
      <g transform="matrix(1, 0, 0, 1, -13.05, -13.96)" filter="url(#Rectangle_1663)">
        <rect id="Rectangle_1663-2" data-name="Rectangle 1663" width="168.93" height="48.051" rx="15" transform="translate(13.5 13.5)" fill="#fcfcfc"/>
      </g>
      <g id="Path_8591" data-name="Path 8591" transform="translate(0.447 -0.459)" opacity="0.5" fill="url(#linear-gradient)">
        <path d="M 153.9298400878906 47.30078125 L 15.00000667572021 47.30078125 C 11.19368076324463 47.30078125 7.6152024269104 45.81851959228516 4.923724174499512 43.12704467773438 C 2.2322678565979 40.43558502197266 0.7500069737434387 36.85708618164062 0.7500069737434387 33.05078125 L 0.7500069737434387 14.99999904632568 C 0.7500069737434387 11.19369506835938 2.2322678565979 7.615194797515869 4.923724174499512 4.923738479614258 C 7.6152024269104 2.232260227203369 11.19368076324463 0.7499993443489075 15.00000667572021 0.7499993443489075 L 153.9298400878906 0.7499993443489075 C 157.7361602783203 0.7499993443489075 161.3146362304688 2.232260227203369 164.0061187744141 4.923738479614258 C 166.6975708007812 7.615194797515869 168.1798400878906 11.19369506835938 168.1798400878906 14.99999904632568 L 168.1798400878906 33.05078125 C 168.1798400878906 36.85708618164062 166.6975708007812 40.43558502197266 164.0061187744141 43.12704467773438 C 161.3146362304688 45.81851959228516 157.7361602783203 47.30078125 153.9298400878906 47.30078125 Z" stroke="none"/>
        <path d="M 14.99998474121094 1.500003814697266 C 11.39401245117188 1.500003814697266 8.00384521484375 2.904254913330078 5.454055786132812 5.454071044921875 C 2.90423583984375 8.003868103027344 1.499984741210938 11.39402770996094 1.499984741210938 15.00000381469727 L 1.499984741210938 33.05077743530273 C 1.499984741210938 36.65675354003906 2.90423583984375 40.04691314697266 5.454055786132812 42.59671020507812 C 8.00384521484375 45.14652633666992 11.39401245117188 46.55077743530273 14.99998474121094 46.55077743530273 L 153.9298248291016 46.55077743530273 C 157.5358123779297 46.55077743530273 160.9259643554688 45.14652633666992 163.4757537841797 42.59671020507812 C 166.0255737304688 40.04691314697266 167.4298248291016 36.65675354003906 167.4298248291016 33.05077743530273 L 167.4298248291016 15.00000381469727 C 167.4298248291016 11.39402770996094 166.0255737304688 8.003868103027344 163.4757537841797 5.454071044921875 C 160.9259643554688 2.904254913330078 157.5358123779297 1.500003814697266 153.9298248291016 1.500003814697266 L 14.99998474121094 1.500003814697266 M 14.99998474121094 3.814697265625e-06 L 153.9298248291016 3.814697265625e-06 C 162.2140960693359 3.814697265625e-06 168.9298248291016 6.715732574462891 168.9298248291016 15.00000381469727 L 168.9298248291016 33.05077743530273 C 168.9298248291016 41.33504867553711 162.2140960693359 48.05077743530273 153.9298248291016 48.05077743530273 L 14.99998474121094 48.05077743530273 C 6.715713500976562 48.05077743530273 -1.52587890625e-05 41.33504867553711 -1.52587890625e-05 33.05077743530273 L -1.52587890625e-05 15.00000381469727 C -1.52587890625e-05 6.715732574462891 6.715713500976562 3.814697265625e-06 14.99998474121094 3.814697265625e-06 Z" stroke="none" fill="#fcfcfc"/>
      </g>
    </g>
    <g id="Group_5873" data-name="Group 5873" transform="translate(457.876 280.875)">
      <path id="Path_8498" data-name="Path 8498" d="M-2249.015,2738.974a1.927,1.927,0,0,0-1.936,1.925,1.941,1.941,0,0,0,1.919,1.927,1.927,1.927,0,0,0,1.931-1.909A1.915,1.915,0,0,0-2249.015,2738.974Zm0,2.567a.658.658,0,0,1-.648-.638.644.644,0,0,1,.637-.644.636.636,0,0,1,.644.633A.647.647,0,0,1-2249.018,2741.541Zm-.006,2.343a1.94,1.94,0,0,0-1.927,1.941,1.929,1.929,0,0,0,1.929,1.912,1.918,1.918,0,0,0,1.921-1.914A1.929,1.929,0,0,0-2249.024,2743.884Zm.008,2.567a.646.646,0,0,1-.65-.632.657.657,0,0,1,.636-.65.645.645,0,0,1,.646.636A.636.636,0,0,1-2249.017,2746.451Zm3.477-10.958a1.926,1.926,0,0,0-1.929,1.91,1.917,1.917,0,0,0,1.916,1.94,1.928,1.928,0,0,0,1.934-1.928A1.937,1.937,0,0,0-2245.54,2735.493Zm0,2.565a.635.635,0,0,1-.647-.629.646.646,0,0,1,.63-.652.657.657,0,0,1,.651.635A.644.644,0,0,1-2245.538,2738.058Zm.013,9.309a1.917,1.917,0,0,0-1.944,1.912,1.928,1.928,0,0,0,1.923,1.939,1.938,1.938,0,0,0,1.927-1.917A1.927,1.927,0,0,0-2245.525,2747.366Zm-.03,2.566a.645.645,0,0,1-.629-.653.635.635,0,0,1,.647-.628.645.645,0,0,1,.634.648A.656.656,0,0,1-2245.556,2749.933Zm4.933-14.441a1.94,1.94,0,0,0-1.936,1.93,1.929,1.929,0,0,0,1.919,1.921,1.917,1.917,0,0,0,1.933-1.926A1.928,1.928,0,0,0-2240.622,2735.492Zm-.026,2.565a.644.644,0,0,1-.625-.656.656.656,0,0,1,.661-.625.643.643,0,0,1,.619.661A.633.633,0,0,1-2240.648,2738.057Zm3.517.917a1.917,1.917,0,0,0-1.946,1.91,1.931,1.931,0,0,0,1.922,1.941,1.939,1.939,0,0,0,1.928-1.917A1.924,1.924,0,0,0-2237.132,2738.975Zm-.022,2.566a.646.646,0,0,1-.639-.643.638.638,0,0,1,.637-.64.645.645,0,0,1,.644.638A.657.657,0,0,1-2237.153,2741.541Zm.022-2.566a1.917,1.917,0,0,0-1.946,1.91,1.931,1.931,0,0,0,1.922,1.941,1.939,1.939,0,0,0,1.928-1.917A1.924,1.924,0,0,0-2237.132,2738.975Zm-.022,2.566a.646.646,0,0,1-.639-.643.638.638,0,0,1,.637-.64.645.645,0,0,1,.644.638A.657.657,0,0,1-2237.153,2741.541Zm-3.469-6.049a1.94,1.94,0,0,0-1.936,1.93,1.929,1.929,0,0,0,1.919,1.921,1.917,1.917,0,0,0,1.933-1.926A1.928,1.928,0,0,0-2240.622,2735.492Zm-.026,2.565a.644.644,0,0,1-.625-.656.656.656,0,0,1,.661-.625.643.643,0,0,1,.619.661A.633.633,0,0,1-2240.648,2738.057Zm-4.877,9.309a1.917,1.917,0,0,0-1.944,1.912,1.928,1.928,0,0,0,1.923,1.939,1.938,1.938,0,0,0,1.927-1.917A1.927,1.927,0,0,0-2245.525,2747.366Zm-.03,2.566a.645.645,0,0,1-.629-.653.635.635,0,0,1,.647-.628.645.645,0,0,1,.634.648A.656.656,0,0,1-2245.556,2749.933Zm.016-14.44a1.926,1.926,0,0,0-1.929,1.91,1.917,1.917,0,0,0,1.916,1.94,1.928,1.928,0,0,0,1.934-1.928A1.937,1.937,0,0,0-2245.54,2735.493Zm0,2.565a.635.635,0,0,1-.647-.629.646.646,0,0,1,.63-.652.657.657,0,0,1,.651.635A.644.644,0,0,1-2245.538,2738.058Zm-3.486,5.826a1.94,1.94,0,0,0-1.927,1.941,1.929,1.929,0,0,0,1.929,1.912,1.918,1.918,0,0,0,1.921-1.914A1.929,1.929,0,0,0-2249.024,2743.884Zm.008,2.567a.646.646,0,0,1-.65-.632.657.657,0,0,1,.636-.65.645.645,0,0,1,.646.636A.636.636,0,0,1-2249.017,2746.451Zm0-7.477a1.927,1.927,0,0,0-1.936,1.925,1.941,1.941,0,0,0,1.919,1.927,1.927,1.927,0,0,0,1.931-1.909A1.915,1.915,0,0,0-2249.015,2738.974Zm0,2.567a.658.658,0,0,1-.648-.638.644.644,0,0,1,.637-.644.636.636,0,0,1,.644.633A.647.647,0,0,1-2249.018,2741.541Zm0-2.567a1.927,1.927,0,0,0-1.936,1.925,1.941,1.941,0,0,0,1.919,1.927,1.927,1.927,0,0,0,1.931-1.909A1.915,1.915,0,0,0-2249.015,2738.974Zm0,2.567a.658.658,0,0,1-.648-.638.644.644,0,0,1,.637-.644.636.636,0,0,1,.644.633A.647.647,0,0,1-2249.018,2741.541Zm-.006,2.343a1.94,1.94,0,0,0-1.927,1.941,1.929,1.929,0,0,0,1.929,1.912,1.918,1.918,0,0,0,1.921-1.914A1.929,1.929,0,0,0-2249.024,2743.884Zm.008,2.567a.646.646,0,0,1-.65-.632.657.657,0,0,1,.636-.65.645.645,0,0,1,.646.636A.636.636,0,0,1-2249.017,2746.451Zm3.477-10.958a1.926,1.926,0,0,0-1.929,1.91,1.917,1.917,0,0,0,1.916,1.94,1.928,1.928,0,0,0,1.934-1.928A1.937,1.937,0,0,0-2245.54,2735.493Zm0,2.565a.635.635,0,0,1-.647-.629.646.646,0,0,1,.63-.652.657.657,0,0,1,.651.635A.644.644,0,0,1-2245.538,2738.058Zm.013,9.309a1.917,1.917,0,0,0-1.944,1.912,1.928,1.928,0,0,0,1.923,1.939,1.938,1.938,0,0,0,1.927-1.917A1.927,1.927,0,0,0-2245.525,2747.366Zm-.03,2.566a.645.645,0,0,1-.629-.653.635.635,0,0,1,.647-.628.645.645,0,0,1,.634.648A.656.656,0,0,1-2245.556,2749.933Zm4.933-14.441a1.94,1.94,0,0,0-1.936,1.93,1.929,1.929,0,0,0,1.919,1.921,1.917,1.917,0,0,0,1.933-1.926A1.928,1.928,0,0,0-2240.622,2735.492Zm-.026,2.565a.644.644,0,0,1-.625-.656.656.656,0,0,1,.661-.625.643.643,0,0,1,.619.661A.633.633,0,0,1-2240.648,2738.057Zm3.517.917a1.917,1.917,0,0,0-1.946,1.91,1.931,1.931,0,0,0,1.922,1.941,1.939,1.939,0,0,0,1.928-1.917A1.924,1.924,0,0,0-2237.132,2738.975Zm-.022,2.566a.646.646,0,0,1-.639-.643.638.638,0,0,1,.637-.64.645.645,0,0,1,.644.638A.657.657,0,0,1-2237.153,2741.541Zm.022-2.566a1.917,1.917,0,0,0-1.946,1.91,1.931,1.931,0,0,0,1.922,1.941,1.939,1.939,0,0,0,1.928-1.917A1.924,1.924,0,0,0-2237.132,2738.975Zm-.022,2.566a.646.646,0,0,1-.639-.643.638.638,0,0,1,.637-.64.645.645,0,0,1,.644.638A.657.657,0,0,1-2237.153,2741.541Zm-3.469-6.049a1.94,1.94,0,0,0-1.936,1.93,1.929,1.929,0,0,0,1.919,1.921,1.917,1.917,0,0,0,1.933-1.926A1.928,1.928,0,0,0-2240.622,2735.492Zm-.026,2.565a.644.644,0,0,1-.625-.656.656.656,0,0,1,.661-.625.643.643,0,0,1,.619.661A.633.633,0,0,1-2240.648,2738.057Zm-4.877,9.309a1.917,1.917,0,0,0-1.944,1.912,1.928,1.928,0,0,0,1.923,1.939,1.938,1.938,0,0,0,1.927-1.917A1.927,1.927,0,0,0-2245.525,2747.366Zm-.03,2.566a.645.645,0,0,1-.629-.653.635.635,0,0,1,.647-.628.645.645,0,0,1,.634.648A.656.656,0,0,1-2245.556,2749.933Zm.016-14.44a1.926,1.926,0,0,0-1.929,1.91,1.917,1.917,0,0,0,1.916,1.94,1.928,1.928,0,0,0,1.934-1.928A1.937,1.937,0,0,0-2245.54,2735.493Zm0,2.565a.635.635,0,0,1-.647-.629.646.646,0,0,1,.63-.652.657.657,0,0,1,.651.635A.644.644,0,0,1-2245.538,2738.058Zm-3.486,5.826a1.94,1.94,0,0,0-1.927,1.941,1.929,1.929,0,0,0,1.929,1.912,1.918,1.918,0,0,0,1.921-1.914A1.929,1.929,0,0,0-2249.024,2743.884Zm.008,2.567a.646.646,0,0,1-.65-.632.657.657,0,0,1,.636-.65.645.645,0,0,1,.646.636A.636.636,0,0,1-2249.017,2746.451Zm-.015-3.626a1.927,1.927,0,0,0,1.931-1.909,1.915,1.915,0,0,0-1.914-1.942,1.927,1.927,0,0,0-1.936,1.925A1.941,1.941,0,0,0-2249.031,2742.825Zm0-2.567a.636.636,0,0,1,.644.633.647.647,0,0,1-.633.649.658.658,0,0,1-.648-.638A.644.644,0,0,1-2249.029,2740.259Zm16.219-.72a10.789,10.789,0,0,0-8.638-7.024,11.127,11.127,0,0,0-3.195-.066,10.518,10.518,0,0,0-3.355,1.036,10.991,10.991,0,0,0-3.53,2.789,10.938,10.938,0,0,0-2.232,4.312,9.8,9.8,0,0,0-.291,1.827s-.047,1.424,0,2a9.58,9.58,0,0,0,.515,2.285,10.919,10.919,0,0,0,10.481,7.614,3.154,3.154,0,0,0,3.063-3.6,3.894,3.894,0,0,1,.1-1.715,3.688,3.688,0,0,1,4.125-2.558,3.141,3.141,0,0,0,3.645-3.2A10.079,10.079,0,0,0-2232.81,2739.538Zm-2.836,5.629a4.943,4.943,0,0,0-5.633,4.131,4.922,4.922,0,0,0,.005,1.513,1.882,1.882,0,0,1-1.911,2.221,9.667,9.667,0,0,1-9.366-7.631,9.789,9.789,0,0,1-.215-1.765,9.771,9.771,0,0,1,7.369-9.685,9.673,9.673,0,0,1,11.533,6.46,9.567,9.567,0,0,1,.451,2.818A1.879,1.879,0,0,1-2235.646,2745.167Zm-1.486-6.192a1.917,1.917,0,0,0-1.946,1.91,1.931,1.931,0,0,0,1.922,1.941,1.939,1.939,0,0,0,1.928-1.917A1.924,1.924,0,0,0-2237.132,2738.975Zm-.022,2.566a.646.646,0,0,1-.639-.643.638.638,0,0,1,.637-.64.645.645,0,0,1,.644.638A.657.657,0,0,1-2237.153,2741.541Zm-3.469-6.049a1.94,1.94,0,0,0-1.936,1.93,1.929,1.929,0,0,0,1.919,1.921,1.917,1.917,0,0,0,1.933-1.926A1.928,1.928,0,0,0-2240.622,2735.492Zm-.026,2.565a.644.644,0,0,1-.625-.656.656.656,0,0,1,.661-.625.643.643,0,0,1,.619.661A.633.633,0,0,1-2240.648,2738.057Zm-4.877,9.309a1.917,1.917,0,0,0-1.944,1.912,1.928,1.928,0,0,0,1.923,1.939,1.938,1.938,0,0,0,1.927-1.917A1.927,1.927,0,0,0-2245.525,2747.366Zm-.03,2.566a.645.645,0,0,1-.629-.653.635.635,0,0,1,.647-.628.645.645,0,0,1,.634.648A.656.656,0,0,1-2245.556,2749.933Zm.016-14.44a1.926,1.926,0,0,0-1.929,1.91,1.917,1.917,0,0,0,1.916,1.94,1.928,1.928,0,0,0,1.934-1.928A1.937,1.937,0,0,0-2245.54,2735.493Zm0,2.565a.635.635,0,0,1-.647-.629.646.646,0,0,1,.63-.652.657.657,0,0,1,.651.635A.644.644,0,0,1-2245.538,2738.058Zm-3.486,5.826a1.94,1.94,0,0,0-1.927,1.941,1.929,1.929,0,0,0,1.929,1.912,1.918,1.918,0,0,0,1.921-1.914A1.929,1.929,0,0,0-2249.024,2743.884Zm.008,2.567a.646.646,0,0,1-.65-.632.657.657,0,0,1,.636-.65.645.645,0,0,1,.646.636A.636.636,0,0,1-2249.017,2746.451Zm-.015-3.626a1.927,1.927,0,0,0,1.931-1.909,1.915,1.915,0,0,0-1.914-1.942,1.927,1.927,0,0,0-1.936,1.925A1.941,1.941,0,0,0-2249.031,2742.825Zm0-2.567a.636.636,0,0,1,.644.633.647.647,0,0,1-.633.649.658.658,0,0,1-.648-.638A.644.644,0,0,1-2249.029,2740.259Zm.014-1.284a1.927,1.927,0,0,0-1.936,1.925,1.941,1.941,0,0,0,1.919,1.927,1.927,1.927,0,0,0,1.931-1.909A1.915,1.915,0,0,0-2249.015,2738.974Zm0,2.567a.658.658,0,0,1-.648-.638.644.644,0,0,1,.637-.644.636.636,0,0,1,.644.633A.647.647,0,0,1-2249.018,2741.541Zm-.006,2.343a1.94,1.94,0,0,0-1.927,1.941,1.929,1.929,0,0,0,1.929,1.912,1.918,1.918,0,0,0,1.921-1.914A1.929,1.929,0,0,0-2249.024,2743.884Zm.008,2.567a.646.646,0,0,1-.65-.632.657.657,0,0,1,.636-.65.645.645,0,0,1,.646.636A.636.636,0,0,1-2249.017,2746.451Zm3.477-10.958a1.926,1.926,0,0,0-1.929,1.91,1.917,1.917,0,0,0,1.916,1.94,1.928,1.928,0,0,0,1.934-1.928A1.937,1.937,0,0,0-2245.54,2735.493Zm0,2.565a.635.635,0,0,1-.647-.629.646.646,0,0,1,.63-.652.657.657,0,0,1,.651.635A.644.644,0,0,1-2245.538,2738.058Zm.013,9.309a1.917,1.917,0,0,0-1.944,1.912,1.928,1.928,0,0,0,1.923,1.939,1.938,1.938,0,0,0,1.927-1.917A1.927,1.927,0,0,0-2245.525,2747.366Zm-.03,2.566a.645.645,0,0,1-.629-.653.635.635,0,0,1,.647-.628.645.645,0,0,1,.634.648A.656.656,0,0,1-2245.556,2749.933Zm4.933-14.441a1.94,1.94,0,0,0-1.936,1.93,1.929,1.929,0,0,0,1.919,1.921,1.917,1.917,0,0,0,1.933-1.926A1.928,1.928,0,0,0-2240.622,2735.492Zm-.026,2.565a.644.644,0,0,1-.625-.656.656.656,0,0,1,.661-.625.643.643,0,0,1,.619.661A.633.633,0,0,1-2240.648,2738.057Zm3.517.917a1.917,1.917,0,0,0-1.946,1.91,1.931,1.931,0,0,0,1.922,1.941,1.939,1.939,0,0,0,1.928-1.917A1.924,1.924,0,0,0-2237.132,2738.975Zm-.022,2.566a.646.646,0,0,1-.639-.643.638.638,0,0,1,.637-.64.645.645,0,0,1,.644.638A.657.657,0,0,1-2237.153,2741.541Zm.022-2.566a1.917,1.917,0,0,0-1.946,1.91,1.931,1.931,0,0,0,1.922,1.941,1.939,1.939,0,0,0,1.928-1.917A1.924,1.924,0,0,0-2237.132,2738.975Zm-.022,2.566a.646.646,0,0,1-.639-.643.638.638,0,0,1,.637-.64.645.645,0,0,1,.644.638A.657.657,0,0,1-2237.153,2741.541Zm-3.469-6.049a1.94,1.94,0,0,0-1.936,1.93,1.929,1.929,0,0,0,1.919,1.921,1.917,1.917,0,0,0,1.933-1.926A1.928,1.928,0,0,0-2240.622,2735.492Zm-.026,2.565a.644.644,0,0,1-.625-.656.656.656,0,0,1,.661-.625.643.643,0,0,1,.619.661A.633.633,0,0,1-2240.648,2738.057Zm-4.877,9.309a1.917,1.917,0,0,0-1.944,1.912,1.928,1.928,0,0,0,1.923,1.939,1.938,1.938,0,0,0,1.927-1.917A1.927,1.927,0,0,0-2245.525,2747.366Zm-.03,2.566a.645.645,0,0,1-.629-.653.635.635,0,0,1,.647-.628.645.645,0,0,1,.634.648A.656.656,0,0,1-2245.556,2749.933Zm.016-14.44a1.926,1.926,0,0,0-1.929,1.91,1.917,1.917,0,0,0,1.916,1.94,1.928,1.928,0,0,0,1.934-1.928A1.937,1.937,0,0,0-2245.54,2735.493Zm0,2.565a.635.635,0,0,1-.647-.629.646.646,0,0,1,.63-.652.657.657,0,0,1,.651.635A.644.644,0,0,1-2245.538,2738.058Zm-3.486,5.826a1.94,1.94,0,0,0-1.927,1.941,1.929,1.929,0,0,0,1.929,1.912,1.918,1.918,0,0,0,1.921-1.914A1.929,1.929,0,0,0-2249.024,2743.884Zm.008,2.567a.646.646,0,0,1-.65-.632.657.657,0,0,1,.636-.65.645.645,0,0,1,.646.636A.636.636,0,0,1-2249.017,2746.451Zm0-7.477a1.927,1.927,0,0,0-1.936,1.925,1.941,1.941,0,0,0,1.919,1.927,1.927,1.927,0,0,0,1.931-1.909A1.915,1.915,0,0,0-2249.015,2738.974Zm0,2.567a.658.658,0,0,1-.648-.638.644.644,0,0,1,.637-.644.636.636,0,0,1,.644.633A.647.647,0,0,1-2249.018,2741.541Z" transform="translate(2300.226 -2682.21)"/>
      <path id="Path_8499" data-name="Path 8499" d="M-2179.419,2808.9a1.927,1.927,0,0,0-1.936,1.925,1.94,1.94,0,0,0,1.919,1.926,1.928,1.928,0,0,0,1.931-1.909A1.915,1.915,0,0,0-2179.419,2808.9Zm0,2.567a.658.658,0,0,1-.648-.638.645.645,0,0,1,.637-.645.637.637,0,0,1,.644.634A.647.647,0,0,1-2179.422,2811.467Zm-.007,2.343a1.939,1.939,0,0,0-1.926,1.94,1.929,1.929,0,0,0,1.929,1.912,1.918,1.918,0,0,0,1.922-1.914A1.929,1.929,0,0,0-2179.429,2813.81Zm.009,2.567a.647.647,0,0,1-.65-.632.656.656,0,0,1,.636-.65.645.645,0,0,1,.646.636A.637.637,0,0,1-2179.42,2816.378Zm3.477-10.959a1.927,1.927,0,0,0-1.929,1.91,1.918,1.918,0,0,0,1.916,1.941,1.927,1.927,0,0,0,1.934-1.927A1.938,1.938,0,0,0-2175.944,2805.419Zm0,2.565a.635.635,0,0,1-.647-.629.645.645,0,0,1,.63-.652.656.656,0,0,1,.652.635A.644.644,0,0,1-2175.942,2807.984Zm.013,9.308a1.918,1.918,0,0,0-1.944,1.913,1.927,1.927,0,0,0,1.923,1.938,1.938,1.938,0,0,0,1.927-1.918A1.927,1.927,0,0,0-2175.929,2817.292Zm-.031,2.567a.645.645,0,0,1-.628-.653.634.634,0,0,1,.648-.628.644.644,0,0,1,.633.647A.657.657,0,0,1-2175.96,2819.859Zm4.934-14.441a1.94,1.94,0,0,0-1.936,1.93,1.929,1.929,0,0,0,1.919,1.921,1.916,1.916,0,0,0,1.932-1.925A1.927,1.927,0,0,0-2171.026,2805.418Zm-.026,2.565a.645.645,0,0,1-.625-.656.655.655,0,0,1,.66-.625.644.644,0,0,1,.62.66A.634.634,0,0,1-2171.052,2807.984Zm3.517.917a1.918,1.918,0,0,0-1.945,1.912,1.93,1.93,0,0,0,1.923,1.939,1.938,1.938,0,0,0,1.928-1.917A1.925,1.925,0,0,0-2167.536,2808.9Zm-.021,2.566a.646.646,0,0,1-.639-.643.636.636,0,0,1,.637-.64.645.645,0,0,1,.644.638A.657.657,0,0,1-2167.557,2811.467Z" transform="translate(2230.632 -2752.135)"/>
      <path id="Path_8500" data-name="Path 8500" d="M-2098.306,2805.428a1.926,1.926,0,0,0-1.929,1.91,1.918,1.918,0,0,0,1.916,1.941,1.928,1.928,0,0,0,1.934-1.927A1.937,1.937,0,0,0-2098.306,2805.428Zm0,2.565a.636.636,0,0,1-.647-.63.644.644,0,0,1,.629-.652.656.656,0,0,1,.652.635A.645.645,0,0,1-2098.3,2807.993Z" transform="translate(2152.994 -2752.146)"/>
      <path id="Path_8501" data-name="Path 8501" d="M-2098.3,3082.066a1.918,1.918,0,0,0-1.944,1.913,1.928,1.928,0,0,0,1.923,1.938,1.937,1.937,0,0,0,1.927-1.917A1.926,1.926,0,0,0-2098.3,3082.066Zm-.031,2.566a.645.645,0,0,1-.629-.653.634.634,0,0,1,.647-.628.645.645,0,0,1,.634.647A.657.657,0,0,1-2098.33,3084.632Z" transform="translate(2153.001 -3016.909)"/>
      <path id="Path_8502" data-name="Path 8502" d="M-2179.417,2886.529a1.928,1.928,0,0,0-1.936,1.926,1.938,1.938,0,0,0,1.919,1.926,1.927,1.927,0,0,0,1.931-1.909A1.916,1.916,0,0,0-2179.417,2886.529Zm0,2.567a.658.658,0,0,1-.648-.639.645.645,0,0,1,.637-.644.636.636,0,0,1,.644.633A.647.647,0,0,1-2179.42,2889.1Z" transform="translate(2230.628 -2829.765)"/>
      <path id="Path_8503" data-name="Path 8503" d="M-1902.779,2886.546a1.917,1.917,0,0,0-1.945,1.911,1.931,1.931,0,0,0,1.922,1.94,1.939,1.939,0,0,0,1.928-1.917A1.924,1.924,0,0,0-1902.779,2886.546Zm-.021,2.566a.647.647,0,0,1-.64-.643.638.638,0,0,1,.638-.641.646.646,0,0,1,.644.638A.659.659,0,0,1-1902.8,2889.112Z" transform="translate(1965.875 -2829.781)"/>
      <path id="Path_8504" data-name="Path 8504" d="M-2179.429,3000.93a1.939,1.939,0,0,0-1.926,1.939,1.929,1.929,0,0,0,1.929,1.913,1.918,1.918,0,0,0,1.922-1.915A1.929,1.929,0,0,0-2179.429,3000.93Zm.009,2.567a.646.646,0,0,1-.65-.632.656.656,0,0,1,.636-.65.645.645,0,0,1,.646.636A.637.637,0,0,1-2179.42,3003.5Z" transform="translate(2230.632 -2939.256)"/>
      <path id="Path_8505" data-name="Path 8505" d="M-1983.905,2805.418a1.941,1.941,0,0,0-1.937,1.93,1.931,1.931,0,0,0,1.92,1.921,1.917,1.917,0,0,0,1.931-1.925A1.927,1.927,0,0,0-1983.905,2805.418Zm-.026,2.565a.645.645,0,0,1-.625-.656.655.655,0,0,1,.661-.625.644.644,0,0,1,.62.66A.634.634,0,0,1-1983.931,2807.984Z" transform="translate(2043.511 -2752.135)"/>
    </g>
  </g>
</svg>
