<svg id="connection_status_-_on" data-name="connection status - on" xmlns="http://www.w3.org/2000/svg" xmlns:xlink="http://www.w3.org/1999/xlink" width="80" height="48" viewBox="0 0 80 48">
  <defs>
    <clipPath id="clip-path">
      <rect id="Rectangle_1788" data-name="Rectangle 1788" width="80" height="48" transform="translate(846 29)" fill="#fff" stroke="#707070" stroke-width="1"/>
    </clipPath>
  </defs>
  <g id="connection_status_-_on-2" data-name="connection status - on" transform="translate(-846 -29)" clip-path="url(#clip-path)">
    <path id="Rectangle_1786" data-name="Rectangle 1786" d="M20,0H72a0,0,0,0,1,0,0V40a0,0,0,0,1,0,0H20A20,20,0,0,1,0,20v0A20,20,0,0,1,20,0Z" transform="translate(854 32)" fill="#09b8a7" opacity="0.25"/>
    <path id="Path_7921" data-name="Path 7921" d="M20,0H72V40H20A20,20,0,0,1,20,0Z" transform="translate(854 29)" fill="#09b8a7"/>
    <g id="Group_3127" data-name="Group 3127" transform="translate(871.749 40.643)">
      <path id="Path_7671" data-name="Path 7671" d="M-6881.4-1566.968l-4.591-3.8a.717.717,0,0,0-1.174.552v5.794a.117.117,0,0,1-.193.09l-3.219-2.7a.717.717,0,0,0-1.011.088h0a.717.717,0,0,0,.088,1.01l3.872,3.252a.118.118,0,0,1,0,.18l-3.872,3.252a.717.717,0,0,0-.088,1.01h0a.717.717,0,0,0,1.011.088l3.219-2.7a.117.117,0,0,1,.193.09v5.83a.717.717,0,0,0,1.177.55l4.59-3.837a.717.717,0,0,0,0-1.1l-3.743-3.144a.163.163,0,0,1,0-.252l3.743-3.144A.718.718,0,0,0-6881.4-1566.968Zm-3.985-1.437,2.212,1.832a.211.211,0,0,1,0,.325l-2.212,1.858a.212.212,0,0,1-.348-.162v-3.689A.211.211,0,0,1-6885.387-1568.4Zm2.217,9.788-2.216,1.852a.212.212,0,0,1-.347-.162v-3.713a.212.212,0,0,1,.348-.162l2.216,1.861A.212.212,0,0,1-6883.17-1558.616Z" transform="translate(6891.758 1570.935)" fill="#fcfcfc" stroke="#fcfcfc" stroke-width="0.25"/>
    </g>
  </g>
</svg>
