<svg xmlns="http://www.w3.org/2000/svg" xmlns:xlink="http://www.w3.org/1999/xlink" width="58" height="59" viewBox="0 0 58 59">
  <defs>
    <clipPath id="clip-path">
      <rect id="Rectangle_3011" data-name="Rectangle 3011" width="22.653" height="15.353" fill="#25245e" stroke="#fcfcfc" stroke-width="0.4"/>
    </clipPath>
  </defs>
  <g id="Group_5938" data-name="Group 5938" transform="translate(-738 -128.68)">
    <ellipse id="Ellipse_820" data-name="Ellipse 820" cx="23" cy="23.5" rx="23" ry="23.5" transform="translate(744 134.68)" fill="#25245e" opacity="0.2"/>
    <g id="Ellipse_821" data-name="Ellipse 821" transform="translate(743 130.68)" fill="#fcfcfc" stroke="#25245e" stroke-width="1">
      <circle cx="24" cy="24" r="24" stroke="none"/>
      <circle cx="24" cy="24" r="23.5" fill="none"/>
    </g>
    <g id="Group_5939" data-name="Group 5939" transform="translate(754.674 148.003)">
      <g id="Group_5939-2" data-name="Group 5939" clip-path="url(#clip-path)">
        <path id="Path_8601" data-name="Path 8601" d="M11.4,0,4.269,1.272.169,5.3a.563.563,0,0,0-.056.739l.055.074A3.121,3.121,0,0,0,2.1,7.311a.563.563,0,0,0-.025.728l.056.07a3.121,3.121,0,0,0,2.23,1.178q.108.007.215.007a3.123,3.123,0,0,0,2.157-.866L8.213,7l4.145-.888-.017,1.337-2.007,2.827A3.485,3.485,0,0,0,11.25,15.2l.084.055a.563.563,0,0,0,.763-.133l2.169-2.913a3.86,3.86,0,0,1,2.4-1.494,5.219,5.219,0,0,0,3.051-1.788l.513-.617a.563.563,0,0,1,.433-.2h1.43a.563.563,0,0,0,.563-.563V.563A.563.563,0,0,0,22.09,0ZM7.561,5.776,5.8,7.463a1.782,1.782,0,0,1-2.215.2l.667-.733a3.1,3.1,0,0,0,.505-.373L6.282,5.171l4.053-.756,1.167.518Zm13.754,1H20.033a.563.563,0,0,0-.433.2l-.915,1.1A3.854,3.854,0,0,1,16.426,9.4a5.193,5.193,0,0,0-3.233,2.012l-1.675,2.25a2.151,2.151,0,0,1-.092-2.608l2.248-3.168.043-3.437L10.5,3.023l-4.834.9S3.6,5.772,3.448,5.845a1.788,1.788,0,0,1-1.793-.13l3.255-3.2,6.606-1.178h9.8V6.774Z" transform="translate(0)" fill="#25245e" stroke="#fcfcfc" stroke-width="0.4"/>
      </g>
    </g>
  </g>
</svg>
