<svg xmlns="http://www.w3.org/2000/svg" xmlns:xlink="http://www.w3.org/1999/xlink" width="195.93" height="75.051" viewBox="0 0 195.93 75.051">
  <defs>
    <filter id="Rectangle_1648" x="6" y="6" width="189.93" height="69.051" filterUnits="userSpaceOnUse">
      <feOffset dx="3" dy="3" input="SourceAlpha"/>
      <feGaussianBlur stdDeviation="1.5" result="blur"/>
      <feFlood flood-color="#171d1a" flood-opacity="0.071"/>
      <feComposite operator="in" in2="blur"/>
      <feComposite in="SourceGraphic"/>
    </filter>
    <filter id="Rectangle_1663" x="0" y="0" width="189.93" height="69.051" filterUnits="userSpaceOnUse">
      <feOffset dx="-3" dy="-3" input="SourceAlpha"/>
      <feGaussianBlur stdDeviation="1.5" result="blur-2"/>
      <feFlood flood-color="#fff" flood-opacity="0.302"/>
      <feComposite operator="in" in2="blur-2"/>
      <feComposite in="SourceGraphic"/>
    </filter>
    <linearGradient id="linear-gradient" x1="0.052" y1="-0.067" x2="1.57" y2="1" gradientUnits="objectBoundingBox">
      <stop offset="0" stop-color="#f87b62"/>
      <stop offset="1" stop-color="#ffbc45"/>
    </linearGradient>
  </defs>
  <g id="Group_5907" data-name="Group 5907" transform="translate(-556.035 -234.5)">
    <g id="Group_5796" data-name="Group 5796" transform="translate(569.088 248.459)">
      <g transform="matrix(1, 0, 0, 1, -13.05, -13.96)" filter="url(#Rectangle_1648)">
        <rect id="Rectangle_1648-2" data-name="Rectangle 1648" width="168.93" height="48.051" rx="15" transform="translate(13.5 13.5)" fill="#fcfcfc"/>
      </g>
      <g transform="matrix(1, 0, 0, 1, -13.05, -13.96)" filter="url(#Rectangle_1663)">
        <rect id="Rectangle_1663-2" data-name="Rectangle 1663" width="168.93" height="48.051" rx="15" transform="translate(13.5 13.5)" fill="#fcfcfc"/>
      </g>
      <g id="Path_8591" data-name="Path 8591" transform="translate(0.447 -0.459)" opacity="0.5" fill="url(#linear-gradient)">
        <path d="M 153.9298400878906 47.30078125 L 15.00000667572021 47.30078125 C 11.19368076324463 47.30078125 7.6152024269104 45.81851959228516 4.923724174499512 43.12704467773438 C 2.2322678565979 40.43558502197266 0.7500069737434387 36.85708618164062 0.7500069737434387 33.05078125 L 0.7500069737434387 14.99999904632568 C 0.7500069737434387 11.19369506835938 2.2322678565979 7.615194797515869 4.923724174499512 4.923738479614258 C 7.6152024269104 2.232260227203369 11.19368076324463 0.7499993443489075 15.00000667572021 0.7499993443489075 L 153.9298400878906 0.7499993443489075 C 157.7361602783203 0.7499993443489075 161.3146362304688 2.232260227203369 164.0061187744141 4.923738479614258 C 166.6975708007812 7.615194797515869 168.1798400878906 11.19369506835938 168.1798400878906 14.99999904632568 L 168.1798400878906 33.05078125 C 168.1798400878906 36.85708618164062 166.6975708007812 40.43558502197266 164.0061187744141 43.12704467773438 C 161.3146362304688 45.81851959228516 157.7361602783203 47.30078125 153.9298400878906 47.30078125 Z" stroke="none"/>
        <path d="M 14.99998474121094 1.500003814697266 C 11.39401245117188 1.500003814697266 8.00384521484375 2.904254913330078 5.454055786132812 5.454071044921875 C 2.90423583984375 8.003868103027344 1.499984741210938 11.39402770996094 1.499984741210938 15.00000381469727 L 1.499984741210938 33.05077743530273 C 1.499984741210938 36.65675354003906 2.90423583984375 40.04691314697266 5.454055786132812 42.59671020507812 C 8.00384521484375 45.14652633666992 11.39401245117188 46.55077743530273 14.99998474121094 46.55077743530273 L 153.9298248291016 46.55077743530273 C 157.5358123779297 46.55077743530273 160.9259643554688 45.14652633666992 163.4757537841797 42.59671020507812 C 166.0255737304688 40.04691314697266 167.4298248291016 36.65675354003906 167.4298248291016 33.05077743530273 L 167.4298248291016 15.00000381469727 C 167.4298248291016 11.39402770996094 166.0255737304688 8.003868103027344 163.4757537841797 5.454071044921875 C 160.9259643554688 2.904254913330078 157.5358123779297 1.500003814697266 153.9298248291016 1.500003814697266 L 14.99998474121094 1.500003814697266 M 14.99998474121094 3.814697265625e-06 L 153.9298248291016 3.814697265625e-06 C 162.2140960693359 3.814697265625e-06 168.9298248291016 6.715732574462891 168.9298248291016 15.00000381469727 L 168.9298248291016 33.05077743530273 C 168.9298248291016 41.33504867553711 162.2140960693359 48.05077743530273 153.9298248291016 48.05077743530273 L 14.99998474121094 48.05077743530273 C 6.715713500976562 48.05077743530273 -1.52587890625e-05 41.33504867553711 -1.52587890625e-05 33.05077743530273 L -1.52587890625e-05 15.00000381469727 C -1.52587890625e-05 6.715732574462891 6.715713500976562 3.814697265625e-06 14.99998474121094 3.814697265625e-06 Z" stroke="none" fill="#fcfcfc"/>
      </g>
    </g>
    <g id="gesture_icon" data-name="gesture icon" transform="translate(-1548.221 -2085.033)">
      <g id="Path_6820" data-name="Path 6820" transform="translate(2251.951 2348.719)">
        <path id="Path_8512" data-name="Path 8512" d="M2505.263,2408.465a.354.354,0,0,1,.411-.284,2.258,2.258,0,0,1,1.926,2.543.218.218,0,0,1,0,.027.353.353,0,0,1-.347.29.392.392,0,0,1-.063,0,.355.355,0,0,1-.285-.411,1.552,1.552,0,0,0-1.324-1.745h-.007l-.022,0A.354.354,0,0,1,2505.263,2408.465Z" transform="translate(-2493.98 -2405.294)" stroke="#000" stroke-width="0.3"/>
        <path id="Path_8513" data-name="Path 8513" d="M2289.69,2367.965a.353.353,0,0,1-.486-.115l0-.007-2-4.2a.314.314,0,0,1-.009-.031l-.983-2.07a.632.632,0,0,1-.018-.493l.311-.792a2.06,2.06,0,0,0-.039-1.581l-1.021-2.261a1.815,1.815,0,0,0-.729-.82l-2.04-1.223-.041-.025a.843.843,0,1,0-.822,1.472l1.6.937.018.011a.355.355,0,0,1,.1.49,4.253,4.253,0,0,0-.663,3.075.354.354,0,0,1-.7.117,4.989,4.989,0,0,1,.577-3.266l-1.286-.755a1.549,1.549,0,0,1,.165-2.756l-.665-1.4a.3.3,0,0,1-.029-.041l0-.008-1.133-2.4a.69.69,0,0,0-1.275.523l1.786,3.761a.353.353,0,0,1-.416.465.345.345,0,0,1-.217-.161l0-.006-2.159-4.533c0-.007-.006-.013-.009-.018a.689.689,0,0,0-.924-.315.69.69,0,0,0-.314.923l2.363,4.98a.355.355,0,0,1-.148.418.353.353,0,0,1-.486-.115l0-.008-2.052-4.321a.692.692,0,0,0-1.25.593l2.157,4.544a.356.356,0,0,1-.148.418.353.353,0,0,1-.486-.116l0-.007-1.669-3.516a.689.689,0,0,0-1.265.064.679.679,0,0,0,.019.528l4.209,8.448c.149.275.483.839.605,1.033a.368.368,0,0,1,.076.057,4.684,4.684,0,0,0,1.45.934l.272.111a.717.717,0,0,1,.38.361l1.27,2.679a.353.353,0,0,1-.333.471.4.4,0,0,1-.082-.01.349.349,0,0,1-.219-.158l0-.008-1.268-2.672a.026.026,0,0,0-.01-.01l-.273-.111a5.413,5.413,0,0,1-1.669-1.074.091.091,0,0,1-.015-.013l-.021-.022a.358.358,0,0,1-.121-.111c-.134-.2-.631-1.046-.736-1.269l-4.153-8.335a1.4,1.4,0,0,1,1.366-1.991,9.437,9.437,0,0,0,2.146-3.27,1.533,1.533,0,0,0,2.415-.11,1.394,1.394,0,0,1,1.858.664l.866,1.841a.359.359,0,0,1,.056.1l.988,2.087a1.534,1.534,0,0,1,.7.217l2.04,1.223a2.521,2.521,0,0,1,1.01,1.136l1.021,2.261a2.779,2.779,0,0,1,.053,2.131l-.3.758,1.355,2.858.005.007a.561.561,0,0,1,.033.067l.009.03h0l1.575,3.316A.355.355,0,0,1,2289.69,2367.965Z" transform="translate(-2272.51 -2348.719)" stroke="#000" stroke-width="0.3"/>
        <path id="Path_8514" data-name="Path 8514" d="M2510.03,2374.906a.353.353,0,0,1,.354-.548,3.915,3.915,0,0,1,3.338,4.408.268.268,0,0,1,0,.028.354.354,0,0,1-.347.29.442.442,0,0,1-.064-.006.355.355,0,0,1-.284-.412,3.208,3.208,0,0,0-2.737-3.609l-.028,0A.353.353,0,0,1,2510.03,2374.906Z" transform="translate(-2498.014 -2373.389)" stroke="#000" stroke-width="0.3"/>
      </g>
      <g id="Path_6822" data-name="Path 6822" transform="translate(2250.504 2359.783)">
        <path id="Path_8515" data-name="Path 8515" d="M2253.709,2575.268a.354.354,0,0,1-.349.3.417.417,0,0,1-.055,0,3.918,3.918,0,0,1-3.121-4.571.353.353,0,0,1,.694.13,3.211,3.211,0,0,0,2.556,3.746h0A.354.354,0,0,1,2253.709,2575.268Z" transform="translate(-2250.117 -2570.714)" stroke="#000" stroke-width="0.3"/>
        <path id="Path_8516" data-name="Path 8516" d="M2286.507,2579.7a.351.351,0,0,1-.156.221.345.345,0,0,1-.188.055.341.341,0,0,1-.078-.009,2.257,2.257,0,0,1-1.8-2.637.355.355,0,0,1,.632-.134.357.357,0,0,1,.063.263,1.55,1.55,0,0,0,1.23,1.813h.007l.023,0A.355.355,0,0,1,2286.507,2579.7Z" transform="translate(-2282.229 -2577.054)" stroke="#000" stroke-width="0.3"/>
      </g>
    </g>
  </g>
</svg>
