<svg xmlns="http://www.w3.org/2000/svg" xmlns:xlink="http://www.w3.org/1999/xlink" width="36" height="36" viewBox="0 0 36 36"><defs><linearGradient id="a" x1="1.483" y1="1.079" x2="-0.777" y2="-0.232" gradientUnits="objectBoundingBox"><stop offset="0" stop-color="#e6e6e6"/><stop offset="1" stop-color="#c2c2c2"/></linearGradient></defs><g transform="translate(22319.5 8090)"><path d="M18,0A18,18,0,1,1,0,18,18,18,0,0,1,18,0Z" transform="translate(-22319.5 -8090)" fill="url(#a)"/><g transform="translate(-24561.801 -10430.368)"><g transform="translate(2251.951 2348.719)"><path d="M2505.263,2408.465a.354.354,0,0,1,.411-.284,2.258,2.258,0,0,1,1.926,2.543.218.218,0,0,1,0,.027.353.353,0,0,1-.347.29.392.392,0,0,1-.063,0,.355.355,0,0,1-.285-.411,1.552,1.552,0,0,0-1.324-1.745h-.007l-.022,0A.354.354,0,0,1,2505.263,2408.465Z" transform="translate(-2493.98 -2405.294)"/><path d="M2505.611,2408.025a.5.5,0,0,1,.087.008,2.408,2.408,0,0,1,2.052,2.705.233.233,0,0,1,0,.03l0,.011a.5.5,0,0,1-.495.412.53.53,0,0,1-.087-.007.505.505,0,0,1-.409-.582,1.4,1.4,0,0,0-1.2-1.573l-.035-.006a.5.5,0,0,1-.406-.585A.5.5,0,0,1,2505.611,2408.025Zm1.839,2.693v-.014a2.107,2.107,0,0,0-1.8-2.374h-.006a.205.205,0,0,0-.237.165.2.2,0,0,0,.161.235l.018,0h0a1.7,1.7,0,0,1,1.457,1.914v.007a.2.2,0,0,0,.164.237l.036,0a.2.2,0,0,0,.2-.167v-.008h0Z" transform="translate(-2493.98 -2405.294)"/><path d="M2289.69,2367.965a.353.353,0,0,1-.486-.115l0-.007-2-4.2a.314.314,0,0,1-.009-.031l-.983-2.07a.632.632,0,0,1-.018-.493l.311-.792a2.06,2.06,0,0,0-.039-1.581l-1.021-2.261a1.815,1.815,0,0,0-.729-.82l-2.04-1.223-.041-.025a.843.843,0,1,0-.822,1.472l1.6.937.018.011a.355.355,0,0,1,.1.49,4.253,4.253,0,0,0-.663,3.075.354.354,0,0,1-.7.117,4.989,4.989,0,0,1,.577-3.266l-1.286-.755a1.549,1.549,0,0,1,.165-2.756l-.665-1.4a.3.3,0,0,1-.029-.041l0-.008-1.133-2.4a.69.69,0,0,0-1.275.523l1.786,3.761a.353.353,0,0,1-.416.465.345.345,0,0,1-.217-.161l0-.006-2.159-4.533c0-.007-.006-.013-.009-.018a.689.689,0,0,0-.924-.315.69.69,0,0,0-.314.923l2.363,4.98a.355.355,0,0,1-.148.418.353.353,0,0,1-.486-.115l0-.008-2.052-4.321a.692.692,0,0,0-1.25.593l2.157,4.544a.356.356,0,0,1-.148.418.353.353,0,0,1-.486-.116l0-.007-1.669-3.516a.689.689,0,0,0-1.265.064.679.679,0,0,0,.019.528l4.209,8.448c.149.275.483.839.605,1.033a.368.368,0,0,1,.076.057,4.684,4.684,0,0,0,1.45.934l.272.111a.717.717,0,0,1,.38.361l1.27,2.679a.353.353,0,0,1-.333.471.4.4,0,0,1-.082-.01.349.349,0,0,1-.219-.158l0-.008-1.268-2.672a.026.026,0,0,0-.01-.01l-.273-.111a5.413,5.413,0,0,1-1.669-1.074.091.091,0,0,1-.015-.013l-.021-.022a.358.358,0,0,1-.121-.111c-.134-.2-.631-1.046-.736-1.269l-4.153-8.335a1.4,1.4,0,0,1,1.366-1.991,9.437,9.437,0,0,0,2.146-3.27,1.533,1.533,0,0,0,2.415-.11,1.394,1.394,0,0,1,1.858.664l.866,1.841a.359.359,0,0,1,.056.1l.988,2.087a1.534,1.534,0,0,1,.7.217l2.04,1.223a2.521,2.521,0,0,1,1.01,1.136l1.021,2.261a2.779,2.779,0,0,1,.053,2.131l-.3.758,1.355,2.858.005.007a.561.561,0,0,1,.033.067l.009.03h0l1.575,3.316A.355.355,0,0,1,2289.69,2367.965Z" transform="translate(-2272.51 -2348.719)"/><path d="M2289.505,2368.167a.5.5,0,0,1-.429-.239l-.012-.022-2-4.214c0-.01-.007-.02-.009-.031l-.977-2.057a.785.785,0,0,1-.022-.612l.311-.793a1.909,1.909,0,0,0-.036-1.465l-1.021-2.261a1.666,1.666,0,0,0-.669-.753l-2.047-1.228-.03-.018a.693.693,0,1,0-.675,1.21l1.626.954a.505.505,0,0,1,.138.7,4.1,4.1,0,0,0-.64,2.967v.007a.5.5,0,0,1-.4.555.513.513,0,0,1-.1.011.505.505,0,0,1-.493-.4v-.006a5.151,5.151,0,0,1,.524-3.235l-1.161-.681a1.7,1.7,0,0,1,.042-2.955l-.594-1.252a.392.392,0,0,1-.03-.044l-.011-.02-1.133-2.4a.535.535,0,0,0-.487-.311.541.541,0,0,0-.513.713l1.787,3.765a.5.5,0,0,1-.212.606.508.508,0,0,1-.381.057.5.5,0,0,1-.309-.229l-.008-.016-2.158-4.532-.008-.017,0,0a.54.54,0,0,0-.969.477l2.369,5a.5.5,0,0,1-.592.656.5.5,0,0,1-.312-.226l-.009-.017-2.054-4.325a.534.534,0,0,0-.307-.279.542.542,0,0,0-.672.743l2.163,4.559a.5.5,0,0,1-.592.656.5.5,0,0,1-.309-.223l-.014-.024-1.669-3.516a.532.532,0,0,0-.48-.3.545.545,0,0,0-.228.05.536.536,0,0,0-.281.3.528.528,0,0,0,.015.412l4.206,8.442c.139.256.447.776.581.994a.529.529,0,0,1,.072.059,4.52,4.52,0,0,0,1.4.9l.272.111a.866.866,0,0,1,.459.436l1.275,2.693a.5.5,0,0,1-.474.671.547.547,0,0,1-.113-.013.5.5,0,0,1-.315-.226l-.012-.022-1.247-2.627-.225-.092a5.568,5.568,0,0,1-1.708-1.1.227.227,0,0,1-.022-.019l-.009-.009,0-.005a.5.5,0,0,1-.15-.144c-.133-.2-.637-1.054-.748-1.29l-4.152-8.332a1.546,1.546,0,0,1,1.295-2.209,1.544,1.544,0,0,1,1.5-1.918h.028a6.645,6.645,0,0,0,3.173-1.446,1.532,1.532,0,0,1,.661-.149,1.546,1.546,0,0,1,1.4.884l.86,1.827a.517.517,0,0,1,.065.119l.948,2a1.689,1.689,0,0,1,.674.231l2.04,1.222a2.67,2.67,0,0,1,1.069,1.2l1.021,2.261a2.932,2.932,0,0,1,.056,2.247l-.275.7,1.327,2.8a.776.776,0,0,1,.042.084l.009.026,0,.009,1.576,3.318a.5.5,0,0,1-.474.67Zm-.171-.393a.2.2,0,0,0,.365-.172l-1.586-3.338v-.013c0-.012-.01-.023-.016-.033l-.009-.011-.007-.015-1.383-2.917.322-.819a2.628,2.628,0,0,0-.051-2.014l-1.021-2.26a2.373,2.373,0,0,0-.95-1.069l-2.04-1.223a1.387,1.387,0,0,0-.627-.2l-.089-.005-1.031-2.178a.212.212,0,0,0-.032-.057l-.011-.014-.874-1.857a1.246,1.246,0,0,0-2.159-.161l-.12.179-.126-.175a1.231,1.231,0,0,0-.711-.478,1.248,1.248,0,0,0-1.534,1.363l.023.193-.192-.026a1.246,1.246,0,0,0-1.387.975,1.268,1.268,0,0,0,.064.726l.09.224-.24-.018c-.031,0-.063,0-.094,0a1.246,1.246,0,0,0-1.125,1.781l4.152,8.332c.1.212.588,1.043.727,1.253a.2.2,0,0,0,.069.062l.02.011.015.016.016.018h0l.013.012a5.265,5.265,0,0,0,1.623,1.044l.3.123a.177.177,0,0,1,.068.077l1.264,2.664a.2.2,0,0,0,.124.089.2.2,0,0,0,.242-.259l-1.266-2.672a.568.568,0,0,0-.3-.286l-.272-.111a4.825,4.825,0,0,1-1.5-.964.225.225,0,0,0-.047-.036l-.033-.019-.02-.032c-.125-.2-.462-.77-.61-1.042l0,0-4.209-8.448a.84.84,0,0,1,.412-1.117.844.844,0,0,1,.353-.077.831.831,0,0,1,.751.47l1.667,3.511a.2.2,0,0,0,.279.066.2.2,0,0,0,.087-.235l-2.153-4.536a.843.843,0,0,1,.4-1.122.843.843,0,0,1,.643-.032.831.831,0,0,1,.478.434l2.051,4.318a.2.2,0,0,0,.123.086.2.2,0,0,0,.153-.024.207.207,0,0,0,.088-.234l-2.359-4.972a.84.84,0,0,1,1.507-.741l.008.016,0,.006,2.158,4.531a.2.2,0,0,0,.276.064.2.2,0,0,0,.087-.239l-1.789-3.769a.84.84,0,0,1,1.552-.637l1.133,2.4a.139.139,0,0,0,.013.017l.012.015.008.018.731,1.541-.142.062a1.4,1.4,0,0,0-.148,2.489l1.413.83-.073.128a4.847,4.847,0,0,0-.56,3.164.2.2,0,0,0,.2.159.2.2,0,0,0,.042,0,.2.2,0,0,0,.161-.224,4.4,4.4,0,0,1,.687-3.179.2.2,0,0,0-.053-.28l-.017-.01-1.595-.935a.993.993,0,0,1,.971-1.733l.048.029,2.037,1.221a1.965,1.965,0,0,1,.789.887l1.021,2.261a2.211,2.211,0,0,1,.042,1.7l-.311.792a.48.48,0,0,0,.014.375l.989,2.083,0,.015s0,.008,0,.011Z" transform="translate(-2272.51 -2348.719)"/><path d="M2510.03,2374.906a.353.353,0,0,1,.354-.548,3.915,3.915,0,0,1,3.338,4.408.268.268,0,0,1,0,.028.354.354,0,0,1-.347.29.442.442,0,0,1-.064-.006.355.355,0,0,1-.284-.412,3.208,3.208,0,0,0-2.737-3.609l-.028,0A.353.353,0,0,1,2510.03,2374.906Z" transform="translate(-2498.014 -2373.389)"/><path d="M2510.32,2374.2a.507.507,0,0,1,.088.008,4.065,4.065,0,0,1,3.464,4.573c0,.011,0,.025-.006.039a.5.5,0,0,1-.495.412.586.586,0,0,1-.086-.007h-.005a.5.5,0,0,1-.4-.583,3.056,3.056,0,0,0-2.609-3.437l-.036-.006a.5.5,0,0,1,.09-1Zm3.052,4.732a.2.2,0,0,0,.2-.167c0-.006,0-.01,0-.013v-.009a3.765,3.765,0,0,0-3.21-4.239h-.007a.2.2,0,0,0-.237.163.205.205,0,0,0,.033.153.2.2,0,0,0,.132.084l.016,0a3.358,3.358,0,0,1,2.87,3.779v.007a.2.2,0,0,0,.161.237A.3.3,0,0,0,2513.371,2378.934Z" transform="translate(-2498.014 -2373.389)"/></g><g transform="translate(2250.504 2359.783)"><path d="M2253.709,2575.268a.354.354,0,0,1-.349.3.417.417,0,0,1-.055,0,3.918,3.918,0,0,1-3.121-4.571.353.353,0,0,1,.694.13,3.211,3.211,0,0,0,2.556,3.746h0A.354.354,0,0,1,2253.709,2575.268Z" transform="translate(-2250.117 -2570.714)"/><path d="M2253.36,2575.717a.575.575,0,0,1-.074,0h-.008a4.069,4.069,0,0,1-3.24-4.747.5.5,0,0,1,.99.181,3.063,3.063,0,0,0,2.422,3.573h0l.018,0a.5.5,0,0,1-.109.994Zm-.032-.3h.032a.2.2,0,0,0,.052-.4h0a3.362,3.362,0,0,1-2.675-3.921.2.2,0,0,0-.171-.229l-.031,0a.205.205,0,0,0-.2.161A3.768,3.768,0,0,0,2253.329,2575.416Z" transform="translate(-2250.117 -2570.714)"/><path d="M2286.507,2579.7a.351.351,0,0,1-.156.221.345.345,0,0,1-.188.055.341.341,0,0,1-.078-.009,2.257,2.257,0,0,1-1.8-2.637.355.355,0,0,1,.632-.134.357.357,0,0,1,.063.263,1.55,1.55,0,0,0,1.23,1.813h.007l.023,0A.355.355,0,0,1,2286.507,2579.7Z" transform="translate(-2282.229 -2577.054)"/><path d="M2286.163,2580.128a.49.49,0,0,1-.108-.011,2.407,2.407,0,0,1-1.917-2.812.5.5,0,0,1,.99.18,1.4,1.4,0,0,0,1.1,1.641l.019,0,.01,0,.013,0a.506.506,0,0,1,.381.6.5.5,0,0,1-.222.315A.493.493,0,0,1,2286.163,2580.128Zm-1.533-2.923a.2.2,0,0,0-.2.16,2.107,2.107,0,0,0,1.681,2.457h.006a.2.2,0,0,0,.151-.027.2.2,0,0,0,.091-.127.205.205,0,0,0-.15-.242l-.015,0-.014,0a1.7,1.7,0,0,1-1.349-1.988.2.2,0,0,0-.17-.227Z" transform="translate(-2282.229 -2577.054)"/></g></g></g></svg>