<svg xmlns="http://www.w3.org/2000/svg" xmlns:xlink="http://www.w3.org/1999/xlink" width="52" height="52" viewBox="0 0 52 52">
  <defs>
    <clipPath id="clip-path">
      <rect id="Rectangle_1782" data-name="Rectangle 1782" width="52" height="52" transform="translate(29 39)" fill="#fff" stroke="#707070" stroke-width="1"/>
    </clipPath>
  </defs>
  <g id="button_48x48_-_stroke" data-name="button 48x48 - stroke" transform="translate(-29 -39)" clip-path="url(#clip-path)">
    <circle id="Ellipse_15" data-name="Ellipse 15" cx="19" cy="19" r="19" transform="translate(36 45)" fill="#25245e" opacity="0.15"/>
    <g id="Group_5613" data-name="Group 5613" transform="translate(20050 7653)">
      <g id="Ellipse_14" data-name="Ellipse 14" transform="translate(-20015 -7613)" fill="#fcfcfc" stroke="#25245e" stroke-width="1">
        <circle cx="20" cy="20" r="20" stroke="none"/>
        <circle cx="20" cy="20" r="19.5" fill="none"/>
      </g>
      <g id="graph" transform="translate(-20003.412 -7650.081)">
        <g id="Group_5708" data-name="Group 5708" transform="translate(0 50.319)">
          <g id="Group_5707" data-name="Group 5707" transform="translate(0 0)">
            <path id="Path_8425" data-name="Path 8425" d="M16.109,62.766H15.6V62.1a.539.539,0,1,0-1.077,0v.666H10.552V62.1a.539.539,0,1,0-1.077,0v.666H5.508V62.1a.539.539,0,1,0-1.077,0v.666H1.077V59.894L3.4,57.645a.539.539,0,1,0-.749-.774L1.077,58.395V50.858a.539.539,0,0,0-1.077,0V63.3a.538.538,0,0,0,.539.538h15.57a.538.538,0,1,0,0-1.077Z" transform="translate(0 -50.319)" fill="#25245e"/>
            <path id="Path_8426" data-name="Path 8426" d="M101.379,162.68a1.686,1.686,0,0,0,1.163-.465l1.482.765a.539.539,0,0,0,.494-.957l-1.47-.759a1.692,1.692,0,1,0-1.669,1.416Zm0-2.306a.614.614,0,1,1-.615.615A.615.615,0,0,1,101.379,160.374Z" transform="translate(-96.41 -155.714)" fill="#25245e"/>
            <path id="Path_8427" data-name="Path 8427" d="M255.033,177.982a1.691,1.691,0,0,0,1.55-2.367l2.212-2.3a.539.539,0,0,0-.777-.746l-2.16,2.25a1.691,1.691,0,1,0-.825,3.167Zm0-2.306a.614.614,0,1,1-.615.614A.615.615,0,0,1,255.033,175.675Z" transform="translate(-245.012 -168.385)" fill="#25245e"/>
            <path id="Path_8428" data-name="Path 8428" d="M412.16,85.581a1.679,1.679,0,0,0-1.07-.729,1.692,1.692,0,1,0-.692,3.312,1.691,1.691,0,0,0,2-1.311A1.681,1.681,0,0,0,412.16,85.581Zm-.814,1.051a.624.624,0,0,1-.728.477.615.615,0,0,1,.124-1.216.615.615,0,0,1,.6.74Z" transform="translate(-395.605 -83.681)" fill="#25245e"/>
          </g>
        </g>
      </g>
    </g>
  </g>
</svg>
