<svg xmlns="http://www.w3.org/2000/svg" xmlns:xlink="http://www.w3.org/1999/xlink" width="40" height="40" viewBox="0 0 40 40">
  <defs>
    <clipPath id="clip-path">
      <rect id="Rectangle_1829" data-name="Rectangle 1829" width="40" height="40" transform="translate(350 225)" fill="#fff" stroke="#707070" stroke-width="1"/>
    </clipPath>
    <linearGradient id="linear-gradient" x1="1.483" y1="1.079" x2="-0.777" y2="-0.232" gradientUnits="objectBoundingBox">
      <stop offset="0" stop-color="#e6e6e6"/>
      <stop offset="1" stop-color="#c2c2c2"/>
    </linearGradient>
    <clipPath id="clip-path-2">
      <rect id="Rectangle_2678" data-name="Rectangle 2678" width="19.022" height="13.384" fill="none"/>
    </clipPath>
  </defs>
  <g id="button_40x40_-_white_fill" data-name="button 40x40 - white fill" transform="translate(-350 -225)" clip-path="url(#clip-path)">
    <path id="Path_7764" data-name="Path 7764" d="M18,0A18,18,0,1,1,0,18,18,18,0,0,1,18,0Z" transform="translate(352 226)" fill="url(#linear-gradient)"/>
    <g id="Group_5573" data-name="Group 5573" transform="translate(360.489 238.308)">
      <path id="Path_8335" data-name="Path 8335" d="M68.025,0,66.65,2.371,65.211,0H63.663l2.263,3.52L63.763,7H65.31l1.367-2.244L68.107,7h1.557L67.41,3.52,69.582,0Z" transform="translate(-57.049)"/>
      <g id="Group_5572" data-name="Group 5572" transform="translate(0 0)">
        <g id="Group_5571" data-name="Group 5571" clip-path="url(#clip-path-2)">
          <path id="Path_8336" data-name="Path 8336" d="M10.651,55.655a.627.627,0,0,0-.151-.367L9.248,53.849a.62.62,0,1,0-.935.814L8.6,55a26.269,26.269,0,0,1-4.153-.744c-.924-.262-3.086-.974-3.207-1.929-.085-.67.928-1.493,1.431-1.787a.62.62,0,0,0-.62-1.073,6.071,6.071,0,0,0-1.048.8,2.67,2.67,0,0,0-.993,2.21c.157,1.261,1.5,2.233,4.1,2.97a27.3,27.3,0,0,0,4.449.793l-.344.328a.62.62,0,1,0,.854.9l1.387-1.32A.624.624,0,0,0,10.651,55.655Z" transform="translate(0 -44.25)"/>
          <path id="Path_8337" data-name="Path 8337" d="M126,49.483a.62.62,0,0,0-.646,1.058,3.542,3.542,0,0,1,.631.526,1.345,1.345,0,0,1,.456,1.021c-.065.412-.652,1.477-4.7,2.459a.62.62,0,1,0,.292,1.2c3.561-.864,5.4-2,5.634-3.472C127.913,50.674,126.074,49.531,126,49.483Z" transform="translate(-108.663 -44.261)"/>
        </g>
      </g>
    </g>
  </g>
</svg>
