<svg xmlns="http://www.w3.org/2000/svg" xmlns:xlink="http://www.w3.org/1999/xlink" width="249.41" height="232.726" viewBox="0 0 249.41 232.726">
  <defs>
    <filter id="Rectangle_1648" x="0" y="0" width="249.41" height="232.726" filterUnits="userSpaceOnUse">
      <feOffset dx="12" dy="12" input="SourceAlpha"/>
      <feGaussianBlur stdDeviation="10" result="blur"/>
      <feFlood flood-color="#171d1a" flood-opacity="0.071"/>
      <feComposite operator="in" in2="blur"/>
      <feComposite in="SourceGraphic"/>
    </filter>
    <filter id="Rectangle_1663" x="1.119" y="1.119" width="213.173" height="196.488" filterUnits="userSpaceOnUse">
      <feOffset dx="-5" dy="-5" input="SourceAlpha"/>
      <feGaussianBlur stdDeviation="10" result="blur-2"/>
      <feFlood flood-color="#fff" flood-opacity="0.149"/>
      <feComposite operator="in" in2="blur-2"/>
      <feComposite in="SourceGraphic"/>
    </filter>
    <linearGradient id="linear-gradient" x1="-0.571" y1="0.301" x2="0.776" y2="0.456" gradientUnits="objectBoundingBox">
      <stop offset="0" stop-color="#e7e7e7"/>
      <stop offset="1" stop-color="#fcfcfc"/>
    </linearGradient>
    <linearGradient id="linear-gradient-2" y1="0.062" x2="1" y2="1" gradientUnits="objectBoundingBox">
      <stop offset="0" stop-color="#8acdea"/>
      <stop offset="1" stop-color="#30a8ce"/>
    </linearGradient>
  </defs>
  <g id="Group_6176" data-name="Group 6176" transform="translate(-457.626 -128.611)">
    <g id="sub_menu_card" data-name="sub menu card" transform="matrix(0.995, -0.105, 0.105, 0.995, 493.745, 179.484)">
      <g transform="matrix(0.99, 0.1, -0.1, 0.99, -30.6, -54.37)" filter="url(#Rectangle_1648)">
        <rect id="Rectangle_1648-2" data-name="Rectangle 1648" width="141.151" height="122.404" rx="25" transform="matrix(0.99, -0.1, 0.1, 0.99, 36.12, 50.87)" fill="#fcfcfc"/>
      </g>
      <g transform="matrix(0.99, 0.1, -0.1, 0.99, -30.6, -54.37)" filter="url(#Rectangle_1663)">
        <rect id="Rectangle_1663-2" data-name="Rectangle 1663" width="141.151" height="122.404" rx="25" transform="matrix(0.99, -0.1, 0.1, 0.99, 36.12, 50.87)" fill="#fcfcfc"/>
      </g>
      <g id="Rectangle_1664" data-name="Rectangle 1664" stroke="#fcfcfc" stroke-width="1.5" fill="url(#linear-gradient)">
        <rect width="141.151" height="122.404" rx="25" stroke="none"/>
        <rect x="0.75" y="0.75" width="139.651" height="120.904" rx="24.25" fill="none"/>
      </g>
    </g>
    <g id="Group_6169" data-name="Group 6169" transform="translate(0 7.16)">
      <path id="Union_58" data-name="Union 58" d="M13146.651,1016.978v-6.2h-4.045v6.2a2.021,2.021,0,1,1-4.041,0v-6.2h-4.045v6.2a2.021,2.021,0,1,1-4.041,0v-6.2h-4.045v6.2a2.021,2.021,0,1,1-4.041,0v-6.2h-4.045v6.2a2.021,2.021,0,1,1-4.041,0v-6.2h-2.022a6.069,6.069,0,0,1-6.063-6.064v-2.022h-6.2a2.021,2.021,0,1,1,0-4.041h6.2v-4.045h-6.2a2.021,2.021,0,1,1,0-4.041h6.2V986.52h-6.2a2.021,2.021,0,1,1,0-4.041h6.2v-4.045h-6.2a2.021,2.021,0,1,1,0-4.041h6.2v-4.045h-6.2a2.021,2.021,0,1,1,0-4.041h6.2v-2.022a6.069,6.069,0,0,1,6.063-6.064h2.022v-6.2a2.021,2.021,0,1,1,4.041,0v6.2h4.045v-6.2a2.021,2.021,0,1,1,4.041,0v6.2h4.045v-6.2a2.021,2.021,0,1,1,4.041,0v6.2h4.045v-6.2a2.021,2.021,0,1,1,4.041,0v6.2h4.045v-6.2a2.021,2.021,0,1,1,4.042,0v6.2h2.021a6.07,6.07,0,0,1,6.064,6.064v2.022h6.2a2.021,2.021,0,1,1,0,4.041h-6.2v4.045h6.2a2.021,2.021,0,1,1,0,4.041h-6.2v4.045h6.2a2.021,2.021,0,1,1,0,4.041h-6.2v4.045h6.2a2.021,2.021,0,1,1,0,4.041h-6.2v4.045h6.2a2.021,2.021,0,1,1,0,4.041h-6.2v2.022a6.07,6.07,0,0,1-6.064,6.064h-2.021v6.2a2.021,2.021,0,1,1-4.042,0Zm-26.234-49.67a14.118,14.118,0,0,1-5.108,5.109,2.029,2.029,0,0,0-1,1.748v20.673a2.027,2.027,0,0,0,1,1.745,14.169,14.169,0,0,1,5.108,5.109,2.03,2.03,0,0,0,1.748,1h20.67a2.029,2.029,0,0,0,1.748-1,14.184,14.184,0,0,1,5.108-5.109,2.028,2.028,0,0,0,1-1.745V974.165a2.03,2.03,0,0,0-1-1.748,14.133,14.133,0,0,1-5.108-5.109,2.029,2.029,0,0,0-1.748-1h-20.67A2.03,2.03,0,0,0,13120.417,967.308Zm2.865,31.343a18.278,18.278,0,0,0-4.934-4.93V975.282a18.337,18.337,0,0,0,4.934-4.934h18.436a18.365,18.365,0,0,0,4.934,4.934v18.439a18.306,18.306,0,0,0-4.934,4.93Zm15.283-6.064a2.021,2.021,0,1,0,2.02-2.022A2.021,2.021,0,0,0,13138.565,992.587Zm-8.086,0a2.021,2.021,0,1,0,2.019-2.022A2.021,2.021,0,0,0,13130.479,992.587Zm-8.086,0a2.021,2.021,0,1,0,2.022-2.022A2.022,2.022,0,0,0,13122.394,992.587Zm16.172-8.086a2.021,2.021,0,1,0,2.02-2.022A2.019,2.019,0,0,0,13138.565,984.5Zm-8.086,0a2.021,2.021,0,1,0,2.019-2.022A2.019,2.019,0,0,0,13130.479,984.5Zm-8.086,0a2.021,2.021,0,1,0,2.022-2.022A2.019,2.019,0,0,0,13122.394,984.5Zm16.172-8.086a2.021,2.021,0,1,0,2.02-2.022A2.019,2.019,0,0,0,13138.565,976.415Zm-8.086,0a2.021,2.021,0,1,0,2.019-2.022A2.019,2.019,0,0,0,13130.479,976.415Zm-8.086,0a2.021,2.021,0,1,0,2.022-2.022A2.019,2.019,0,0,0,13122.394,976.415Z" transform="translate(-12580.168 -793.187)" opacity="0.35" fill="url(#linear-gradient-2)"/>
      <path id="Union_60" data-name="Union 60" d="M13146.651,1016.978v-6.2h-4.045v6.2a2.021,2.021,0,1,1-4.041,0v-6.2h-4.045v6.2a2.021,2.021,0,1,1-4.041,0v-6.2h-4.045v6.2a2.021,2.021,0,1,1-4.041,0v-6.2h-4.045v6.2a2.021,2.021,0,1,1-4.041,0v-6.2h-2.022a6.069,6.069,0,0,1-6.063-6.064v-2.022h-6.2a2.021,2.021,0,1,1,0-4.041h6.2v-4.045h-6.2a2.021,2.021,0,1,1,0-4.041h6.2V986.52h-6.2a2.021,2.021,0,1,1,0-4.041h6.2v-4.045h-6.2a2.021,2.021,0,1,1,0-4.041h6.2v-4.045h-6.2a2.021,2.021,0,1,1,0-4.041h6.2v-2.022a6.069,6.069,0,0,1,6.063-6.064h2.022v-6.2a2.021,2.021,0,1,1,4.041,0v6.2h4.045v-6.2a2.021,2.021,0,1,1,4.041,0v6.2h4.045v-6.2a2.021,2.021,0,1,1,4.041,0v6.2h4.045v-6.2a2.021,2.021,0,1,1,4.041,0v6.2h4.045v-6.2a2.021,2.021,0,1,1,4.042,0v6.2h2.021a6.07,6.07,0,0,1,6.064,6.064v2.022h6.2a2.021,2.021,0,1,1,0,4.041h-6.2v4.045h6.2a2.021,2.021,0,1,1,0,4.041h-6.2v4.045h6.2a2.021,2.021,0,1,1,0,4.041h-6.2v4.045h6.2a2.021,2.021,0,1,1,0,4.041h-6.2v4.045h6.2a2.021,2.021,0,1,1,0,4.041h-6.2v2.022a6.07,6.07,0,0,1-6.064,6.064h-2.021v6.2a2.021,2.021,0,1,1-4.042,0Zm-26.234-49.67a14.118,14.118,0,0,1-5.108,5.109,2.029,2.029,0,0,0-1,1.748v20.673a2.027,2.027,0,0,0,1,1.745,14.169,14.169,0,0,1,5.108,5.109,2.03,2.03,0,0,0,1.748,1h20.67a2.029,2.029,0,0,0,1.748-1,14.184,14.184,0,0,1,5.108-5.109,2.028,2.028,0,0,0,1-1.745V974.165a2.03,2.03,0,0,0-1-1.748,14.133,14.133,0,0,1-5.108-5.109,2.029,2.029,0,0,0-1.748-1h-20.67A2.03,2.03,0,0,0,13120.417,967.308Zm2.865,31.343a18.278,18.278,0,0,0-4.934-4.93V975.282a18.337,18.337,0,0,0,4.934-4.934h18.436a18.365,18.365,0,0,0,4.934,4.934v18.439a18.306,18.306,0,0,0-4.934,4.93Zm15.283-6.064a2.021,2.021,0,1,0,2.02-2.022A2.021,2.021,0,0,0,13138.565,992.587Zm-8.086,0a2.021,2.021,0,1,0,2.019-2.022A2.021,2.021,0,0,0,13130.479,992.587Zm-8.086,0a2.021,2.021,0,1,0,2.022-2.022A2.022,2.022,0,0,0,13122.394,992.587Zm16.172-8.086a2.021,2.021,0,1,0,2.02-2.022A2.019,2.019,0,0,0,13138.565,984.5Zm-8.086,0a2.021,2.021,0,1,0,2.019-2.022A2.019,2.019,0,0,0,13130.479,984.5Zm-8.086,0a2.021,2.021,0,1,0,2.022-2.022A2.019,2.019,0,0,0,13122.394,984.5Zm16.172-8.086a2.021,2.021,0,1,0,2.02-2.022A2.019,2.019,0,0,0,13138.565,976.415Zm-8.086,0a2.021,2.021,0,1,0,2.019-2.022A2.019,2.019,0,0,0,13130.479,976.415Zm-8.086,0a2.021,2.021,0,1,0,2.022-2.022A2.019,2.019,0,0,0,13122.394,976.415Z" transform="translate(-12580.168 -795.187)" fill="url(#linear-gradient-2)"/>
    </g>
  </g>
</svg>
