<svg xmlns="http://www.w3.org/2000/svg" xmlns:xlink="http://www.w3.org/1999/xlink" width="40" height="40" viewBox="0 0 40 40">
  <defs>
    <clipPath id="clip-path">
      <rect id="Rectangle_1829" data-name="Rectangle 1829" width="40" height="40" transform="translate(350 225)" fill="#fff" stroke="#707070" stroke-width="1"/>
    </clipPath>
    <linearGradient id="linear-gradient" x1="1.483" y1="1.079" x2="-0.777" y2="-0.232" gradientUnits="objectBoundingBox">
      <stop offset="0" stop-color="#e6e6e6"/>
      <stop offset="1" stop-color="#c2c2c2"/>
    </linearGradient>
    <clipPath id="clip-path-2">
      <rect id="Rectangle_2684" data-name="Rectangle 2684" width="15.981" height="13.55"/>
    </clipPath>
  </defs>
  <g id="button_40x40_-_white_fill" data-name="button 40x40 - white fill" transform="translate(-350 -225)" clip-path="url(#clip-path)">
    <path id="Path_7764" data-name="Path 7764" d="M18,0A18,18,0,1,1,0,18,18,18,0,0,1,18,0Z" transform="translate(352 226)" fill="url(#linear-gradient)"/>
    <g id="Group_5588" data-name="Group 5588" transform="translate(362.01 237.225)">
      <g id="Group_5587" data-name="Group 5587" clip-path="url(#clip-path-2)">
        <path id="Path_8348" data-name="Path 8348" d="M8.73,1.988a.2.2,0,0,1-.2-.2v-.49a.2.2,0,0,1,.2-.2h3.947V0H3.284V1.09H7.232a.2.2,0,0,1,.2.2v.49a.2.2,0,0,1-.2.2H0V5.539H1.733a.2.2,0,0,1,.2.2V13.55H14.044V5.744a.2.2,0,0,1,.2-.2h1.733V1.988Zm4.224,10.268a.2.2,0,0,1-.2.2H3.231a.2.2,0,0,1-.2-.2V5.744a.2.2,0,0,1,.2-.2H12.75a.2.2,0,0,1,.2.2Zm1.937-8.011a.2.2,0,0,1-.2.2H1.294a.2.2,0,0,1-.2-.2V3.282a.2.2,0,0,1,.2-.2H14.687a.2.2,0,0,1,.2.2Z"/>
      </g>
    </g>
  </g>
</svg>
