<svg xmlns="http://www.w3.org/2000/svg" xmlns:xlink="http://www.w3.org/1999/xlink" width="20.728" height="62.42" viewBox="0 0 20.728 62.42"><defs><linearGradient id="a" x1="0.186" y1="2.387" x2="0.577" y2="-1.504" gradientUnits="objectBoundingBox"><stop offset="0" stop-color="#e6e6e6"/><stop offset="1" stop-color="#717171"/></linearGradient></defs><g transform="translate(38.958 19.791) rotate(90)" opacity="0.9"><path d="M21282.012,9762.55v.9a2,2,0,0,1-2,2h-28.145a2,2,0,0,1-2-2v-.9a2,2,0,0,1,2-2h28.145A2,2,0,0,1,21282.012,9762.55Z" transform="translate(-21239.883 -9734.405)" stroke="rgba(0,0,0,0)" stroke-miterlimit="10" stroke-width="1" fill="url(#a)"/><g transform="translate(-177.934 657.001) rotate(-90)" style="isolation:isolate"><path d="M140.355,2683.279a10.376,10.376,0,0,0,10.364-10.364V2660.82a10.364,10.364,0,0,0-20.728,0v12.095A10.376,10.376,0,0,0,140.355,2683.279Zm0-29.733a7.285,7.285,0,0,1,7.107,5.729H143.9a1.545,1.545,0,0,0,0,3.09h3.732v3.09H143.9a1.545,1.545,0,0,0,0,3.09h3.732v3.09H143.9a1.545,1.545,0,0,0,0,3.09h3.5a7.275,7.275,0,0,1-14.091,0h3.4a1.545,1.545,0,0,0,0-3.09h-3.627v-3.09h3.627a1.545,1.545,0,0,0,0-3.09h-3.627v-3.09h3.627a1.545,1.545,0,0,0,0-3.09h-3.461a7.285,7.285,0,0,1,7.107-5.729Z" transform="translate(488.052 -2492.313)" fill="url(#a)"/></g></g></svg>