<svg xmlns="http://www.w3.org/2000/svg" xmlns:xlink="http://www.w3.org/1999/xlink" width="40" height="40" viewBox="0 0 40 40">
  <defs>
    <clipPath id="clip-path">
      <rect id="Rectangle_3322" data-name="Rectangle 3322" width="40" height="40" transform="translate(350 225)" fill="#fff" stroke="#707070" stroke-width="1"/>
    </clipPath>
    <linearGradient id="linear-gradient" x1="1.483" y1="1.079" x2="-0.777" y2="-0.232" gradientUnits="objectBoundingBox">
      <stop offset="0" stop-color="#e6e6e6"/>
      <stop offset="1" stop-color="#c2c2c2"/>
    </linearGradient>
  </defs>
  <g id="button_40x40_-_white_fill" data-name="button 40x40 - white fill" transform="translate(-350 -225)" clip-path="url(#clip-path)">
    <path id="Path_8909" data-name="Path 8909" d="M18,0A18,18,0,1,1,0,18,18,18,0,0,1,18,0Z" transform="translate(352 226)" fill="url(#linear-gradient)"/>
    <g id="Layer_2" data-name="Layer 2" transform="translate(361.568 235.568)">
      <path id="Path_8917" data-name="Path 8917" d="M10.459,8.432a2.027,2.027,0,1,0-2.7,1.9v4.854a.676.676,0,0,0,1.351,0V10.335A2.024,2.024,0,0,0,10.459,8.432Zm-2.027.676a.676.676,0,1,1,.676-.676A.676.676,0,0,1,8.432,9.108ZM5.566,11.974a.674.674,0,0,1-.478-.2,4.732,4.732,0,0,1-1.048-5.1.676.676,0,1,1,1.254.5,3.384,3.384,0,0,0,.749,3.643.676.676,0,0,1-.478,1.153Zm.542-6.188a.676.676,0,0,1-.389-1.229,4.807,4.807,0,0,1,5.358-.046.676.676,0,1,1-.756,1.12A3.431,3.431,0,0,0,6.5,5.664a.672.672,0,0,1-.387.122Zm-2.453,8.1a.674.674,0,0,1-.478-.2A7.441,7.441,0,0,1,1.53,5.671a.676.676,0,1,1,1.255.5,6.088,6.088,0,0,0,1.347,6.559.676.676,0,0,1-.478,1.153ZM11.3,11.973a.676.676,0,0,1-.478-1.153,3.384,3.384,0,0,0,.749-3.644.676.676,0,1,1,1.254-.5,4.732,4.732,0,0,1-1.048,5.1.674.674,0,0,1-.478.2Zm1.911,1.911a.676.676,0,0,1-.478-1.153,6.088,6.088,0,0,0,1.347-6.559.676.676,0,1,1,1.255-.5,7.441,7.441,0,0,1-1.647,8.016.673.673,0,0,1-.478.2ZM4.558,3.572a.676.676,0,0,1-.389-1.229,7.435,7.435,0,0,1,8.419-.074.676.676,0,1,1-.756,1.12,6.179,6.179,0,0,0-6.886.06.673.673,0,0,1-.387.122Z" transform="translate(0)"/>
    </g>
  </g>
</svg>
