<svg xmlns="http://www.w3.org/2000/svg" width="18.244" height="17.134" viewBox="0 0 18.244 17.134">
  <g id="led_icon" data-name="led icon" transform="translate(17550.26 -480.85)">
    <path id="Path_6950" data-name="Path 6950" d="M1940.883,1273.211h-.561v-3.364a4.485,4.485,0,0,0-8.971,0v3.364h-.56a.561.561,0,0,0,0,1.121h1.682v2.817a.561.561,0,1,0,1.121,0v-2.817h4.486v2.817a.561.561,0,0,0,1.121,0v-2.817h1.682a.561.561,0,0,0,0-1.121Zm-8.41,0v-3.364a3.364,3.364,0,0,1,6.728,0v3.364Z" transform="translate(-19476.975 -779.877)" stroke="#000" stroke-width="0.3"/>
    <path id="path-1" d="M2048.891,1303.887h1.122a.56.56,0,0,1,.561.56h0a.561.561,0,0,1-.561.561h-1.122a.561.561,0,0,1-.56-.561h0A.561.561,0,0,1,2048.891,1303.887Z" transform="translate(-19582.738 -814.224)" stroke="#000" stroke-width="0.3"/>
    <path id="path-1-2" data-name="path-1" d="M1899.769,1303.887h1.121a.56.56,0,0,1,.561.56h0a.561.561,0,0,1-.561.561h-1.121a.561.561,0,0,1-.561-.561h0A.56.56,0,0,1,1899.769,1303.887Z" transform="translate(-19449.318 -814.224)" stroke="#000" stroke-width="0.3"/>
    <path id="Path_6951" data-name="Path 6951" d="M1977.322,1224h0a.56.56,0,0,1,.56.561v1.122a.56.56,0,0,1-.56.56h0a.561.561,0,0,1-.56-.56v-1.122A.561.561,0,0,1,1977.322,1224Z" transform="translate(-19518.463 -743)" stroke="#000" stroke-width="0.3"/>
    <path id="Path_6952" data-name="Path 6952" d="M1922.086,1246.877h0a.561.561,0,0,1,.793,0l.792.793a.56.56,0,0,1,0,.792h0a.559.559,0,0,1-.792,0l-.793-.792A.561.561,0,0,1,1922.086,1246.877Z" transform="translate(-19469.564 -763.25)" stroke="#000" stroke-width="0.3"/>
    <path id="Path_6953" data-name="Path 6953" d="M2024.434,1247.67l.793-.793a.56.56,0,0,1,.793,0h0a.561.561,0,0,1,0,.793l-.793.792a.56.56,0,0,1-.793,0h0A.561.561,0,0,1,2024.434,1247.67Z" transform="translate(-19560.814 -763.25)" stroke="#000" stroke-width="0.3"/>
  </g>
</svg>
