<svg xmlns="http://www.w3.org/2000/svg" xmlns:xlink="http://www.w3.org/1999/xlink" width="36" height="36" viewBox="0 0 36 36"><defs><linearGradient id="a" x1="1.483" y1="1.079" x2="-0.777" y2="-0.232" gradientUnits="objectBoundingBox"><stop offset="0" stop-color="#e6e6e6"/><stop offset="1" stop-color="#c2c2c2"/></linearGradient></defs><g transform="translate(22099 8147)"><path d="M18,0A18,18,0,1,1,0,18,18,18,0,0,1,18,0Z" transform="translate(-22099 -8147)" fill="url(#a)"/><g transform="translate(-17038.713 -5848.179)"><path d="M-5034.563-2274.951q0-3.028,0-6.057a10.4,10.4,0,0,0-.081-1.342,7.747,7.747,0,0,0-9.108-6.457,7.709,7.709,0,0,0-6.252,7.709c-.011,4.359,0,1.863-.01,6.221,0,.277.089.33.345.327,1.089-.014,2.18,0,3.269-.01.179,0,8.03,0,8.238,0,1.09.009,2.18,0,3.269.01.264,0,.339-.062.338-.333m-1.936-1.889c0,.224-.057.283-.282.282q-5.511-.01-11.024,0c-.226,0-.281-.06-.28-.283.007-3.033,0-4.49.007-4.754a5.808,5.808,0,0,1,5.238-5.46,5.784,5.784,0,0,1,6.3,5.037C-5036.427-2281.221-5036.5-2279.806-5036.493-2276.772Z"/><path d="M-5007.919-2208.076c-.008-.22.067-.284.284-.282.821.011,1.643.015,2.464,0,.265-.006.294.108.291.326-.009.8-.011,1.608,0,2.413,0,.237-.063.321-.31.317q-1.207-.02-2.415,0c-.235,0-.328-.062-.317-.309.017-.419,0-.838,0-1.258C-5007.915-2207.271-5007.9-2207.674-5007.919-2208.076Z" transform="translate(-38.488 -73.692)"/><path d="M-4947.278-2208.076c-.008-.22.067-.284.284-.282.821.011,1.643.015,2.464,0,.265-.006.294.108.292.326-.009.8-.011,1.608,0,2.413,0,.237-.063.321-.31.317q-1.207-.02-2.415,0c-.236,0-.328-.062-.318-.309.018-.419.005-.838.005-1.258C-4947.274-2207.271-4947.263-2207.674-4947.278-2208.076Z" transform="translate(-93.933 -73.692)" fill="#717171" opacity="0.3"/></g></g></svg>