<svg xmlns="http://www.w3.org/2000/svg" xmlns:xlink="http://www.w3.org/1999/xlink" width="264.395" height="245.705" viewBox="0 0 264.395 245.705">
  <defs>
    <filter id="Rectangle_1648" x="0" y="0" width="264.395" height="245.705" filterUnits="userSpaceOnUse">
      <feOffset dx="12" dy="12" input="SourceAlpha"/>
      <feGaussianBlur stdDeviation="10" result="blur"/>
      <feFlood flood-color="#171d1a" flood-opacity="0.071"/>
      <feComposite operator="in" in2="blur"/>
      <feComposite in="SourceGraphic"/>
    </filter>
    <filter id="Rectangle_1663" x="1.119" y="1.119" width="228.158" height="209.468" filterUnits="userSpaceOnUse">
      <feOffset dx="-5" dy="-5" input="SourceAlpha"/>
      <feGaussianBlur stdDeviation="10" result="blur-2"/>
      <feFlood flood-color="#fff" flood-opacity="0.149"/>
      <feComposite operator="in" in2="blur-2"/>
      <feComposite in="SourceGraphic"/>
    </filter>
    <linearGradient id="linear-gradient" x1="-0.571" y1="0.301" x2="0.776" y2="0.456" gradientUnits="objectBoundingBox">
      <stop offset="0" stop-color="#e7e7e7"/>
      <stop offset="1" stop-color="#fcfcfc"/>
    </linearGradient>
    <linearGradient id="linear-gradient-2" x1="0.089" y1="0.166" x2="0.821" y2="0.958" gradientUnits="objectBoundingBox">
      <stop offset="0" stop-color="#8acdea"/>
      <stop offset="1" stop-color="#30a8ce"/>
    </linearGradient>
  </defs>
  <g id="Group_5687" data-name="Group 5687" transform="translate(-258.723 -119.147)">
    <g id="sub_menu_card" data-name="sub menu card" transform="matrix(0.995, -0.105, 0.105, 0.995, 294.842, 171.468)">
      <g transform="matrix(0.99, 0.1, -0.1, 0.99, -30.45, -55.81)" filter="url(#Rectangle_1648)">
        <rect id="Rectangle_1648-2" data-name="Rectangle 1648" width="155" height="134" rx="25" transform="matrix(0.99, -0.1, 0.1, 0.99, 36.12, 52.32)" fill="#fcfcfc"/>
      </g>
      <g transform="matrix(0.99, 0.1, -0.1, 0.99, -30.45, -55.81)" filter="url(#Rectangle_1663)">
        <rect id="Rectangle_1663-2" data-name="Rectangle 1663" width="155" height="134" rx="25" transform="matrix(0.99, -0.1, 0.1, 0.99, 36.12, 52.32)" fill="#fcfcfc"/>
      </g>
      <g id="Rectangle_1664" data-name="Rectangle 1664" stroke="#fcfcfc" stroke-width="1.5" fill="url(#linear-gradient)">
        <rect width="155" height="134" rx="25" stroke="none"/>
        <rect x="0.75" y="0.75" width="153.5" height="132.5" rx="24.25" fill="none"/>
      </g>
    </g>
    <g id="Group_5769" data-name="Group 5769" transform="translate(7 12)">
      <g id="Group_5768" data-name="Group 5768" transform="translate(-2 -1)">
        <path id="Path_8434" data-name="Path 8434" d="M74.955,25.6A8.312,8.312,0,0,0,68.97,39.694L53.754,70.121a8.058,8.058,0,0,0-1.008-.1,8.293,8.293,0,0,0-3.134.622L37.8,57.356a8.229,8.229,0,0,0,1.066-3.995,8.329,8.329,0,1,0-14.614,5.4L9.816,84.049a8.355,8.355,0,0,0-1.488-.15,8.429,8.429,0,1,0,6.285,2.926L29.049,61.54a7.919,7.919,0,0,0,4.611-.472L45.473,74.352a8.227,8.227,0,0,0-1.055,3.995A8.328,8.328,0,1,0,58.732,72.58L73.948,42.154a8.055,8.055,0,0,0,1.008.1,8.328,8.328,0,1,0,0-16.657ZM8.328,95A2.776,2.776,0,1,1,11.1,92.227,2.776,2.776,0,0,1,8.328,95ZM30.537,56.137a2.776,2.776,0,1,1,2.776-2.776A2.776,2.776,0,0,1,30.537,56.137ZM52.747,81.122a2.776,2.776,0,1,1,2.776-2.776A2.776,2.776,0,0,1,52.747,81.122ZM74.955,36.7a2.776,2.776,0,1,1,2.776-2.776A2.776,2.776,0,0,1,74.955,36.7Z" transform="translate(323.368 124.014)" opacity="0.35" fill="url(#linear-gradient-2)"/>
      </g>
      <g id="graph_2_" data-name="graph (2)" transform="translate(320.368 121.013)">
        <g id="Group_5767" data-name="Group 5767" transform="translate(0 25.6)">
          <path id="Path_8434-2" data-name="Path 8434" d="M76.957,25.6a8.534,8.534,0,0,0-6.145,14.471L55.189,71.31a8.273,8.273,0,0,0-1.035-.105,8.514,8.514,0,0,0-3.218.638L38.809,58.2A8.449,8.449,0,0,0,39.9,54.1a8.551,8.551,0,1,0-15,5.547L10.079,85.609a8.579,8.579,0,0,0-1.528-.154,8.654,8.654,0,1,0,6.453,3L29.825,62.5a8.13,8.13,0,0,0,4.734-.484L46.687,75.653a8.447,8.447,0,0,0-1.083,4.1,8.551,8.551,0,1,0,14.7-5.92L75.922,42.6a8.27,8.27,0,0,0,1.035.105,8.551,8.551,0,1,0,0-17.1ZM8.551,96.856a2.85,2.85,0,1,1,2.85-2.85A2.85,2.85,0,0,1,8.551,96.856Zm22.8-39.9A2.85,2.85,0,1,1,34.2,54.1,2.85,2.85,0,0,1,31.353,56.953ZM54.155,82.6a2.85,2.85,0,1,1,2.85-2.85A2.85,2.85,0,0,1,54.155,82.6ZM76.957,37a2.85,2.85,0,1,1,2.85-2.85A2.85,2.85,0,0,1,76.957,37Z" transform="translate(0 -25.6)" fill="url(#linear-gradient-2)"/>
        </g>
      </g>
    </g>
  </g>
</svg>
