<svg xmlns="http://www.w3.org/2000/svg" xmlns:xlink="http://www.w3.org/1999/xlink" width="264.395" height="245.705" viewBox="0 0 264.395 245.705">
  <defs>
    <filter id="Rectangle_1648" x="0" y="0" width="264.395" height="245.705" filterUnits="userSpaceOnUse">
      <feOffset dx="12" dy="12" input="SourceAlpha"/>
      <feGaussianBlur stdDeviation="10" result="blur"/>
      <feFlood flood-color="#171d1a" flood-opacity="0.071"/>
      <feComposite operator="in" in2="blur"/>
      <feComposite in="SourceGraphic"/>
    </filter>
    <filter id="Rectangle_1663" x="1.119" y="1.119" width="228.158" height="209.468" filterUnits="userSpaceOnUse">
      <feOffset dx="-5" dy="-5" input="SourceAlpha"/>
      <feGaussianBlur stdDeviation="10" result="blur-2"/>
      <feFlood flood-color="#fff" flood-opacity="0.149"/>
      <feComposite operator="in" in2="blur-2"/>
      <feComposite in="SourceGraphic"/>
    </filter>
    <linearGradient id="linear-gradient" x1="-0.571" y1="0.301" x2="0.776" y2="0.456" gradientUnits="objectBoundingBox">
      <stop offset="0" stop-color="#e7e7e7"/>
      <stop offset="1" stop-color="#fcfcfc"/>
    </linearGradient>
    <linearGradient id="linear-gradient-2" x1="0.033" y1="0.131" x2="0.907" y2="0.943" gradientUnits="objectBoundingBox">
      <stop offset="0" stop-color="#8acdea"/>
      <stop offset="1" stop-color="#30a8ce"/>
    </linearGradient>
  </defs>
  <g id="Group_5772" data-name="Group 5772" transform="translate(-258.723 -119.147)">
    <g id="sub_menu_card" data-name="sub menu card" transform="matrix(0.995, -0.105, 0.105, 0.995, 294.842, 171.468)">
      <g transform="matrix(0.99, 0.1, -0.1, 0.99, -30.45, -55.81)" filter="url(#Rectangle_1648)">
        <rect id="Rectangle_1648-2" data-name="Rectangle 1648" width="155" height="134" rx="25" transform="matrix(0.99, -0.1, 0.1, 0.99, 36.12, 52.32)" fill="#fcfcfc"/>
      </g>
      <g transform="matrix(0.99, 0.1, -0.1, 0.99, -30.45, -55.81)" filter="url(#Rectangle_1663)">
        <rect id="Rectangle_1663-2" data-name="Rectangle 1663" width="155" height="134" rx="25" transform="matrix(0.99, -0.1, 0.1, 0.99, 36.12, 52.32)" fill="#fcfcfc"/>
      </g>
      <g id="Rectangle_1664" data-name="Rectangle 1664" stroke="#fcfcfc" stroke-width="1.5" fill="url(#linear-gradient)">
        <rect width="155" height="134" rx="25" stroke="none"/>
        <rect x="0.75" y="0.75" width="153.5" height="132.5" rx="24.25" fill="none"/>
      </g>
    </g>
    <g id="Group_5773" data-name="Group 5773" transform="translate(-396.538 -48.654)">
      <path id="speed" d="M68.294,20.405l-4.442,6.681a28.891,28.891,0,0,1-.795,27.375H13A28.891,28.891,0,0,1,50.959,14.193l6.681-4.442A36.114,36.114,0,0,0,6.792,58.072,7.222,7.222,0,0,0,13,61.684H63.021A7.223,7.223,0,0,0,69.3,58.072a36.113,36.113,0,0,0-.975-37.7Zm-35.355,24.7a7.223,7.223,0,0,0,10.22,0L63.6,14.446,32.939,34.887a7.222,7.222,0,0,0,0,10.22Z" transform="translate(723.098 219.532)" opacity="0.35" fill="url(#linear-gradient-2)"/>
      <path id="speed-2" data-name="speed" d="M68.294,20.405l-4.442,6.681a28.891,28.891,0,0,1-.795,27.375H13A28.891,28.891,0,0,1,50.959,14.193l6.681-4.442A36.114,36.114,0,0,0,6.792,58.072,7.222,7.222,0,0,0,13,61.684H63.021A7.223,7.223,0,0,0,69.3,58.072a36.113,36.113,0,0,0-.975-37.7Zm-35.355,24.7a7.223,7.223,0,0,0,10.22,0L63.6,14.446,32.939,34.887a7.222,7.222,0,0,0,0,10.22Z" transform="translate(720.968 217.401)" fill="url(#linear-gradient-2)"/>
    </g>
  </g>
</svg>
