<svg xmlns="http://www.w3.org/2000/svg" xmlns:xlink="http://www.w3.org/1999/xlink" width="195.93" height="75.051" viewBox="0 0 195.93 75.051">
  <defs>
    <filter id="Rectangle_1648" x="6" y="6" width="189.93" height="69.051" filterUnits="userSpaceOnUse">
      <feOffset dx="3" dy="3" input="SourceAlpha"/>
      <feGaussianBlur stdDeviation="1.5" result="blur"/>
      <feFlood flood-color="#171d1a" flood-opacity="0.071"/>
      <feComposite operator="in" in2="blur"/>
      <feComposite in="SourceGraphic"/>
    </filter>
    <filter id="Rectangle_1663" x="0" y="0" width="189.93" height="69.051" filterUnits="userSpaceOnUse">
      <feOffset dx="-3" dy="-3" input="SourceAlpha"/>
      <feGaussianBlur stdDeviation="1.5" result="blur-2"/>
      <feFlood flood-color="#fff" flood-opacity="0.302"/>
      <feComposite operator="in" in2="blur-2"/>
      <feComposite in="SourceGraphic"/>
    </filter>
    <linearGradient id="linear-gradient" x1="0.052" y1="-0.067" x2="1.57" y2="1" gradientUnits="objectBoundingBox">
      <stop offset="0" stop-color="#f87b62"/>
      <stop offset="1" stop-color="#ffbc45"/>
    </linearGradient>
  </defs>
  <g id="Group_5899" data-name="Group 5899" transform="translate(-162.035 -94.5)">
    <g id="Group_5796" data-name="Group 5796" transform="translate(175.088 108.459)">
      <g transform="matrix(1, 0, 0, 1, -13.05, -13.96)" filter="url(#Rectangle_1648)">
        <rect id="Rectangle_1648-2" data-name="Rectangle 1648" width="168.93" height="48.051" rx="15" transform="translate(13.5 13.5)" fill="#fcfcfc"/>
      </g>
      <g transform="matrix(1, 0, 0, 1, -13.05, -13.96)" filter="url(#Rectangle_1663)">
        <rect id="Rectangle_1663-2" data-name="Rectangle 1663" width="168.93" height="48.051" rx="15" transform="translate(13.5 13.5)" fill="#fcfcfc"/>
      </g>
      <g id="Path_8591" data-name="Path 8591" transform="translate(0.447 -0.459)" opacity="0.5" fill="url(#linear-gradient)">
        <path d="M 153.9298400878906 47.30078125 L 15.00000667572021 47.30078125 C 11.19368076324463 47.30078125 7.6152024269104 45.81851959228516 4.923724174499512 43.12704467773438 C 2.2322678565979 40.43558502197266 0.7500069737434387 36.85708618164062 0.7500069737434387 33.05078125 L 0.7500069737434387 14.99999904632568 C 0.7500069737434387 11.19369506835938 2.2322678565979 7.615194797515869 4.923724174499512 4.923738479614258 C 7.6152024269104 2.232260227203369 11.19368076324463 0.7499993443489075 15.00000667572021 0.7499993443489075 L 153.9298400878906 0.7499993443489075 C 157.7361602783203 0.7499993443489075 161.3146362304688 2.232260227203369 164.0061187744141 4.923738479614258 C 166.6975708007812 7.615194797515869 168.1798400878906 11.19369506835938 168.1798400878906 14.99999904632568 L 168.1798400878906 33.05078125 C 168.1798400878906 36.85708618164062 166.6975708007812 40.43558502197266 164.0061187744141 43.12704467773438 C 161.3146362304688 45.81851959228516 157.7361602783203 47.30078125 153.9298400878906 47.30078125 Z" stroke="none"/>
        <path d="M 14.99998474121094 1.500003814697266 C 11.39401245117188 1.500003814697266 8.00384521484375 2.904254913330078 5.454055786132812 5.454071044921875 C 2.90423583984375 8.003868103027344 1.499984741210938 11.39402770996094 1.499984741210938 15.00000381469727 L 1.499984741210938 33.05077743530273 C 1.499984741210938 36.65675354003906 2.90423583984375 40.04691314697266 5.454055786132812 42.59671020507812 C 8.00384521484375 45.14652633666992 11.39401245117188 46.55077743530273 14.99998474121094 46.55077743530273 L 153.9298248291016 46.55077743530273 C 157.5358123779297 46.55077743530273 160.9259643554688 45.14652633666992 163.4757537841797 42.59671020507812 C 166.0255737304688 40.04691314697266 167.4298248291016 36.65675354003906 167.4298248291016 33.05077743530273 L 167.4298248291016 15.00000381469727 C 167.4298248291016 11.39402770996094 166.0255737304688 8.003868103027344 163.4757537841797 5.454071044921875 C 160.9259643554688 2.904254913330078 157.5358123779297 1.500003814697266 153.9298248291016 1.500003814697266 L 14.99998474121094 1.500003814697266 M 14.99998474121094 3.814697265625e-06 L 153.9298248291016 3.814697265625e-06 C 162.2140960693359 3.814697265625e-06 168.9298248291016 6.715732574462891 168.9298248291016 15.00000381469727 L 168.9298248291016 33.05077743530273 C 168.9298248291016 41.33504867553711 162.2140960693359 48.05077743530273 153.9298248291016 48.05077743530273 L 14.99998474121094 48.05077743530273 C 6.715713500976562 48.05077743530273 -1.52587890625e-05 41.33504867553711 -1.52587890625e-05 33.05077743530273 L -1.52587890625e-05 15.00000381469727 C -1.52587890625e-05 6.715732574462891 6.715713500976562 3.814697265625e-06 14.99998474121094 3.814697265625e-06 Z" stroke="none" fill="#fcfcfc"/>
      </g>
    </g>
    <path id="Union_45" data-name="Union 45" d="M16824.809,13060.507a.809.809,0,1,1,0-1.618h2.615v-2.05a4.246,4.246,0,0,1-3.426-4.16v-4.942a4.232,4.232,0,1,1,8.465,0v4.942a4.242,4.242,0,0,1-3.422,4.159v2.051h2.615a.809.809,0,1,1,0,1.618Zm3.354-4.854c.023,0,.049,0,.072,0s.047,0,.07,0a2.973,2.973,0,0,0,2.8-2.234h-1.432a.631.631,0,0,1,0-1.263h1.529v-1.263h-1.529a.632.632,0,0,1,0-1.264h1.529v-1.259h-1.529a.634.634,0,0,1,0-1.268h1.457a2.97,2.97,0,0,0-5.8,0h1.416a.634.634,0,0,1,0,1.268h-1.482v1.259h1.482a.632.632,0,0,1,0,1.264h-1.482v1.263h1.482a.631.631,0,0,1,0,1.263h-1.391A2.977,2.977,0,0,0,16828.162,13055.652Z" transform="translate(-16513.234 -12919.52)" stroke="rgba(0,0,0,0)" stroke-width="1"/>
  </g>
</svg>
