<svg xmlns="http://www.w3.org/2000/svg" xmlns:xlink="http://www.w3.org/1999/xlink" width="36" height="36" viewBox="0 0 36 36"><defs><linearGradient id="a" x1="0.117" y1="0.107" x2="0.862" y2="0.932" gradientUnits="objectBoundingBox"><stop offset="0" stop-color="#ffbc45"/><stop offset="0.733" stop-color="#f87b62"/><stop offset="1" stop-color="#f16178"/></linearGradient></defs><g transform="translate(22319 8422)"><path d="M18,0A18,18,0,1,1,0,18,18,18,0,0,1,18,0Z" transform="translate(-22319 -8422)" fill="url(#a)"/><path d="M16824.809,13060.507a.809.809,0,1,1,0-1.618h2.615v-2.05a4.246,4.246,0,0,1-3.426-4.16v-4.942a4.232,4.232,0,1,1,8.465,0v4.942a4.242,4.242,0,0,1-3.422,4.159v2.051h2.615a.809.809,0,1,1,0,1.618Zm3.354-4.854c.023,0,.049,0,.072,0s.047,0,.07,0a2.973,2.973,0,0,0,2.8-2.234h-1.432a.631.631,0,0,1,0-1.263h1.529v-1.263h-1.529a.632.632,0,0,1,0-1.264h1.529v-1.259h-1.529a.634.634,0,0,1,0-1.268h1.457a2.97,2.97,0,0,0-5.8,0h1.416a.634.634,0,0,1,0,1.268h-1.482v1.259h1.482a.632.632,0,0,1,0,1.264h-1.482v1.263h1.482a.631.631,0,0,1,0,1.263h-1.391A2.977,2.977,0,0,0,16828.162,13055.652Z" transform="translate(-39129.234 -21456.004)" fill="#fcfcfc"/><path d="M16831.656,13061.007h-6.848a1.309,1.309,0,1,1,0-2.618h2.115v-1.156a4.748,4.748,0,0,1-3.426-4.554v-4.942a4.732,4.732,0,1,1,9.465,0v4.942a4.746,4.746,0,0,1-3.422,4.553v1.157h2.115a1.309,1.309,0,1,1,0,2.618Zm-6.848-1.618a.309.309,0,1,0,0,.618h6.848a.312.312,0,0,0,.313-.311.306.306,0,0,0-.312-.308h-3.115v-2.963l.4-.079a3.741,3.741,0,0,0,3.018-3.668v-4.942a3.732,3.732,0,1,0-7.465,0v4.942a3.743,3.743,0,0,0,3.021,3.669l.4.079v2.962Zm3.48-3.235-.025,0a.314.314,0,0,0-.061,0l-.053,0a3.485,3.485,0,0,1-3.281-2.61l-.16-.624h2.035a.13.13,0,0,0,.129-.129.132.132,0,0,0-.129-.134h-1.982v-2.263h1.982a.128.128,0,0,0,.129-.13.132.132,0,0,0-.129-.134h-1.982v-2.259h1.982a.135.135,0,0,0,.129-.134.132.132,0,0,0-.129-.134h-2.037l.133-.607a3.47,3.47,0,0,1,6.781,0l.131.605h-2.076a.132.132,0,0,0-.129.134.135.135,0,0,0,.129.134h2.029v2.259h-2.029a.132.132,0,0,0-.129.134.128.128,0,0,0,.129.13h2.029v2.263h-2.029a.132.132,0,0,0-.129.134.13.13,0,0,0,.129.129h2.076l-.16.624a3.486,3.486,0,0,1-3.275,2.61Zm-2.2-2.235a2.478,2.478,0,0,0,2.057,1.233c.053,0,.121,0,.166,0a2.48,2.48,0,0,0,2.051-1.233h-.691a1.131,1.131,0,0,1,0-2.263h1.029v-.263h-1.029a1.132,1.132,0,0,1,0-2.264h1.029v-.259h-1.029a1.134,1.134,0,0,1,0-2.268h.75a2.467,2.467,0,0,0-4.389,0h.707a1.134,1.134,0,0,1,0,2.268h-.982v.259h.982a1.132,1.132,0,0,1,0,2.264h-.982v.263h.982a1.131,1.131,0,0,1,0,2.263Z" transform="translate(-39129.234 -21456.004)" fill="rgba(0,0,0,0)"/></g></svg>