<svg xmlns="http://www.w3.org/2000/svg" width="8.469" height="16.004" viewBox="0 0 8.469 16.004">
  <path id="Union_32" data-name="Union 32" d="M16824.717,13058.5a.714.714,0,1,1,0-1.428h2.307v-1.809a3.744,3.744,0,0,1-3.025-3.67v-4.359a3.734,3.734,0,1,1,7.469,0v4.359a3.744,3.744,0,0,1-3.016,3.668v1.811h2.3a.714.714,0,1,1,0,1.428Zm3.016-4.283a2.623,2.623,0,0,0,2.539-1.969h-1.264a.558.558,0,0,1,0-1.115h1.344v-1.115h-1.344a.555.555,0,1,1,0-1.11h1.344v-1.115h-1.344a.558.558,0,0,1,0-1.115h1.285a2.62,2.62,0,0,0-5.121,0h1.246a.558.558,0,1,1,0,1.115h-1.3v1.115h1.3a.555.555,0,1,1,0,1.11h-1.3v1.115h1.3a.558.558,0,1,1,0,1.115h-1.225A2.623,2.623,0,0,0,16827.732,13054.222Z" transform="translate(-16823.498 -13043.001)" stroke="rgba(0,0,0,0)" stroke-width="1"/>
</svg>
