<svg xmlns="http://www.w3.org/2000/svg" xmlns:xlink="http://www.w3.org/1999/xlink" width="40" height="40" viewBox="0 0 40 40">
  <defs>
    <clipPath id="clip-path">
      <rect id="Rectangle_1829" data-name="Rectangle 1829" width="40" height="40" transform="translate(350 225)" fill="#fff" stroke="#707070" stroke-width="1"/>
    </clipPath>
    <linearGradient id="linear-gradient" x1="1.483" y1="1.079" x2="-0.777" y2="-0.232" gradientUnits="objectBoundingBox">
      <stop offset="0" stop-color="#e6e6e6"/>
      <stop offset="1" stop-color="#c2c2c2"/>
    </linearGradient>
  </defs>
  <g id="button_40x40_-_white_fill" data-name="button 40x40 - white fill" transform="translate(-350 -225)" clip-path="url(#clip-path)">
    <path id="Path_7764" data-name="Path 7764" d="M18,0A18,18,0,1,1,0,18,18,18,0,0,1,18,0Z" transform="translate(352 226)" fill="url(#linear-gradient)"/>
    <path id="Union_24" data-name="Union 24" d="M18361,10071.922a2.218,2.218,0,0,1,3.33-1.923l.234.14v-8.324a.432.432,0,0,1,.318-.419l8.4-2.38a.437.437,0,0,1,.383.074.423.423,0,0,1,.176.346v10.106a2.216,2.216,0,1,1-1.111-1.923l.236.139v-5.367l-7.523,2.135v7.4a2.222,2.222,0,1,1-4.443,0Zm.871,0a1.347,1.347,0,1,0,1.348-1.347A1.348,1.348,0,0,0,18361.873,10071.922Zm8.406-2.38a1.345,1.345,0,1,0,1.342-1.346A1.343,1.343,0,0,0,18370.279,10069.542Zm-4.834-7.4v1.467l7.523-2.13v-1.467Z" transform="translate(-17998.844 -9822.572)" stroke="#000" stroke-width="0.2"/>
  </g>
</svg>
