<svg xmlns="http://www.w3.org/2000/svg" width="58" height="59" viewBox="0 0 58 59">
  <g id="Group_5940" data-name="Group 5940" transform="translate(-738 -128.68)">
    <ellipse id="Ellipse_820" data-name="Ellipse 820" cx="23" cy="23.5" rx="23" ry="23.5" transform="translate(744 134.68)" fill="#25245e" opacity="0.2"/>
    <g id="Ellipse_821" data-name="Ellipse 821" transform="translate(743 130.68)" fill="#fcfcfc" stroke="#25245e" stroke-width="1">
      <circle cx="24" cy="24" r="24" stroke="none"/>
      <circle cx="24" cy="24" r="23.5" fill="none"/>
    </g>
    <path id="picking_1_" data-name="picking (1)" d="M28.033,5H18.068a.434.434,0,1,0,0,.867H27.6v5.5l-2.073,2.073a2.276,2.276,0,0,1-1.63.668H22.162a.455.455,0,0,0-.308.126l-3.317,3.343a1.244,1.244,0,0,1-1.756-1.76l2.393-2.4a2.068,2.068,0,0,0,.291-2.6l-.048-.074a2.086,2.086,0,0,0-3.846,1.114v4.817a1.244,1.244,0,0,1-2.489,0V8.183A2.341,2.341,0,0,1,15.4,5.867h2.779a.434.434,0,0,0,0-.867H8.525a2.112,2.112,0,0,0,0,4.223h1.3L7.745,11.309a.434.434,0,1,0,.611.611l3.837-3.833V11.6L9.406,14.387a1.3,1.3,0,0,1-1.76,0,1.244,1.244,0,0,1,0-1.76l.711-.707a.434.434,0,0,0-.611-.616l-.711.7a2.112,2.112,0,1,0,2.983,2.97L12.185,12.8v3.863A2.107,2.107,0,0,0,13.34,18.55a1.939,1.939,0,0,0,1.786.045c.543-.224.62-.325.839-.325s.748.383,1.331.5a1.794,1.794,0,0,0,1.878-.6l3.161-3.191H23.9a3.157,3.157,0,0,0,2.246-.928l2.2-2.2a.434.434,0,0,0,.126-.3V5.434A.434.434,0,0,0,28.033,5ZM10.711,8.334H8.543a1.244,1.244,0,0,1,0-2.489H13.2c-.039.039-.082.078-.121.121Zm5.255,11.625Zm.468-8.1a1.218,1.218,0,0,1,2.246-.65l.043.074a1.214,1.214,0,0,1-.182,1.522l-2.125,2.125Z" transform="translate(749.619 144.68)" fill="#25245e"/>
  </g>
</svg>
