<svg xmlns="http://www.w3.org/2000/svg" width="96.226" height="105.066" viewBox="0 0 96.226 105.066">
  <g id="Group_3697" data-name="Group 3697" transform="translate(-480.976 781.003)">
    <g id="Group_3695" data-name="Group 3695" transform="translate(502.224 -781.003)">
      <path id="Path_8120" data-name="Path 8120" d="M595.1-767.486a14.024,14.024,0,0,1-14.08,14.027H575.6a8.041,8.041,0,0,0-8.041,8.041V-740a14.021,14.021,0,0,1-14.041,14.079,13.771,13.771,0,0,1-13.5-13.769v-27.544A13.774,13.774,0,0,1,553.79-781h27.544A13.773,13.773,0,0,1,595.1-767.486Z" transform="translate(-540.018 781.003)" fill="#fcfcfc"/>
      <circle id="Ellipse_740" data-name="Ellipse 740" cx="8.499" cy="8.499" r="8.499" transform="translate(36.543 36.544)" fill="#fcfcfc"/>
    </g>
    <g id="Group_3696" data-name="Group 3696" transform="translate(480.976 -715.125)">
      <path id="Path_8121" data-name="Path 8121" d="M459.031-622.755a7.3,7.3,0,0,0-6.093,2.825.31.31,0,0,1-.538-.087l-.59-1.664a.778.778,0,0,0-.733-.518h-2.461a.778.778,0,0,0-.778.778V-594a.778.778,0,0,0,1.167.674l3.414-1.97a.779.779,0,0,0,.389-.674v-8.519a.31.31,0,0,1,.534-.216,7.281,7.281,0,0,0,5.584,2.18c5.666,0,8.969-4.241,8.969-10.081C467.9-618.479,464.524-622.755,459.031-622.755Zm-1.217,15.713c-3.024,0-5.006-2.26-5.006-5.6,0-3.3,1.946-5.6,5.006-5.6,3.024,0,5.006,2.294,5.006,5.6S460.839-607.042,457.815-607.042Z" transform="translate(-447.838 632.407)" fill="#fcfcfc"/>
      <path id="Path_8122" data-name="Path 8122" d="M524.248-624.183a.783.783,0,0,0-.853-.619c-1.316.131-2.007-.367-2.007-1.888v-21.6a.778.778,0,0,0-1.167-.674l-3.519,2.032a.777.777,0,0,0-.389.674V-626.1c0,5.538,3.353,6.805,7.917,5.372a.781.781,0,0,0,.534-.9Z" transform="translate(-493.364 649.899)" fill="#fcfcfc"/>
      <path id="Path_8123" data-name="Path 8123" d="M554.976-622.755c-6.014,0-10.255,3.963-10.255,10.151,0,6.153,4.241,10.081,10.255,10.081,6.987,0,10.22-5.075,10.22-10.081C565.2-618.757,560.851-622.755,554.976-622.755Zm0,15.782c-3.476,0-5.041-2.781-5.041-5.631,0-2.92,1.564-5.7,5.041-5.7,3.442,0,5.006,2.781,5.006,5.7C559.982-609.753,558.348-606.973,554.976-606.973Z" transform="translate(-512.251 632.407)" fill="#fcfcfc"/>
      <path id="Path_8124" data-name="Path 8124" d="M626.789-648.8v8.865a.311.311,0,0,1-.535.216,7.281,7.281,0,0,0-5.584-2.18c-5.666,0-8.969,4.241-8.969,10.081,0,5.875,3.372,10.151,8.865,10.151a7.3,7.3,0,0,0,6.093-2.825.311.311,0,0,1,.539.086l.59,1.664a.779.779,0,0,0,.734.518h2.461a.778.778,0,0,0,.778-.778v-27.77a.778.778,0,0,0-1.167-.674l-3.415,1.972A.777.777,0,0,0,626.789-648.8Zm-5.006,22.614c-3.024,0-5.006-2.294-5.006-5.6s1.981-5.6,5.006-5.6,5.006,2.259,5.006,5.6C626.789-628.483,624.842-626.189,621.783-626.189Z" transform="translate(-556.784 651.554)" fill="#fcfcfc"/>
      <path id="Path_8125" data-name="Path 8125" d="M690.606-606.59a4.46,4.46,0,0,1-4.586-3.521.781.781,0,0,1,.747-1H698.5c1.112-7.161-1.946-11.646-8.482-11.646-6.4,0-9.56,4.554-9.56,10.081,0,6.118,4,10.15,10.151,10.15a12.776,12.776,0,0,0,7.333-2.08.78.78,0,0,0,.252-1.055l-1.3-2.192a.777.777,0,0,0-1.066-.271A10.136,10.136,0,0,1,690.606-606.59Zm-.487-12.341c2.74,0,3.826,1.919,4.008,3.913a.779.779,0,0,1-.776.849h-6.7a.778.778,0,0,1-.769-.9A4.219,4.219,0,0,1,690.119-618.931Z" transform="translate(-602.495 632.407)" fill="#fcfcfc"/>
    </g>
  </g>
</svg>
