<svg xmlns="http://www.w3.org/2000/svg" xmlns:xlink="http://www.w3.org/1999/xlink" width="240" height="240" viewBox="0 0 240 240"><defs><clipPath id="a"><rect width="240" height="240" transform="translate(43 283)" fill="#fff" stroke="#707070" stroke-width="1"/></clipPath><filter id="b" x="-0.12" y="17.078" width="264.395" height="245.705" filterUnits="userSpaceOnUse"><feOffset dx="12" dy="12" input="SourceAlpha"/><feGaussianBlur stdDeviation="10" result="c"/><feFlood flood-color="#171d1a" flood-opacity="0.071"/><feComposite operator="in" in2="c"/><feComposite in="SourceGraphic"/></filter><filter id="d" x="0.999" y="18.197" width="228.158" height="209.468" filterUnits="userSpaceOnUse"><feOffset dx="-5" dy="-5" input="SourceAlpha"/><feGaussianBlur stdDeviation="10" result="e"/><feFlood flood-color="#fff" flood-opacity="0.149"/><feComposite operator="in" in2="e"/><feComposite in="SourceGraphic"/></filter><linearGradient id="f" x1="-0.571" y1="0.301" x2="0.776" y2="0.456" gradientUnits="objectBoundingBox"><stop offset="0" stop-color="#e7e7e7"/><stop offset="1" stop-color="#fcfcfc"/></linearGradient><linearGradient id="g" x1="0.034" y1="0.121" x2="1.052" y2="1.043" gradientUnits="objectBoundingBox"><stop offset="0" stop-color="#ffbc45"/><stop offset="1" stop-color="#ffb32c"/></linearGradient></defs><g transform="translate(-43 -283)" clip-path="url(#a)"><g transform="translate(-14.423 -783.273)"><g transform="matrix(0.995, -0.105, 0.105, 0.995, 93.422, 1135.672)"><g transform="matrix(0.99, 0.1, -0.1, 0.99, -28.55, -72.78)" filter="url(#b)"><rect width="155" height="134" rx="25" transform="matrix(0.99, -0.1, 0.1, 0.99, 36, 69.4)" fill="#fcfcfc"/></g><g transform="matrix(0.99, 0.1, -0.1, 0.99, -28.55, -72.78)" filter="url(#d)"><rect width="155" height="134" rx="25" transform="matrix(0.99, -0.1, 0.1, 0.99, 36, 69.4)" fill="#fcfcfc"/></g><g stroke="#fcfcfc" stroke-width="1.5" fill="url(#f)"><rect width="155" height="134" rx="25" stroke="none"/><rect x="0.75" y="0.75" width="153.5" height="132.5" rx="24.25" fill="none"/></g></g><g transform="translate(8.662 917.031)"><g transform="translate(115.796 192.345)" opacity="0.3"><path d="M277.453,343.919l-6.576-39.159c0-.027-.012-.051-.016-.074A18.165,18.165,0,0,0,259.77,290.5v-2.706a4.383,4.383,0,0,0-4.375-4.379h-5.5a4.383,4.383,0,0,0-4.375,4.379v2.926a18.088,18.088,0,0,0-5.291,3.631h-24.6a18.036,18.036,0,0,0-5.291-3.631v-2.926a4.383,4.383,0,0,0-4.375-4.379h-5.5a4.384,4.384,0,0,0-4.379,4.379V290.5a18.172,18.172,0,0,0-11.092,14.186c0,.027-.008.051-.012.078l-2.119,12.608c-.008.047-.012.094-.016.137L178.4,343.919a11.787,11.787,0,0,0,22.8,5.7l5.213-15.518a12.121,12.121,0,0,0,13.767-1.97h15.49a12.127,12.127,0,0,0,13.771,1.97l3.831,11.39,0,.016c.008.035.02.074.031.114l1.343,4a11.789,11.789,0,0,0,22.8-5.7Zm-29.019-56.13a1.46,1.46,0,0,1,1.457-1.461h5.5a1.46,1.46,0,0,1,1.457,1.461v1.786a18.07,18.07,0,0,0-3.924-.435,18.4,18.4,0,0,0-4.492.556Zm-31.964,9.471h22.909V298.4a2.435,2.435,0,0,1-2.432,2.432H218.9a2.435,2.435,0,0,1-2.432-2.432ZM199,287.789a1.461,1.461,0,0,1,1.461-1.461h5.5a1.46,1.46,0,0,1,1.457,1.461V289.7a18.377,18.377,0,0,0-4.492-.556,18.071,18.071,0,0,0-3.924.435Zm70.23,66.275a8.873,8.873,0,0,1-11.813-5.37l-1.144-3.419a.015.015,0,0,1,0-.012l-.035-.117-4.61-13.7a1.456,1.456,0,0,0-2.24-.717,9.2,9.2,0,0,1-12.063-1.065,1.454,1.454,0,0,0-1.05-.447H219.58a1.454,1.454,0,0,0-1.05.447,9.2,9.2,0,0,1-12.059,1.065,1.459,1.459,0,0,0-2.244.717l-5.793,17.249a8.871,8.871,0,0,1-17.159-4.293l4.622-27.464a1.16,1.16,0,0,0,.016-.164l1.919-11.409c.012-.055.024-.11.031-.165a15.244,15.244,0,0,1,15.06-13.144,15.044,15.044,0,0,1,10.63,4.348V298.4a5.357,5.357,0,0,0,5.35,5.35h18.044a5.357,5.357,0,0,0,5.35-5.35V296.4a15.044,15.044,0,0,1,10.63-4.348,15.244,15.244,0,0,1,15.06,13.144c.008.055.02.11.031.161l6.557,39.042A8.832,8.832,0,0,1,269.228,354.063Z" transform="translate(-178.233 -283.41)" fill="#ffb32c"/><path d="M279.106,357.827l-6.556-39.042c-.012-.051-.024-.106-.031-.161a15.244,15.244,0,0,0-15.06-13.144,15.043,15.043,0,0,0-10.63,4.348v1.994a5.357,5.357,0,0,1-5.35,5.35H223.434a5.357,5.357,0,0,1-5.35-5.35v-1.994a15.043,15.043,0,0,0-10.63-4.348,15.244,15.244,0,0,0-15.06,13.144c-.008.055-.02.11-.031.164L190.444,330.2a1.171,1.171,0,0,1-.016.164l-4.622,27.464a8.871,8.871,0,0,0,17.159,4.293l5.793-17.249a1.459,1.459,0,0,1,2.244-.717,9.2,9.2,0,0,0,12.059-1.065,1.455,1.455,0,0,1,1.05-.446H240.8a1.455,1.455,0,0,1,1.05.446,9.2,9.2,0,0,0,12.063,1.065,1.456,1.456,0,0,1,2.24.717l4.61,13.7.035.117a.014.014,0,0,0,0,.012l1.144,3.419a8.871,8.871,0,0,0,17.159-4.293ZM258.34,309.64a4.259,4.259,0,1,1-4.257,4.257A4.262,4.262,0,0,1,258.34,309.64Zm-7.167,7.168a4.259,4.259,0,1,1-4.261,4.258A4.262,4.262,0,0,1,251.172,316.807Zm-43.6,13.7a4.562,4.562,0,0,1-4.555-4.555v-.329h-.329a4.553,4.553,0,0,1,0-9.106h.329v-.329a4.555,4.555,0,0,1,9.11,0v.329h.329a4.553,4.553,0,0,1,0,9.106h-.329v.329A4.562,4.562,0,0,1,207.572,330.5Zm9.216,12.353a6.03,6.03,0,1,1,6.032-6.032A6.036,6.036,0,0,1,216.788,342.857Zm11.362-16.141h-4.367a1.459,1.459,0,0,1,0-2.918h4.367a1.459,1.459,0,0,1,0,2.918Zm12.98,0h-4.367a1.459,1.459,0,0,1,0-2.918h4.367a1.459,1.459,0,0,1,0,2.918Zm7,16.141a6.03,6.03,0,1,1,6.028-6.032A6.036,6.036,0,0,1,248.125,342.857Zm10.215-10.364a4.259,4.259,0,1,1,4.261-4.258A4.262,4.262,0,0,1,258.34,332.494Zm7.171-7.168a4.259,4.259,0,1,1,4.257-4.261A4.266,4.266,0,0,1,265.511,325.326Z" transform="translate(-182.764 -296.835)" fill="#ffb32c"/><path d="M343.388,380.68a3.114,3.114,0,1,1-3.114-3.11A3.119,3.119,0,0,1,343.388,380.68Z" transform="translate(-274.913 -340.69)" fill="#ffb32c"/><path d="M263.384,380.68a3.112,3.112,0,1,1-3.114-3.11A3.119,3.119,0,0,1,263.384,380.68Z" transform="translate(-226.246 -340.69)" fill="#ffb32c"/><path d="M370.453,361.493a1.341,1.341,0,1,1-1.343-1.343A1.346,1.346,0,0,1,370.453,361.493Z" transform="translate(-293.533 -330.094)" fill="#ffb32c"/><path d="M388.753,343.19a1.341,1.341,0,1,1-1.339-1.34A1.342,1.342,0,0,1,388.753,343.19Z" transform="translate(-304.667 -318.961)" fill="#ffb32c"/><path d="M370.453,324.883a1.341,1.341,0,1,1-1.343-1.343A1.346,1.346,0,0,1,370.453,324.883Z" transform="translate(-293.533 -307.822)" fill="#ffb32c"/><path d="M352.147,343.19a1.343,1.343,0,1,1-1.343-1.34A1.346,1.346,0,0,1,352.147,343.19Z" transform="translate(-282.395 -318.961)" fill="#ffb32c"/><path d="M237.969,335.147a1.639,1.639,0,0,1-1.637,1.637h-1.79a1.458,1.458,0,0,0-1.457,1.461v1.786a1.637,1.637,0,1,1-3.274,0v-1.786a1.458,1.458,0,0,0-1.457-1.461h-1.79a1.635,1.635,0,0,1,0-3.27h1.79a1.458,1.458,0,0,0,1.457-1.461v-1.786a1.637,1.637,0,1,1,3.274,0v1.786a1.458,1.458,0,0,0,1.457,1.461h1.79A1.638,1.638,0,0,1,237.969,335.147Z" transform="translate(-206.64 -310.918)" fill="#ffb32c"/></g><g transform="translate(112 186.242)"><path d="M277.453,343.919l-6.576-39.159c0-.027-.012-.051-.016-.074A18.165,18.165,0,0,0,259.77,290.5v-2.706a4.383,4.383,0,0,0-4.375-4.379h-5.5a4.383,4.383,0,0,0-4.375,4.379v2.926a18.088,18.088,0,0,0-5.291,3.631h-24.6a18.036,18.036,0,0,0-5.291-3.631v-2.926a4.383,4.383,0,0,0-4.375-4.379h-5.5a4.384,4.384,0,0,0-4.379,4.379V290.5a18.172,18.172,0,0,0-11.092,14.186c0,.027-.008.051-.012.078l-2.119,12.608c-.008.047-.012.094-.016.137L178.4,343.919a11.787,11.787,0,0,0,22.8,5.7l5.213-15.518a12.121,12.121,0,0,0,13.767-1.97h15.49a12.127,12.127,0,0,0,13.771,1.97l3.831,11.39,0,.016c.008.035.02.074.031.114l1.343,4a11.789,11.789,0,0,0,22.8-5.7Zm-29.019-56.13a1.46,1.46,0,0,1,1.457-1.461h5.5a1.46,1.46,0,0,1,1.457,1.461v1.786a18.07,18.07,0,0,0-3.924-.435,18.4,18.4,0,0,0-4.492.556Zm-31.964,9.471h22.909V298.4a2.435,2.435,0,0,1-2.432,2.432H218.9a2.435,2.435,0,0,1-2.432-2.432ZM199,287.789a1.461,1.461,0,0,1,1.461-1.461h5.5a1.46,1.46,0,0,1,1.457,1.461V289.7a18.377,18.377,0,0,0-4.492-.556,18.071,18.071,0,0,0-3.924.435Zm70.23,66.275a8.873,8.873,0,0,1-11.813-5.37l-1.144-3.419a.015.015,0,0,1,0-.012l-.035-.117-4.61-13.7a1.456,1.456,0,0,0-2.24-.717,9.2,9.2,0,0,1-12.063-1.065,1.454,1.454,0,0,0-1.05-.447H219.58a1.454,1.454,0,0,0-1.05.447,9.2,9.2,0,0,1-12.059,1.065,1.459,1.459,0,0,0-2.244.717l-5.793,17.249a8.871,8.871,0,0,1-17.159-4.293l4.622-27.464a1.16,1.16,0,0,0,.016-.164l1.919-11.409c.012-.055.024-.11.031-.165a15.244,15.244,0,0,1,15.06-13.144,15.044,15.044,0,0,1,10.63,4.348V298.4a5.357,5.357,0,0,0,5.35,5.35h18.044a5.357,5.357,0,0,0,5.35-5.35V296.4a15.044,15.044,0,0,1,10.63-4.348,15.244,15.244,0,0,1,15.06,13.144c.008.055.02.11.031.161l6.557,39.042A8.832,8.832,0,0,1,269.228,354.063Z" transform="translate(-178.233 -283.41)" fill="url(#g)"/><path d="M279.106,357.827l-6.556-39.042c-.012-.051-.024-.106-.031-.161a15.244,15.244,0,0,0-15.06-13.144,15.043,15.043,0,0,0-10.63,4.348v1.994a5.357,5.357,0,0,1-5.35,5.35H223.434a5.357,5.357,0,0,1-5.35-5.35v-1.994a15.043,15.043,0,0,0-10.63-4.348,15.244,15.244,0,0,0-15.06,13.144c-.008.055-.02.11-.031.164L190.444,330.2a1.171,1.171,0,0,1-.016.164l-4.622,27.464a8.871,8.871,0,0,0,17.159,4.293l5.793-17.249a1.459,1.459,0,0,1,2.244-.717,9.2,9.2,0,0,0,12.059-1.065,1.455,1.455,0,0,1,1.05-.446H240.8a1.455,1.455,0,0,1,1.05.446,9.2,9.2,0,0,0,12.063,1.065,1.456,1.456,0,0,1,2.24.717l4.61,13.7.035.117a.014.014,0,0,0,0,.012l1.144,3.419a8.871,8.871,0,0,0,17.159-4.293ZM258.34,309.64a4.259,4.259,0,1,1-4.257,4.257A4.262,4.262,0,0,1,258.34,309.64Zm-7.167,7.168a4.259,4.259,0,1,1-4.261,4.258A4.262,4.262,0,0,1,251.172,316.807Zm-43.6,13.7a4.562,4.562,0,0,1-4.555-4.555v-.329h-.329a4.553,4.553,0,0,1,0-9.106h.329v-.329a4.555,4.555,0,0,1,9.11,0v.329h.329a4.553,4.553,0,0,1,0,9.106h-.329v.329A4.562,4.562,0,0,1,207.572,330.5Zm9.216,12.353a6.03,6.03,0,1,1,6.032-6.032A6.036,6.036,0,0,1,216.788,342.857Zm11.362-16.141h-4.367a1.459,1.459,0,0,1,0-2.918h4.367a1.459,1.459,0,0,1,0,2.918Zm12.98,0h-4.367a1.459,1.459,0,0,1,0-2.918h4.367a1.459,1.459,0,0,1,0,2.918Zm7,16.141a6.03,6.03,0,1,1,6.028-6.032A6.036,6.036,0,0,1,248.125,342.857Zm10.215-10.364a4.259,4.259,0,1,1,4.261-4.258A4.262,4.262,0,0,1,258.34,332.494Zm7.171-7.168a4.259,4.259,0,1,1,4.257-4.261A4.266,4.266,0,0,1,265.511,325.326Z" transform="translate(-182.765 -296.836)" fill="url(#g)"/><path d="M343.388,380.68a3.114,3.114,0,1,1-3.114-3.11A3.119,3.119,0,0,1,343.388,380.68Z" transform="translate(-274.914 -340.69)" fill="url(#g)"/><path d="M263.384,380.68a3.112,3.112,0,1,1-3.114-3.11A3.119,3.119,0,0,1,263.384,380.68Z" transform="translate(-226.247 -340.69)" fill="url(#g)"/><path d="M370.453,361.493a1.341,1.341,0,1,1-1.343-1.343A1.346,1.346,0,0,1,370.453,361.493Z" transform="translate(-293.535 -330.093)" fill="url(#g)"/><path d="M388.753,343.19a1.341,1.341,0,1,1-1.339-1.34A1.342,1.342,0,0,1,388.753,343.19Z" transform="translate(-304.667 -318.961)" fill="url(#g)"/><path d="M370.453,324.883a1.341,1.341,0,1,1-1.343-1.343A1.346,1.346,0,0,1,370.453,324.883Z" transform="translate(-293.535 -307.822)" fill="url(#g)"/><path d="M352.147,343.19a1.343,1.343,0,1,1-1.343-1.34A1.346,1.346,0,0,1,352.147,343.19Z" transform="translate(-282.396 -318.961)" fill="url(#g)"/><path d="M237.969,335.147a1.639,1.639,0,0,1-1.637,1.637h-1.79a1.458,1.458,0,0,0-1.457,1.461v1.786a1.637,1.637,0,1,1-3.274,0v-1.786a1.458,1.458,0,0,0-1.457-1.461h-1.79a1.635,1.635,0,0,1,0-3.27h1.79a1.458,1.458,0,0,0,1.457-1.461v-1.786a1.637,1.637,0,1,1,3.274,0v1.786a1.458,1.458,0,0,0,1.457,1.461h1.79A1.638,1.638,0,0,1,237.969,335.147Z" transform="translate(-206.64 -310.919)" fill="url(#g)"/></g></g></g></g></svg>