<svg xmlns="http://www.w3.org/2000/svg" xmlns:xlink="http://www.w3.org/1999/xlink" width="52" height="52" viewBox="0 0 52 52">
  <defs>
    <clipPath id="clip-path">
      <rect id="Rectangle_1782" data-name="Rectangle 1782" width="52" height="52" transform="translate(29 39)" fill="#fff" stroke="#707070" stroke-width="1"/>
    </clipPath>
  </defs>
  <g id="advanced_settings" data-name="advanced settings" transform="translate(-799 -30)">
    <g id="button_52x52_-_stroke" data-name="button 52x52 - stroke" transform="translate(799 30)">
      <g id="button_48x48_-_stroke" data-name="button 48x48 - stroke" transform="translate(-29 -39)" clip-path="url(#clip-path)">
        <circle id="Ellipse_15" data-name="Ellipse 15" cx="19" cy="19" r="19" transform="translate(36 45)" fill="#25245e" opacity="0.15"/>
        <g id="Ellipse_14" data-name="Ellipse 14" transform="translate(35 39)" fill="#fcfcfc" stroke="#25245e" stroke-width="1">
          <circle cx="20" cy="20" r="20" stroke="none"/>
          <circle cx="20" cy="20" r="19.5" fill="none"/>
        </g>
        <g id="sleep_11208284" transform="translate(44.314 48.385)">
          <g id="Group_6204" data-name="Group 6204" transform="translate(2.496 2)">
            <path id="Path_8884" data-name="Path 8884" d="M10.025,10.278H3.252a.658.658,0,0,1-.677-.452A.687.687,0,0,1,2.725,9L7.993,3.505H3.252A.711.711,0,0,1,2.5,2.753.711.711,0,0,1,3.252,2H9.724a.658.658,0,0,1,.677.452.687.687,0,0,1-.151.828L4.982,8.773h5.042a.753.753,0,1,1,0,1.505Z" transform="translate(-2.496 -2)" fill="#25245e"/>
          </g>
          <g id="Group_6205" data-name="Group 6205" transform="translate(12.352 5.877)">
            <path id="Path_8885" data-name="Path 8885" d="M19.193,13.822H14.312a.782.782,0,0,1-.732-.488.873.873,0,0,1,.081-.895L17.4,8.127H14.312a.769.769,0,0,1-.814-.814.769.769,0,0,1,.814-.814h4.882a.782.782,0,0,1,.732.488.873.873,0,0,1-.081.895L16.1,12.2h3.092a.814.814,0,1,1,0,1.627Z" transform="translate(-13.491 -6.5)" fill="#25245e"/>
          </g>
          <g id="Group_6206" data-name="Group 6206" transform="translate(5.942 13.637)">
            <path id="Path_8886" data-name="Path 8886" d="M11.293,20.592H7.3a.7.7,0,0,1-.719-.479.729.729,0,0,1,.16-.879l2.4-2.636H7.3a.8.8,0,1,1,0-1.6h3.6a.7.7,0,0,1,.719.479.87.87,0,0,1-.16.879l-2.4,2.636h2.157a.755.755,0,0,1,.8.8C12.012,20.273,11.772,20.592,11.293,20.592Z" transform="translate(-6.496 -15)" fill="#25245e"/>
          </g>
        </g>
      </g>
    </g>
  </g>
</svg>
