<svg xmlns="http://www.w3.org/2000/svg" xmlns:xlink="http://www.w3.org/1999/xlink" width="36" height="36" viewBox="0 0 36 36"><defs><linearGradient id="a" x1="0.117" y1="0.107" x2="0.862" y2="0.932" gradientUnits="objectBoundingBox"><stop offset="0" stop-color="#ffbc45"/><stop offset="0.733" stop-color="#f87b62"/><stop offset="1" stop-color="#f16178"/></linearGradient></defs><g transform="translate(22009 8422)"><path d="M18,0A18,18,0,1,1,0,18,18,18,0,0,1,18,0Z" transform="translate(-22009 -8422)" fill="url(#a)"/><g transform="translate(-22360.871 -8648)"><path d="M-7379.414,203.6a1.211,1.211,0,0,0-.834-1.123,1.274,1.274,0,0,0-.927,0h0v0a1.315,1.315,0,0,0-.672-.81,1.3,1.3,0,0,0-1.06-.051,1.309,1.309,0,0,0-.65-.8,1.309,1.309,0,0,0-1.03-.082l-.006,0v-.176c0-.707.007-1.413,0-2.12a1.294,1.294,0,0,0-1.293-1.263,1.3,1.3,0,0,0-1.3,1.287c-.006.99,0,1.981,0,2.971v.158a.235.235,0,0,1-.053,0,1.311,1.311,0,0,0-1.682,1.324c.02.821.005,1.644,0,2.466a4.7,4.7,0,0,0,.1,1.017,4.78,4.78,0,0,0,4.17,3.8s.245.022.489.022.494-.021.5-.022a4.336,4.336,0,0,0,1.212-.3,4.7,4.7,0,0,0,3.029-4.042A15.624,15.624,0,0,0-7379.414,203.6Zm-8.606,2.374a2.77,2.77,0,0,1-.035-.416q-.007-1.356,0-2.712a.435.435,0,0,1,.38-.452.434.434,0,0,1,.472.336.77.77,0,0,1,.012.171q0,1.4,0,2.8v.148h.866v-.157q0-3.562,0-7.125a.908.908,0,0,1,.01-.186.435.435,0,0,1,.453-.343.434.434,0,0,1,.4.418c.006.144,0,.289,0,.433v5.232h.849c.031-.041.016-.086.016-.127,0-.658,0-1.317,0-1.976a.44.44,0,0,1,.432-.49.439.439,0,0,1,.434.487v2.1h.853c.029-.042.011-.1.011-.147,0-.37,0-.74,0-1.111a.436.436,0,0,1,.428-.464.437.437,0,0,1,.437.47c0,.413,0,.827,0,1.25h.866c0-.123,0-.255,0-.388a.438.438,0,0,1,.425-.467.433.433,0,0,1,.439.467c-.01.711.036,1.423-.026,2.133a3.919,3.919,0,0,1-3.207,3.429A3.9,3.9,0,0,1-7388.02,205.977Z" transform="translate(7750.382 42.02)" fill="#fcfcfc"/><path d="M-7382.75,183.234h-.856a2.165,2.165,0,0,0-.9-1.745,2.075,2.075,0,0,0-1.452-.406,2.172,2.172,0,0,0-1.983,2.146h-.854a3,3,0,0,1,2.878-3.013A3.02,3.02,0,0,1-7382.75,183.234Z" transform="translate(7750.264 57.253)" fill="#fcfcfc"/><path d="M2.916-5.159,4.458-6.42A4.093,4.093,0,0,0,6.345-9.385c0-1.369-1.132-2.232-2.641-2.232a2.934,2.934,0,0,0-2.62,1.391l.841.7a1.95,1.95,0,0,1,1.7-1.057A1.387,1.387,0,0,1,5.159-9.266c0,.809-.615,1.391-1.5,2.124L1.213-5.115V-4.1H6.42V-5.234Z" transform="translate(371.867 248.87)" fill="#fcfcfc"/></g></g></svg>