<svg id="button_40x40_-_white_fill" data-name="button 40x40 - white fill" xmlns="http://www.w3.org/2000/svg" xmlns:xlink="http://www.w3.org/1999/xlink" width="40" height="40" viewBox="0 0 40 40">
  <defs>
    <clipPath id="clip-path">
      <rect id="Rectangle_1829" data-name="Rectangle 1829" width="40" height="40" transform="translate(350 225)" fill="#fff" stroke="#707070" stroke-width="1"/>
    </clipPath>
    <linearGradient id="linear-gradient" x1="0.117" y1="0.107" x2="0.862" y2="0.932" gradientUnits="objectBoundingBox">
      <stop offset="0" stop-color="#ffbc45"/>
      <stop offset="0.733" stop-color="#f87b62"/>
      <stop offset="1" stop-color="#f16178"/>
    </linearGradient>
    <clipPath id="clip-path-2">
      <rect id="Rectangle_2671" data-name="Rectangle 2671" width="18.37" height="12.81" fill="#fcfcfc"/>
    </clipPath>
  </defs>
  <g id="button_40x40_-_white_fill-2" data-name="button 40x40 - white fill" transform="translate(-350 -225)" clip-path="url(#clip-path)">
    <path id="Path_7764" data-name="Path 7764" d="M18,0A18,18,0,1,1,0,18,18,18,0,0,1,18,0Z" transform="translate(352 226)" fill="url(#linear-gradient)"/>
    <g id="Group_5556" data-name="Group 5556" transform="translate(360.816 237.595)">
      <g id="Group_5556-2" data-name="Group 5556" clip-path="url(#clip-path-2)">
        <path id="Path_8318" data-name="Path 8318" d="M213.818,12.1a.709.709,0,0,1,.2-.5,7.507,7.507,0,0,0,0-10.395.712.712,0,0,1,1.02-.992,8.94,8.94,0,0,1,0,12.38.712.712,0,0,1-1.222-.5Z" transform="translate(-199.16 0)" fill="#fcfcfc"/>
        <path id="Path_8319" data-name="Path 8319" d="M182.671,38.97a.71.71,0,0,1,.206-.5,4.361,4.361,0,0,0,0-6.116.712.712,0,0,1,1.012-1,5.788,5.788,0,0,1,0,8.118.712.712,0,0,1-1.218-.5" transform="translate(-170.148 -29.006)" fill="#fcfcfc"/>
        <path id="Path_8320" data-name="Path 8320" d="M0,15.74a5.718,5.718,0,1,1,5.718,5.718A5.725,5.725,0,0,1,0,15.74m10.166,0a4.447,4.447,0,1,0-4.447,4.447,4.452,4.452,0,0,0,4.447-4.447" transform="translate(0 -9.335)" fill="#fcfcfc"/>
        <path id="Path_8321" data-name="Path 8321" d="M37.072,50.27a3.177,3.177,0,1,1,3.177,3.177,3.18,3.18,0,0,1-3.177-3.177m5.083,0a1.906,1.906,0,1,0-1.906,1.906,1.908,1.908,0,0,0,1.906-1.906" transform="translate(-34.531 -43.865)" fill="#fcfcfc"/>
      </g>
    </g>
  </g>
</svg>
