<svg xmlns="http://www.w3.org/2000/svg" width="90" height="90" viewBox="0 0 90 90">
  <g id="Group_6168" data-name="Group 6168" transform="translate(-753.729 -151.729)">
    <circle id="Ellipse_836" data-name="Ellipse 836" cx="45" cy="45" r="45" transform="translate(753.729 151.729)" fill="#f87b62"/>
    <g id="Artwork_13" data-name="Artwork 13" transform="translate(765.455 162.783)">
      <g id="Group_6161" data-name="Group 6161" transform="translate(17.202 23.963)">
        <path id="Path_8800" data-name="Path 8800" d="M10.671,7.618A15.633,15.633,0,0,0,6.4,10.438a.215.215,0,0,1-.352-.091A15.435,15.435,0,0,1,5.38,5.788a15.49,15.49,0,0,1,5.3,1.441A.215.215,0,0,1,10.671,7.618Z" transform="translate(-0.308 -5.788)" fill="#fcfcfc"/>
        <path id="Path_8801" data-name="Path 8801" d="M15.088,5.788a15.435,15.435,0,0,1-.667,4.558.215.215,0,0,1-.352.091A15.633,15.633,0,0,0,9.8,7.618a.215.215,0,0,1,0-.389A15.442,15.442,0,0,1,15.088,5.788Z" transform="translate(13.174 -5.788)" fill="#fcfcfc"/>
        <path id="Path_8802" data-name="Path 8802" d="M36.387,14.4a25.193,25.193,0,0,0-3.846-5.614h0c-2.633-2.642-5.353-.05-7.85,1.279-.985.571-2.592,1.5-3.656,2.112a.415.415,0,0,1-.426,0c-1.064-.613-2.67-1.54-3.656-2.112-2.521-1.341-5.225-3.937-7.875-1.255v0l-.116.132h0A25.215,25.215,0,0,0,4.168,16.9a.217.217,0,0,0,.166.286l10.376,1.83a.208.208,0,0,0,.219-.1c.7-1.213,1.7-2.944,2.377-4.111a1.413,1.413,0,0,1,2.641.671c-.017.733-1.105,2.215-1.528,2.993a.214.214,0,0,0,.083.286c.48.282,1.818,1.052,2.215,1.279a.213.213,0,0,0,.211,0c.4-.228,1.735-1,2.215-1.279a.211.211,0,0,0,.083-.286c-.422-.783-1.511-2.256-1.528-2.993a1.413,1.413,0,0,1,2.641-.671c.675,1.163,1.677,2.9,2.377,4.111a.208.208,0,0,0,.219.1l10.376-1.83a.217.217,0,0,0,.166-.286A25.419,25.419,0,0,0,36.387,14.4ZM16.046,12.89A2.285,2.285,0,0,1,12.689,10.3l4.26,1.553A2.3,2.3,0,0,1,16.046,12.89Zm10.736.331a2.273,2.273,0,0,1-2.087-1.37l4.26-1.553A2.283,2.283,0,0,1,26.782,13.222Z" transform="translate(-4.155 0.027)" fill="#fcfcfc"/>
      </g>
      <g id="Group_6166" data-name="Group 6166" transform="translate(0 0)">
        <g id="Group_6163" data-name="Group 6163" transform="translate(3.047 45.874)">
          <g id="Group_6162" data-name="Group 6162">
            <path id="Path_8803" data-name="Path 8803" d="M2.057,14.334,4.152,11.08l.716,1.259L3.721,14.044l.07.12,2.049-.1.712,1.259-3.85.153-1.321.745L.736,15.084Z" transform="translate(-0.736 -11.08)" fill="#fcfcfc"/>
            <path id="Path_8804" data-name="Path 8804" d="M2.4,14.183,4.571,12.32l.853.994L3.246,15.177A.815.815,0,1,0,4.3,16.411L6.48,14.552l.849.994L5.155,17.4a2.014,2.014,0,0,1-3.018-.211A2.012,2.012,0,0,1,2.4,14.183Z" transform="translate(1.912 -7.186)" fill="#fcfcfc"/>
            <path id="Path_8805" data-name="Path 8805" d="M5.6,13.379l1.478,1.163a2.419,2.419,0,0,1,.385,3.465A2.419,2.419,0,0,1,4,18.443L2.524,17.279Zm-.778,4.082A1.136,1.136,0,0,0,6.432,17.2a1.135,1.135,0,0,0-.12-1.631l-.472-.373-1.495,1.9Z" transform="translate(4.879 -3.861)" fill="#fcfcfc"/>
            <path id="Path_8806" data-name="Path 8806" d="M4.28,16.771l1.3-2.559,1.168.592-1.3,2.559A.818.818,0,1,0,6.9,18.1l1.3-2.559,1.168.592L8.069,18.7a2.019,2.019,0,0,1-2.873.965A2.022,2.022,0,0,1,4.28,16.771Z" transform="translate(9.519 -1.245)" fill="#fcfcfc"/>
            <path id="Path_8807" data-name="Path 8807" d="M6.935,14.988l2.364.46a1.655,1.655,0,0,1,1.333,2.062,1.657,1.657,0,0,1-1.466,1.412l.961,1.739-1.565-.3-.936-1.7-.066-.017-.286,1.462-1.288-.248Zm1.855,2.7a.537.537,0,0,0,.2-1.043l-1.01-.195-.2,1.043Z" transform="translate(15.754 1.192)" fill="#fcfcfc"/>
            <path id="Path_8808" data-name="Path 8808" d="M7.5,17.786a2.416,2.416,0,1,1,4.823-.07,2.416,2.416,0,1,1-4.823.07Zm3.511-.054A1.152,1.152,0,0,0,9.9,16.473a1.159,1.159,0,0,0-1.081,1.292,1.161,1.161,0,0,0,1.118,1.263A1.155,1.155,0,0,0,11.015,17.732Z" transform="translate(20.517 1.839)" fill="#fcfcfc"/>
            <path id="Path_8809" data-name="Path 8809" d="M9,15.571l2.472-.493A1.354,1.354,0,0,1,13.2,16.147a1.334,1.334,0,0,1-.315,1.147l.008.033a1.333,1.333,0,0,1,.8.961,1.349,1.349,0,0,1-1.188,1.648l-2.542.505Zm2.6,1.437a.392.392,0,1,0-.153-.766l-.94.186.153.766Zm.443,1.863a.392.392,0,1,0-.149-.766l-1.01.2.153.766Z" transform="translate(25.206 1.354)" fill="#fcfcfc"/>
            <path id="Path_8810" data-name="Path 8810" d="M10.66,18.075a2.416,2.416,0,1,1,4.459-1.838,2.415,2.415,0,1,1-4.459,1.838Zm3.246-1.337a1.111,1.111,0,1,0-2.033.836,1.111,1.111,0,1,0,2.033-.836Z" transform="translate(29.741 0.006)" fill="#fcfcfc"/>
            <path id="Path_8811" data-name="Path 8811" d="M13.364,16.3l-1.093.72-.7-1.064L14.854,13.8l.7,1.064-1.093.72,2.016,3.072-1.093.72Z" transform="translate(33.289 -2.554)" fill="#fcfcfc"/>
            <path id="Path_8812" data-name="Path 8812" d="M12.609,14.229l.994-.853,3.242,3.759-.994.853Z" transform="translate(36.549 -3.87)" fill="#fcfcfc"/>
            <path id="Path_8813" data-name="Path 8813" d="M14.3,16.774a2.418,2.418,0,0,1-.373-3.482,2.377,2.377,0,0,1,3-.46l-.853,1a1,1,0,0,0-1.18.29,1.153,1.153,0,0,0,.257,1.66,1.15,1.15,0,0,0,1.677,0,1.027,1.027,0,0,0,.079-1.238l.853-.99A2.325,2.325,0,0,1,17.8,16.6,2.416,2.416,0,0,1,14.3,16.774Z" transform="translate(38.894 -6.634)" fill="#fcfcfc"/>
            <path id="Path_8814" data-name="Path 8814" d="M16.43,15.937l.65-1.139c.273.157.662.054.907-.377.265-.46.186-.749,0-.857-.153-.087-.364-.046-.667.315l-.509.6a1.346,1.346,0,0,1-1.9.464,1.639,1.639,0,0,1-.406-2.43c.667-1.168,1.652-1.462,2.542-.952L16.4,12.7a.66.66,0,0,0-.89.348c-.211.368-.132.658.041.758s.331.05.6-.269l.509-.6c.654-.77,1.238-.923,1.975-.505.77.439,1,1.391.335,2.559A1.806,1.806,0,0,1,16.43,15.937Z" transform="translate(41.434 -10.31)" fill="#fcfcfc"/>
          </g>
        </g>
        <g id="Group_6165" data-name="Group 6165">
          <g id="Group_6164" data-name="Group 6164">
            <path id="Path_8815" data-name="Path 8815" d="M.149,12.215,0,9.884A1.674,1.674,0,0,1,1.7,8.041,1.677,1.677,0,0,1,3.606,9.66l.062,1.023L5.01,10.6l.083,1.308Zm2.19-2.405a.493.493,0,0,0-.563-.46.494.494,0,0,0-.5.526l.058.952,1.06-.066Z" transform="translate(0 25.237)" fill="#fcfcfc"/>
            <path id="Path_8816" data-name="Path 8816" d="M0,9.859l.141-1.3,3.656.4L4.034,6.82,5.3,6.961,4.92,10.4Z" transform="translate(0.003 21.416)" fill="#fcfcfc"/>
            <path id="Path_8817" data-name="Path 8817" d="M.29,7.319l.542-1.76,5.221-.12L5.635,6.793l-.894.017L4.215,8.5l.729.522-.418,1.35Zm3.267-.505H2l-.041.132,1.283.878Z" transform="translate(0.911 17.079)" fill="#fcfcfc"/>
            <path id="Path_8818" data-name="Path 8818" d="M4.518,8.137.634,8.15,1.3,6.862,3.362,6.9l.066-.124L2.224,5.1l.671-1.288L5.122,6.974l1.35.7-.6,1.163Z" transform="translate(1.991 11.98)" fill="#fcfcfc"/>
            <path id="Path_8819" data-name="Path 8819" d="M1.456,5.5,3.588,2.766l.948.741-1.329,1.7.613.48,1.2-1.536.89.7-1.2,1.532L6.163,7.519,5.356,8.55Z" transform="translate(4.572 8.685)" fill="#fcfcfc"/>
            <path id="Path_8820" data-name="Path 8820" d="M4.226,6.661l-1.9-2.145.981-.869,1.9,2.145A.817.817,0,1,0,6.429,4.715l-1.9-2.149L5.506,1.7l1.9,2.149a2.019,2.019,0,0,1-.161,3.027A2.017,2.017,0,0,1,4.226,6.661Z" transform="translate(7.304 5.328)" fill="#fcfcfc"/>
            <path id="Path_8821" data-name="Path 8821" d="M3.579,1.865,4.705,1.19,6.6,4.353,8.456,3.239,9.11,4.332,6.134,6.121Z" transform="translate(11.239 3.736)" fill="#fcfcfc"/>
            <path id="Path_8822" data-name="Path 8822" d="M4.73,1.078,5.951.594,7.318,4.018l2.012-.8L9.8,4.4,6.577,5.691Z" transform="translate(14.853 1.865)" fill="#fcfcfc"/>
            <path id="Path_8823" data-name="Path 8823" d="M8.237,4.1,5.716,1.139,7.136.825l1.3,1.6.141-.033.5-2L10.494.067,9.517,3.818,9.852,5.3l-1.283.29Z" transform="translate(17.95 0.21)" fill="#fcfcfc"/>
            <path id="Path_8824" data-name="Path 8824" d="M7.913,2.417A2.419,2.419,0,0,1,10.447,0,2.364,2.364,0,0,1,12.637,2.1l-1.3-.066a1.006,1.006,0,0,0-.952-.758A1.151,1.151,0,0,0,9.217,2.488a1.156,1.156,0,0,0,1.031,1.329,1.031,1.031,0,0,0,1.027-.691l1.3.07a2.325,2.325,0,0,1-2.4,1.888A2.417,2.417,0,0,1,7.913,2.417Z" transform="translate(24.836 0)" fill="#fcfcfc"/>
            <path id="Path_8825" data-name="Path 8825" d="M10.587.141,12.917.75a1.655,1.655,0,0,1,1.2,2.145,1.655,1.655,0,0,1-1.553,1.317l.849,1.8L11.87,5.6l-.824-1.751-.07-.017L10.6,5.271,9.332,4.94Zm1.681,2.82a.491.491,0,0,0,.58-.4.493.493,0,0,0-.311-.633l-.994-.257L11.274,2.7Z" transform="translate(29.305 0.442)" fill="#fcfcfc"/>
            <path id="Path_8826" data-name="Path 8826" d="M14.193.726l1.652.807-.683,5.175-1.271-.621.12-.886-1.59-.774-.625.638L10.525,4.44Zm0,3.3.24-1.536-.124-.062-1.068,1.13Z" transform="translate(33.051 2.279)" fill="#fcfcfc"/>
            <path id="Path_8827" data-name="Path 8827" d="M14.841,1.37l2.782,2.087-.725.965-1.731-1.3-.468.625,1.561,1.172-.683.907L14.017,4.657,12.911,6.131l-1.047-.787Z" transform="translate(37.256 4.302)" fill="#fcfcfc"/>
            <path id="Path_8828" data-name="Path 8828" d="M15.62,4.008l-.9-.952.923-.874,2.7,2.849-.923.878-.9-.952-2.67,2.53-.9-.948Z" transform="translate(40.666 6.851)" fill="#fcfcfc"/>
            <path id="Path_8829" data-name="Path 8829" d="M17.679,3.267,19.6,6.149l-1,.667-1.2-1.793-.588.389,1.118,1.677L17,7.714,15.878,6.041l-.588.389,1.2,1.793-1,.667L13.568,6.012Z" transform="translate(42.607 10.259)" fill="#fcfcfc"/>
            <path id="Path_8830" data-name="Path 8830" d="M18.773,4.473,19.505,6.2a2.48,2.48,0,0,1-4.563,1.942L14.21,6.411Zm-2.641,3.2a1.208,1.208,0,0,0,2.215-.94l-.236-.555-2.215.94Z" transform="translate(44.623 14.046)" fill="#fcfcfc"/>
            <path id="Path_8831" data-name="Path 8831" d="M19.757,6.632l.3,2.492a1.346,1.346,0,0,1-1.192,1.64,1.328,1.328,0,0,1-1.118-.4l-.033,0a1.355,1.355,0,0,1-2.563-.584l-.311-2.563ZM16.242,9.406a.391.391,0,1,0,.774-.091L16.892,8.3l-.774.091Zm1.888-.3a.391.391,0,1,0,.774-.091l-.116-.948-.774.091Z" transform="translate(46.595 20.826)" fill="#fcfcfc"/>
            <path id="Path_8832" data-name="Path 8832" d="M16.519,9.581l3.536-1.59L19.964,9.44l-1.892.8-.008.141,1.78,1.031-.091,1.449-3.316-1.979-1.515-.1L15,9.486Z" transform="translate(46.856 25.093)" fill="#fcfcfc"/>
          </g>
        </g>
      </g>
    </g>
  </g>
</svg>
